<svg xmlns="http://www.w3.org/2000/svg" viewBox="0 0 467.6 609"><defs><style>.cls-1{fill:none;stroke:#000;stroke-linecap:round;stroke-linejoin:round;stroke-width:2px;}</style></defs><g id="Layer_2" data-name="Layer 2"><g id="Layer_1-2" data-name="Layer 1"><path d="M289.1,608.5c-4.51-8.42-9.16-16.76-13.48-25.28-3.6-7.09-6.87-14.35-10.11-21.62-.57-1.29-.28-3-.39-4.44a37,37,0,0,1,3.52,1.88c8.07,5.44,17.1,4.21,26,3.62,7.75-.5,15.8-2.58,21.1,5.77a2.36,2.36,0,0,0,1.11.75c3.13-3.44,7.71-6.47,8.95-10.52,2.07-6.77,2.16-14.18,2.71-21.35.1-1.25-1.62-2.65-2.49-4a24.13,24.13,0,0,0-1.48,4c-2.36,12.39-7.72,17-19.95,16.35-12.93-.67-25.88-1.39-38.75-2.77-3-.32-6.17-3-8.45-5.32-2-2.06-2.72-5.3-4.24-7.87-3.61-6.09-7.15-11.1-16.13-10.19a46.88,46.88,0,0,1-33.33-9.4c-2-1.52-4.83-3.12-7.18-3-10.79.56-20.06-3.24-28.93-8.77a7.26,7.26,0,0,0-3.4-.5c-18.49-.36-37-.64-55.45-1.07-5.64-.14-11.29-1.06-16.92-.92-6.26.15-12.55.67-13.34,9.39-.32,3.48-2.12,6.85-3.34,10.23-.19.5-1,1.21-1.39,1.11a3.91,3.91,0,0,1-2.27-1.42c-2.76-5.1-4.85-4-8.86-.54-6.28,5.42-13.15,11.57-20.79,13.63-9.37,2.54-17.34-4.41-22.75-11.67-4.45-6-6.78-13.5-10.18-20.26a33.61,33.61,0,0,0-3.34-4.62c-.36,1.66-1,3.32-1,5,.12,15.18,1.93,30.54.11,45.47-1.56,12.8-1,24.76,2.9,36.73,1.63,5,4.18,9.7,6.33,14.53,1.06,2.37,2.17,4.71,3.26,7.07h-3C2.44,591.49-1.66,572.89.59,552.3c1.33-12.11.19-24.47.53-36.71.62-22.15-3.26-44.84,5.27-66.12,3.22-8,9.87-14.68,14.71-22.12a15.07,15.07,0,0,0,2.55-7c.86-15.52-.47-31.46,2.65-46.48,2.91-14,10.5-27.08,15.92-40.61,1.08-2.7,2.37-5.59,2.42-8.41.51-29.31.8-58.62,1.1-87.93.16-14.69,5.25-20.09,20-19.67,40.77,1.14,81.53,2.6,122.3,4,4.16.14,7.05,1,3.81-5.41-2.44-4.81-.61-11.62-2.38-17-2.58-7.82-6.66-15.14-10.17-22.65-.54-1.16-2.22-2.3-2-3.21,1-5.67,1.08-10.56-3.21-15.54-3.42-4-5.11-9.5-7.4-14.41-.91-1.93-2-4.11-1.93-6.12.31-5.59,1.22-11.15,1.89-16.72l.77.63c.63,6.35,0,13.18,2.27,18.88,1.87,4.73,7.47,7.87,10.75,12.21,1.73,2.29,2.47,5.61,2.84,8.57.27,2.14-.88,4.44-1.23,6.7-.28,1.76-.3,3.55-.43,5.33a28.36,28.36,0,0,1,3.08-2.73,9.14,9.14,0,0,1,2.57-.76,9.58,9.58,0,0,1,.49,2.78c-.89,7-.68,13.18,6.06,18,2.07,1.48,2.7,6.3,2.43,9.46-.66,7.67-2.59,15.32,4.95,21,.61.46.63,1.7.92,2.58a18.47,18.47,0,0,1-4.19.94c-22.65-.24-45.3-.41-67.94-.91-21-.46-41.92-1.45-62.88-1.91-14-.31-20.55,8.57-17.85,22.6.72,3.75-.63,7.86-.68,11.8-.27,25.13-.74,50.26-.49,75.39.08,8.16,2.15,16.31,3.21,24.47a7.69,7.69,0,0,1-.66,2.67,13.6,13.6,0,0,1-1.38-2.95c-.41-2-.54-4.06-.79-6.09a51.47,51.47,0,0,0-.66,6.51c.19,10.72.55,21.43.72,32.15,0,1-.94,2-1.44,3a10.25,10.25,0,0,1-1-2.88c-.13-3.5,0-7-.07-10.49a18,18,0,0,0-.23-1.94,12.42,12.42,0,0,0-.27,1.8c0,7.33,0,14.67.07,22,0,.37,1.15.67,1.67,1.12s.93.89.91,1.33c-.64,16.09-1.39,32.16-2,48.25-.4,10.63-.72,21.27-.88,31.91-.25,16.29,2.07,18.91,18.31,19.39,34.88,1,69.79,1.51,104.66,2.78,15.26.56,30.5,2.23,45.67,4,3.89.45,7.48,3.32,11.27,4.91a6.74,6.74,0,0,0,3.17.2,18.7,18.7,0,0,0,.36-5.42c-.08-.66-1.4-1.17-2.15-1.75a13.08,13.08,0,0,1,2.87-.8c9.93-.45,20.12-2.62,29.22,3.36,2.21,1.45,3.86,3.84,5.52,6,.31.4-.77,2.53-.89,2.5-1.9-.42-4.59-.5-5.46-1.78-4.31-6.37-10.29-9.25-17.54-7.91-2.84.52-5.16,3.89-7.72,6,2.51,2,5.2,5.75,7.52,5.53,7.74-.72,13.57,2.69,19.43,6.61a28.31,28.31,0,0,1,3.19,2.92,33.34,33.34,0,0,1-4.61-.77c-2.05-.65-4-1.78-6-2.33-1.16-.31-2.53.11-3.81.2.81,1.19,1.39,2.67,2.46,3.53,5.6,4.5,11.36,8.8,17,13.3.85.68,1.16,2,1.71,3.09a23.71,23.71,0,0,1-3-1.32c-1.27-.78-2.37-1.85-3.66-2.59a38.68,38.68,0,0,0-4.06-1.78c-.11.41-.46,1-.3,1.19,1.18,1.29,2.3,3.31,3.75,3.6q16.43,3.38,33,6.07c4.24.69,8.63.49,12.94.79,7.05.49,13.13-6.53,13.62-16.54.21-4.24,1-6.82,5.87-7.48,2.75-.38,5.48-2.36,1.58-5.6-2.17-1.8-3.82-4.27-6.11-5.86-1.93-1.35-5.66-8.49-6,1,0,.43-.44.85-.67,1.27a7.78,7.78,0,0,1-1.42-1.64c-2.88-6.37-8.25-8.62-14.65-8-2.06.2-3.88,2.8-5.81,4.3,1.45,1.71,2.59,4,4.43,5,2.09,1.14,4.91.86,7.2,1.75,1.86.73,4.11,1.93,4.9,3.55s-.15,3.88-.6,5.8a4.31,4.31,0,0,1-2.55.23c-2.74-7.36-11.09-3.71-15.33-7.91-1.07-1.06-2.57-2.45-2.57-3.68,0-11.33.1-11.67,11.28-11,10.93.69,21.83,2,32.7,3.4,1.93.25,3.68,2.27,5.36,3.65.23.19-.4,1.42-.63,2.17-2-.62-4.08-1.09-6-1.9-2.9-1.23-5.68-2.74-8.56-4-.51-.23-1.23,0-1.86.05a6.71,6.71,0,0,0,.54,1.78c7,10.87,17.79,15.06,30.34,11.81,5-1.29,10-2.53,14.95-3.9a9.37,9.37,0,0,0,2.43-1.58,10,10,0,0,0-2.48-.88c-5.28-.39-10.57-.65-15.86-1.06-.75-.06-1.45-.75-2.17-1.15.67-.39,1.34-1.14,2-1.12,8,.21,16.09.15,24.06.93,8.22.81,16.45,3.69,23.07-4.46.9-1.12,4.55.05,6.92.06,11.32.05,22.65.19,34,.05,5.32-.07,8.16-3.39,8.84-8.45.66-4.9,1-9.85,1.54-14.76.07-.63.73-1.74,1-1.7,3,.51,1.32-1.82,1.37-2.57,1.4-21.36,2.76-42.73,3.94-64.11.86-15.57,1.35-31.16,2.19-46.74q2.75-50.34,5.69-100.67c.43-7.48,1-15,1.55-22.42a10.54,10.54,0,0,1,.49-1.85,6.16,6.16,0,0,1,.73,2c-.78,20.12-1.25,40.26-2.49,60.35-2.22,36-4,72-.75,108.07,1.17,13.11,0,26.64-1.73,39.77-2.9,22-5.66,44.22-11.24,65.62C446.5,540,438.11,556.39,431,573a16.59,16.59,0,0,1-7.19,8c-6.73,3.25-7.5,9.08-8.34,15.14-.57,4.1-.93,8.23-1.38,12.34h-3c.22-4.48-.33-9.17.86-13.37a57.13,57.13,0,0,1,6.92-15.26c2.86-4.41,7.56-7.63,10.43-12,2.76-4.24,4.37-9.28,6.18-14.08q7.56-20,14.74-40.14c.24-.68-1.5-3-2.3-3-11.39.18-22.78.82-34.18.92-4.52,0-8.42-.46-10.13,5.33-.53,1.81-4,3.63-6.29,3.89-11.47,1.29-23,1.87-34.5,3.08-5.89.62-11.7,2-17.55,3.1-3.64.65-7.3,1.27-10.95,1.9,2.4,2.71,4.71,5.5,7.23,8.09a40.93,40.93,0,0,0,6,5.19c9.76,6.68,16.49,15.36,18.34,27.3,2.53,16.31-.32,33.53-20.72,37.46a12.13,12.13,0,0,0-3.06,1.6h-4c1.65-1.06,3.16-2.61,5-3.1,21.73-5.85,24.57-29.3,16.23-43.2-6.78-11.29-18-19.91-27.23-29.71a3.05,3.05,0,0,0-.85-.41,8.77,8.77,0,0,0,.16,1.79c3.12,10.36.71,20.49-3.65,29.48-2.5,5.17-8.43,10.75-13.78,12-10.22,2.39-21.13,2.36-31.74,2.25-5.35-.06-5.4,1.64-3.61,5.18,4.38,8.63,9,17.15,13.51,25.72ZM41.68,433.08h1a45.1,45.1,0,0,0-.11-7c-.18-1.09-2-3-2.26-2.85-7,3.2-15,5.34-20.48,10.29C7,445.21,5.74,461.76,4.05,478c-1.06,10.18,1.5,17.72,11.09,22.3,1.12.53,1.68,2.24,2.5,3.4a27.29,27.29,0,0,0-3.3.42c-.39.1-1,.91-.89,1.15C17,514,19.5,523.56,28.86,528.19c3.86,1.91,8.7,4.48,12.34,3.6,5.77-1.39,11.09-5.14,16.21-8.49,1.83-1.2,2.51-4.15,3.72-6.3-3.12-1-6.18-2.49-9.38-2.89-2.48-.31-5.11.78-7.7,1.09-.54.07-1.19-.51-1.71-.9-.09-.06.16-.93.4-1,5.27-2,1.52-4-.28-5.19-8.93-6-18-11.85-27-17.78a47.12,47.12,0,0,1-3.75-3.05,42.78,42.78,0,0,1,5,1.09c13.74,4.58,22.7,19,38.72,18.92,2.3,0,4.61-.13,6.91-.27.94-.05,1.86-.26,2.79-.4a8.48,8.48,0,0,1-.43,1.63c-.84,1.7-1.74,3.37-2.62,5,3.27,1,6.73,3,9.74,2.45,1.68-.29,2.85-4.74,3.75-7.49.26-.8-1.12-3.06-1.9-3.14-6-.63-12.1-.93-18.16-1.26-8-.43-13.56-5-13.72-12.93C41.42,471.64,41.68,452.36,41.68,433.08Zm.06-69.48h1c0-5.5,0-11,0-16.49,0-1.92-.35-3.84-.54-5.76A46.62,46.62,0,0,0,39,346.74c-6.7,15.62-11.29,31.66-10.66,48.95.28,7.94-.61,15.92-.86,23.89,0,1.21.13,3,.9,3.56,2.26,1.58,13.32-5.25,13.33-8.11Q41.78,389.32,41.74,363.6ZM293.35,574.07l0,.39c4.79-.34,9.59-.59,14.37-1.07A25.77,25.77,0,0,0,312.5,572c-1.82-2-3.41-4.35-5.58-5.89-1.09-.78-3.22-.23-4.87-.1q-10.91.84-21.79,1.83c-1.83.17-3.63.62-5.44.95,1.87,1.75,3.52,4.62,5.65,5C284.62,574.64,289,574.07,293.35,574.07ZM209,511.17l-5.75.75c.3.53.47,1.33.92,1.56,6.23,3.24,12.21,7.45,18.84,9.26,5.55,1.51,11.87.21,17.84.15.6,0,1.2,0,1.8-.07A8.66,8.66,0,0,0,241,522c-6.06-1.58-12.25-2.79-18.17-4.78C217.57,515.4,212.62,512.77,209,511.17Zm252.78-86-1-.1c0-4.65,0-9.3,0-14,0-.67,0-1.33-.06-2a16.32,16.32,0,0,0-.33,1.83q-2,31-3.89,62c0,.65,0,1.31.05,2,.1-.64.22-1.28.29-1.93ZM186.87,508.34l-4,1.45a20.62,20.62,0,0,0,4.1,1.49c2.94.44,5.92.61,8.89.8a5.59,5.59,0,0,0,1.77-.56c-.23-.2-.44-.51-.7-.58C193.53,510,190.13,509.18,186.87,508.34Z"/><path d="M220.06,95.46c3.74-6.88,9.36-10.12,17.34-10.34,11.51-.31,23-2,34.5-1.82,5,.06,9.87,3.22,14.85,4.85,2,.66,4.24.82,6.26,1.5,2.81.94,5.54,2.14,8.29,3.27,1.73.71,3.38,1.65,5.16,2.19,4,1.22,7.79,2.38,6,7.9l-.72.86c-5.23-3.76-10.44-7.57-15.75-11.23-.68-.47-1.87-.25-2.83-.29-6.32-.27-12.51-.48-17.95-4.77-1.3-1-4.52.41-6.86.64a9.27,9.27,0,0,1-2.58,0c-14.46-2.59-28.65-3.33-41.57,5.61a22,22,0,0,1-4.06,1.76Z"/><path d="M224.44,9c-4,1.3-7.84,3.17-11.91,3.72-3.67.51-7,.08-7.33,5.19-.07,1.05-2.23,1.87-3.21,3a17,17,0,0,0-2.66,3.87c-2.28,4.83-4.18,9.85-6.69,14.55s-6.59,8.46-6.18,14.63c.25,3.81-1,7.75-1.83,11.58-.14.64-1.53,1-2.35,1.51a7.92,7.92,0,0,1-.59-2.6c1.58-11.27-1.2-23.85,9.73-32.35a4,4,0,0,0,1.18-3.54c-2.54-6.26,2.09-7.65,6-10.25,3-2,4.61-6,7.59-7.9,2.55-1.65,6.13-1.94,9.31-2.33a57.74,57.74,0,0,1,8.31.12Z"/><path d="M328.21,142.4c5.05,5.29,5.65,11.59,4.56,18.47-1,6.36-1.6,12.78-2.23,19.19-.08.72.76,1.52,1.18,2.29a13.29,13.29,0,0,0,1-2c1.28-4.26,1.92-8.93,8.13-8.9.92,0,1.86-2.07,2.79-3.19,2-2.36,3.79-4.86,5.95-7,.7-.69,2.27-.52,3.43-.74a17.21,17.21,0,0,1-1.21,3.36c-3.87,6.3-7.82,12.54-11.75,18.81-.33.52-.67,1-1,1.56l-1.63-2.51a25.55,25.55,0,0,1-1,3.28,8.7,8.7,0,0,1-1.9,2.89,30.6,30.6,0,0,1-4,2.6c-.58-1.38-1.73-2.77-1.66-4.11.39-8.1,1.54-16.19,1.47-24.28-.06-6.5-1.5-13-2.32-19.5Z"/><path d="M328,142.56c-1.05-6.66-2.66-13.3-3-20-.28-5.93-2.6-9.77-7.5-12.8-2.28-1.41-3.89-3.89-5.8-5.89.23-.29.47-.57.71-.86,5.29,1.76,10.61,3.43,15.82,5.38.69.26,1.23,2,1.19,3-.34,10.35-.81,20.7-1.25,31Z"/><path d="M348.61,59.14c8.56,1,10.71,4,10.05,12-.54,6.64-.18,13.35-.25,20-.08,8.43-.15,16.85-.36,25.28,0,1.4-.8,2.78-1.22,4.18-.38-1.11-1.09-2.22-1.1-3.33-.11-8.57,0-17.15-.14-25.72-.09-7.7-1.08-15.46-.33-23.06.65-6.5-5.68-5.22-7.52-8.57Z"/><path d="M258.33,6.2c2.49-1.59,4.82-4,7.52-4.54a13,13,0,0,1,8.57,1.49c5.67,3.47,10.95,7.37,18.16,5.16.7-.22,1.59.22,2.39.35-.83,1.06-1.44,2.5-2.53,3.11-1.47.82-3.53,1.77-4.94,1.35-5.33-1.6-10.39-4.17-15.76-5.48-2.54-.61-5.57,1.2-8.38,1.21-1.86,0-3.73-1.24-5.6-1.92Z"/><path d="M329.52,22.15c7.18.68,15.56,9,15,14.91l-.87.8c-4-3.62-8.14-7.17-12.08-10.89a22.5,22.5,0,0,1-2.76-4Z"/><path d="M347.74,60l-3.51-1.35c2.37-3.82,1.31-7-.62-11-1.3-2.64-.1-6.51,0-9.83l.87-.8c1.93,3.3,3.89,6.6,5.79,9.92a18.1,18.1,0,0,1,2.18,4.38c.22.91-.48,2.15-1,3.12-.84,1.6-1.88,3.11-2.83,4.66Z"/><path d="M328.76,23c-9.67.87-17.33-4.46-25.46-8.32a1.68,1.68,0,0,1,.14-1.43c.5-.36,1.47-.73,1.86-.49,7.46,4.72,17.88,1.87,24.22,9.44Z"/><path d="M339.54,198.73c-4,7-7.84,13.72-11.77,20.41-.19.32-1.13.19-1.72.27-.07-.77-.46-1.73-.15-2.3q5.07-9.37,10.39-18.63a3.19,3.19,0,0,1,2-1.06C338.61,197.37,339.06,198.19,339.54,198.73Z"/><path d="M167.68,90.87c2.12-5.42,4.7-12.1,7.37-18.76.19-.46,1-.67,1.51-1,.19.9.77,1.93.51,2.68-1.29,3.71-3.16,7.25-4.15,11s-1.16,7.86-1.79,11.79a24,24,0,0,1-1.15,3.51c-.35-1.1-.74-2.18-1-3.29C168.61,95.4,168.34,93.94,167.68,90.87Z"/><path d="M223.81,8.17c4.45-2.07,8.82-4.37,13.43-6C238.19,1.83,240,4,241.46,5l-.77.84c-3.07.88-6.11,1.92-9.24,2.56a54.31,54.31,0,0,1-7,.56Z"/><path d="M257.76,6.93c-2.6.36-5.23,1.17-7.78,1-3.13-.24-6.19-1.32-9.29-2l.77-.84c5.7-.68,11.6-4.22,16.87,1.18Z"/><path d="M353.54,136.16c1,5.76,2,11.5,2.92,17.27.07.46-1.11,1.11-1.7,1.67-.62-1.32-1.7-2.62-1.78-4-.27-4.73-.19-9.47-.24-14.21C353,136.67,353.28,136.42,353.54,136.16Z"/><path d="M220.13,95.55c-3.78,2.45-7.52,5-11.38,7.3-.62.37-1.76-.12-2.67-.22a20.41,20.41,0,0,1,2.12-1.4c3.94-2,7.91-3.85,11.86-5.77Z"/><path d="M377.4,511l-11.92-1c4.1-.29,8.19-.82,12.28-.79,4.32,0,8.63.59,12.95.92Z"/><path d="M352.74,136.92c-5-4.46-1.09-7.83,1.46-11.3.19-.27,1.06,0,1.61,0a17.29,17.29,0,0,1-.23,2.27c-.65,2.78-1.35,5.54-2,8.31C353.28,136.42,353,136.67,352.74,136.92Z"/><path d="M166.62,120.15c.07-3.64.1-7.28.23-10.92a8.16,8.16,0,0,1,.71-2.16c.44.63,1.3,1.31,1.25,1.9-.36,4-.93,7.88-1.42,11.81Z"/><path d="M18.49,470.55c2.21,2,4.75,3.68,6.59,5.94,5.43,6.66,10.62,13.52,15.8,20.37a28.42,28.42,0,0,1,2.3,4.5c-1.39-1-3-1.77-4.12-3-6.86-8.09-13.6-16.27-20.33-24.47a11.51,11.51,0,0,1-1.22-2.76Z"/><path d="M14.57,469.72c-1.88,2.07-3.58,4-5.37,5.77,0,0-1.7-1.22-1.6-1.45.67-1.59,1.28-3.58,2.57-4.42C11.23,468.92,13.21,469.64,14.57,469.72Z"/><path class="cls-1" d="M45.1,338c-.33,12.33-.81,24.66-1,37-.17,14.17,0,28.33-.15,42.5,0,1.18-1.38,3.16-2.41,3.38C21,425.28,8.55,438,5.34,458.54c-1.84,11.79-1.2,24-1.77,36-.12,2.51-.95,5-.92,7.5.23,16,.79,32,.88,48,.05,8.5-1.83,17.18-.63,25.46,1.66,11.44,4.84,22.8,12.7,32"/><path class="cls-1" d="M466.6,245c-1.83,33.33-3.91,66.66-5.4,100-.75,16.81,0,33.68-.72,50.49-.56,13.7-2.33,27.33-3.35,41-1,13.16-1.75,26.33-2.5,39.5-.33,5.66-.36,11.33-.53,17"/><path class="cls-1" d="M452.1,507.5c-1.5,7-2.1,14.35-4.68,20.93-6.1,15.55-13.1,30.76-19.89,46a9.5,9.5,0,0,1-4,4.43c-8.8,4.33-9.94,12.1-10,20.6a78.92,78.92,0,0,1-.95,8.5"/><path class="cls-1" d="M49.6,247c-.5-5.33-2.54-11.1-1.19-15.91,3.16-11.33,5.2-12.35,17.19-12,41.67,1,83.33,2.3,125,3.4,2,.05,4-.62,6-.95"/><path class="cls-1" d="M50.6,339c-5.35-3.46-9.69-2.36-11.92,3.53-4.27,11.23-8.6,22.49-11.84,34-1.43,5.1-.19,10.93-.25,16.43-.13,11.17-.32,22.33-.49,33.5"/><path class="cls-1" d="M374.1,518.75c-11.67,2.42-23.26,5.68-35,6.75-3.71.34-8.79-4.48-11.8-8.13-8-9.74-18.71-10.16-29.65-9.6-1.93.1-4.71,3.52-5.17,5.8-.36,1.74,1.85,5,3.76,6,4.54,2.32,9.57,3.68,14.4,5.43"/><path class="cls-1" d="M44.1,421c0,11.17.07,22.33,0,33.5C44,467,43,479.57,44.09,492c.32,3.61,6.35,9.37,10,9.6,22.28,1.38,44.64,1.47,67,1.87,1.33,0,2.67-.93,4-1.43"/><path class="cls-1" d="M461.1,405c.5,10.5,1.75,21,1.31,31.49-.54,13-2.45,26-3.86,39A13.52,13.52,0,0,1,457.1,479"/><path class="cls-1" d="M48.1,248c-.5,14.17-1.12,28.33-1.46,42.5-.33,13.66-.32,27.33-.6,41,0,1.67-.94,3.33-1.44,5"/><path class="cls-1" d="M319.6,567.5c10.87-2.44,9-12.44,10.62-19.59C331.36,543,329,537.31,328,532c-.19-1-1.58-1.69-2.41-2.52a15.6,15.6,0,0,0-1.94,3.51c-.84,3.3-.81,6.92-2.18,9.94-3.11,6.85-7.77,10.62-16.41,9.26-12.54-2-25.32-2.37-38-3.78-6.59-.73-10.58-4.31-11.76-11.39-.41-2.43-4.11-4.15-5.65-6.6s-2.43-5.61-3.6-8.44c2.83.5,5.79.65,8.47,1.59,3.14,1.11,6,2.91,9,4.41"/><path class="cls-1" d="M230.1,517c-2.5-.83-5-1.64-7.5-2.51-5.67-2-11.19-4.82-17-5.79-8.54-1.43-17.3-1.53-26-2.2"/><path class="cls-1" d="M172.1,506q-20.5-1-41-2c-1.84-.09-3.67-.32-5.5-.49"/><path class="cls-1" d="M331.1,529c6.5,6,12.5,12.69,19.6,17.86,16,11.67,18.24,40.12,8.64,49.37-5.55,5.34-13.74,7.94-20.74,11.77"/><path class="cls-1" d="M4.6,497c2,2,5.11,3.67,5.82,6.05,4.28,14.32,11,26.4,26.23,31.29,2.12.68,5.23-.31,7.4-1.44,7.57-3.92,16.35-6.41,20-15.4"/><path class="cls-1" d="M448.1,508.5c-10.94,6.14-22.69,1.37-34,2.48-3.32.32-6.67.35-10,.52"/><path class="cls-1" d="M316.1,572.5c-4.36-9.58-12.54-8.78-21-8.1-7.63.62-15.32.43-23,.6"/><path class="cls-1" d="M329.6,145c5.44,11-.59,22,0,33,.11,2,.32,4,.49,6"/><path class="cls-1" d="M318.6,567c2.22,5.47-2.22,7.13-5.51,7.3-12.31.66-24.66.53-37,.7"/><path class="cls-1" d="M17.6,470l26,32"/><path class="cls-1" d="M176.1,71c-1,3-2.32,5.94-2.93,9-1.38,7-2.4,14-3.57,21"/><path class="cls-1" d="M392.6,510h-29"/><path class="cls-1" d="M167.6,106c-.33,8.17,0,16.43-1.19,24.47-1.15,7.82,1.52,13.33,7.19,18"/><path class="cls-1" d="M10.6,487c12.33,7.67,24.4,15.83,37.17,22.68,3.56,1.91,9.37,3.91,13.91-.61,1.17-1.16,3.25-1.4,4.92-2.07"/><path class="cls-1" d="M178.1,507.5c4,1.83,7.86,4.15,12.05,5.35,3.27.93,6.95.48,10.45.65"/><path class="cls-1" d="M260.6,514c-3.77-6.34-20.17-11.83-25.82-7.75-2.57,1.86-4.49,6.55-4.17,9.7.18,1.78,5.42,3.23,8.52,4.49A41.82,41.82,0,0,0,245.6,522"/><path class="cls-1" d="M265.6,86c-.33-.67-.74-1.94-1-1.91-11.84,1.4-23.83,2.19-35.44,4.71-5.88,1.28-11.09,5.67-16.55,8.74-.66.37-1,1.29-1.52,2l4.5,1.5"/><path class="cls-1" d="M245.1,525.5c-10.9,1-22,1.67-31.86-3.75-5.06-2.8-12.83-4.23-12.64-12.75"/><path class="cls-1" d="M310.1,99.5c-1.67-.83-3.29-1.77-5-2.47s-4.59-.73-4.79-1.58c-1.87-7.86-7.66-3-11.65-4.13-4.39-1.2-8.25-4.22-12.59-5.68-3.1-1-6.63-.81-10-1.14"/><path class="cls-1" d="M186.6,170c-3.84,6.28-2.31,14.15,4,20.5"/><path class="cls-1" d="M192.85,200.5c1.87,5.87-2.78,13.12,3.76,18,1.93,1.44,4,2.69,6,4"/><path class="cls-1" d="M288.6,11.5c-15-8.38-31-6.13-47-5"/><path class="cls-1" d="M338.1,198.5l-11.5,20"/><path class="cls-1" d="M356.6,64c-.5,10.67-1.46,21.34-1.35,32,.09,8.34,1.52,16.67,2.35,25"/><path class="cls-1" d="M265.6,558c8.64,9.52,9.67,22.34,14.66,33.43,2.59,5.74,6.84,10.74,10.34,16.07"/><path class="cls-1" d="M326.6,111.5c.33,6.17.57,12.34,1,18.5.35,4.68,1,9.33,1.47,14"/><path class="cls-1" d="M337.6,514l-17-5.5"/><path class="cls-1" d="M46.1,372l1.5,16"/><path class="cls-1" d="M78.6,504.5c-.5,3-.46,6.23-1.61,9-2.75,6.52-7.71,5.9-12.87,3-2.1-1.16-4-2.64-6-4"/><path class="cls-1" d="M374.1,516.5,358.6,514"/><path class="cls-1" d="M269.6,546l-13.5-9"/><path class="cls-1" d="M337.6,176.5l-7,12.5"/><path class="cls-1" d="M185.1,50q-1,6-2,12"/><path class="cls-1" d="M238.6,1c-.17,1,0,2.64-.55,2.89-2.89,1.39-6,2.44-9,3.61"/><path class="cls-1" d="M316.6,23c-.5-1.5-.6-3.93-1.57-4.34-4.34-1.87-8.93-3.16-13.43-4.66"/><path class="cls-1" d="M178.1,156.75c.5,3.92,1.47,7.85,1.36,11.75-.1,3.42-1.5,6.86,3.64,7.5"/><path class="cls-1" d="M345.1,38a113.34,113.34,0,0,0,2.15,12c.36,1.27,2.52,2,3.85,3"/><path class="cls-1" d="M15.1,470.5c-5.52-2.22-5.35,2.79-7,5.5"/><path class="cls-1" d="M351.6,164v-2l-4,4-9,9"/><path class="cls-1" d="M49.1,347a53.92,53.92,0,0,0,1.08,7c.41,1.45,1.59,2.69,2.42,4"/><path class="cls-1" d="M314.6,510.5c.33,2.83.67,5.67,1,8.5"/><path class="cls-1" d="M232.6,506.5l-8-.5"/><path class="cls-1" d="M195.1,27c-2.17,4-4.69,7.86-6.36,12.06-.94,2.35-.47,5.27-.64,7.94"/><path class="cls-1" d="M354.6,124l-3,10.5"/><path class="cls-1" d="M338.6,173q.25,6,.5,12"/><path class="cls-1" d="M353.1,136.5l1.5,16.5"/><path class="cls-1" d="M357.6,514.5l-7.5,1.5"/><path class="cls-1" d="M450.6,484l2.5,8.5"/><path class="cls-1" d="M295.6,9l-7.5,5"/><path class="cls-1" d="M48.6,399l-3.5,5.5"/><path class="cls-1" d="M315.1,105.5l10,6.5"/><path class="cls-1" d="M318.1,18.5l10.5,3"/><path class="cls-1" d="M329.6,23.5l4.5,3.5"/><path class="cls-1" d="M211.6,101.5l-6,1"/><path class="cls-1" d="M311.6,100l2,4.5"/><path class="cls-1" d="M356.1,63l-5.5-2"/><path class="cls-1" d="M186.6,44l-3,4,5,1"/><path class="cls-1" d="M6.6,492c.17,1.67.33,3.33.5,5"/><path class="cls-1" d="M208.6,9l-4.5,9"/><path class="cls-1" d="M209.6,10.5l11,.5"/><path class="cls-1" d="M41.6,513l8-1"/><path class="cls-1" d="M333.6,525.5l-5.5,5"/><path class="cls-1" d="M308.1,524.5c.33,1.17.67,2.33,1,3.5"/><path class="cls-1" d="M293.1,508h-3.5"/><path class="cls-1" d="M181.6,62.5V67"/><path class="cls-1" d="M311.6,528l-5,1"/><path class="cls-1" d="M342.6,30l-.75,5.5"/><path class="cls-1" d="M349.6,60.5l-1.5-1"/><path d="M197.11,108.9c.75-.91,1.47-1.86,2.29-2.7a2,2,0,0,1,2.53.55c.12.27-.06.66-.11,1-.3-.09-.77-.09-.88-.29-.38-.72-.69-.59-1.14-.07-1,1.18-1.48,4.94-.61,6.25a6.56,6.56,0,0,0,1.4,1.2,6.25,6.25,0,0,0,.6.4c-.2.16-.39.32-.6.46a4.08,4.08,0,0,0-1.09.73,2.58,2.58,0,0,0-.5,1.38c0,.15.73.27,1.07.49a2.73,2.73,0,0,1,1.05.93,3.2,3.2,0,0,1,.2,1.63,26,26,0,0,1-.8,4.69,4.17,4.17,0,0,1-1.84,2.06,6.74,6.74,0,0,0-3.35,3.93,22.46,22.46,0,0,0-1.39,3.54c-.06.31-.6.66-1,.77a6.49,6.49,0,0,1-1.87.25c-1.72,0-1.94.2-1.78,1.9a6.56,6.56,0,0,0,.28,1.3c.15.49,0,1.8,1,.4.07-.09.25-.09.38-.13a3,3,0,0,1,.05.42c-.07,1.69-.14,3.38-.23,5.08a3.42,3.42,0,0,1-.17,1.2c-1,2.23-.8,4.57-.75,6.9a24.07,24.07,0,0,1-1.38,8.51,19,19,0,0,0-.64,5.24c-.08,1.63.08,3.27.1,4.9a2.39,2.39,0,0,1-.26.78,2.65,2.65,0,0,1-.51-.67c-.39-1.08-.71-2.19-1.12-3.26a2.24,2.24,0,0,0-2-1.67c-1-.06-1.58.62-2.1,1.39a4.66,4.66,0,0,0-.66,4c.28,1.08.38,2.2.67,3.27s.65,1.8,1,2.7.78,2,1.14,3c0,.14-.05.34-.09.51a3.91,3.91,0,0,1-.44-.26,5.56,5.56,0,0,1-2.47-4.18,2.88,2.88,0,0,0-1.92-2.51,6.23,6.23,0,0,1-1.75-1,4.23,4.23,0,0,1-1.43-1.89,7,7,0,0,1,1.36-6.26,3.79,3.79,0,0,0-1.19-5.94,14.63,14.63,0,0,1-1.29-.94,8.9,8.9,0,0,1,1.67-.26c.37,0,.72.31,1.09.43a4.56,4.56,0,0,0,1.54.37,1.21,1.21,0,0,0,.82-.73c.07-.18-.3-.62-.56-.8-1.87-1.25-2.15-2.18-1.21-4.1.61-1.26.41-2.05-.64-2.51-1.5-.66-3-.32-3.31.92-.41,1.71-.56,3.48-.82,5.22,0,.14,0,.28-.08.42-.14-.1-.38-.17-.4-.28a6.65,6.65,0,0,1-.1-1.54c.08-.81.24-1.62.4-2.42a2.21,2.21,0,0,0-.5-2.16,2,2,0,0,1-.17-2.31c.62-1.63.38-2.11-1.19-2.88a12,12,0,0,1-1.67-1.21,8.77,8.77,0,0,1,2.08-.85c3.18-.37,6.36-.65,9.54-.91.69,0,.84-.27.89-.92.43-6.38,1.38-12.65,4.46-18.37a60.74,60.74,0,0,1,4.48-6.9c.36-.51,1.36-.56,2.06-.83.37-.14.73-.3,1.1-.45a4.63,4.63,0,0,0-.64-.91,1,1,0,0,1-.2-1.55c1.12-1.43,2.26-2.85,3.39-4.27v0l-.07,1.24c.23,0,.56,0,.66-.1a6.41,6.41,0,0,0,.62-1.12l-1-.26Zm2,7c-.28-.13-.49-.33-.67-.31a8.66,8.66,0,0,0-2.16.38,2.17,2.17,0,0,0-.95,1c-.07.13.42.77.51.74a29.43,29.43,0,0,0,2.73-1.11C198.75,116.48,198.86,116.18,199.09,115.86Zm-13,50.38a6.3,6.3,0,0,0-1.19-.8c-.14-.05-.41.26-.63.4a9.41,9.41,0,0,0,1,.88C185.43,166.77,185.71,166.51,186.14,166.24Z"/><path d="M294.42,166.92l-3.22-.25a2.17,2.17,0,0,0-.88,0,6.33,6.33,0,0,0-1.05.69c.33.18.65.38,1,.53a1.24,1.24,0,0,0,.54.1c6.35-.13,12.18,2.17,18.11,3.92a43.73,43.73,0,0,1,4.69,2c.78.33,1.59.61,2.38.93a5.67,5.67,0,0,1,.63.36,5,5,0,0,1-.59.46,3.68,3.68,0,0,1-.82.35c-2,.58-4,1.25-6,1.67a4.81,4.81,0,0,1-2.56-.42,1.5,1.5,0,0,1-.87-2.12c.38-.86,0-1.33-.74-1.69l-.1,0c-2.85-1-2.49-1.23-3.58,1.35-.89,2.14-1.3,2.28-3.6,1.93-.91-.14-1.85-.12-2.77-.18a14.43,14.43,0,0,1-2-.18c-2-.45-2.36-.92-2.62-2.92a4.76,4.76,0,0,0-.09-.66c-.17-.77,0-2-1-2a6,6,0,0,0-3,1c-.77.49-.43,1.61.52,2.46.34.31.65.66,1,1a5.91,5.91,0,0,1-1.49.16,8.07,8.07,0,0,1-4.11-1.71c-1-.83-1.6-1.38-1.49-2.71,0-.37.45-3.19,1.05-3.27,3-.41,5.64-2.43,8.63-1.88.15,0,5,.28,5.11.34a7.07,7.07,0,0,1,.61.4,3.65,3.65,0,0,1-.73.33,5.28,5.28,0,0,1-.89,0Zm4.64,7.16a3.72,3.72,0,0,0,.68-.91c.05-.12-.3-.37-.47-.55a6.38,6.38,0,0,0-.73.83C298.5,173.5,298.8,173.77,299.06,174.08Z"/><path d="M225,162.56c3.14.33,6.89.62,10.59,1.21,1.19.19,2.26,1.18,3.38,1.82.74.43,1.46.87,2.19,1.31.31.19.77.32.91.61a4.19,4.19,0,0,1,.71,2.16c-.05.34-1.21.72-1.87.74a38.09,38.09,0,0,1-4.12-.24c-.74,0-1.06-.29-.65-1.14A2.46,2.46,0,0,0,235,165.8c-1.52-.8-2.44-.47-2.8,1.2s-1.16,2.66-3,2.71c-1.48,0-2.95.26-4.43.28a4,4,0,0,1-4-2.67c-1-2.17-2.63-2.27-4.08-.35-.23.31-.6.7-.92.72-3.06.1-6.17.75-9.09-.78a11.34,11.34,0,0,1-1.65-1.11c-.07,0,.09-.59.19-.6,4.43-.73,8.87-1.48,13.31-2.11C220.5,162.81,222.44,162.76,225,162.56Zm5,4.9a3.64,3.64,0,0,0,.56-.9c0-.12-.34-.32-.53-.48a3.17,3.17,0,0,0-.53.72C229.5,166.92,229.79,167.14,230,167.46Z"/><path d="M330.23,183.77c.18.76.33,1.29.44,1.83.22,1.05-.19,1.6-1.25,1.59-.83,0-1.58,0-1.9.95,0,.11-.21.17-.31.25a1.4,1.4,0,0,1-.12-.5c.18-1.18.47-2.34.56-3.52a28.29,28.29,0,0,0,0-3.19c0-1.89-.15-3.78-.13-5.66,0-2.15.14-4.3.23-6.45,0-.22.08-.44.11-.66.06-.4.07-.63.57-.23.22.17.83,0,1.21-.19,2.17-.87,4.34-1.73,6.47-2.67s3.85.19,5.63.88c.87.34.83,2,.25,2.74a24.19,24.19,0,0,0-1.49,2.52c-.31.52-.64,1-1,1.54-.05.08-.27,0-.41,0a1.59,1.59,0,0,1,.07-.38c.38-1,.1-1.47-1-1.57a13,13,0,0,1-1.64-.26c-1.17-.27-1.89.06-2,1.24a5.56,5.56,0,0,1-1.75,3.43,6.89,6.89,0,0,0-1.16,2.94C331,180.26,330.64,182.1,330.23,183.77Z"/><path d="M315.76,157.35c-1.65-.32-3.29-.65-4.95-.94a2.48,2.48,0,0,0-1.33,0c-2,1.11-4.34.79-6.56.93-1.23.08-2.44.27-3.67.29-2.44.05-4.88,0-7.33,0-.46,0-1.05-.15-1.35,0-1.7,1-3.57.73-5.47.64a13.34,13.34,0,0,0-3.3.47c-1.06.22-1.63-.09-1.4-1a6.67,6.67,0,0,1,3.76-4.32,2.72,2.72,0,0,1,.88-.08,1.69,1.69,0,0,1,0,.71c-.32.62-.72,1.21-1.08,1.82-.08.14-.12.3-.19.45a1.81,1.81,0,0,0,.57,0q3-1.14,5.95-2.34c.14-.06.21-.25.31-.38a2.9,2.9,0,0,0-.57-.12c-.77,0-1.53.07-2.3.08-1,0-1.27-.45-.73-1.05a8.49,8.49,0,0,1,2.24-1.88c.4-.22,1.23.07,1.84.22.25.06.44.48.65.49a44,44,0,0,0,4.45-.08c3-.25,6-.77,9.08-.85a46.34,46.34,0,0,1,6.71.66,3.37,3.37,0,0,1,1,.5,5.85,5.85,0,0,1-1.23.16c-1.07-.07-2.14-.22-3.21-.31a1.51,1.51,0,0,0-.52.17,2,2,0,0,0,.44.29,23.19,23.19,0,0,1,7.66,3.84,10.5,10.5,0,0,0,2.17,1,3,3,0,0,1,.52.42,2.38,2.38,0,0,1-.66.2c-.76,0-1.53-.07-2.3-.11Z"/><path d="M245.68,153.84c-.09,1.72-2.27,2.61-4.17,1.61-2.82-1.48-6.18-1.78-9.45-2.19-2.74-.33-5.61-.22-8.41-.38a15.41,15.41,0,0,1-2.13-.53,20.87,20.87,0,0,0-2.39-.38c-4.08-.33-8.16-.61-12.23-1-.49,0-1.31-.63-1.23-.81.33-.7.73-1.71,1.53-1.92,3.53-.95,7.17-1.75,10.84-2.43a7.4,7.4,0,0,1,4.74.67,78.26,78.26,0,0,0,7.62,2.61c1.72.61,3.34,1.34,5,2a4.17,4.17,0,0,0,.76.12l-.12-.41c0-.15-.07-.31-.1-.46.2.06.5.07.59.17a8.68,8.68,0,0,1,1.36,1.61c.59,1.12,1.51,1.38,3.05.81A3.39,3.39,0,0,1,242,153a6.26,6.26,0,0,0,1.9.09C245.48,152.61,245.55,153.25,245.68,153.84Z"/><path d="M227.43,159.11a26.12,26.12,0,0,1,10.6,2.27c1.07.5,2,1.29,3,1.88s2.25,1.25,3.6.28c.6-.42,1.72-.73,2.05.2a6.9,6.9,0,0,1-.12,2.77c0,.09-.31.21-.47.21a13.5,13.5,0,0,1-8.06-2.72,41.22,41.22,0,0,0-4.41-3.16,13.11,13.11,0,0,0-6.6-1.31c-.82,0-1.64-.16-2.45-.24l2.5-.18C227.21,159.1,227.32,159.11,227.43,159.11Z"/><path d="M309.9,96.48c-.14,0-.3.16-.41.12a8.07,8.07,0,0,0-2.41-.84,1.78,1.78,0,0,1-2-1.2,1,1,0,0,0-.93-.37c-.65.33-1.06,0-1.64-.2a3.9,3.9,0,0,0-2-.15,1.66,1.66,0,0,1-2.1-1.14c-.61-1.45-.89-1.59-2.45-1.41-.29,0-.58.09-.88.11-.09,0-.19-.08-.28-.12s.08-.23.16-.25c.5-.19,1.09-.61,1.52-.49a79.39,79.39,0,0,1,8.15,2.56A27.07,27.07,0,0,1,309,95.91l.9.58Z"/><path d="M221,174.81c-1.4-.37-2.8-.72-4.19-1.12-.27-.08-.48-.36-.72-.55a3.75,3.75,0,0,1,.82-.23c4.61-.2,9.23-.58,13.82-.51a83.76,83.76,0,0,1,9.73,1.12c.29,0,.52.45.77.69a4.85,4.85,0,0,1-1,.39,27.82,27.82,0,0,0-4.08.7C231,177,226,176,221,174.81Z"/><path d="M309.9,96.49c.81.9,1.61,1.79,2.41,2.7.27.3.52.63.8.93.47.5.62.91-.18,1.23a1.09,1.09,0,0,0-.48.45c-.61.9-1.18,1-2.15.32a15.27,15.27,0,0,1-2.43-2.11,3.31,3.31,0,0,1-.47-1.61,8.47,8.47,0,0,1,0-1.33c0-.17,0-.35,0-.52.16.13.39.22.47.39.3.63.29,1.73,1.28,1.42.41-.13.5-1.22.74-1.88Z"/><path d="M282.59,178.85c4.42-.44,8.94-1.29,12.67-.1a32.19,32.19,0,0,0,10.56,1.48,4.8,4.8,0,0,1,1.09.24,6.54,6.54,0,0,1-1.32.47c-8.67.9-17.1,1.28-24.27-.95a3.21,3.21,0,0,1-.71-.46Z"/><path d="M326.47,139.66l-.16.52c-.2-.14-.51-.24-.58-.43-.19-.53-.53-1.2-.35-1.63a5.73,5.73,0,0,0,.18-3.7,5.65,5.65,0,0,1,.13-1.67,9.84,9.84,0,0,1,.34,1.5C326.2,136,326.32,137.73,326.47,139.66Z"/><path d="M210,98.83a6.79,6.79,0,0,1-1.49,1.12,18.64,18.64,0,0,1-2.6.49c-.06,0-.16-.15-.24-.23,1-.64,2-1.32,3-1.88C208.87,98.22,209.32,98.57,210,98.83Z"/><path d="M285.31,88.87l-.85-.33c.18-.07.36-.24.52-.21a8.64,8.64,0,0,1,1.19.3Z"/><path d="M337,172l1,.89c-.11.06-.27.2-.3.18-.33-.28-.63-.58-.94-.87Z"/><path d="M288.54,89.24l-.65-.33c.1-.06.21-.17.29-.15a8.75,8.75,0,0,1,.87.27Z"/><path d="M317.19,106.3l0-.08.14.09,0,.08Z"/><path d="M196.86,109.15l.25-.25,0,0-.22.24Z"/><g id="p43Rsh.tif"><path d="M281.76,204.26c1.61.58,1.48,1.6,2.9,3.18,1.58,1.78,3.38,3.36,5,5.13a27.12,27.12,0,0,1,2.78,3.79,21.84,21.84,0,0,0,4.73,5c.83.7,1.77,1.28,2.66,1.92.41.31-1.23-.55-1.6-.27-.64.5,2.45,1.54,1.45.89a1.1,1.1,0,0,0-1.79.94c-.07.77-.57,1-1.15,1.13a1.66,1.66,0,0,1-1.72-.13c-1.86-1.37-2.86-3.24-3.95-5.23-1.29-2.33-2.62-4.76-4.94-6.42-.72-.52-1.11-1.47-1.73-2.15s-1.36-1.24-2-1.91a3.13,3.13,0,0,1-.76-1.22c-.32-1.08-.47-2.21-.79-3.29C280.57,204.8,280.77,204.27,281.76,204.26Z"/><path d="M272,218.13a1.46,1.46,0,0,1-.56,0c-1.27-.7-2,.1-2.77.91a4.63,4.63,0,0,1-1.49,1.08,28.44,28.44,0,0,1-8.27,2.11,2.42,2.42,0,0,1-2.28-1.38c-.51-1-1.05-2-1.57-3a4.36,4.36,0,0,1-.17-.51l.5.07a10.77,10.77,0,0,0,1.81.37,8.09,8.09,0,0,1,4.07,1.46,1.14,1.14,0,0,0,1.6-.13,5.18,5.18,0,0,1,4.05-1.32,7.85,7.85,0,0,0,4.16-1.1,10.4,10.4,0,0,1,5.23-1.45,2.17,2.17,0,0,1,.67.21c-.08.22-.09.52-.25.64C275.3,217.09,273.89,218.19,272,218.13Z"/><path d="M227.48,224.09a4.45,4.45,0,0,1,1.62-3.35,42.23,42.23,0,0,1,8.08-7,4.59,4.59,0,0,1,1.44-.62c.81-.17,1,.28.87,1.08a4.15,4.15,0,0,1-2,2.74c-.63.38-1.1,1-1.7,1.44a12.23,12.23,0,0,1-1.85,1c-1.69.81-3.3,1.69-4.19,3.48a6.23,6.23,0,0,1-1.09,1.47.93.93,0,0,1-.81.24C227.63,224.55,227.53,224.17,227.48,224.09Z"/><path d="M246.94,211.43a3.86,3.86,0,0,1-.93.92c-.23.11-.67-.09-1-.23s-.4-.38-.61-.57c-1.12-1-1.08-1-.47-2.37a2,2,0,0,0-.16-1.21c-.15-.43-.5-.79-.62-1.21a1.15,1.15,0,0,1,1.36-1.41c.13,0,.22.26.31.41a14.57,14.57,0,0,1,1.07,2C246.33,208.93,246.59,210.12,246.94,211.43Z"/><path d="M253,214.33c.52.24,1,.46,1.49.7a1,1,0,0,1-.07.29c-.51-.09-1-.16-1.51-.29-.18-.05-.32-.23-.48-.36Z"/></g></g></g></svg>