<svg xmlns="http://www.w3.org/2000/svg" xmlns:xlink="http://www.w3.org/1999/xlink" viewBox="0 0 481.2 639.06"><defs><style>.cls-1,.cls-3,.cls-4{fill:none;}.cls-2{clip-path:url(#clip-path);}.cls-3{stroke:#000;stroke-width:4px;}.cls-3,.cls-4{stroke-miterlimit:10;}.cls-4{stroke:#808285;}</style><clipPath id="clip-path" transform="translate(8.75 -0.89)"><rect class="cls-1" x="251.39" width="239.89" height="646.32"/></clipPath></defs><g id="Layer_2" data-name="Layer 2"><g id="Coder_Me" data-name="Coder Me"><g class="cls-2"><g id="z5pwxw.tif"><path d="M331.3,225.24a22.6,22.6,0,0,0,0,3.08c.39,2.75-.29,4.36-3.49,3.74-1.58-.3-2.22.39-2.11,2,.06.87.55,2.14-1.18,2.28-1,.09-2.53-.63-3,.8-.63,2.05-2.22,3.89-1.5,6.3a5.63,5.63,0,0,1,.14,2.13c-.2,1.75.27,2.55,2.27,2.61s2.27-1,2-2.42c-.52-3,1.43-2.58,3.32-2.72,2.26-.17,3.29.48,2.88,2.85-.36,2,.34,2.74,2.59,2.81,21.22.7,42.43,1.58,63.64,2.34,13.73.49,27.47.85,41.21,1.31,3.58.12,7.16.41,10.75.58.79,0,2.17.32,2.25-.41.42-3.64,3.12-1.51,4.73-2,1-.31,1.63.21,1.69,1.47.13,2.44,2.4,2.35,3.4,1.66s2.07-.52,3.09-.7c2.61-.48,3.23.51,3.53,3.22.26,2.44.72,5.51,3.93,6.73,1.64.61.65,2.33.73,3.52.06.85.7,2.38-.89,2.47-1.95.1-1.69,1.4-1.75,2.56-.35,6.87-.8,13.73-1,20.6-.39,16.2-1.42,32.36-2.39,48.54-.06,1.09-.45,2.17,1.41,2.35s.89,1.82.88,2.76.79,3-.73,3.15c-2.18.27-2.08,1.64-2.16,3-.49,8.29-.91,16.58-1.36,24.88-.3,5.52-.63,11.05-.92,16.58-.07,1.33-1.11,2.77,1.52,3.42,1.44.35.39,2.91.64,4.45.28,1.82-1.37,1.2-2.18,1.68,1.86,1.16,4.12,7.93,2.63,8.87-4,2.56-1.56,6-1.37,8.72a348.08,348.08,0,0,1,.56,42.11c-.08,1.33-.77,2.5,1.54,3.13,1.5.41.44,2.9.66,4.44.18,1.32-.66,1.53-1.71,1.47s-1.29.64-1.38,1.56c-.8,8.46-1.65,16.91-2.44,25.36-.1,1.07-.32,1.87,1.13,2.9s1.06,3.85.14,5.81c-.18.4-.71.73-.63,1.25.56,3.8-2,7-1.85,10.75.05,1.48-.7,1.74-1.89,1.63a1.76,1.76,0,0,0-2.15,1.19c-.56,1.45.83,1,1.18,1.47a3.06,3.06,0,0,1,.35,2c-.8,5.35.83,10.79-.58,16.12a70,70,0,0,1-2.43,8.36c-.27.69-.53,1.11-1.23,1-2.4-.43-2.81,1.2-3.28,3a29.17,29.17,0,0,1-1.75,5.2,15.73,15.73,0,0,0-1.21,11.05c.37,1.43,0,2.71-2,2.38-1.53-.26-2.12.64-2.65,1.91-1.73,4.15-3.45,8.31-5.38,12.36-1.62,3.38-3.27,6.62-2.3,10.57.44,1.78.07,3.34-2.42,2.88a.76.76,0,0,0-.3,0c-.82.14-8.33,8.56-8.3,9.41,0,1.33,0,2.55-1.85,2.28-.1,0-.27,0-.3,0-1.1,1.91-1.72,3.74-4.68,4.34-1.52.31-1.86,4.4-1.83,7,0,.5-.1,1.32.39,1.35,3.14.13,1.88,2.47,2.07,4,.15,1.24.24,2.56-1.72,2.38-.76-.06-1.05.52-1.16,1.18s-.13,1,.58,1.17c3.44.64,1.11,3.27,1.65,4.91.34,1.05-.6,1.56-1.48,1.28-1.56-.5-4,1.53-4.68-1.59-.26-1.22-1.28-.82-2-.82q-29.4,0-58.79,0c-.59,0-1.67.18-1.68.35-.26,3.3-2.77,2-4.38,2-5.33.14-10.67.07-16,0-1.24,0-2.77.5-2.79-1.71,0-1-1.08-.73-1.73-.73q-14.46,0-28.93,0c-.6,0-1.55-.17-1.68.42-.84,4.15-4,1.16-5.92,2-.2.09-.78-.16-.79-.29-.3-3.48-3-2.07-4.64-2.07q-129-.09-257.95,0c-1.46,0-3.53-1-3.87,2-.14,1.16-5.53.53-5.87-.82-.28-1.16-.91-1.1-1.74-1.19-3-.33-5.93-.85-7.33-4.07a1.44,1.44,0,0,0-1.78-.82c-2.44.43-3.18-.74-2.75-2.91,1.1-5.52-2.39-9.88-3.76-14.76-3.57-12.8-4.17-25.8-3.31-38.94.46-7,1.1-13.88,1.64-20.82,0-.58.31-1.17-.17-1.74-2.48-3-2.51-4.07-.13-6.66.51-.56.27-1.14.24-1.72-.35-6.23-1.44-12.42-.69-18.69.07-.54.17-1.13-.62-1.52-3-1.52-2.43-4.36-2.43-7,0-1.72,1.74-.61,2.24-1.44-3.13-2.77-1.41-6.42-1.42-9.66,0-1.85.28-3.36-.5-5.33-.92-2.31-.27-5.24-.26-7.91a.7.7,0,0,1,.82-.7c3.34.49,3-2.09,3.45-4,.51-2.29,1.23-4.54,1.52-6.86.19-1.44,2-3.22-.72-4.51-.56-.27-.11-2.51-.23-3.83-.2-2.32,1.5-1.67,2.68-1.74s1.25-.85,1.67-1.55c1.07-1.8,1.84-3.82,3.6-5.21.15.3.33.51.29.61-1.88,3.69-1.9,3.68-2,10,0,1.28.13,2.55-1.81,2.31-1.36-.16-1.67.76-1.91,1.88-.73,3.49-1.38,7-2.41,10.42-.53,1.75,1.12,2.42,1.16,3.73.07,2.05,0,4.11,0,6.16,0,.82-.09,1.76,1.13,1.76.59,0,1.43.07,1.74-.28.84-.93-.62-1.29-.68-1.79-.23-1.78-1.9-2.91-1.69-5s0-3.63,3-3.54c2.08.06,2.3-2.09,2-3.76-.47-3,1.34-2.81,3.44-2.94,2.45-.15,3.22.81,2.74,3-.37,1.64,1.32,3.92-1.59,4.88-.62.2-.08,1.57.38,2.2.63.88,1.37.29,2.16,0s1.22-.45,1.13-1.59a60,60,0,0,1,1-18.32,24.73,24.73,0,0,1,3.09-8.26A4.72,4.72,0,0,0,16,465c.28-1-.6-2.66.6-3.07,1.39-.47,3-.16,4.58-.16.42,0,1,.17.9.6-.64,4.22,3.51,7.24,2.93,11.34-.5,3.47,2.95,5.83,2.25,9.36-.2,1,3.8,3,4.72,2.65.36-.16,1-.42,1-.56-.48-4,4.7-6.1,3.47-10.52-.56-2-.08-4.29,0-6.44,0-1,.3-2-1.28-2.27-.92-.13-.6-1.16-.61-1.82,0-2.26-.11-4.52,0-6.77.09-1.48-.9-3.23,1.93-4,1.26-.33,1.09-3.63.35-5.32a2.65,2.65,0,0,0-3.68-1.36c-2.42,1-5,1.6-7.48,2.68s-4.67,2-4.12,5.41c.31,1.89-1.37,1.59-2.3,1.39-3.66-.8-6.1-.44-5.07,4.28.24,1.12-.62,1.41-1.54,1.29-2.91-.38-5.45.21-7.23,3.17-.56-1.78.56-2.33,1.2-2.92A3.7,3.7,0,0,0,8,458.49c-.35-2.18.3-3.28,2.75-2.93,2.92.42,4-1.07,4.08-3.91,0-1.64-1.18-4.13,2.08-4.29l.65-12.43c-3.5-.39-1.82-3.1-2.13-4.89-.08-.44.13-1.28.39-1.36,1-.32,2.25-.07,2.29-1.79.07-3,.82-6,.21-8.84-.19-.89-1.67-2.06-1.76-3.75-.1-2.16.31-3.55,3-3.15-.85-.83-2.6,0-2.33-1.74s-.9-3.57.72-4.82c.6-.47,1.14-.69,1.09-1.51-.16-2.89.77-5.73.72-8.5,0-1.74-.66-3.7-.72-5.62,0-1,.13-1.93,1.45-1.71,2,.33,2.62-.85,3.15-2.48.79-2.43,1.8-4.78,2.71-7.16,1.4-3.66,2.75-7.28,1.37-11.33-.55-1.61.11-2.65,2.2-2.5,2.84.21,3.46-1.71,3.36-4.1-.06-1.23,0-2.46-.09-3.69s.17-2.06,1.79-2.07c2.51,0,2.36-1.42,1.26-3.06a5.09,5.09,0,0,1,1.09-6.34c.93-.68.84-1.56.86-2.47q.59-31.86,1.18-63.71c0-1.32.24-2.5-1.83-2.77-1.27-.17-.89-5.63.49-5.88,1.63-.29,1.32-1.28,1.33-2.23a71.78,71.78,0,0,1,.5-9.83c.1-.66.43-1.83-.31-1.94-3.68-.55-1.47-3.33-2-5-.16-.55,0-1.46.82-1.31,2.42.43,2.58-1.52,3.14-2.92a12.3,12.3,0,0,1,3.62-5.24c.24-.19.64-.39.66-.61.66-6.42,5.88-4,9.4-4.8,1.17-.25,2.73-.52,2.76,1.69,0,1.17,1.2.83,2,.86q17.16.72,34.32,1.4l39,1.55q14,.54,28,1c1,0,2.61.85,2.43-1.14-.25-2.65,1.39-2.62,3-2.3s4.77-1.64,4.43,2.43c-.09,1.18.74,1.27,1.61,1.31,6.15.24,12.3.68,18.45.6,1.87,0,2.64-2.4,2.1-4.07-1.27-4-2.92-7.83-4.48-11.71-.28-.69-.54-1.62-1.65-1.52-1.84.15-3.48.14-3.27-2.52.05-.7-1-.59-1.54-.55-1.34.09-2.14-.18-2.05-1.8s-1.39-1.7-2.56-1.91c-1.94-.35-3.48-.94-3-3.46.19-.95.3-2.17-1.36-2.11-1.05,0-1.07-.74-1.06-1.48,0-1.14.15-2.24-1.61-2.27-1.24,0-.78-1.21-.85-1.93-.29-3.18,1-6.25.62-9.43-.07-.53.82-1.49-.58-1.47-1.12,0-2.2-.07-1.87-1.58.38-1.68-1.25-4,1.42-5-2.46-.41-4.15-4-2.33-6a3.23,3.23,0,0,0,.12-4.36c-3.44-3.77-2.91-8.25-2.92-12.68,0-1.92-.3-3.45-2.67-3.65-1.14-.1-2.92.72-3.3-.64a7.12,7.12,0,0,1,.23-5.34c.31-.55.71-.93.43-1.53-1.89-3.93-.61-7.91-.2-11.88,0-.28.26-.77.37-.77,3.69.2,2.55-2.73,2.81-4.54.73-5.05,1.27-10.14,1.87-15.21.09-.76.4-1.52-.8-2-2.35-.85-.83-3-1.18-4.45-.32-1.32.44-1.8,1.72-1.77.94,0,1.23-.77,1.21-1.48-.13-5,3.31-9.28,2.6-14.35-.07-.48,0-1.29.56-1.23,3.17.35,2.54-2.28,3-3.86,1.08-4,3.34-7.73,2.63-12.12-.22-1.37.79-1.52,1.77-1.38,2.74.42,3.58-1,3.8-3.47.27-3,1-5.88,1.06-8.84.05-1.82,1.27-4.07-1.46-5.52-.63-.33-.24-2.68-.25-4.11,0-2.4,1.85-1.25,2.93-1.45.81-.14,1.29-.27,1.37-1.22.38-4.77,2-8.83,5.95-12,1.34-1.08.08-3.19.12-4.83.05-2.06.23-3.44,2.77-3a3.09,3.09,0,0,0,3.14-1.44,5.29,5.29,0,0,1,2.8-2.27c.35,1.55-1.23,1.82-1.83,2.75-.77,1.2-1.44,2.78.16,3.28,3.46,1.09,1.38,3.61,1.5,5.32s-1.9.68-2.94,1a4.62,4.62,0,0,1-1.53,0,7.29,7.29,0,0,0-7.79,5.72c-.37,1.55-.16,2.47,1.63,2.26s2.25.57,2.22,2.27c0,3-3.32,7.52-6.34,8.21-1,.23-1.08.72-1.09,1.49-.09,6.74-2.16,13.31-1.81,20.08.11,2.1-.65,2.68-2.6,2.51-1.15-.1-2.57-.46-3.18,1.11a29.09,29.09,0,0,0-2.24,7.28c-.08.8-.28,1.5.95,2.16,2,1.06.77,3.3.78,5s-1.7.88-2.65,1c-1.15.19-2.47-.35-3,1.32a55.51,55.51,0,0,0-2,8.61c-.2,1.12.51,1.11,1.25,1.19,1.69.21,1,1.57,1,2.4,0,1.23.74,3.41-.62,3.52-3.07.24-2.24,2.2-2.42,3.88-.28,2.54-.54,5.08-1,7.59-1.18,6.53-1.22,6.54.94,10.93a1.06,1.06,0,0,1,0,.31,60.67,60.67,0,0,1-1.09,11.8c.88.76,3.28-.83,2.92,1.82-.44,3.33,1.78,3,3.6,2.56A33.12,33.12,0,0,1,175,160c1.85-.19,2.67.39,2.43,2.36-.19,1.52-.32,3.28,1.11,4.23,2.78,1.85,3.41,5.1,5.3,7.51.38.48.73,1,1.13,1.46s1.27.56,1.33.26c.3-1.71,1.31-3.73.36-5.14-1.86-2.74-1.85-4.76.85-6.47a1.94,1.94,0,0,0,.83-1.56c.42-4,2.64-7.69,2.13-12-.14-1.15-.1-3.92,1.15-3.95,3.7-.11,1.93-2.26,1.73-3.72-.32-2.21-2.9-5.21-4.44-5.09-2,.17-2.36-.73-2.33-2.49,0-2.08-.35-4.18,2.85-3.93.46,0,1-.57,1.72-1-3.07-.91-1.84-3.21-2-5-.07-.64-.21-1.81.79-1.63,2.46.44,4.32-1.1,6.48-1.58-1.45,1.25-1.15,2.95-1.12,4.55,0,.63-.38,1.58.66,1.75s1.07-.64,1.2-1.38a8.82,8.82,0,0,1,1.66-3.56,4.07,4.07,0,0,0,.15-4.82c-.2-1.68,1.59-2,2.16-3.16.06,1.34.67,2.64,2.05,1.79s3.19-1.1,4.07-2.69l.55.6c.41,2,1.55.86,2.41.49s1.25-1.42,2.32-.72c-1.88,1.42-3,3.16-2.48,5.67.27,1.31-.4,1.78-1.73,1.75-3-.08-4.87,1.59-6.15,4.2-2.07,4.24-1.26,8.55-.48,12.87a1.6,1.6,0,0,0,2,1.38c1-.11,1.57.34,1.43,1.4-.2,1.55.62,4.37-.53,4.43-2.68.13-3.43,2.21-5,3.41-.82-1.26.84-1.79.84-3.14-2.67.44-3,2.29-3.27,4.41,1.13-.13,1.14-1.88,2.46-1.29-2.49,3.43-4.78,6.92-3.73,11.51.17.76-.09,1.53-1.1,1.41-3.2-.36-3,2-3.17,4a12.19,12.19,0,0,1-.87,4.37c-1.68,3.59-.35,7,3,9.1a1.58,1.58,0,0,1,.86,1.81c-.55,1.7,1.74,4.56-2,5-.13,0-.37.61-.29.72,1.42,1.85-.1,4.16,1.27,6.35.9,1.44,2.1,5-1.47,6.36a.82.82,0,0,0-.52,1c.43,2.71-1.55,4.87-1.71,7.38-.16,2.67-1,5.53.61,8,1.47,2.25,3.55,4.16,5.07,6.21s-.17,5.75.83,8.66a6.09,6.09,0,0,1,.1,1.22c.22,1.52.62,2.83,2.62,2.54,1.1-.16,1.71.22,1.7,1.5,0,1.87-.7,4.18,2.34,4.51.39,3.77,3.29,1.45,5,2a13.84,13.84,0,0,0,4.28.28c1.69-.05,4.24,1.91,4.58-1.77a1,1,0,0,1,.81-.28c2.76,1.07,6.72-2.58,8.61,2.18.15.36,1.3.42,2,.46,7.47.35,14.94.72,22.41,1,14,.54,28.07,1,42.1,1.58,1.82.08,2.27-.08,2.9-2.08a22.72,22.72,0,0,0,1-6.32,1.15,1.15,0,0,1,1.69-1.14c2.8,1.13,7.34-2.9,8.56,2.86,4.2,1.5,1.45,4.47,1.59,6.91,1.59,0,3.59.65,4.92-.34.61-.46,0-2.63-.16-4-.33-2.25.87-2.45,2.67-2.43,3.67.06,4.43-1.05,3.58-4.8s0-5.37,3.28-6.08c-1.5-.92-1.41-2.24-1.57-3.6-.22-1.83,1.22-3.22,1.17-4.72-.09-2.41.86-3.24,3.67-3.13-2.12-1.44-1.6-3.1-1.71-4.64s.78-2,1.57-3c1.5-1.92-2.52-.55-2.15-2.42s-.93-3.83.94-5.43a1.4,1.4,0,0,0-.1-1.93c-2.27-2.66-2.14-4.27.53-6.48.57-.46.36-1.11.46-1.69.27-1.45-.67-3.06.6-4.35.27-.28.21-.32-.06-.56-2.47-2.22-2.5-3.83-.14-6.52,1.25-1.43,2.17-6.79,1-8.12a5.19,5.19,0,0,1-.62-5.4c.83-2.06,1.36-3-1.42-2.89a.66.66,0,0,1-.57-.9c.76-1.72-2-4.74,1.94-5.33.2,0,.46-.69.42-1-.63-5.27-.27-10.65-1.71-15.84-.2-.72-.31-1.54-1.25-1.39-2.78.44-2.61-1.34-2.55-3.16.06-1.43,0-2.86,0-4.28,1-.65,1.14.41,1.61.78a2,2,0,0,0,2.26.29c1-.65.08-1.43-.24-2.06a24.28,24.28,0,0,0-3.87-5.75c2-.22,2.51,1.42,3.3,2.62,3.14,4.71,4.09,10.1,5,15.55.34,1.94-1.07,5.37,3.06,5.31a.56.56,0,0,1,.4.39c.06,1.74.12,3.48.12,5.21,0,1.54-1.32.87-2.06,1.16a1.34,1.34,0,0,0-.78,1.78,15.1,15.1,0,0,1,.25,6.68c-.43,3.14,3.27,1,3.62,3,0,.13,1,.31,1.1.18a3.29,3.29,0,0,0,.34-1.41c.15-1.84.27-3.67.39-5.51a74.47,74.47,0,0,0-3.42-28.74c-.26-.77-.45-1.93-1.33-1.83-4.16.47-2.87-2.53-3-4.57-.09-1.31.64-2.63-.1-4.21a4.91,4.91,0,0,0,5.13,2.58c1.7-.11,1.27,1.54,1.06,2.28-1.31,4.62.46,8.89,1.3,13.26.17.9.46,1.78.58,2.68A102.22,102.22,0,0,1,333.55,183a2.39,2.39,0,0,0,.28,2.41,5.27,5.27,0,0,1,.06,5.74c-1.78,2.38-2.09,2.15-1.59,4.84.84-.94,1.68-1.81,2.44-2.75a11.64,11.64,0,0,1,3.22-2.32c1.46-.9,3.67-1.07,3.24-3.69-.1-.64.57-.81,1.09-.74,2.13.27,1.91-1.15,1.93-2.52,0-4.21.07-4.34,4.41-4.24,3.22.08,4.77-2.21,5.51-4.42a4.73,4.73,0,0,0-1.91-4.95c-.93-.57-1-5.83-.14-5.89,4.7-.35,2.34-3.33,1.85-5.23-1.14-4.4-3.2-8.59-1.2-13.35.77-1.84-1.14-4.78,2.34-5.57.17,0,.18-.75.26-1.15.35-1.59.7-3.18,1-4.75-.31-.11-.51-.16-.7-.25-.95-.42-3,.82-2.75-1.27.18-1.67-1.72-4.21,1.53-5,1.21-.29.81-1.28.81-2a79.26,79.26,0,0,1,.53-10.45c.1-.72.44-1.58-.48-2.21-2.71-1.86-2.65-4.17.08-6.36.27-.22.55-.78.45-1-.79-1.88,0-3.79-.2-5.71-.24-2.18-2-5,1.46-6.49.19-.08.18-.74.16-1.12a34.94,34.94,0,0,0-1.1-8.18c-.61-2.06-1.11-3.73-3.75-3.24-.49.09-1.3,0-1.3-.49,0-2.88-2.12-1.82-3.51-1.93-1.74-.12-3.49,0-5.23,0-.66,0-1.67.28-1.76-.71a14.76,14.76,0,0,1,.09-4.88c.29-1.12,1.81-.53,2.77-.54,2.32,0,2.7-2,2.84-3.38.18-1.76-1.62-.63-2.5-.93a2,2,0,0,0-.92,0c-1.63.22-2.07-.77-1.73-2s-1.46-3.95,1.48-4c2.41-.08,2.4-1.39,2.22-2.95-.15-1.36.85-3.63-2.1-3.3-2.08.23-1.7-1.33-1.61-2.45.15-1.9-.26-3.24-2.14-4.21-2.12-1.1-4.11.47-6.16-.09-.87-.24-2.31.44-2.16-1.3.13-1.59-.66-2.44-1.69-3.56s-2.74-2.42-2.11-4.65c.32-1.12-.71-1.34-1.69-1.65-3.76-1.22-7.56-1-11.38-.55-1.67.21-2.34-.34-2.31-2.16,0-2.58-5.1-5.28-7.35-4-3.5,2-6.05.66-6.16-3.24a4,4,0,0,0-.2-.77c-.85.25-1.36.93-2.29,1-3.3.11-6.59.42-9.89.56-1.32.06-3.7.17-3.81-.23-1.61-5.91-8.12-2.44-10.9-5.87-5.36.33-10.58-1.05-15.89-1.26-1.49-.05-3.49-.67-3.23,2.16.09,1-.92.81-1.59.91-2.33.35-3.92-1.07-5.87-1.92-2.86-1.24-6.42-.86-9.67-1.16-1.16-.11-2.07.09-1.9,1.59.15,1.28-.63,1.72-1.67,1.45-1.49-.38-3.47,1.17-4.48-1.09-.17-.39.17-1.17-.66-1-.6.1-1.26.44-1.14,1.2.54,3.43-1.89,2.54-3.79,2.88-2.72.48-5.47-.13-8.25.91-1.3.48-4.46,2-5.38-1.56-.25-1-1.62-.61-1.51,0,.64,3.62-1.63,4.44-4.36,5.13-.7.18-1.18,1.12-1.87,1.54s-1,1.47-2,.72a5.45,5.45,0,0,0,1.89-5.73c-.74-3.06.8-4,3.65-3.53.9.15,1.82.16,2.74.23.63,0,1.45,0,1.46-.7.06-3.08,2.36-1.72,3.79-2,1.64-.28,2.72,0,2.56,2.2s1.8,1.82,3.08,2.05c1.61.3,1.74-.81,1.82-2.08s-.74-2.86.69-3.24c1.61-.44,3.86-.68,5.08.13,1.81,1.2,2.07.66,2.16-.9.07-1.16.19-2.25,1.62-1.83s3.76-1.48,4.6,1.33c.11.35.33.94.55,1,3.85.46,7.72.86,11.59,1.23.2,0,.52-.28.66-.51,2-3.18,2.93-3,6.66-1,1.91,1,4.57.73,6.89,1,2.95.33,5.89.7,8.85.86,1.83.11,4.14,1.14,4.34-2.43.1-1.76,2.21-.63,3.39-.86,2.37-.46,3.75.26,3.24,3a3.51,3.51,0,0,0,2.09,4c.94-.67-.42-2.5,1.13-2.66a18.69,18.69,0,0,1,5.49.13c1,.2.53,1.63.48,2.48a1.73,1.73,0,0,0,1.79,2c1.24,0,.64-1.27.67-1.95.18-3.63,2.52-5.19,6-4a1.11,1.11,0,0,1,.82,1.39c-.49,3,1.41,3.07,3.53,2.9,1.94-.15,3.81-.25,3.31,2.69-.2,1.19,1,1.1,1.68,1.42a17.4,17.4,0,0,0,9.73,1.42c1.57-.14,2.37.37,2.09,2s.54,2.26,2.11,2.57a38.9,38.9,0,0,0,10,1c3.4-.22,4.37,1.25,5.3,4.52.54,1.93,1.19,4.33,2.41,5.67a8.06,8.06,0,0,0,6.25,2.75c3.29-.16,4.86,3,3.12,6-1.26,2.22-.79,4.16-.07,6.56.93,3.09,1.41,6.6-.47,9.79,1,.69,2.15,0,3,.42,2.45,1.05,4.46,3,7.5,3,.53,0,.48,2.71.19,4-.5,2.18,0,4.09.52,6.15a31.6,31.6,0,0,1,.75,6.08c.09,1.33.16,2.08,1.89,2.44,2.43.51.84,2.84,1.2,4.32.31,1.31-.41,1.87-1.73,1.73-1.54-.15-3-.05-3,2,0,1.77-.82,3.94,1.82,4.78,2,.65.91,2.38,1,3.61.08.9.75,2.49-1.19,2.52-1.31,0-1.48.83-1.52,1.81-.15,3.79-.3,7.58-.41,11.37a2,2,0,0,0,.44,1.4c2.77,2.56,2.71,3.43.75,6.95-.84,1.52-.82,3.53-1.17,5.33a.61.61,0,0,0,.66.79c2.42-.17,1.71,1.59,1.9,2.9.39,2.61-.42,3.83-3.26,3.37s-2.94,1.59-2.88,3.48c.06,2.37,1.23,4.52,1.64,6.81a27.72,27.72,0,0,0,3.62,9.91c1.24,1.91,1.26,3.46,1.46,5.27.07.68.09,1.32-.93,1.61-3.64,1.06-7.5,6.07-7.66,9.79,0,1,0,2.44-1.27,2.4-2.86-.11-2.46,1.75-2.43,3.46s.3,3.19-2.23,2.85c-1.88-.26-1.57,1.29-1.43,2.29.39,2.94-.43,4.43-3.72,3.87-1.42-.24-2.86-.26-1.37,2,.61.94.12,2.6.12,3.94,0,2.17-1.73,1.12-2.72,1.41-1.44.42-1,1.5-1,2.49s.07,1.68,1.42,1.84,3.73-1.3,3.49,1.77c-.12,1.51.83,3.24-.83,4.52-.63.49-.3,1.35-.37,2s0,1.55-.77,1.37c-3.86-.87-4.32,2.52-5.91,4.5a3.15,3.15,0,0,1-.72.52,16.28,16.28,0,0,0,.79-10.73,37.4,37.4,0,0,0-.17,4.23c0,.7.06,1.64-1,1.52-2.27-.26-2.31,1.19-2.05,2.66.21,1.21-.93,1.63-1.18,2.42C329,226.79,330.08,224.89,331.3,225.24ZM14.76,520.32a.94.94,0,0,0,1.47.31l-1.15-.71c-1.56-1-3.07-2.1-5-2.37A11.71,11.71,0,0,0,14.76,520.32Zm162,16.55c0,.54.37.56.76.49.08,0,.14-.12.21-.18l-1-.27c-2.11-1.31-4.3-2.39-6.89-2.28C172.07,535.56,174.07,537.25,176.75,536.87Zm17.82-394.71-.11-1.85c-.6.87-.68,1.43.16,1.81a12.7,12.7,0,0,1-.05,1.51c-.34,2,.82,3.24,2.52,3.18,1.47-.06,1.72-1.79,1.8-3.13.15-2.4-1.72-1.32-2.8-1.53A7,7,0,0,0,194.57,142.16Zm51.16,413c1.53.24,2.42,1.44,3.5,2.35.46.38.84,1,1.54.77s.54-1.09.43-1.61c-.59-3,1-3.46,3.46-3.17a25.41,25.41,0,0,0,2.76,0c.1,2.33-.89,5.08.34,6.93,3.43,5.14,6.16,11.08,12.57,13.49.17.06.44.2.46.33.4,3.46,3.24,2.22,5.15,2.64a27.55,27.55,0,0,0,4.27.37,197.51,197.51,0,0,0,28.41-.44c-2.28-2.76-5.75-3.38-7.52-6.06,2.91,0,4.28,3.21,7.31,3.62-4.29-5.73-6.47-11.83-4.73-18.75a13.69,13.69,0,0,0-.13-7.67c3,1.42,2,3.94,1.47,6.09-1.58,6.28-.95,12.1,2.76,17.56,2.58,3.79,3.48,4.07,6.23.18,1.81-2.57,4.37-3,6.31-2s2.69-.09,4.17-.64c-.56,2.06-2.66,2.5-3,4.13-.95,4.62-3.2,7.72-8.41,7.52.87,5.08,2.66,9.75,4.06,14.54.53,1.79,1.31,1.94,2.73.69-.11,1.74-1.77,2.54-.94,4.3,1.86,4,3.42,8.07,5.13,12.1.36.85.82,1.71,2,1.47,2.82-.57,2.9,1.14,2.8,3.2a36.55,36.55,0,0,0,.23,4.17c-.69-.76-1.74-1.85-2.51-1-1.85,2.16-2.43-1.1-3.76-.63.15-2.91-2.63-4.47-3.27-7,2-.27,1.46,2.16,3.35,2.71.32-4.93-3.09-8.46-4-12.62-2.73,2.38-1.38,4.61-.11,7,.47.86,1.64,1.7.82,3-.77-.29-.84-1.09-1.23-1.66-1.64-2.36-1.53-6.53-6.11-5.85-.44.07-.66-.44-.64-.87.08-1.85-1.25-1.53-2.31-1.48-3.47.17-6.95.29-10.39.66-1.06.11-3.34-1.28-3,1.71.07.55-.64.22-.93.05-.73-.45-1-.58-1.37.52-.54,1.56-.79,2.63.79,3.78a36.58,36.58,0,0,1,3.94,3.84c-.68.43-1.13-.1-1.65-.39-3.11-1.73-4.38-6.15-8.78-6-.11,0-.36-.51-.35-.77.11-1.54-.88-1.63-2-1.53a22.75,22.75,0,0,1-9.27-1.55c-2-.66-2.64-.3-2,2a88.62,88.62,0,0,0,8.21,19.06c.42.71.71,1.58,1.74,1.44,2.38-.33,2,1.32,2,2.71.07,3.64,1.38,5,5,5.32.65.06,1.69-.28,1.69.77,0,2.25,1.6,1.68,2.81,1.68,8.5,0,17,0,25.51,0H326c-2.51-2.31-5.3-2.86-7-4.93,1.33-.82,2,.6,2.89,1,1.22.48,2.42,1.82,3.5,1.7,4.25-.47,8.5.11,13.41-.37l-2.37-1c-7.34-3.07-14.49-6.49-20.87-11.32l.42-.49c6.13,3.47,12,7.42,19.19,10l-1.75-2.16.41-.47c2.63,1.38,4.88,3.76,8.28,3.13.54-.1,1.35.2,1.41-.69,0-.72-.6-.89-1.18-1.16-2.21-1-4.4-2-6.55-3.15-.66-.35-1.9-.45-1.39-1.79,2.65,1.27,5.28,2.57,7.95,3.79.55.25,1.07.83,1.85,0,2.23-2.31,5.38-1.82,7.17,1.34,0-2.39,1.14-3,3.06-2.71.77.11,2.13.46,2.06-1-.07-1.65,1-4.28-.64-4.74-2.27-.65-4.94-1.13-7.43-.09-1.66.69-3.42.39-5.11.26s-.66-1.63-.95-2.48-1-.89-1.59-1.29c-1.47-1-3.4-1.38-4.53-2.93,2.38-.47,3.71,2,6.07,2.23-.92-2.13-4.32-2-4-4.89,2.32,2.39,5,3.88,8.47,3.29.55-.09,1.54-.2,1.62.44.52,4.35,4.08,2.53,6.38,3.21.53.16,1.6.16,1.61-.44,0-2.81,2-2,3.49-2a4.49,4.49,0,0,0,4.37-3.78,27.41,27.41,0,0,0,.05-10.12c-2,2.22-2.31,5.11-5.13,6.79.81-2.69,3.36-4.08,2.7-6.31s-.35-4.54-1.34-6.86c-.72-1.67-2.31-3.38-2-5.36.32-2.4-.68-3.63-2.58-4.85a6.4,6.4,0,0,0-6.07-.67c-2.33.92-2.52,3.26-2.77,5.43-.07.6,0,1.08.71,1,1.61-.15,2.21.52,2,2.11-.13,1.21.25,3.32-.23,3.52-4.39,1.85-2,5.08-1.57,7.65.95,5.94,4.36,7.58,9.79,5.07.11-.05.32.14.48.22-3.18,3.39-7,3.21-9.38-.55a30.5,30.5,0,0,1-2.33-5.6c-.86-2.22,1.26-5.8-2.77-6.69-.11,0-.23-.6-.14-.85.56-1.71-1.65-4.48,2-5.08.6-.1.4-1.06.48-1.65.68-4.8,2.79-6.78,7.36-6,3,.53,2.55-1,2.47-2.66-.07-1.27-.79-2-2-1.75-3.1.54-4-.85-3.54-3.69a1.43,1.43,0,0,0-.47-1.38c-3-2.49-5.91-5-10.31-4.25-1.2.21-1.4.63-1.57,1.7-.53,3.34-1.64,6.47-4.26,8.83-.61-1.33.66-2,1.1-2.88,1-2.1,2.19-4.15,2-6.59-.07-.79.63-2-.84-2.2-1.1-.16-2.11-.19-2.87,1a33.63,33.63,0,0,0-4.93,16c1.22.23,1.16-1.84,2.5-1.09-.71,1.71-1.92,3.05-2,5.24-.18,8.17,3.48,14.63,8.32,20.69-1.86.16-2.32-1.92-3.9-2.58V612a4.71,4.71,0,0,0-3.89-1.24c-2,.38-2.57-.67-2.28-2.43A20.52,20.52,0,0,0,326,598c-1.2-3.44-2-4.1-5.3-2.94a30.7,30.7,0,0,0,4.27-11.86c.41-3.72.91-7.46,3.28-10.6.8,1.21-.25,2.08-.6,3-1.94,5.23-2.41,9.72-1.23,12.93.22-.24.53-.42.55-.64.52-5.89,1.5-11.63,4.38-17,1.24-2.31-1.14-.09-1.31-.83l1.29-1.84a3.11,3.11,0,0,0,1.89-3.17c0-1.19-.88-3,1.62-3.12.77,0,0-.71-.19-1.07-.59-1.16-2.33,0-2.8-1.4a6.31,6.31,0,0,0-1.48,1,2.39,2.39,0,0,0-.46,1.31c2.94,1.65.65,4.44,1.47,6.52-2.09,0-4.18-.26-6.34.33.05-.87.08-1.57.12-2.26.09-2-.94-4.8,2.89-4.43.21,0,.6-.52.69-.85a.59.59,0,0,0-.68-.76c-1.85.51-3-1.31-4.72-1.32-3.43,0-1.44-2.64-1.83-4.07-.49-1.85.69-2.12,2.29-2.13s4.22,1.07,3.92-2.38c0-.43.47-.68.89-.62,2.25.33,2.12-1.14,2.12-2.65a3.21,3.21,0,0,1,.44-2.29c1.07-1.43.2-5.26-1.21-6.21-.3-.2-.6-.58-1-.1-2.07,2.49-4.28,1.74-6.63.41-.63-.36-1.95-.54-2.32-.17-1.42,1.43-3.12,1-4.78,1.15-.47,0-1.12-.05-1.09.69a1.34,1.34,0,0,0,.45,1c2.76,1.36,1.27,3.83,1.09,5.57-.16,1.43-2.27.53-3.49.69a9.2,9.2,0,0,1-2.69-.34c-1.94-.34-4-.82-5.88.37-2-.81-3.84,1-5.67.53a3,3,0,0,0-3.77,2.82c.29,2.14-.18,5,1.83,6.28a2.43,2.43,0,0,1,1.44,2.45c.07,2.82-1.56,5.72.44,8.44-1.2-1.48-2.34-4.16-3.6-4.22-3.07-.14-3.2-1.59-3.06-3.82a1.32,1.32,0,0,0-.6-1c-4.36-2.45-8.74-4.87-13.68-7.61.88,3.85-.78,4.44-3.34,4.11-1-.13-2-.24-3-.43-4.38-.82-8.81-1.37-13.23-2A39.87,39.87,0,0,0,242.19,551c-.19,1.07,1,1.1,1.05,1.87-1,.61-2.24,1.13-.51,2.36.4.29,1.14.61.51,1.35a19.9,19.9,0,0,1-2.09-1.25c-1.39-1.07-3-.73-4.43-.48s-.78,1.85-.83,2.83c-.11,1.95-1.58,1.47-2.47,1.29-1.26-.26-3.47,1.33-3.65-1.25-.12-1.83-.82-1.93-2.36-2.56-2.49-1-5.28-.47-7.68-2.17-1.22-.86-3.14-2.34-5.36-.35-1.63,1.46-5.68,0-5.57-1.52.18-2.56-1.16-3.23-3.32-3.16-1.28,0-2.06,0-2.42-1.78-.54-2.69-3.86-3.85-6.37-2.71-2.09,1-5.48-.07-6.43-2.11-.51-1.09-1.35-.73-2.07-.78A55.21,55.21,0,0,1,169.87,536a24.85,24.85,0,0,0-12.52-2.22H157c-2.67,0-5.34,0-8,0-.65,0-1.73.32-1.74-.7,0-2.4-1.76-1.82-3.05-1.86-11.38-.39-22.76-.84-34.14-1-2.16,0-5.42-1.93-6.43,2.12,0,.1-.36.12-.55.18a4.44,4.44,0,0,1-5.79-2.85,4.08,4.08,0,0,1-6.85-.13,1.21,1.21,0,0,0-1.22-.66c-2,0-4.1,0-6.14.17-.72.06-1.87.18-1.76,1.31.38,3.79-2.58,3-4.61,3.43-.92.22-2.85-.35-2.62.63.76,3.31-2.68,5.38-2.09,8.51.15.86.24,1.9-1.23,1.95-3.74.1-7.31.08-11.07,1.61s-6,2.9-6.15,7.21a3.48,3.48,0,0,1-1.6,3.22c-1.46,1.16-2.41,2.37-4.42,2.2-.46,0-.72.37-.71.81.09,2.09-1.53,1.76-2.55,1.52a21.08,21.08,0,0,0-10.64,0c-.86.24-1.68.17-2.25,1.21-1.17,2.12-5.51,1.71-6.86-.34a12.71,12.71,0,0,0-3.33-3.25c-1.89-1.33-5.41-.93-4.71-4.86.13-.72-.73-.81-1.37-.78-.82,0-1.65-.05-2.46,0-2.43.3-4-.15-3.47-3.17.15-.76.18-1.91-1.07-1.72-3.12.47-2.6-1.63-2.59-3.43,0-1.54.07-3.08,0-4.62-.15-2.81-1.47-5.26-2.6-7.77-3.46.83-3.26-2.3-4.41-4-.62-.94,0-2.06-.63-2.93-.38-.53-.45-1.45-1.48-1.23-.87.18-.6.9-.73,1.45-1.25,5.23-.17,10.43.44,15.58.22,1.89-1.31,5.38,2.93,5.31.11,0,.38.58.3.78-.7,1.78,2,5-2.28,5.3-.92.06-.68,1.11-.74,1.79C-4.77,567.4-6,580-5.5,592.58A84.81,84.81,0,0,0,1.44,623.8c.65,1.44,1.28,2.82,3.33,2.39,1.6-.33,2.23.43,2.06,2-.15,1.31-.07,2.65-.24,4-.29,2.36,1.33,3,3.05,3.33,1.54.28,3.46,1.89,4.57-.81.55-1.31,5.78-1.77,5.94-.54.28,2.3,1.69,1.86,3.05,1.86q130.22,0,260.43,0c1,0,2.68.83,2.69-1.36,0-1.79-.65-3.17-2.65-2.87-3.19.49-3.94-1-3.52-3.75a15.52,15.52,0,0,0,0-2.46c.42-.48,2.52.66,1.3-1.4a82.57,82.57,0,0,1-8.38-20c-.29-1-.8-1.71-1.93-1.37-1.63.48-.48,1.46-.26,2.17a72.07,72.07,0,0,0,6.2,14.62c.61,1.06,1.79,2,1.24,3.49-4.28-5.35-6.56-11.68-8.57-18.08-3.12-9.95-5.95-20-8.92-30-.28-.95-.55-2-2-1.81-2.29.4-2.23-1.15-2.07-2.63.24-2.16-.17-5.19-1.88-5.32-3.57-.28-4.84-2.53-6.56-4.83-.8-1.08-2.47-1.37-3.28-2.62,1.46-1,2.14,1.46,3.59.93C247.86,557.27,246.1,556.78,245.73,555.15Zm43.06-3.47c-.47-.82.45-1.77-.38-2.71-3.85,2.92-7.48,1.45-11.11-1.17.56,2.85,3.83,3.86,11.52,3.85-.76,1.22-2,1.21-3.2,1.24-1.65.05-3.16-.94-4.83-.6a.88.88,0,0,0-1.17-.49c-.06,0-.09.16-.13.25l1.34.19c2.67,2.74,6.34,3.84,9.51,5.76a2,2,0,0,0,2.61-.7c.71-1.89,0-4-.67-5.67S290,551.74,288.79,551.68ZM18.51,529.51c-2.22,1-1.65,2.41-.25,3.52a18.58,18.58,0,0,0,3.58,1.82c.94-.73-.06-1.73.66-2.37a4.68,4.68,0,0,0,4.15,2c1.69,0,3.43.72,3.55,3,0,.75.09,1.57.91,1.74,1.07.22,1.82-1.13,1.9-1.5.34-1.69,1-3.59-1.3-4.75a69.7,69.7,0,0,1-7.4-4.28,8.5,8.5,0,0,0-6.63-1.5C17.29,528.17,19,528.44,18.51,529.51Zm281.38,11.07-1.57,1.74c1.39,0,2.47.21,2.23,1.94s1.26,1.68,2.3,1.79c1.51.16,3,0,4.57.09s2.58-.23,2.32-2.11c-.19-1.35,0-2.47,1.84-2.25.59.07,1.28,0,1.18-.93s-.73-.86-1.35-.87c-1,0-2,0-3.06,0s-1.74-.18-1.71-1.48c.06-3.83-1.55-1.9-2.9-.8,0-1.22.62-2.55-1.33-3.15-2.93-.91-4.68,1.72-7.16,2.06-.1,0-.21.54-.19.82.11,1.56-.59,3.16.18,4.67C297.06,542.22,298,540,299.89,540.58Zm-100.36-3.72c-.53,2.91,1,4.88,4.14,4.9a38.94,38.94,0,0,1,8.41,1,20.87,20.87,0,0,0,4,.24c.51,0,1-.08,1.23-.68.22-.76-.29-1.1-.83-1.43a6.52,6.52,0,0,0-3.79-.91,12.63,12.63,0,0,1-3-.25c-3.43-.76-6.23-3.79-10.15-2.8,1-1.53,3.08-.75,4.23-2.08a1.61,1.61,0,0,0-1.84-.28c-2.12.83-5.45,1.52-6.32-.27-1-2.1-2.19-2.23-3.65-2.07-3.57.39-7.48-1.81-10.72,1.52-.51.52-2,0-3,.15a21.62,21.62,0,0,0-3,.87c4.05,2.29,8.35,2.82,12.46,3.93.74.2,1.8.44,2.35-.23C192.75,535.08,196.16,536.18,199.53,536.86Zm51.7,10.48c2,.34,3.5-1.21,5.73-1.43-1.64,2.26-4.06,2-6.16,3.13A86.65,86.65,0,0,0,267,552.86c2.21.29,3.83-1.27,3.59-3.91-.15-1.68-2-.75-3-1a4.9,4.9,0,0,0-1.53,0c-1.74.23-2.7-.24-2.47-2.28.21-1.85-1.16-2.27-2.66-2.68-2.18-.59-2.13,1.74-3.27,2.38-1.24-.55,1.1-2.14-.72-2.28-1.11-.08-2.47-.64-3.33.75-.73,1.19-1.52,2.34-2.28,3.51l-.33.25c.07,0,.18,0,.21,0A1.07,1.07,0,0,0,251.23,547.34Zm19,35.78a1.59,1.59,0,0,0,.88,1.34s.21-.13.2-.17a1.82,1.82,0,0,0-.93-1.32c-.27-1.2-.63-2.54-1.93-2.81-1.11-.24.16,1.29-1.1,1.6-.1-1.64-2.47-1.19-2.7-3-.08-.67-.76-.62-1.23-.44s-.26.62-.15,1q3,10.29,5.89,20.61a4.09,4.09,0,0,0,.53-1.93c.56-2.55,2.6-1,3.95-1.3,1.07-.25,2.49-.22,2.15,1.55-.68,3.52,1.56,4.08,4.21,4.93,4,1.27,6.69-.65,9.48-2.78,0,0-.31-.47-.48-.73.67-.39,1.1.21,1.65.35,1.89.46,2.88,3,4.79,2.67,4.29-.73,8.6-.23,12.87-.73,2.81-.33,4.48-1.93,3.77-4.65-.59-2.26.21-6.28-4.42-5.61a.82.82,0,0,1-1-.86,31.86,31.86,0,0,1,.14-4.89c.17-1.12,1.39-1,2.29-1.07.64-.08.67-.64.83-1.12a4.19,4.19,0,0,0-4.13-5.57c-11,.3-22.08,1.16-33.07-.6-.54-.09-1.3-.32-1.64.37s.26,1.19.62,1.61c1.6,1.85,3.52,3.5,4.93,5.4,1.72,2.3,4.51,4,4.9,7.19l-3.67-3.4c-.63,1,.28,2.28-.31,3.75-1.13-1.88-2.78-1.31-4.26-1.41-.79-.05-1.91.15-1.72-1.09.4-2.6-.68-4.49-2.44-6.2-.24-.25-.78-.89.05-1.14C269.49,582.55,269.92,582.94,270.28,583.12ZM22.85,491.9c0,1.52,0,3,0,4.55,0,.85,0,1.68-1.21,1.63s-1.38.59-1.29,1.55c.06.61.4.84,1,.91a1.45,1.45,0,0,0,1.77-1.19c.74-2.51,2.45-5-.24-7.43-.48-.72.46-1.07.44-1.61-.05-1.91,1.27-4.77-.68-5.52-2.93-1.12-1.15-3-1.57-4.5-.49-1.71.7-2,2.12-2,.84,0,.9-.66.9-1.29a21.24,21.24,0,0,0-.58-6.68c-.53-1.66-1.31-2.79-3.23-2.42s-4.36-1.21-5.51,2.11c-2.56,7.42-2.71,15-2.36,22.67.05,1.12.5,1.81,1.67,1.65,2-.26,2.33.93,2,2.4-.91,4,.44,7.44,2.36,10.83.65,1.14,1.29,1.76,2.59,1.57.15,1-.46,2.25,1,2.79.13-1.8.13-1.8-1-2.75-.32-1.86-1.11-3.59-1.6-5.41-.59-2.17,1.23-5.49-2.61-6.37-.08,0,0-.57-.08-.88-.49-4.31-.33-4.49,4.11-4.62C21.45,491.9,22.15,491.91,22.85,491.9Zm373.69,42.23c0-.81.07-1.62,0-2.42-.14-1.51.77-1.84,1.89-1.57,1.42.34,3.93-1.21,4.11,1,.2,2.57,1.24,2.81,3.2,2.64.62-.06,1.2,0,1.3.91.18,1.54,1.35,1.52,2.53,1.55,6.36.19,12.71.56,19.07.51,2,0,5.06,1.77,5.85-2.11,0-.16.73-.22,1.12-.26,2.22-.22,4.43-.43,6.65-.62,2.69-.23,3.73-2.09,2.51-4.46-.56-1.08-1.06-2.2-1.54-3.32-.56-1.29-1.22-2.37-2.92-2.07s-1.89-.81-1.92-2.2c-.06-2.19.33-4.31-1-6.48-27.94-44.34-58.36-86.79-94.37-125-16.61-17.64-34.22-34.19-53.7-48.69a7.31,7.31,0,0,0-5.62-1.72c-2.22.29-3.31-.39-2.88-2.79.29-1.66-1-2.27-2.08-3a329.78,329.78,0,0,0-46.24-26.49c-6-2.87-11.81-6.87-19.11-5.29-.93.2-1.7-.21-1.49-1.32.44-2.38-1.26-2.89-2.89-3.58a580.06,580.06,0,0,0-59-20.64c-16.76-5-33.64-9.56-50.73-13.22s-33.68-9.19-51-11.65c-1.32-.18-2,0-2.22,1.63a77.26,77.26,0,0,0-.43,10.75c0,.82-.07,1.62,1.16,1.72,2.3.19,1.21,2,1.22,3.1s1,2.68-1.26,3.14c-1.38.27-1.75,6.94-.46,7.1,2.63.33,1.68,2.09,1.78,3.41s.48,3.12-2,3.14c-.84,0-.85,1.32-.91,2.08-.21,2.55-.25,5.12-.45,7.67-.07.84.28,1,1,1.16,2.45.57.82,2.52,1.13,3.79.23.92.48,2.06-1.33,2.46-2.32.53-.89,3-1.53,4.44-.49,1.12.24,1.46,1.38,1.7s1.47,5.74.44,5.87c-3.24.38-2.39,2.8-2.56,4.62-.48,5.3-1.27,10.63-1,15.9.14,3-2.8,6.87,1.53,9.27.15.08.11.59.07.89-.23,1.9,1,4.32-2,5.24-.8.24-.4,1.48-.57,2.26-1,4.29.2,8.59-.34,13-1.46,11.83-.94,23.76-.24,35.65,0,.68-.19,1.86.57,1.88,2.79.1,1.92,2.08,2,3.52.08,2.36,0,4.72,0,7.08,0,.75.33,1.88-.95,1.87-2,0-1.67,1.41-1.73,2.55-.35,6.66-.64,13.32-1,20-.06,1.22.1,1.82,1.59,2.31,1.77.58.67,2.65.8,4,.07.84.64,2-.84,2.58s-3.18,4.65-2,5.38c2.8,1.79,1.77,4.33,1.58,6.42-.23,2.45,2.17,6.08-2.39,7.17-.1,0-.13.36-.18.56a20.38,20.38,0,0,0-.28,7.65c.37,2.16-2.54,5.26,1.58,6.52.16.05.26.81.14,1.16-.79,2.22,2.1,5.66-2.19,6.75-.11,0-.2.35-.2.54,0,2.15-.64,4.6.17,6.39,1.2,2.68,1.63,4.88-.07,7.39-.38.55-.28,1.36.65,2,2.45,1.77,2.34,5.46,0,7.54.55.8,2.39-.25,2.25,1.41-.22,2.73,2,5,1.31,7.81C41,523.76,42,524,43.16,524c1.35-.09,3.32-.08,3.45,1.18.25,2.39,1.86,2.2,3.22,2.3,6.84.48,13.69.83,20.54,1.24.43,0,1,0,1-.43,0-2.71,2-1.93,3.26-1.77,4.71.59,9.41,1.26,14.07-.09,2.37-.68,4.71-1.88,7.17-1.11s4.66.39,7,.51c.92.05,1.68.1,2-1.28s5.75-1.8,5.88-.58c.35,3.17,2.69,2.31,4.36,2.43,7,.51,13.91,1.06,20.87,1.16,4.35.06,8.64.8,13.09.34,3.41-.35,7.43-1.8,10.67,1.21a.87.87,0,0,0,.78-.19c2.22-3.08,4.69-2.13,7.52-.87a8.19,8.19,0,0,0,4,.46c2.91-.31,5.8-1.2,8.79-.82.68.09,1.55-.14,1.56,1,0,2.16,1.5,1.58,2.6,1.3,5-1.26,10.15-1.1,15.27-1,.75,0,1.83-.28,1.83,1,0,1.89,1.35,1.42,2.38,1.43,6.77.1,13.54.21,20.31.21,1.59,0,3.89,1.1,4-2.12,0-.79,1.21-.4,1.87-.55,2-.44,3.79,1,5.64.87a32.87,32.87,0,0,1,7.93.06c.66.11,1.25.53,1.65-.59.52-1.41,4.59-2.21,5.85-1.31a24,24,0,0,0,8.33,2.84c8.81.08,17.62-.84,26.42.53,1.56.24,4.25,2.37,4.69-1.53,0-.11.56-.26.83-.22,2.56.37,4.74-.53,6.94-1.72a6.3,6.3,0,0,1,4.22-.34,48.16,48.16,0,0,1,8.81,3.1,10.59,10.59,0,0,0,5.45.66c2.14-.23,2.8,2.77,5.07,1.77,3.68-1.63,7.6-1,11.44-1,.53,0,1.08,0,1.15-.69.15-1.63,1.39-1.25,2.31-1.19,4.58.28,9.19-.7,13.75.53,1.26.34,2.63-.15,2.59,2,0,.92.92,1.37,1.68.49s1.54-.3,2.26-.55c2.85-1,4.66,1.81,7.3,1.9,7.37.23,14.74.75,22.11,1.12.68,0,1.91.35,1.95-.3.14-2.31,1.59-2.19,3.17-2.09S395,532.75,396.54,534.13ZM52.27,245.6c1,.79,3,.13,2.57,2.53s.92,3.09,2.94,3.72c12.83,4,26,6.64,39.06,9.69,38.27,8.95,76,19.53,112.4,34.59a4.09,4.09,0,0,0,3.06.22,11.66,11.66,0,0,1,5.75-.05c1.2.28.28,2,.65,3.05s1.52,1.26,2.42,1.65a340.28,340.28,0,0,1,55.32,30.09c2.55,1.74,5,3.09,8.18,2.56,1.95-.33,2.65.55,2.33,2.39s.59,2.73,2,3.74a362.75,362.75,0,0,1,37.65,32,623.29,623.29,0,0,1,63.5,72.58q26,34.44,48.75,71c.76,1.21,1.11,2.89,3.24,2.38,2.37-.56,2.88.88,2.51,2.79-.78,3.94,1.35,6.77,3.41,9.83.69-1.42-.24-2.51-.25-3.66-.1-7.17-2.65-13.89-3.8-20.87-.05-.29-.16-.78-.31-.81-2.45-.45-1.12-2.4-1.53-3.67-.67-2.11,1.67-3.37,1.24-5.6-2.4-12.49-4.75-25-7.32-37.44-5.41-26.13-12-51.93-21.11-77-8-22-17.18-43.5-32.39-61.79-1.65-2-3.17-3.72-6.06-3.16-1.59.32-2.34-.41-2.06-2,.43-2.39-.89-3.78-2.68-5a130.56,130.56,0,0,0-16.07-9.52c-15.57-7.76-32.06-13-48.69-17.81-20.91-6-42.14-10.76-63.5-15q-31.45-6.24-63.17-10.86c-13.82-2-27.59-4.32-41.49-5.81-10.85-1.16-21.64-2.86-32.48-4.11q-17.49-2-35-3.6c-1.68-.15-3.87-1.38-5.18,1.43-.58,1.23-5.08.11-5.7-1.34a1.22,1.22,0,0,0-1.4-.81,1,1,0,0,0-1,1.21c.39,2.49-1.09,2.63-2.93,2.47C54.11,245.53,53.19,245.6,52.27,245.6ZM461.53,403c-1-.5-2.49-.24-2.18-1.91.27-1.52-.86-4.06.7-4.4,2.68-.58,2.22-2.31,2.31-3.86.85-13.91,1.62-27.83,2.42-41.74.06-1,.34-2-1.31-2.16-1.06-.12-1.61-5.73-.65-5.85,3.85-.5,2.49-3.47,2.62-5.43.63-10.13,1.05-20.27,1.52-30.41q.82-18,1.59-36c.05-1,.36-2.06-1.42-2.44s-.83-2.36-.95-3.62c-.08-.81-.73-2.3,1-2.38,1.84-.09,1.18-1,.94-2-.58-2.46-2.5-1.69-4-1.68-1.8,0-3.35.05-2.93-2.48.17-1-.5-1.54-1.37-1.7s-1.84-.63-2.43.91c-.45,1.19-5.79,1.12-5.86.08-.16-2.27-1.64-2-3-2-7.58-.34-15.16-.72-22.74-1-14-.49-28.08-.86-42.12-1.35-7.18-.24-14.34-.66-21.52-.94q-19.81-.75-39.65-1.4c-.74,0-1.52-.25-2.22.55-1.53,1.75-4.34,1.69-6.36.32a5.52,5.52,0,0,0-5.74-.48c-2,1.13-6.31,1.9-8.2,1.08a20.06,20.06,0,0,0-7.38-2.12c-12.6-.42-25.22-.62-37.8-1.42-5.62-.36-11.27-.58-16.87-.8-4.23-.17-9.09-2.35-13,1.59,0,.05-.19,0-.3,0h-6.46c-.5,0-1.28,0-1.28-.52,0-2.84-2.15-1.77-3.54-2a20.35,20.35,0,0,0-4.59-.35c-2,.19-5-2.13-5.85,1.91,0,.17-.73.29-1.11.29a27,27,0,0,1-5.83-.12c-1-.22-2.91.15-3.1-1.23-.28-2.16-1.67-1.81-2.88-1.68-6.89.76-13.83-2.06-20.73.53-3.72,1.4-6.85-1.81-10.61-1.89-19.16-.41-38.33-1.15-57.49-1.84-7.58-.27-15.15-.77-22.73-1.05-3.89-.15-7.79,0-11.68,0l0,.78c2.55.33,5.09.75,7.64,1,11.7,1.07,23.38,2.22,35,3.65,16.09,2,32.21,3.71,48.25,6.17,14.5,2.23,29.08,3.93,43.55,6.36,20.36,3.42,40.68,7.12,60.86,11.53,23.76,5.2,47.3,11.17,70.26,19.22,13.6,4.77,26.84,10.38,38.75,18.68,2.38,1.66,4.58,3.37,7.73,2.78,1.65-.3,1.88.77,1.74,2a6.64,6.64,0,0,0,2,5.48,124,124,0,0,1,14.73,21.07c11.56,20.55,19.59,42.53,26.38,65,9.18,30.33,15.48,61.33,20.87,92.52.28,1.57.49,2.55,2.3,2.34,1.61-.18,1.44,1,1.5,2,.06,1.31-.44,2.75.42,3.89,2.29,3,2.06,5.05-1,6.47-.94.43-.77,1.17-.68,1.79.84,6,1.73,12,2.62,18,.39-1,.15-2.3.68-3,2.66-3.42,2.8-7.38,3-11.44.67-13.41,1.5-26.81,2.28-40.21.55-9.41,1.14-18.82,1.66-28.23q.46-8.3.77-16.59c0-.88.54-2.25-1.19-2.25-1.37,0-2.78.16-2.49-2,.18-1.31-.6-3.36.34-3.8,2-.93,1.6-2.41,1.46-3.76-.22-2.21.45-3.31,2.92-3-1.93-.71-3.5-5.19-2-6.1,2.27-1.33,1.57-3.08,1.48-4.66C458.54,403.73,459.31,402.89,461.53,403ZM451,537.53c-1.83.86-2.87,2.59-5,2.48a39.9,39.9,0,0,0-7,.42c-1.72.2-4.68,1.75-5.25-2,0-.18-.91-.31-1.4-.32-7.49-.23-15-.37-22.45-.67-2-.08-2.61.61-2.34,2.45.46,3.09-3.75,4.52-2.79,7.8a6.84,6.84,0,0,0-2.06.29c-3.08,1.51-7.44-1.4-9.75,2.85-.16.3-1.16.11-1.76.21-1.87.32-3.76-1.12-5.25-.74-10.36,2.65-20.91,2.44-31.45,2.56a36,36,0,0,0-8,.59c-.63.15-1.77-.21-1.68.83.25,2.69-1.52,2.29-3.14,2.31-1.92,0-3.43-.69-4.1,2.75s.51,2.77,2.35,2.76c2.73,0,3.8,1.66,4.17,4,.12.78-.3,1.76.55,2.27,3,1.86,5.24,5.43,9.53,4.78,1.71-.26,2.51.39,2.25,2.18-.46,3.06.76,4.43,3.93,4,.88-.12,2.24-.47,2.2,1.24a14.07,14.07,0,0,0,1.66,6.08c1.85,4.19,2.55,8.9,3.4,13.49.36,1.94-1.94,2.36-1.4,4,1.19,3.61,1.06,7.43,1.83,11.11.86,4.16-.55,6.35-4.34,7.18-.89.2-1.19.33-.79,1.37a14.81,14.81,0,0,1,.29,3c.36,2.38-.5,3.38-3,3-1.25-.17-2.77-.42-2.61,1.8.12,1.72-1.31,1.18-2.21,1.23-1.51.09-3.09-.26-4.35,1-.49.48-1.44.72-1.23,1.56s1.2.53,1.83.53q28.78,0,57.57,0c2.47,0,2.76-2.92,4.81-3.62.47-.16,0-1.07-.94-1.35-1.31-.41-1.94-5.77-.82-5.87,3.36-.31,1.95-3,2.29-4.46.37-1.65,1.6-3.21.64-5.35-.74-1.64-.88-5.49.32-5.46,3.57.09,1.58-3.34,3.3-4a2.55,2.55,0,0,1,.92,0,34.91,34.91,0,0,1,3.69,0c2.89.33,6.19-3.21,5.77-6a12.66,12.66,0,0,1,.09-5.17c.34-1.15,2-.33,3.08-.58s1.14-1.13,1.45-1.82q4-8.79,7.85-17.64c.28-.62.86-1.17.18-2.15-1.09-1.58-.64-3.59-.32-5.32.26-1.45,1.94-.42,2.92-.78a2.06,2.06,0,0,0,1.16-1.69c1.25-5.35,5.11-10.08,3.24-16.21C447.85,544.79,451.27,541.53,451,537.53ZM35,361.27c-2.32,1.63-.87,3.8-1,5.65s.1,3.56-2.64,3.11c-1.21-.19-1.4.93-1.71,1.79-1.66,4.5-3.33,9-5,13.5a1.77,1.77,0,0,0,.35,2.27c1.23,1.36.15,5.86-1,5.73-2.66-.29-2.89,1.38-3.34,3.31a37,37,0,0,0-.51,6.11c-.05.81.06,1.7,1.24,1.71s2.37-.07,2,1.49,1.54,4-1.48,4.73c-.4.1-.89.24-.12.54,2,.78.74,2.44,1,3.66.44,2-.49,2.8-2.45,2.72-.18,0-.52.61-.55,1-.26,2.75-.44,5.51-.67,8.27-.09,1.12.39,1.4,1.47,1.77,2,.69.7,2.62.94,4,.13.76.48,2.08-1,2.05-1.9,0-2.09,1.37-1.86,2.48.79,3.75-2.45,8,2.09,11.49,1.11.84,1.33,1.23,2.42.64A52.37,52.37,0,0,1,33.63,445c.72-.21,1.8-.23,2-1.13.78-3.21,2.45-6.13,2.05-9.72a67.68,67.68,0,0,1,.18-11.38c.35-5.94-.1-8.09-3.25-13.3a1.27,1.27,0,0,1-.1-.9c.53-1.7-1.59-4.52,2.08-5,.22,0,.39-1.08.43-1.67.83-11.88.49-23.79.54-35.69,0-.64.29-1.71-.74-1.71C34.31,364.56,35.42,362.62,35,361.27ZM455.66,511.52c1.12-2.42.67-4.5,1.56-6.46s.26-4.23,3.24-4.5a3.53,3.53,0,0,0,.12-.88c.87-8.84,1.72-17.69,2.66-26.52.11-1.05-.13-1.24-1.08-1.65-2-.88-.63-2.84-.92-4.29-.15-.73-.24-1.81,1-1.74,2.16.12,1.84-1.44,1.92-2.71.88-14,.18-28-.66-42.06a8.25,8.25,0,0,0-1.16-4.67c0,2.23.59,4.4-.12,6-1.72,3.85-1.37,7.85-1.68,11.81-.5,6.63-.89,13.27-1.35,19.9-.77,10.92-1.58,21.84-2.35,32.75-.47,6.63-.89,13.27-1.37,19.9C455.41,507.88,454.7,509.35,455.66,511.52ZM37.58,548.92c0-1.08.36-2.92-1.89-3.92-1.66-.73-3.93-.68-4.53-3.1-.11-.44-.81-.25-1.34-.19a21.22,21.22,0,0,1-4.29.07c-1.59-.16-3.34-1-3.22-2.61.21-2.62-1.44-3.23-3.12-4.18-2-1.11-4-.48-6-.51-1.57,0-2.28-.44-2.08-2.09s-.09-2.87-1.87-3.34c-.36,1.41-1.91,2.3-1.71,4,.44,3.72,3.21,6.37,4.51,9.7.1.25.94.36,1.4.3,1.7-.2,2,.61,2,2.14.09,4.57.15,4.54,4.87,4.69.82,0,2.41-.5,2.31.67-.24,2.87,2,2.15,3.34,2.75,2.14.93,4.55-.48,6.85,1.57C34.44,556.26,37.58,552.82,37.58,548.92Zm334.27-1.61c3.89-.89,8.53-.4,13.13-.7.69-.05,1.89-.18,2-.49.77-3.19,3.42-1.92,5.33-2.59,2.75-1,5.6-1,8.33-1.75.44-.12.75-.26.8-.75s-.15-1-.5-.95c-2.17.57-4.07-1.75-6.4-.35-2,1.22-4.05,2.83-6.81,2.15-1-.24-.82.83-1.05,1.47-.68,1.83-2.29.76-3.45.86-.85.08-2.48.71-2.54-.74-.11-2.44-1.69-2.17-3.18-2.22-2.76-.09-5.53-.15-8.3-.15-.94,0-2.14-.3-2.21,1.36-.07,1.9-1.67,1.23-2.56,1.13-1.21-.12-2.84,1-3.59-1-.9-2.45-3.33-.5-3.37-.28-.72,3.87-3.88,2.15-5.37,1.83-5.05-1.07-9.57,1.31-14.37,1.46-.64,0-.77.47-.88,1-.48,2.38.51,3.64,2.89,3.81a47.67,47.67,0,0,0,15.39-.83c1.53-.38,3.07-.62,2.67-2.83-.12-.66.17-1.26,1-1.21,2.87.21,5.62-1,8.51-.65.69.09,1.57-.09,1.55,1C368.77,547.76,370.11,547.27,371.85,547.31Zm-83.38-12.87c-10.34.09-20.58-1.15-31.58-.43,2.75,2.19,4.95,3.6,8,3.55a5.8,5.8,0,0,1,3.78.79c2.14,1.37,4.17,2.19,4,5.15,0,.08.34.19.52.28,3.08,1.56,6.12,3.31,9.64,3.65,6.39.61,5.9-.27,5.11-5.54C287.5,539.38,287.16,536.93,288.47,534.44Zm-240-5.79c-.91-.38-1.14,0-1.7.85-1.94,3,1.39,3,2.28,4,1.25,1.32,3.2-.41,4.93-.36,1.25,0,.65-1.22.91-1.89.86-2.3,2.79-.72,4.2-1.07,1.06-.26,2.13,0,1.92,1.51-.25,1.83.62,2.41,2.28,2.14,2.17-.35,2.94.54,2.71,2.69-.08.74-.59,2.15.87,2.14s.89-1.38.88-2.15c0-1.92-.27-3.79,2.69-3.36.92.13,1-.78,1-1.54s0-1.46-1-1.58-2.22-.41-3.34-.47C60.89,529.2,54.66,528.94,48.44,528.65ZM44.09,271.93c-1.7,1.14-.14,3.46-1.56,3.63-2.56.3-1.8,2-1.92,3.32-.14,1.63-.24,3.26-.27,4.9-.11,7.77-.18,15.55-.31,23.32,0,1.39.3,2.28,1.87,1.83.9-.26,1.52-5.29.79-5.93-2.88-2.55-2.85-4.52.07-6.44a1.51,1.51,0,0,0,.66-.94c.27-3,.49-6.09.69-9.15a1.12,1.12,0,0,0-.41-.72c-2.63-2.31-2.56-4.11.21-6.43a1.54,1.54,0,0,0,.46-1.05A22.58,22.58,0,0,0,44.09,271.93ZM35.75,493.42a10.67,10.67,0,0,1,0-2.11c.81-2.87-2.53-2.54-3.42-4.21-.26-.47-2.87.14-2.79,2.42.08,2,1,4.77-2.87,4.39-.73-.07-2.41,5.36-2,6.09a1.26,1.26,0,0,0,.67.41c1.63-1.87,6.12,2,6.18-3.05,0-.17.68-.53,1-.47C36.21,497.55,36,495.2,35.75,493.42Zm205.37,48.69a3.77,3.77,0,0,0,.58,0c.06,0,.14-.16.15-.26.26-3.13,2.68-1.45,4.16-1.87.71-.2,1.79.45,2.06-.71a2.66,2.66,0,0,0-.66-2.83,13.31,13.31,0,0,0-6-3c-1.43-.33-2.74-.65-2.54,1.58.08.94-.45,1.27-1.32,1.21-2.06-.14-1.7,1-1.39,2.38C236.82,541.29,239,541.56,241.12,542.11Zm-219-21.18c-.81-1-2.31-.23-2.29-1.29,0-3.62-2.45-3.23-4.67-3s-2.26-.86-2.26-2.54c0-4.2,0-4.31-4.19-4.23-2,0-2.8-.46-2.58-2.53.16-1.49.3-3.13-1.72-3.86a30.63,30.63,0,0,1-.64,5.78c-.23.88-.64,2.48,1.29,2.4,2.81-.13,5.74-.49,4.92,3.92,0,.12.2.37.36.44C14.1,517.65,17.16,520.9,22.15,520.93Zm188.74,11.94c1.63,1.67,3.56.06,4.56,1.61,2.05,3.15,7.29,5.08,10.49,3.52a4.63,4.63,0,0,0,2.32-4c0-1.53-1.77-.65-2.74-.83a20.19,20.19,0,0,0-3.65-.28C218.38,532.85,214.89,532.87,210.89,532.87Zm-64-3c-.94-.94-2.11-.85-3.17-.92-6.94-.47-13.89-1-20.84-1.28-3.27-.15-6.54-.2-9.8-.57-.75-.08-2-.66-2.14.89s1.22,1.28,2.16,1.36c.71.07,1.43,0,2.15.06,6.35.17,12.7,0,19.05.41C138.41,530.15,142.59,529.91,146.86,529.91ZM242,546.63c.91-3.07-1-3.76-3.3-4.16s-3.46-1.74-3.43-3.72c.05-3-2.21-2.61-3.89-3.06-.84-.22-1.68.06-1.7,1.2,0,.77-.29,1.83,1,1.81,1.62,0,1.4,1,1.47,2.06.05.75-.44,2,.57,2.12,1.34.23,2,.58,2,2,0,.72.71,1,1.31,1.06C238,546.12,240,547.18,242,546.63Zm144.87,1.42c-4.79,0-9.81,0-14.82,0-1.5,0-3.48-.46-3.35,2.25.05.84-.84.69-1.41.71-1,0-2,0-3,0C373.13,552.25,384.82,550.35,386.91,548.05Zm-173.28-4.32a3.67,3.67,0,0,0-1,0c-1.13.34-3.09-1.18-3.26,1.37s1.85,1.5,3,1.63,2.5-.21,2.67,1.88c.11,1.28,5.1,2.3,5.17,1.37.18-2.47,1.78-1.92,3.21-2,.83,0,2.08.33,1.88-1.18-.22-1.7-1.08-1.13-2.33-.83-1.7.4-4.83.86-5.16-.23C217,542.88,215.06,544.13,213.63,543.73ZM39.45,344.15a3.14,3.14,0,0,0,1.16-2.67c.56-8.27,1.08-16.54,1.65-24.81.05-.8.1-1.4-.95-1.48-1.2-.08-1.28.65-1.34,1.55C39.39,325.75,39.44,334.77,39.45,344.15ZM349.29,539.52c-4.25-6.81-10.94-1.35-16.11-3.76,1.91,1.43,3.83,2.67,6.37,2.4.75-.08,1.66-.45,2.23.89C343.31,542.63,347,542.7,349.29,539.52ZM40.9,269.46c1.35-1.26.41-3.95,3.21-3.89.08,0,.24-.54.24-.83a113.44,113.44,0,0,1,.45-12.5c0-.11-.43-.27-.77-.47-.53,1.58.4,4.07-2.55,3.9-.17,0-.55.62-.55,1C40.89,260.91,40.9,265.19,40.9,269.46ZM1.17,516.57c-.61,0-1.22,0-1.84,0s-1,.08-1.09.77a.88.88,0,0,0,.8,1c2,.51,4.62.08,5.31,3,0,.09.58.11.88.08,1.19-.11,1.68.42,1.58,1.6s.53,1.48,1.51,1.33c.72-.11,1.76.56,2.09-.61.27-.95.77-2.57.4-2.84A23,23,0,0,0,1.17,516.57ZM288.1,532.92c-10.08-2.15-20.21-1.62-30.35-.64A245.91,245.91,0,0,0,288.1,532.92Zm97.81,4.29c-8.11.23-16.18-1.45-24.29-.32C369.7,537.76,377.75,540.09,385.91,537.21ZM43.83,545.55c2.74.79,5-.64,7.46-1.28,1.1-.29,2.65-.5,2.24-2.25-.34-1.5-1.68-.69-2.57-.8s-2,0-3.06,0-1.93.23-1.66,1.49C46.66,544.69,45.35,545,43.83,545.55Zm-14.32-26c-.53-2.64,1.07-3.26,3.36-3.51-1.93-.81-1.31-2.27-1.46-3.49-.08-.6.48-1.57-.59-1.71a3,3,0,0,0-2,.41C27.18,512.54,27.58,517.92,29.51,519.59Zm314.58,15.49c1.39-.23,3.46.76,3.25-2.14-.11-1.45-.36-2.53-2-2.18s-3.91-.13-4.16,2.51S342.9,534.78,344.09,535.08Zm-30.31,53.19c-1.72,8.82-1.4,9.81,3.09,9.33Zm17.39,16.09a43.91,43.91,0,0,1-3-8.48c-.13-.68-.46-1.17-1.22-1s-.62.73-.45,1.21c.82,2.39,1.14,4.91,2.2,7.24C329.23,604.53,329.86,604.84,331.17,604.36Zm-25.94-75.17c-2.27-.8-4.19-1.43-6.19-.4-.58.3-1.57.23-1.31,1.21.17.62.52,1.41,1.44,1.3,1.76-.22,4.2,1.46,5-1.72C304.17,529.42,304.66,529.38,305.23,529.19Zm32.18-336.51c-2.24,1.66-3.8,3-3.06,5.54.18.62-.34,1.54.74,1.74s1.35-.56,1.78-1.32C337.86,196.89,337.31,195.06,337.41,192.68Zm-9-42.57c.94-3.48-.29-6.09-.42-8.76a1,1,0,0,0-1.28-1c-.57.1-.56.51-.4.9C327.34,143.87,326.43,146.92,328.41,150.11ZM62.26,541.71c-.26,1.42.29,2,1.78,2s1.94-.52,1.9-2c0-1.22-.28-1.88-1.69-1.83C63,540,62,540,62.26,541.71ZM197.77,128.43c3.84.57,3-3.09,4.73-4.57C198.51,123.07,198.65,126.07,197.77,128.43Zm54.92,415.08c-1.64-.11-.95-2.11-2.3-2.24s-2,.62-2.23,1.94c-.33,2,1.34,1.47,2.3,1.88C251.89,545.71,251.76,544.27,252.69,543.51Zm79.89-363.87c1.83-.69,1-2.85,1.68-4.28.4-.84-.38-1.4-1.17-1.16-2.24.68-.92,2.92-1.72,4.29C331.07,179,331.38,179.7,332.58,179.64Zm-140.35,49q1,3.74,2,7.46C196,235,195.29,231.27,192.23,228.63Zm46,302.63a12.82,12.82,0,0,0,5.95,1.22c.58,0,1.38.12,1.39-.75s-.75-.91-1.35-.93C242.51,530.77,240.79,530.32,238.22,531.26ZM44.67,549.86c1.84,0,2.5-1.9,3.92-2.66.23-.12-.16-1-.83-.67-1.34.74-3.67-.23-4,2.24C43.71,549.28,43.55,550.13,44.67,549.86Zm-4.48,6.86c-3.09-.63-5.29,1.63-8,2.28C35.17,559.29,37.72,558.1,40.19,556.72Zm148.1-26.29v.9h5.78c.52,0,1.07-.08,1.06-.77a.87.87,0,0,0-1-.91C192.19,529.87,190.24,530.17,188.29,530.43Zm-6-354a18.78,18.78,0,0,0,0,2.64c.21,1.21-.67,2.64.68,3.59.17.11.75,0,.8-.14a5.28,5.28,0,0,0-.1-4.35A15.71,15.71,0,0,0,182.28,176.44ZM30.2,509.78c1.1-.16,1.87-.59,1.84-1.93s-.9-1.08-1.7-1.14c-1.12-.08-1.42.5-1.36,1.49C29,509,28.86,509.94,30.2,509.78ZM6,531.77a11,11,0,0,0,2.74,7.87C7.8,537,6.89,534.39,6,531.77Zm10.49-3.67c-1.69-.74-3-.32-4.3-.46-.64-.08-1.52.25-1.63-.85-.07-.72-.09-1.46-1.11-1.46-.51,0-.7.36-.72.78a1.81,1.81,0,0,0,1.39,1.79C12,528.59,14,528.27,16.46,528.1Zm23.4-173c0-.74.12-1.73.15-2.72,0-.56.19-1.3-.68-1.38-.72-.06-.84.55-1.16,1.08C36.92,354.11,40.07,353.88,39.86,355.07Zm-7.8,202.14c2.27-.17,4.09-.53,5.31-2.33a4.49,4.49,0,0,0-2.57.7C34,556.13,32.66,555.51,32.06,557.21ZM43.29,245.45c3.49.14,3.49.14,2.47-3.23A5.91,5.91,0,0,0,43.29,245.45ZM350.9,551.3l0,.36h5.68c.74,0,1.23-.25,1.05-1.07s-.76-.33-1.19-.26ZM28.45,529c2.52,1.34,3.86,3.24,6.29,2.67C33,530.71,31.65,528.79,28.45,529ZM333.66,206.78c-.61-.66-1.14-.91-1.19-1.66s.56-1.91-.79-1.86c-.7,0-1,.87-1,1.69s-.17,2,1.31,1.83C332.38,206.75,332.79,206.78,333.66,206.78ZM188.82,175.84c.22-1.73.43-3.46.65-5.19C187.86,172.19,187.48,173.92,188.82,175.84Zm177,438.47a8.87,8.87,0,0,0,.28-5.8C365.72,610.42,364.89,612.29,365.77,614.31ZM12.92,500.9l2.42,5.19C15.92,503.77,14.69,502.22,12.92,500.9Zm298.43,79.68c-.24,1.71-.85,3,.09,4.22a.86.86,0,0,0,.84,0c1.12-1.25-.41-2.33-.28-3.54C312,581.2,311.87,581.12,311.35,580.58Zm20.93-47.51c-.66.22-2-.4-2,.58,0,1.49,1.53.73,2.38.86.7.1,2.05.45,2-.49C334.69,532.48,333.13,533.53,332.28,533.07Zm1.08,6.9c1.37,1.8.68,3.57,2.07,4.64C335.17,543.1,336.55,541.13,333.36,540ZM33.3,503.05c-.77-.13-1.25.19-1.23,1.14,0,.66.1,1.23.93,1.25s1.47.07,1.49-1C34.51,503.68,34.44,503,33.3,503.05ZM39,424.56h.16V417H39ZM281.35,548.65c1.76,1.32,3.15,1.5,4.91,0Zm-.83-.54-.22.16c.07.06.13.16.2.17s.14-.1.21-.15Z" transform="translate(8.75 -0.89)"/><path d="M251.79,411.88a4.72,4.72,0,0,0-.48.73c-.39.94.59,2.79-.9,2.78-1.77,0-3.82,1.37-5.49-.95-1.07-1.49-3.39-.64-5-1.3a4.33,4.33,0,0,0-1.53,0c-4.3,0-4.33,0-4.32-4.39a7.62,7.62,0,0,0-1-3.74c-2.44-4.54-4.1-9.31-4-14.57,0-1.11.42-2.14-1.47-2.72-2.14-.65-.58-3-.93-4.56-.29-1.3.64-1.55,1.68-1.44,1.26.13,1.73-.63,2.26-1.62a14.57,14.57,0,0,1,6.67-6.1c1.51-.75,3.79-.5,3.78-3.42,0-1.06,2.12-.4,3.27-.55,1.82-.24,4.44.91,4.95-1.86.63-3.43,2.25-4.5,5.69-4.8a5.89,5.89,0,0,0,4.54-4.3c.42-1.76,3-.49,4.66-.71,1.43-.2,1.35,1,1.24,1.87-.2,1.65.39,3.19-1.32,4.86s-.5,4.53.27,6.67c.5,1.36,2.31,1.37,3.73,1.39,6,.08,6,.07,6.57,6.27.08.92-.07,1.86,0,2.77.2,1.69-.6,2-2.13,2-3.06,0-4.76,2.11-4.8,5.59s1.53,5.37,4.89,5.4c1.64,0,2.28.56,2,2.13-.35,2.07.8,4,.62,6-.15,1.62.88,3.88-2.35,3.73-1.12-.06-.67,1.28-.71,2-.22,4-.2,4-4.21,4-3.47,0-6.86.08-10.14,1.72C255.35,416.08,252.87,414.69,251.79,411.88ZM268.6,383c-.32-3-.56-5.15-.76-7.26-.15-1.54-1.52-1.53-2.49-1.87-1.4-.49-1.06.76-1.21,1.47-.27,1.23-1.28.67-2,.81-1.14.22-2.13-.19-3.24,1.33-.95,1.31-4.55,1.36-5.5-.05-1.1-1.63-2.14-1-3.25-1.28-3.27-.87-7.18,1.91-10-1.74-.12-.16-.79,0-1.15.15a14.12,14.12,0,0,0-6.74,5.1c-.35.52-.91,1-.48,1.9,1.63,3.47,1.5,3.83-1.14,6.55a2.35,2.35,0,0,0-.36,1.43,27.52,27.52,0,0,0,4.43,15.94c.35.56.72,1.47,1.53,1.36,3.12-.4,4.38.74,4,4-.16,1.42,1.46,1.51,2.49,1.6.75.05,2.13.69,2.24-.74s.35-2.58,2.22-2.29c1.29.2,2.87-.56,3.83.41s.83.85,1.53-.2c1.24-1.84,3.35-.47,5.05-.77.77-.14,1.08.48,1,1.17-.32,2.83,1.65,2.71,3.37,2.42s3.81-.19,3.46-3.07c-.22-1.84-.15-3.79,2.67-3.69,1.29,0,1-1.11.95-1.83-.12-1.81-.77-3.67-.5-5.41.48-3.11-1.92-5.28-2.12-8.18S268.88,385.05,268.6,383Zm-6.27-17.55a.74.74,0,0,0-.75-.95c-1.14-.1-2.56.29-2.44-1.73,0-.61-.6-.28-.91-.14a2.88,2.88,0,0,0-2.08,3,29.19,29.19,0,0,1-.14,4c0,.51-1.3.42-.82,1.26a1.26,1.26,0,0,0,1.09.26,1.31,1.31,0,0,0,1.08-1.59c-.46-2.61,1.05-2.82,3-2.64C261.33,367,262.28,366.88,262.33,365.45Z" transform="translate(8.75 -0.89)"/><path d="M243.21,556.59c1.15-.36,2-.25,1.88,1.26A2.3,2.3,0,0,1,243.21,556.59Z" transform="translate(8.75 -0.89)"/><path d="M278.3,623.09c1.44-.05,1.76.65,1.26,1.89A2.48,2.48,0,0,1,278.3,623.09Z" transform="translate(8.75 -0.89)"/><path d="M279.53,624.94c.71-.27.93-.06.66.65C279.77,625.58,279.6,625.3,279.53,624.94Z" transform="translate(8.75 -0.89)"/><path d="M365.47,278.24c-3.93,0-5-1.47-4-5.15.25-1,.81-1,1.54-1a19.5,19.5,0,0,0,3.06,0c2.84-.45,3.43.73,3.54,3.47C369.72,279.44,367.11,278,365.47,278.24Z" transform="translate(8.75 -0.89)"/><path d="M325.47,267c-2.87.69-3.42-.46-3.56-3.14-.17-3.39,1.76-2.77,3.77-3,2.53-.25,3.24.57,3.25,3.15C328.94,267,328,267.79,325.47,267Z" transform="translate(8.75 -0.89)"/><path d="M317.15,121.81c-1.52.58-3.69-.13-4.34,2.18-1.79-1.39-4-2.2-5.43-4.13a2.3,2.3,0,0,0,1.8-2.55c0-2.84-2.32-3-4-3.83-.63-.32-1.66-.9-2.05,0a2.05,2.05,0,0,0,.66,2.73c1,.59,1.92,1.17,2.85,1.8.64.45,1.51.86.83,1.91-2.25-2.38-5.09-2.72-8.15-2.44-1.34.12-2.31.17-2.63-1.87s-1.5-4-4.44-3.74c-1.9.16-4.53,1.21-5.15-2.29-.12-.67-1.77-.68-2.82-.76-2.37-.18-5,1.09-6.87-1.94-.53-.89-2.83-.77-4.33-1A152.05,152.05,0,0,0,242.53,104c-1.91.09-4.45-1.07-5.21,2.57-.24,1.11-4.65,1.11-5.24.16-1.53-2.45-2.65-.54-3.91-.31-.94.16-1.71,1.17-2.82.61.76-1.53,2.83-1.13,3.69-2.51.59-.11,1.27.27,1.85-.33-.75-.31-1.39-.46-1.82.37-2.45-.32-4.54.91-6.75,1.58-.68.21-1.49.47-1.18,1.43.44,1.36,1.13.13,1.65,0,.87-.15,1.6-.93,2.6-.59l-12.94,8c.51-2.85,3.57-2.75,5.33-4.74-3,.46-3.81-4.15-7.2-2.67.21-.76.72-1.58.57-2.27-.86-4.2,1.71-4.06,4.6-3.93,4,.18,6.75-3.1,10.38-4,.23-.06.49-.73.43-1.06-.77-4.65,2.66-3.78,4.95-3.38,2.07.37,2.76.16,2.51-2-.08-.67.19-1.32,1-1.19,1.71.29,4-1.14,5,.8.74,1.39,1.53,1,2.43,1a153.29,153.29,0,0,1,18.44-.08c12.63.9,24.91,3.08,36.18,9.2,2.09,1.14,4.18.66,6.28.69,1.55,0,2.39.41,2.08,2.06s.72,2.48,2.09,3.19a111,111,0,0,1,13.54,7.83,8.31,8.31,0,0,1,1,1.08c-1,.58-1.46-.12-2-.44-2.55-1.52-5.1-3-7.61-4.6-3.29-2.06-6.59-3.89-10.72-2.93-1.64.38-2.88-.09-2.49-2.2.34-1.85-.71-2.75-2.19-3.56-8.74-4.75-18.16-7.09-27.94-8.43a123.21,123.21,0,0,0-21.45-1.1c-2,.07-4.08.36-6.11.54-.52,0-1.29,0-1.25.59.13,2.28-1,2.75-3,2.51-1.42-.18-3,.41-4-1.26-.25.29-.49.45-.47.56.52,3.38-1.14,4-4.16,3.82-4.47-.32-7.7,1.11-11.14,4.3,4.44,2.77,9,1,12.74-.9a12.25,12.25,0,0,1,8.14-1.21c1,.15,3.13.25,2.92-2.08-.15-1.67,1.13-1.61,2.05-1.36,1.37.36,3.63-1.38,4,1.19.27,1.85,1.29,1.78,2.53,1.82,5.83.18,11.62.76,17.41,1.47.64.08,1.39.67,1.66-.54.18-.77-.49-2.06,1-2.11a20.73,20.73,0,0,1,4.6.12c.95.2.55,1.42.54,2.18,0,2,1.77,2.59,2.58,1.76,1.66-1.72,3.44-.69,5.13-1,.91-.16,1.57.12,1.55,1.29,0,2.27,1.65,2.27,3.11,2a29.25,29.25,0,0,1,4.27-.19c.5,0,1.38,0,1.44.22,1.16,3.94,4.37,1.74,6.63,2.15,1.39.26,2.71,0,2.42,2.06-.08.53.11,1.21.63,1.27,3.8.47,6.26,4.34,10.29,4.1,1.72-.1,2.26.66,2,2.15A3.72,3.72,0,0,0,317.15,121.81Zm-69.37-20.14-.05.91,20.65,1.36C261.56,102.48,254.67,102.09,247.78,101.67Z" transform="translate(8.75 -0.89)"/><path d="M213.61,240c.68,2.63-.46,3.24-3,3.28s-3.25-.72-3.19-3.25c0-2.29.48-3.23,3-3.1C212.67,237,214.43,237,213.61,240Z" transform="translate(8.75 -0.89)"/><path d="M322,200c.75,2.76-.65,3.1-3.05,3.2-2.73.12-3.1-.92-3.13-3.31s.71-3.08,3.08-3S322.75,197.15,322,200Z" transform="translate(8.75 -0.89)"/><path d="M314,124.88a4.79,4.79,0,0,1,4.34,4.35Z" transform="translate(8.75 -0.89)"/><path d="M319.25,130.43c2-.26,2.41.82,2.18,2.49C320.35,132.4,320.05,131.19,319.25,130.43Z" transform="translate(8.75 -0.89)"/><path d="M313.08,124.27c.82-.54,1.05-.17,1,.65Z" transform="translate(8.75 -0.89)"/><path d="M318.32,129.18c.82-.07,1.18.16.65,1Z" transform="translate(8.75 -0.89)"/><path d="M322.59,116.51a7.2,7.2,0,0,1,4.62,4.91Z" transform="translate(8.75 -0.89)"/><path d="M198.92,118.71c-.06,1.7-1.68,2.27-2.48,3.44C196.16,120.2,197.19,119.21,198.92,118.71Z" transform="translate(8.75 -0.89)"/><path d="M208.76,108.53c0,1.93-.87,2.75-2.81,2.19Z" transform="translate(8.75 -0.89)"/><path d="M319.6,124c-1.31-.17-2.54-.43-2.49-2.17C318.18,122.23,319.35,122.57,319.6,124Z" transform="translate(8.75 -0.89)"/><path d="M210.62,107.63c-.29.79-.68,1.37-1.59.63C209.52,107.93,209.84,107.21,210.62,107.63Z" transform="translate(8.75 -0.89)"/><path d="M333.1,612a2.61,2.61,0,0,1,3.11,2.5A6.47,6.47,0,0,1,333.1,612Z" transform="translate(8.75 -0.89)"/><path d="M334.39,624.34c-1.52.28-2.43-.25-2.5-1.88A4.33,4.33,0,0,1,334.39,624.34Z" transform="translate(8.75 -0.89)"/><path d="M331.93,622.49c-1.38.59-2-.67-2.84-1.24C330.6,620.38,331.17,621.65,331.93,622.49Z" transform="translate(8.75 -0.89)"/><path d="M329.43,570.42c.6,1.31.47,2.21-1.26,2.19Z" transform="translate(8.75 -0.89)"/><path d="M330.66,585c-.35-1.57.25-2.43,1.88-2.5A5.19,5.19,0,0,1,330.66,585Z" transform="translate(8.75 -0.89)"/><path d="M332.51,582.49c-.44-1.21-.15-1.92,1.26-1.89A2.22,2.22,0,0,1,332.51,582.49Z" transform="translate(8.75 -0.89)"/><path d="M312.17,626.18a4.24,4.24,0,0,1,4.34,3.11A11.31,11.31,0,0,1,312.17,626.18Z" transform="translate(8.75 -0.89)"/><path d="M305.41,620.34c1.61.45,3.28.85,3.09,3.1C307.46,622.42,305.81,622,305.41,620.34Z" transform="translate(8.75 -0.89)"/><path d="M308.78,623.72c2-.35,3,.62,3.42,2.49C310.75,625.8,309.86,624.63,308.78,623.72Z" transform="translate(8.75 -0.89)"/><path d="M301.39,617.56c2-.68,2.76.68,3.41,2.17C303.27,619.63,302.49,618.34,301.39,617.56Z" transform="translate(8.75 -0.89)"/><path d="M316.48,629.26c1.49-.26,2.44.22,2.49,1.88A4.32,4.32,0,0,1,316.48,629.26Z" transform="translate(8.75 -0.89)"/><path d="M298.31,568.91c1.7-.52,2.61.15,2.81,1.87C299.92,570.56,299.18,569.63,298.31,568.91Z" transform="translate(8.75 -0.89)"/><path d="M300.24,609a3.77,3.77,0,0,1-3-2.3A3.75,3.75,0,0,1,300.24,609Z" transform="translate(8.75 -0.89)"/><path d="M304.42,613a4.89,4.89,0,0,1-2.72-2.62,4.77,4.77,0,0,1,3.16,2.18Z" transform="translate(8.75 -0.89)"/><path d="M304.86,612.58a6.26,6.26,0,0,1,2.46,1.86,2,2,0,0,0-.44.42,4.15,4.15,0,0,1-2.46-1.84Z" transform="translate(8.75 -0.89)"/><path d="M309.35,616.7a4.09,4.09,0,0,1-2.46-1.84,1.72,1.72,0,0,1,.43-.42,6.06,6.06,0,0,1,2.46,1.85A1.68,1.68,0,0,0,309.35,616.7Z" transform="translate(8.75 -0.89)"/><path d="M311.83,618.57a4.25,4.25,0,0,1-2.48-1.87,1.68,1.68,0,0,1,.43-.41l2.49,1.81C312.12,618.26,312,618.42,311.83,618.57Z" transform="translate(8.75 -0.89)"/><path d="M333.38,628.45c-.82-.34-1.7-.6-2-1.93a3.34,3.34,0,0,1,2.45,1.46Z" transform="translate(8.75 -0.89)"/><path d="M314,620.09a4.31,4.31,0,0,1-2.16-1.52c.15-.15.29-.31.44-.47a3.77,3.77,0,0,1,2.15,1.49Z" transform="translate(8.75 -0.89)"/><path d="M314.42,619.59c.57.23,1.21.35,1.52,1-.14.16-.28.33-.43.49-.57-.22-1.21-.34-1.52-1Z" transform="translate(8.75 -0.89)"/><path d="M284.66,600.39a5.2,5.2,0,0,1-2.39-3.08A3.05,3.05,0,0,1,284.66,600.39Z" transform="translate(8.75 -0.89)"/><path d="M280.77,596a3.15,3.15,0,0,1-1.5-2.41,2.21,2.21,0,0,1,1.84,2.06A2.26,2.26,0,0,0,280.77,596Z" transform="translate(8.75 -0.89)"/><path d="M281.11,595.68c.28.21.63.42.19.77,0,0-.35-.28-.53-.42A2.26,2.26,0,0,1,281.11,595.68Z" transform="translate(8.75 -0.89)"/><path d="M299.87,540.61c.4-1.86,1.38-2.91,3.43-2.49A11,11,0,0,1,299.87,540.61Z" transform="translate(8.75 -0.89)"/><path d="M207.18,114.66l2-1.73.55.6-2,1.73Z" transform="translate(8.75 -0.89)"/><path d="M209.14,112.93c.29-.38.58-.75,1.14-.69a1.93,1.93,0,0,0,.35.35c-.31.31-.63.62-.94.94Z" transform="translate(8.75 -0.89)"/><path d="M212.63,109.93l.09-.19.29.18c-.06.06-.12.17-.19.18S212.69,110,212.63,109.93Z" transform="translate(8.75 -0.89)"/><path d="M210.28,112.24c.21-.29.42-.62.76-.17,0,0-.27.34-.41.52A1.93,1.93,0,0,1,210.28,112.24Z" transform="translate(8.75 -0.89)"/><path d="M20.7,530.72c-.92.76-1.31.21-1.6-.63C19.91,529.61,20.18,530.48,20.7,530.72Z" transform="translate(8.75 -0.89)"/><path d="M19.14,530.12c-.5.06-.72-.15-.65-.65C19.11,529.28,19.35,529.48,19.14,530.12Z" transform="translate(8.75 -0.89)"/><path d="M245.71,555c-1.32-.15-2.53-.45-2.48-2.17A3.11,3.11,0,0,1,245.71,555Z" transform="translate(8.75 -0.89)"/></g></g><line class="cls-3" x1="8.75" y1="71.56" x2="90.38" y2="71.56"/><line class="cls-3" x1="32.95" y1="99.09" x2="98.66" y2="99.09"/><line class="cls-3" x1="8.75" y1="596.27" x2="90.38" y2="596.27"/><line class="cls-3" x1="32.95" y1="319.31" x2="93.25" y2="319.31"/><line class="cls-3" x1="52.53" y1="125.5" x2="112.83" y2="125.5"/><line class="cls-3" x1="126.36" y1="127.73" x2="217.72" y2="127.73"/><line class="cls-3" x1="60.84" y1="154.14" x2="239.8" y2="154.14"/><line class="cls-3" x1="60.84" y1="209.2" x2="121.14" y2="209.2"/><line class="cls-3" x1="72.9" y1="236.73" x2="251.86" y2="236.73"/><line class="cls-3" x1="73.48" y1="291.78" x2="134.45" y2="291.78"/><line class="cls-3" x1="72.9" y1="263.7" x2="175.51" y2="263.7"/><line class="cls-3" x1="186.98" y1="264.81" x2="244.67" y2="264.81"/><line class="cls-3" x1="138.03" y1="182.23" x2="242.04" y2="182.23"/><line class="cls-3" x1="72.69" y1="181.11" x2="128.75" y2="181.11"/><line class="cls-3" x1="130.21" y1="210.57" x2="221.58" y2="210.57"/><line class="cls-3" x1="8.75" y1="624.39" x2="69.72" y2="624.39"/><line class="cls-3" x1="32.95" y1="564.85" x2="93.25" y2="564.85"/><line class="cls-3" x1="52.53" y1="353.72" x2="112.83" y2="353.72"/><line class="cls-3" x1="126.36" y1="355.95" x2="217.72" y2="355.95"/><line class="cls-3" x1="60.84" y1="382.36" x2="239.8" y2="382.36"/><line class="cls-3" x1="60.84" y1="437.42" x2="121.14" y2="437.42"/><line class="cls-3" x1="72.9" y1="464.95" x2="251.86" y2="464.95"/><line class="cls-3" x1="73.48" y1="520" x2="134.45" y2="520"/><line class="cls-3" x1="72.9" y1="491.92" x2="175.51" y2="491.92"/><line class="cls-3" x1="186.98" y1="493.03" x2="244.67" y2="493.03"/><line class="cls-3" x1="138.03" y1="410.45" x2="242.04" y2="410.45"/><line class="cls-3" x1="72.69" y1="409.33" x2="128.75" y2="409.33"/><line class="cls-3" x1="130.21" y1="438.79" x2="221.58" y2="438.79"/><line class="cls-4" x1="259.32" x2="259.32" y2="637.23"/></g></g></svg>