<svg xmlns="http://www.w3.org/2000/svg" xmlns:xlink="http://www.w3.org/1999/xlink" viewBox="0 0 420.98 599.72"><defs><style>.cls-1,.cls-3,.cls-4{fill:none;}.cls-2{clip-path:url(#clip-path);}.cls-3,.cls-4{stroke:#000;stroke-miterlimit:10;}.cls-3{stroke-width:4px;}</style><clipPath id="clip-path" transform="translate(0 -14.79)"><rect class="cls-1" x="202.27" width="239.89" height="646.32"/></clipPath></defs><g id="Layer_2" data-name="Layer 2"><g id="Coder_Me" data-name="Coder Me"><g class="cls-2"><g id="z5pwxw.tif"><path d="M225.73,588.7c-.28-1-.77-1.67-1.88-1.34-1.6.47-.47,1.42-.26,2.12a70.8,70.8,0,0,0,6.07,14.32c.6,1,1.75,2,1.21,3.42-4.18-5.24-6.42-11.44-8.38-17.71-3.06-9.74-5.83-19.58-8.75-29.38-.27-.92-.53-2-1.94-1.77-2.24.39-2.18-1.13-2-2.57.23-2.12-.16-5.09-1.84-5.22-3.5-.27-4.74-2.47-6.42-4.73-.79-1.06-2.42-1.34-3.21-2.56,1.42-1,2.09,1.43,3.51.9-.79-1.44-2.51-1.92-2.87-3.52,1.49.24,2.37,1.41,3.43,2.3.45.37.82,1,1.5.75s.53-1.06.43-1.57c-.58-2.95,1-3.39,3.38-3.11a20.42,20.42,0,0,0,2.71,0c.1,2.29-.88,5,.34,6.8,3.35,5,6,10.85,12.3,13.2.17.07.43.2.45.33.39,3.38,3.18,2.17,5.05,2.58a26.3,26.3,0,0,0,4.18.37,193.79,193.79,0,0,0,27.83-.43c-2.24-2.71-5.64-3.32-7.37-5.94,2.84,0,4.19,3.14,7.15,3.55-4.2-5.61-6.33-11.59-4.63-18.37a13.4,13.4,0,0,0-.12-7.51c2.92,1.39,2,3.86,1.43,6-1.54,6.16-.92,11.86,2.71,17.2,2.52,3.72,3.41,4,6.1.17,1.78-2.51,4.28-2.92,6.18-2s2.64-.09,4.09-.63c-.55,2-2.61,2.45-2.94,4-.93,4.52-3.14,7.55-8.23,7.36.84,5,2.59,9.56,4,14.24.52,1.76,1.28,1.9,2.67.68-.11,1.7-1.73,2.49-.92,4.21,1.82,3.88,3.35,7.9,5,11.85.35.83.8,1.67,2,1.44,2.76-.55,2.83,1.12,2.73,3.13a37.38,37.38,0,0,0,.23,4.09c-.68-.74-1.71-1.82-2.46-.94-1.81,2.12-2.38-1.08-3.68-.62.14-2.85-2.57-4.37-3.2-6.86,1.94-.27,1.43,2.11,3.28,2.65.32-4.83-3-8.28-3.94-12.36-2.67,2.33-1.35,4.52-.1,6.83.45.84,1.6,1.66.79,2.91-.75-.28-.82-1.07-1.2-1.63-1.6-2.31-1.5-6.39-6-5.73-.44.07-.65-.43-.63-.85.08-1.81-1.23-1.5-2.26-1.45-3.4.16-6.81.28-10.18.64-1,.11-3.27-1.25-2.9,1.68.07.54-.63.22-.9.05-.72-.45-1-.57-1.35.51-.53,1.53-1.27,1.06-5.58,1.18-.11,0-.36-.51-.34-.76.1-1.51-.87-1.59-1.94-1.5a22.38,22.38,0,0,1-9.09-1.52A3,3,0,0,0,225.73,588.7Zm15.38-51.43c-.46-.81.44-1.74-.37-2.66-3.77,2.86-7.33,1.41-10.88-1.15.55,2.8,3.75,3.78,11.28,3.78-.74,1.19-1.94,1.17-3.14,1.21-1.61,0-3.08-.92-4.72-.59a.86.86,0,0,0-1.15-.48c-.06,0-.08.16-.13.24l1.32.19c2.61,2.69,6.21,3.76,9.31,5.64a1.9,1.9,0,0,0,2.55-.68c.7-1.85,0-3.89-.65-5.56S242.3,537.32,241.11,537.27ZM252,526.39l-1.53,1.71c1.36,0,2.41.2,2.18,1.89s1.24,1.65,2.25,1.76c1.48.15,3,0,4.48.09s2.52-.23,2.27-2.07c-.18-1.32,0-2.42,1.8-2.21.58.07,1.25,0,1.15-.9s-.71-.84-1.32-.85c-1,0-2,0-3,0s-1.7-.18-1.68-1.45c.07-3.76-1.51-1.86-2.83-.79,0-1.19.6-2.5-1.31-3.09-2.86-.88-4.59,1.69-7,2-.1,0-.21.53-.19.81.11,1.52-.58,3.1.17,4.57C249.21,528,250.13,525.79,252,526.39Zm-42,5.22c-1.61,2.21-4,1.94-6,3.07a85.2,85.2,0,0,0,15.82,3.74c2.16.28,3.75-1.25,3.52-3.83-.15-1.65-1.92-.74-3-1a4.65,4.65,0,0,0-1.49,0c-1.72.22-2.65-.23-2.42-2.23.2-1.81-1.15-2.23-2.61-2.63-2.14-.58-2.08,1.7-3.2,2.33-1.22-.53,1.07-2.09-.71-2.23-1.09-.08-2.42-.63-3.26.73-.72,1.17-1.74,2.13-2.49,3.28-.11.08,0,.33-.07.41A31.46,31.46,0,0,1,209.94,531.61Zm13,36.44a1.58,1.58,0,0,0,.86,1.32s.21-.13.2-.17a1.75,1.75,0,0,0-.91-1.29c-.26-1.18-.62-2.49-1.89-2.76-1.09-.23.16,1.27-1.07,1.57-.11-1.6-2.42-1.17-2.65-3-.08-.66-.75-.61-1.2-.43s-.27.6-.15,1q2.9,10.1,5.76,20.19a3.79,3.79,0,0,0,.52-1.89c.56-2.5,2.55-1,3.87-1.27,1.05-.25,2.44-.22,2.11,1.52-.67,3.44,1.53,4,4.12,4.82,3.88,1.24,6.55-.64,9.29-2.72,0,0-.31-.46-.47-.71.65-.38,1.08.2,1.61.33,1.85.45,2.82,2.94,4.69,2.62,4.2-.71,8.42-.22,12.61-.71,2.75-.33,4.39-1.89,3.69-4.56-.58-2.21.2-6.14-4.33-5.49a.8.8,0,0,1-1-.85,33.07,33.07,0,0,1,.14-4.78c.17-1.1,1.36-.94,2.24-1,.63-.08.66-.63.82-1.1a4.11,4.11,0,0,0-4.05-5.45c-10.81.29-21.62,1.13-32.39-.59-.53-.09-1.27-.31-1.6.36s.25,1.17.61,1.58c1.56,1.81,3.44,3.42,4.82,5.29,1.68,2.25,4.42,3.89,4.8,7l-3.6-3.33c-.62,1,.28,2.24-.29,3.67-1.11-1.84-2.73-1.28-4.18-1.38-.77-.05-1.87.15-1.68-1.07.38-2.54-.67-4.4-2.39-6.07-.24-.24-.77-.87,0-1.12C222.21,567.5,222.63,567.88,223,568.05Zm-22.33-53.43c.5-1.38,2.76-1.54,4-.65a23.44,23.44,0,0,0,8.16,2.77c8.62.08,17.26-.82,25.87.52,1.53.24,4.16,2.33,4.6-1.49,0-.11.54-.26.81-.22,2.51.37,4.64-.52,6.8-1.69a6.16,6.16,0,0,1,4.13-.32,46.54,46.54,0,0,1,8.62,3,10.41,10.41,0,0,0,5.34.66c2.1-.23,2.75,2.71,5,1.72,3.6-1.59,7.44-.93,11.2-.94.52,0,1.06,0,1.13-.68.15-1.59,1.37-1.22,2.27-1.17,4.48.28,9-.68,13.46.52,1.23.34,2.58-.14,2.54,1.92,0,.9.9,1.34,1.65.48s1.5-.3,2.21-.54c2.79-1,4.56,1.77,7.14,1.85,7.23.23,14.44.74,21.66,1.11.66,0,1.87.33,1.91-.3.14-2.26,1.56-2.15,3.1-2.05s3-.42,4.42.93c0-.79.06-1.58,0-2.37-.14-1.47.76-1.8,1.85-1.53,1.4.33,3.85-1.19,4,1,.2,2.51,1.22,2.75,3.14,2.58.61-.06,1.18.05,1.27.89.18,1.51,1.33,1.49,2.48,1.52,6.23.18,12.45.55,18.68.5,1.94,0,4.95,1.73,5.72-2.07,0-.15.72-.21,1.1-.25,2.18-.21,4.35-.42,6.52-.61,2.63-.23,3.65-2,2.46-4.36-.55-1.07-1-2.16-1.52-3.26-.54-1.26-1.19-2.32-2.85-2s-1.85-.79-1.89-2.15c-.05-2.14.33-4.22-1-6.34-27.35-43.43-57.15-85-92.42-122.45-16.27-17.27-33.51-33.48-52.58-47.68a7.18,7.18,0,0,0-5.51-1.69c-2.17.29-3.24-.38-2.83-2.74.29-1.62-.95-2.21-2-3-14.34-10-13.75-11-29.48-18.53-5.88-2.81-1.08-1.09-.21-.71,18.89,8.3,10.41,4.74,27.47,16.38,2.5,1.7,4.92,3,8,2.51,1.91-.32,2.59.54,2.28,2.34s.57,2.67,1.92,3.66a355.81,355.81,0,0,1,36.87,31.38,610.93,610.93,0,0,1,62.2,71.08q25.44,33.74,47.74,69.57c.74,1.19,1.08,2.83,3.18,2.33,2.31-.55,2.82.86,2.45,2.73-.76,3.86,1.32,6.64,3.34,9.63.68-1.39-.23-2.45-.25-3.59-.09-7-2.6-13.6-3.72-20.43,0-.29-.15-.77-.3-.79-2.4-.44-1.1-2.36-1.5-3.6-.65-2.07,1.63-3.3,1.21-5.49-2.35-12.23-4.65-24.46-7.17-36.66-5.29-25.6-11.75-50.87-20.67-75.44-7.84-21.58-16.83-42.61-31.72-60.53-1.62-1.95-3.1-3.64-5.94-3.08-1.55.3-2.29-.41-2-2,.41-2.35-.87-3.7-2.63-4.92a128.51,128.51,0,0,0-15.74-9.33c-15.24-7.6-31.4-12.76-47.68-17.44-20.48-5.89-41.27-10.53-62.19-14.68l18.23,2.5c23.27,5.09,46.33,10.94,68.82,18.82,13.31,4.67,26.28,10.17,37.94,18.3,2.34,1.62,4.49,3.29,7.57,2.72,1.62-.3,1.85.75,1.71,2a6.49,6.49,0,0,0,1.93,5.36,122.08,122.08,0,0,1,14.43,20.65c11.31,20.12,19.18,41.64,25.83,63.64,9,29.71,15.16,60.07,20.45,90.62.26,1.53.47,2.49,2.24,2.29,1.58-.18,1.42.93,1.47,1.95.06,1.28-.43,2.7.41,3.82,2.25,3,2,4.94-.94,6.33-.91.43-.75,1.14-.66,1.76.82,5.88,1.7,11.75,2.56,17.63.39-1,.16-2.26.67-2.93,2.6-3.36,2.75-7.23,2.95-11.21.66-13.13,1.47-26.25,2.23-39.38.54-9.22,1.11-18.43,1.63-27.65q.45-8.13.75-16.25c0-.86.53-2.2-1.16-2.2-1.35,0-2.73.15-2.45-1.92.18-1.28-.58-3.29.34-3.72,2-.92,1.57-2.36,1.43-3.68-.22-2.17.44-3.25,2.86-2.92-1.89-.7-3.43-5.08-1.92-6,2.22-1.31,1.54-3,1.45-4.58-.11-2.09.64-2.92,2.82-2.78-1-.48-2.44-.23-2.14-1.86s-.83-4,.69-4.31c2.63-.57,2.17-2.26,2.27-3.79.82-13.62,1.58-27.25,2.36-40.88.06-1,.33-1.93-1.28-2.11-1-.12-1.57-5.61-.64-5.73,3.78-.49,2.45-3.39,2.57-5.32.61-9.92,1-19.85,1.49-29.78q.81-17.61,1.56-35.22c0-1,.35-2-1.4-2.38s-.81-2.32-.93-3.55c-.08-.79-.72-2.25.94-2.33s1.16-1,.92-2c-.56-2.41-2.44-1.66-3.9-1.65-1.76,0-3.28,0-2.86-2.42.17-1-.49-1.52-1.34-1.67s-1.81-.62-2.38.89c-.44,1.17-5.67,1.1-5.74.08-.16-2.23-1.61-1.92-3-2-7.43-.34-14.85-.71-22.27-1-13.75-.48-27.51-.85-41.26-1.32-7-.24-14-.65-21.07-.92q-19.41-.74-38.84-1.38c-.72,0-1.48-.24-2.17.55-1.5,1.71-4.24,1.65-6.23.31a5.39,5.39,0,0,0-5.62-.47c-2,1.11-6.17,1.86-8,1.05a19.78,19.78,0,0,0-7.24-2.07c-12.34-.41-29.57-.57-41.89-1.36l-1.77-.32c13.75.53,30.24-.38,44,.22,1.78.07,2.22-.09,2.83-2a21.88,21.88,0,0,0,1-6.2,1.12,1.12,0,0,1,1.65-1.11c2.74,1.1,7.19-2.84,8.38,2.8,4.12,1.46,1.43,4.37,1.57,6.77,1.55,0,3.51.64,4.81-.34.6-.45,0-2.58-.16-3.92-.32-2.2.86-2.4,2.62-2.37,3.59,0,4.34-1,3.51-4.71s0-5.25,3.21-5.95c-1.47-.9-1.38-2.19-1.54-3.52-.22-1.8,1.19-3.16,1.14-4.63-.08-2.36.85-3.17,3.6-3.06-2.07-1.41-1.56-3-1.68-4.55s.76-2,1.54-3c1.47-1.88-2.46-.53-2.1-2.37s-.91-3.75.91-5.31a1.38,1.38,0,0,0-.09-1.9c-2.22-2.6-2.09-4.18.52-6.34.55-.45.35-1.09.45-1.66.26-1.41-.66-3,.59-4.26.26-.27.2-.31-.06-.54-2.42-2.18-2.45-3.76-.14-6.39,1.22-1.4,2.12-6.65,1-7.95a5.07,5.07,0,0,1-.6-5.29c.81-2,1.33-2.92-1.4-2.83a.65.65,0,0,1-.56-.88c.75-1.69-1.94-4.65,1.9-5.22.19,0,.45-.68.41-1-.62-5.16-.26-10.43-1.67-15.51-.2-.71-.31-1.52-1.23-1.37-2.71.43-2.55-1.31-2.49-3.09.05-1.4,0-2.8,0-4.2,1-.63,1.13.41,1.58.78a1.94,1.94,0,0,0,2.22.27c1-.64.08-1.4-.23-2a24,24,0,0,0-3.8-5.62c1.92-.22,2.46,1.39,3.24,2.56,3.07,4.61,4,9.9,4.94,15.23.33,1.9-1.05,5.26,3,5.2a.57.57,0,0,1,.39.38c.06,1.71.11,3.41.11,5.11,0,1.51-1.28.85-2,1.13a1.31,1.31,0,0,0-.76,1.74,15,15,0,0,1,.25,6.55c-.43,3.07,3.19.94,3.53,2.93,0,.13,1,.3,1.08.17a3.16,3.16,0,0,0,.34-1.38c.14-1.8.26-3.6.38-5.4A73,73,0,0,0,284,126.59c-.26-.76-.44-1.89-1.31-1.79-4.07.45-2.8-2.48-2.93-4.48-.09-1.28.63-2.58-.1-4.13a4.82,4.82,0,0,0,5,2.54c1.67-.12,1.25,1.5,1,2.23-1.28,4.52.46,8.7,1.28,13,.16.88.44,1.75.57,2.63A100.31,100.31,0,0,1,285,176.19a2.34,2.34,0,0,0,.27,2.35,5.16,5.16,0,0,1,.06,5.63c-1.74,2.33-2,2.1-1.56,4.73.83-.92,1.65-1.77,2.39-2.69a11.19,11.19,0,0,1,3.16-2.27c1.43-.88,3.6-1.05,3.17-3.61-.1-.63.55-.8,1.07-.73,2.08.27,1.87-1.12,1.89-2.46,0-4.13.06-4.26,4.32-4.16,3.15.08,4.67-2.17,5.4-4.33a4.65,4.65,0,0,0-1.88-4.85c-.91-.55-.94-5.7-.14-5.76,4.61-.35,2.3-3.27,1.82-5.12-1.12-4.32-3.14-8.42-1.18-13.08.76-1.81-1.11-4.69,2.3-5.45.16,0,.17-.74.25-1.13q.51-2.34,1-4.65c-.31-.11-.5-.17-.68-.25-.94-.41-2.92.8-2.7-1.24.18-1.64-1.69-4.13,1.5-4.88,1.18-.29.79-1.26.79-2a76,76,0,0,1,.52-10.23c.1-.71.43-1.55-.47-2.17-2.66-1.82-2.6-4.09.08-6.23.26-.21.54-.76.44-1-.78-1.83,0-3.71-.19-5.58-.24-2.15-2-4.91,1.42-6.37.18-.08.18-.72.16-1.1a34,34,0,0,0-1.08-8c-.6-2-1.09-3.65-3.67-3.18-.48.09-1.28,0-1.28-.48,0-2.82-2.07-1.78-3.44-1.88-1.69-.13-3.41,0-5.12,0-.64,0-1.63.28-1.71-.69a14.22,14.22,0,0,1,.08-4.79c.29-1.08,1.78-.51,2.71-.52,2.27,0,2.65-2,2.79-3.31.17-1.72-1.59-.61-2.46-.91a2.05,2.05,0,0,0-.89,0c-1.6.21-2-.76-1.7-2s-1.43-3.87,1.45-4c2.36-.08,2.35-1.36,2.18-2.88-.16-1.34.83-3.56-2.06-3.23-2,.22-1.67-1.31-1.58-2.41.15-1.85-.25-3.17-2.09-4.12-2.08-1.08-4,.47-6-.09-.85-.23-2.26.43-2.12-1.27s-.64-2.39-1.65-3.49-2.68-2.37-2.06-4.55c.31-1.1-.7-1.31-1.66-1.62-3.68-1.19-7.4-1-11.14-.54-1.64.21-2.3-.33-2.27-2.12.05-2.52-5-5.16-7.19-3.9-3.44,1.95-5.94.64-6-3.18a3.75,3.75,0,0,0-.19-.75c-.84.24-1.34.9-2.25.93-3.23.11-6.45.41-9.69.55-1.29.06-3.62.17-3.73-.22-1.57-5.79-7.95-2.4-10.67-5.75-5.25.32-10.36-1-15.56-1.23-1.47-.06-3.42-.66-3.17,2.11.09,1-.89.8-1.55.9-2.28.33-3.85-1.06-5.76-1.89l.58-1.27c.2,0,.51-.28.65-.5,1.92-3.12,2.87-2.95,6.53-1,1.86,1,4.47.72,6.74,1,2.89.32,5.77.68,8.67.84,1.79.11,4,1.11,4.25-2.38.1-1.73,2.17-.62,3.32-.84,2.32-.45,3.67.25,3.18,3a3.44,3.44,0,0,0,2,3.95c.92-.66-.41-2.46,1.1-2.61a17.94,17.94,0,0,1,5.38.13c1,.19.52,1.6.48,2.43a1.69,1.69,0,0,0,1.74,2c1.22,0,.63-1.24.66-1.91.18-3.56,2.47-5.08,5.85-3.89a1.07,1.07,0,0,1,.8,1.36c-.48,3,1.38,3,3.46,2.84,1.9-.15,3.73-.25,3.24,2.63-.2,1.17,1,1.08,1.64,1.39a17.1,17.1,0,0,0,9.54,1.39c1.53-.14,2.32.37,2,2s.54,2.22,2.07,2.52a38.23,38.23,0,0,0,9.78,1c3.32-.22,4.28,1.22,5.18,4.42.54,1.9,1.17,4.24,2.37,5.56A7.9,7.9,0,0,0,295,45.73c3.22-.16,4.75,2.9,3.06,5.88-1.25,2.17-.78,4.07-.07,6.42.9,3,1.37,6.46-.47,9.59,1,.67,2.11,0,2.95.41,2.4,1,4.37,3,7.35,2.89.51,0,.47,2.66.18,3.94a12.15,12.15,0,0,0,.52,6,32,32,0,0,1,.73,6c.08,1.3.15,2,1.84,2.38,2.39.5.83,2.78,1.18,4.23.31,1.29-.4,1.83-1.69,1.7-1.51-.15-3-.05-2.94,2,0,1.74-.8,3.86,1.78,4.68,2,.64.89,2.34,1,3.53.08.89.74,2.44-1.16,2.47-1.28,0-1.45.82-1.49,1.78-.15,3.71-.3,7.42-.4,11.13a2,2,0,0,0,.42,1.37c2.72,2.51,2.66,3.37.75,6.81-.83,1.49-.81,3.46-1.16,5.22a.61.61,0,0,0,.65.78c2.37-.18,1.68,1.55,1.87,2.83.38,2.56-.42,3.76-3.2,3.3s-2.87,1.57-2.82,3.41c.06,2.32,1.21,4.43,1.61,6.67a26.94,26.94,0,0,0,3.55,9.7c1.21,1.88,1.22,3.39,1.42,5.17.07.66.09,1.29-.91,1.58-3.57,1-7.35,5.94-7.5,9.59-.05,1,0,2.39-1.25,2.34-2.8-.1-2.4,1.71-2.37,3.39s.29,3.13-2.19,2.79c-1.84-.25-1.53,1.27-1.4,2.25.39,2.88-.42,4.34-3.64,3.79-1.39-.23-2.81-.26-1.35,2,.6.92.12,2.55.12,3.85,0,2.13-1.69,1.1-2.66,1.39-1.41.41-1,1.47-1,2.43s.06,1.64,1.39,1.81,3.65-1.27,3.42,1.73c-.12,1.47.81,3.17-.81,4.43-.62.47-.3,1.32-.36,2s0,1.52-.76,1.34c-3.78-.85-4.23,2.47-5.79,4.42a3.71,3.71,0,0,1-.7.51,16,16,0,0,0,.77-10.52,35.91,35.91,0,0,0-.17,4.15c0,.69.06,1.6-1,1.48-2.22-.25-2.26,1.17-2,2.61.21,1.18-.9,1.6-1.15,2.37,1.32,1.4,2.35-.47,3.55-.13a20.15,20.15,0,0,0,0,3c.37,2.7-.29,4.28-3.43,3.67-1.54-.29-2.17.38-2.06,2,.06.85.54,2.1-1.15,2.24-1,.08-2.49-.62-2.92.78-.62,2-2.18,3.81-1.47,6.16a5.44,5.44,0,0,1,.13,2.09c-.19,1.72.27,2.5,2.23,2.56s2.22-.94,2-2.37c-.51-2.94,1.39-2.53,3.25-2.67,2.21-.16,3.22.47,2.82,2.79-.35,2,.34,2.69,2.54,2.76,20.77.69,41.55,1.55,62.32,2.29,13.45.48,26.91.83,40.36,1.28,3.51.12,7,.41,10.53.57.77,0,2.12.32,2.21-.4.41-3.57,3-1.48,4.63-2,1-.3,1.59.2,1.65,1.44.12,2.39,2.35,2.3,3.33,1.62s2-.5,3-.68c2.56-.46,3.18.5,3.46,3.15.26,2.39.71,5.41,3.86,6.59,1.6.61.63,2.29.71,3.46.06.83.69,2.33-.87,2.41-1.91.1-1.66,1.38-1.72,2.51-.34,6.72-.78,13.44-.94,20.17-.38,15.87-1.38,31.7-2.33,47.54-.07,1.08-.44,2.13,1.37,2.31s.87,1.78.87,2.7.77,2.91-.72,3.09c-2.14.26-2,1.6-2.12,2.92-.48,8.12-.88,16.25-1.33,24.37-.29,5.41-.62,10.82-.9,16.24-.06,1.3-1.08,2.71,1.49,3.34,1.41.35.39,2.85.63,4.36.28,1.79-1.35,1.18-2.14,1.65,1.83,1.14,4,7.77,2.58,8.69-4,2.51-1.53,5.87-1.35,8.54a337.8,337.8,0,0,1,.55,41.24c-.07,1.3-.75,2.45,1.51,3.07,1.47.4.43,2.83.65,4.34.18,1.3-.65,1.5-1.67,1.44s-1.27.63-1.35,1.54c-.79,8.27-1.62,16.55-2.4,24.83-.1,1-.31,1.83,1.11,2.84s1,3.77.14,5.69c-.18.39-.7.71-.62,1.22.55,3.72-1.94,6.91-1.81,10.54.05,1.44-.69,1.69-1.85,1.59a1.73,1.73,0,0,0-2.11,1.16c-.55,1.43.82,1,1.16,1.44a3,3,0,0,1,.34,2c-.78,5.24.81,10.56-.57,15.79a68.28,68.28,0,0,1-2.37,8.18c-.27.68-.53,1.1-1.21,1-2.36-.42-2.75,1.18-3.21,2.9a29,29,0,0,1-1.72,5.09,15.42,15.42,0,0,0-1.18,10.82c.36,1.4,0,2.66-1.95,2.33-1.5-.25-2.08.63-2.6,1.87-1.69,4.07-3.37,8.14-5.27,12.11-1.58,3.3-3.19,6.48-2.25,10.35.43,1.74.07,3.27-2.37,2.82a1,1,0,0,0-.3,0c-.79.15-8.15,8.4-8.12,9.23,0,1.3,0,2.49-1.81,2.23-.1,0-.27,0-.29,0-1.09,1.87-1.7,3.66-4.59,4.25-1.49.3-1.83,4.3-1.79,6.85,0,.5-.1,1.3.38,1.32,3.08.14,1.84,2.43,2,4l-5.58-3.51c3.29-.3,1.92-2.94,2.24-4.37.37-1.62,1.57-3.15.63-5.24-.72-1.61-.86-5.37.32-5.35,3.49.09,1.54-3.27,3.23-3.92a2.45,2.45,0,0,1,.9-.06,33.41,33.41,0,0,1,3.61,0c2.84.32,6.06-3.15,5.65-5.93a12.29,12.29,0,0,1,.1-5.06c.32-1.13,2-.33,3-.57s1.12-1.11,1.42-1.79q3.9-8.61,7.69-17.27c.27-.61.84-1.15.18-2.1-1.08-1.56-.63-3.53-.32-5.21.25-1.42,1.9-.42,2.86-.77a2,2,0,0,0,1.13-1.65c1.23-5.25,5-9.88,3.18-15.89-1.1-3.61,2.25-6.81,2-10.73-1.8.85-2.82,2.54-4.88,2.43a40.34,40.34,0,0,0-6.84.41c-1.68.2-4.58,1.72-5.14-1.93,0-.18-.89-.31-1.37-.32-7.33-.22-14.66-.36-22-.66-1.93-.08-2.55.6-2.29,2.4.45,3-3.67,4.43-2.73,7.64a6.9,6.9,0,0,0-2,.29c-3,1.47-7.29-1.38-9.55,2.79-.16.3-1.14.11-1.72.21-1.83.31-3.69-1.1-5.14-.73-10.15,2.6-20.49,2.39-30.81,2.51a35.65,35.65,0,0,0-7.79.57c-.62.15-1.74-.2-1.64.82.24,2.63-1.49,2.24-3.08,2.26-1.88,0-3.36-.67-4,2.69s.51,2.71,2.3,2.7c2.68,0,3.72,1.63,4.09,4,.12.76-.29,1.72.54,2.22,3,1.82,5.13,5.32,9.33,4.68,1.68-.25,2.46.38,2.2,2.14-.45,3,.75,4.33,3.85,3.93.87-.12,2.19-.46,2.16,1.21a13.66,13.66,0,0,0,1.63,6c1.81,4.1,2.49,8.72,3.33,13.22.35,1.9-1.9,2.3-1.38,3.88,1.17,3.53,1,7.27,1.79,10.88.85,4.08-.54,6.22-4.24,7-.87.19-1.18.31-.78,1.33a14.23,14.23,0,0,1,.28,3s-10.11,4.42-19.43,3.48c-.7-.07-.59-.88-1.15-1.13-2.16-1-4.31-2-6.41-3.1-.65-.33-1.87-.43-1.37-1.75,2.59,1.25,5.18,2.52,7.79,3.72.53.24,1,.81,1.81,0,2.19-2.27,5.26-1.79,7,1.31,0-2.34,1.1-2.93,3-2.66.75.11,2.08.45,2-1-.07-1.61.95-4.19-.63-4.64-2.22-.63-4.84-1.1-7.28-.08-1.62.67-3.35.37-5,.25s-.65-1.6-.94-2.43-1-.87-1.55-1.26c-1.44-1-3.33-1.35-4.44-2.88,2.34-.45,3.64,2,5.95,2.19-.91-2.08-4.23-2-3.92-4.79,2.27,2.34,4.87,3.8,8.29,3.23.55-.1,1.52-.2,1.59.43.51,4.25,4,2.47,6.25,3.14.52.15,1.57.15,1.58-.43,0-2.75,2-1.92,3.41-1.93a4.39,4.39,0,0,0,4.28-3.7,26.51,26.51,0,0,0,0-9.91c-1.95,2.17-2.25,5-5,6.65.79-2.64,3.29-4,2.64-6.18s-.34-4.45-1.31-6.72c-.7-1.64-2.25-3.32-2-5.25.31-2.35-.66-3.56-2.52-4.75a6.25,6.25,0,0,0-5.95-.65c-2.28.89-2.46,3.18-2.71,5.31-.07.59,0,1.05.69,1,1.59-.15,2.17.51,2,2.06-.13,1.19.24,3.25-.23,3.45-4.3,1.82-1.94,5-1.54,7.49.93,5.82,4.28,7.43,9.59,5,.1-.05.32.14.47.22-3.11,3.32-6.84,3.14-9.19-.54a29.7,29.7,0,0,1-2.28-5.49c-.84-2.17,1.23-5.68-2.72-6.55-.1,0-.21-.58-.13-.83.55-1.68-1.62-4.39,1.92-5,.59-.09.39-1,.47-1.62.66-4.69,2.73-6.64,7.21-5.83,2.9.52,2.5-.94,2.42-2.61-.07-1.24-.78-1.91-2-1.71-3,.53-3.94-.83-3.47-3.61a1.39,1.39,0,0,0-.46-1.36c-2.93-2.44-5.79-4.91-10.1-4.15-1.17.2-1.36.61-1.53,1.65-.52,3.28-1.6,6.34-4.18,8.65-.59-1.29.65-1.92,1.08-2.81,1-2.06,2.15-4.07,1.94-6.46-.07-.77.62-1.94-.82-2.15-1.08-.16-2.07-.19-2.81,1a32.85,32.85,0,0,0-4.83,15.68c1.19.22,1.13-1.8,2.45-1.08-.7,1.69-1.88,3-1.93,5.14-.16,8,3.41,14.33,8.16,20.26-1.83.16-2.27-1.88-3.83-2.52v3.68a4.61,4.61,0,0,0-3.8-1.22c-2,.37-2.52-.66-2.23-2.38a20.21,20.21,0,0,0-1-10.15c-1.18-3.37-2-4-5.2-2.88a30.09,30.09,0,0,0,4.19-11.62c.4-3.64.88-7.31,3.2-10.38.79,1.18-.23,2-.58,3-1.9,5.12-2.36,9.52-1.2,12.67.21-.24.52-.42.54-.63.51-5.78,1.47-11.4,4.28-16.62,1.22-2.26-1.11-.08-1.28-.81l1.27-1.8a3,3,0,0,0,1.85-3.1c0-1.17-.87-2.92,1.58-3.06.76,0,0-.69-.18-1-.58-1.14-2.28,0-2.75-1.37a6.6,6.6,0,0,0-1.45.95,2.34,2.34,0,0,0-.45,1.29c2.88,1.61.64,4.34,1.44,6.38-2,0-4.09-.25-6.2.32,0-.85.08-1.53.11-2.21.09-2-.92-4.7,2.83-4.34.21,0,.59-.5.68-.83a.57.57,0,0,0-.66-.74c-1.82.49-3-1.29-4.63-1.3-3.36,0-1.41-2.59-1.79-4-.49-1.81.68-2.08,2.24-2.09s4.13,1.05,3.84-2.33c0-.42.46-.67.87-.61,2.21.32,2.08-1.12,2.07-2.6a3.19,3.19,0,0,1,.44-2.24c1-1.4.2-5.15-1.18-6.08-.3-.2-.59-.56-1-.1-2,2.45-4.18,1.7-6.49.4-.62-.35-1.91-.53-2.27-.16-1.4,1.4-3.06,1-4.68,1.13-.47,0-1.1,0-1.07.67,0,.35.18.88.44,1,2.7,1.33,1.25,3.74,1.06,5.45-.15,1.41-2.21.52-3.41.68a9.19,9.19,0,0,1-2.64-.33c-1.9-.34-3.91-.81-5.76.36-2-.79-3.75,1-5.55.52a3,3,0,0,0-3.69,2.76c.29,2.09-.17,4.94,1.79,6.15a2.35,2.35,0,0,1,1.41,2.4c.07,2.76-1.53,5.61.43,8.27-1.17-1.46-2.29-4.08-3.52-4.14-3-.13-3.13-1.56-3-3.74a1.29,1.29,0,0,0-.58-1c-4.27-2.4-8.57-4.77-13.4-7.45.85,3.77-.77,4.35-3.28,4-1-.13-1.93-.24-2.91-.43-4.29-.8-9.31-.7-13.63-1.34l-9.12-3Zm203.89-16.69c1.1-2.37.66-4.41,1.53-6.32s.26-4.15,3.17-4.42a3.3,3.3,0,0,0,.12-.85c.86-8.67,1.69-17.33,2.6-26,.11-1-.13-1.21-1-1.62-2-.85-.62-2.77-.91-4.19-.15-.72-.23-1.78,1-1.71,2.11.12,1.8-1.41,1.88-2.65.86-13.75.17-27.47-.65-41.19a8.08,8.08,0,0,0-1.14-4.58c0,2.19.58,4.31-.11,5.86-1.69,3.77-1.35,7.69-1.65,11.56-.49,6.5-.87,13-1.33,19.5-.75,10.69-1.54,21.38-2.3,32.07-.46,6.5-.87,13-1.33,19.49C404.29,494.36,403.6,495.8,404.54,497.93ZM322.46,533c3.81-.87,8.35-.38,12.86-.69.68,0,1.85-.17,1.93-.47.75-3.13,3.35-1.89,5.22-2.54,2.69-.94,5.48-1,8.16-1.71.42-.12.73-.26.78-.74s-.14-1-.49-.93c-2.12.56-4-1.71-6.27-.34-2,1.19-4,2.77-6.66,2.11-1-.24-.81.81-1,1.44-.67,1.79-2.24.74-3.38.84-.83.08-2.42.69-2.48-.73-.11-2.38-1.66-2.12-3.11-2.17-2.71-.09-5.43-.15-8.14-.15-.92,0-2.09-.3-2.16,1.33-.07,1.87-1.63,1.21-2.51,1.11-1.18-.12-2.78,1-3.52-1-.87-2.4-3.26-.49-3.3-.27-.7,3.79-3.79,2.1-5.26,1.79-4.94-1.05-9.36,1.28-14.07,1.43-.63,0-.75.46-.86,1-.47,2.34.5,3.57,2.83,3.74a46.89,46.89,0,0,0,15.08-.81c1.49-.38,3-.61,2.61-2.77-.12-.65.17-1.24,1-1.19,2.81.21,5.51-1,8.33-.64.68.09,1.54-.09,1.52,1C319.45,533.43,320.75,532.94,322.46,533Zm-81.66-12.6c-10.13.09-20.16-1.13-30.94-.42,2.7,2.14,4.85,3.53,7.81,3.47a5.73,5.73,0,0,1,3.7.78c2.1,1.34,4.09,2.14,3.88,5,0,.07.33.18.51.27,3,1.53,6,3.23,9.45,3.57,6.25.6,5.78-.27,5-5.43C239.85,525.21,239.51,522.82,240.8,520.38Zm96.41,13.33c-4.7,0-9.61,0-14.52,0-1.47,0-3.41-.44-3.27,2.21,0,.83-.83.68-1.39.69-1,0-1.93,0-2.9,0C323.72,537.82,335.16,536,337.21,533.71Zm-36.85-8.35c-4.16-6.68-10.71-1.32-15.78-3.68,1.88,1.39,3.76,2.61,6.25,2.34.73-.08,1.62-.44,2.18.87C294.5,528.4,298.08,528.46,300.36,525.36Zm-59.92-6.47c-9.88-2.11-19.8-1.59-29.73-.63A241.76,241.76,0,0,0,240.44,518.89Zm95.78,4.2c-7.93.23-15.84-1.42-23.78-.31C320.36,523.63,328.23,525.92,336.22,523.09Zm-41-2.09c1.36-.22,3.39.75,3.18-2.09-.1-1.42-.35-2.48-2-2.14s-3.83-.13-4.08,2.46S294.11,520.71,295.27,521Zm-29.68,52.1c-1.68,8.64-1.38,9.6,3,9.14C267.62,579.23,266.64,576.27,265.59,573.1Zm17,15.76a43.71,43.71,0,0,1-2.94-8.31c-.13-.66-.45-1.15-1.19-1s-.61.72-.45,1.19c.8,2.34,1.12,4.81,2.15,7.09A1.62,1.62,0,0,0,282.61,588.86Zm-25.4-73.63c-2.22-.78-4.1-1.39-6.06-.38-.56.29-1.54.22-1.28,1.18.16.61.5,1.38,1.41,1.27,1.72-.22,4.11,1.43,4.86-1.68C256.17,515.47,256.66,515.42,257.21,515.23Zm31.52-329.57c-2.19,1.63-3.72,2.93-3,5.43.18.61-.33,1.51.73,1.7s1.32-.54,1.74-1.29C289.17,189.78,288.63,188,288.73,185.66ZM279.91,144c.93-3.41-.28-6-.41-8.57a1,1,0,0,0-1.25-1c-.55.09-.55.49-.4.88C278.87,137.86,278,140.85,279.91,144ZM284,172.9c1.8-.69,1-2.8,1.64-4.19.4-.83-.36-1.38-1.15-1.14-2.19.66-.89,2.86-1.68,4.2C282.52,172.28,282.82,173,284,172.9Zm17.94,364,0,.36h5.57c.71,0,1.19-.25,1-1s-.75-.33-1.17-.26ZM285.06,199.47c-.6-.64-1.12-.89-1.16-1.63s.54-1.86-.78-1.81c-.69,0-1,.85-1,1.65s-.17,1.92,1.28,1.8C283.81,199.45,284.2,199.47,285.06,199.47ZM316.5,598.6a8.65,8.65,0,0,0,.28-5.68C316.46,594.8,315.64,596.62,316.5,598.6Zm-53.29-33c-.24,1.68-.84,2.91.09,4.14a.85.85,0,0,0,.82,0c1.09-1.22-.41-2.28-.28-3.47C263.85,566.18,263.72,566.1,263.21,565.56ZM283.71,519c-.65.21-1.94-.4-1.93.56,0,1.47,1.49.72,2.33.84.68.11,2,.44,2-.47C286.07,518.46,284.54,519.49,283.71,519Zm1.05,6.75c1.34,1.77.67,3.5,2,4.54C286.54,528.86,287.89,526.93,284.76,525.79Zm-50.94,8.51c1.73,1.29,3.09,1.46,4.81,0Zm-.81-.54-.21.16c.06.06.12.16.19.17s.14-.09.21-.15Z" transform="translate(0 -14.79)"/><path d="M202.67,411.88a5.81,5.81,0,0,0-.49.73c-.39.94.6,2.79-.9,2.78-1.77,0-3.82,1.37-5.48-.95-1.07-1.49-3.4-.64-5.06-1.3a4.33,4.33,0,0,0-1.53,0c-4.29,0-4.33,0-4.32-4.39a7.52,7.52,0,0,0-1-3.74c-2.43-4.54-4.1-9.31-4-14.57,0-1.11.42-2.14-1.47-2.72-2.13-.65-.58-3-.93-4.56-.29-1.3.64-1.55,1.68-1.44,1.26.13,1.73-.63,2.26-1.62a14.57,14.57,0,0,1,6.67-6.1c1.51-.75,3.79-.5,3.78-3.42,0-1.06,2.13-.4,3.28-.55,1.82-.24,4.43.91,4.94-1.86.63-3.43,2.25-4.5,5.69-4.8a5.9,5.9,0,0,0,4.55-4.3c.41-1.76,3-.49,4.65-.71,1.43-.2,1.35,1,1.25,1.87-.21,1.65.38,3.19-1.32,4.86s-.51,4.53.27,6.67c.49,1.36,2.31,1.37,3.72,1.39,6,.08,6,.07,6.57,6.27.08.92-.07,1.86,0,2.77.2,1.69-.6,2-2.12,2-3.07,0-4.77,2.11-4.81,5.59s1.54,5.37,4.89,5.4c1.65,0,2.28.56,2,2.13-.35,2.07.81,4,.62,6-.14,1.62.88,3.88-2.35,3.73-1.11-.06-.67,1.28-.71,2-.22,4-.2,4-4.21,4-3.47,0-6.86.08-10.13,1.72C206.22,416.08,203.74,414.69,202.67,411.88ZM219.48,383c-.32-3-.56-5.15-.77-7.26-.15-1.54-1.52-1.53-2.49-1.87-1.39-.49-1.05.76-1.21,1.47-.26,1.23-1.28.67-2,.81-1.15.22-2.14-.19-3.24,1.33-.95,1.31-4.55,1.36-5.5-.05-1.1-1.63-2.15-1-3.25-1.28-3.27-.87-7.18,1.91-10-1.74-.12-.16-.79,0-1.15.15a14.12,14.12,0,0,0-6.74,5.1c-.34.52-.9,1-.48,1.9,1.63,3.47,1.5,3.83-1.14,6.55a2.35,2.35,0,0,0-.36,1.43,27.52,27.52,0,0,0,4.44,15.94c.34.56.71,1.47,1.52,1.36,3.12-.4,4.39.74,4,4-.17,1.42,1.45,1.51,2.48,1.6.75.05,2.14.69,2.24-.74s.35-2.58,2.23-2.29c1.28.2,2.87-.56,3.82.41s.83.85,1.54-.2c1.23-1.84,3.34-.47,5-.77.77-.14,1.09.48,1,1.17-.32,2.83,1.65,2.71,3.37,2.42s3.81-.19,3.46-3.07c-.23-1.84-.15-3.79,2.66-3.69,1.3,0,1-1.11,1-1.83-.13-1.81-.77-3.67-.51-5.41.48-3.11-1.92-5.28-2.12-8.18S219.75,385.05,219.48,383Zm-6.28-17.55a.74.74,0,0,0-.74-.95c-1.15-.1-2.57.29-2.45-1.73,0-.61-.59-.28-.9-.14a2.89,2.89,0,0,0-2.09,3,27.65,27.65,0,0,1-.14,4c0,.51-1.3.42-.81,1.26.13.23.74.34,1.08.26a1.32,1.32,0,0,0,1.09-1.59c-.46-2.61,1-2.82,3-2.64C212.21,367,213.15,366.88,213.2,365.45Z" transform="translate(0 -14.79)"/><path d="M316.34,278.24c-3.93,0-5-1.47-4-5.15.25-1,.82-1,1.55-1a19.52,19.52,0,0,0,3.06,0c2.84-.45,3.42.73,3.53,3.47C320.6,279.44,318,278,316.34,278.24Z" transform="translate(0 -14.79)"/><path d="M276.34,267c-2.87.69-3.42-.46-3.55-3.14-.17-3.39,1.75-2.77,3.76-3,2.54-.25,3.24.57,3.25,3.15C279.81,267,278.83,267.79,276.34,267Z" transform="translate(0 -14.79)"/><path d="M220.49,102.64c.27,1.85-20.86-1.83-19.63-1.79,5.83.18,18.81,2.14,19.08.93.17-.77-.49-2.06,1-2.11a20.66,20.66,0,0,1,4.59.12c1,.2.55,1.42.54,2.18,0,2,1.77,2.59,2.58,1.76,1.67-1.72,3.45-.69,5.13-1,.91-.16,1.58.12,1.56,1.29,0,2.27,1.64,2.27,3.11,2a29.19,29.19,0,0,1,4.27-.19c.49,0,1.37,0,1.43.22,1.17,3.94,4.37,1.74,6.63,2.15,1.39.26,2.72,0,2.42,2.06-.07.53.11,1.21.63,1.27,3.81.47,6.27,4.34,10.3,4.1,1.72-.1,2.25.66,2,2.15a3.75,3.75,0,0,0,1.89,4c-1.52.58-3.69-.13-4.34,2.18-1.79-1.39-4-2.2-5.42-4.13a2.28,2.28,0,0,0,1.79-2.55c0-2.84-2.32-3-4-3.83-.64-.32-1.66-.9-2,0a2,2,0,0,0,.66,2.73c1,.59,1.92,1.17,2.84,1.8.65.45,1.51.86.83,1.91-2.25-2.38-5.09-2.72-8.14-2.44-1.34.12-2.32.17-2.64-1.87s-1.5-4-4.44-3.74c-1.9.16-4.53,1.21-5.15-2.29-.12-.67-1.77-.68-2.81-.76-2.38-.18-5,1.09-6.87-1.94-.54-.89-2.83-.77-4.34-1M211.75,91.54c12.63.9,24.91,3.08,36.18,9.2,2.09,1.14,4.19.66,6.28.69,1.56,0,2.39.41,2.08,2.06s.72,2.48,2.1,3.19a112.52,112.52,0,0,1,13.54,7.83,9,9,0,0,1,1,1.08c-1,.58-1.46-.12-2-.44-2.55-1.52-5.1-3-7.61-4.6-3.29-2.06-6.58-3.89-10.72-2.93-1.63.38-2.88-.09-2.49-2.2.35-1.85-.7-2.75-2.18-3.56-8.74-4.75-18.17-7.09-27.95-8.43a123.16,123.16,0,0,0-21.45-1.1Zm7.51,12.4" transform="translate(0 -14.79)"/><path d="M272.84,200c.75,2.76-.65,3.1-3,3.2-2.73.12-3.1-.92-3.13-3.31s.71-3.08,3.09-3S273.62,197.15,272.84,200Z" transform="translate(0 -14.79)"/><path d="M264.89,124.88a4.79,4.79,0,0,1,4.34,4.35Z" transform="translate(0 -14.79)"/><path d="M270.12,130.43c2-.26,2.41.82,2.19,2.49C271.22,132.4,270.92,131.19,270.12,130.43Z" transform="translate(0 -14.79)"/><path d="M264,124.27c.83-.54,1.05-.17,1,.65Z" transform="translate(0 -14.79)"/><path d="M269.19,129.18c.82-.07,1.18.16.65,1C269.63,129.83,269.41,129.51,269.19,129.18Z" transform="translate(0 -14.79)"/><path d="M273.46,116.51a7.18,7.18,0,0,1,4.62,4.91Z" transform="translate(0 -14.79)"/><path d="M270.47,124c-1.31-.17-2.54-.43-2.48-2.17C269.06,122.23,270.22,122.57,270.47,124Z" transform="translate(0 -14.79)"/><path d="M280.31,570.42c.59,1.31.46,2.21-1.26,2.19Z" transform="translate(0 -14.79)"/><path d="M250.75,540.61c.4-1.86,1.37-2.91,3.42-2.49C253.09,539,252.16,540.14,250.75,540.61Z" transform="translate(0 -14.79)"/></g></g><line class="cls-3" x1="202.53" y1="494.18" x2="126.99" y2="494.18"/><line class="cls-3" x1="173.43" y1="466.65" x2="95.37" y2="466.65"/><line class="cls-3" x1="202.53" y1="62.1" x2="126.99" y2="62.1"/><line class="cls-3" x1="202.53" y1="6.35" x2="146.11" y2="6.35"/><line class="cls-3" x1="180.14" y1="89.57" x2="124.34" y2="89.57"/><line class="cls-3" x1="203.8" y1="440.24" x2="132.17" y2="440.24"/><line class="cls-3" x1="116.11" y1="438.01" x2="7.58" y2="438.01"/><line class="cls-3" x1="193.92" y1="411.6" x2="8.89" y2="411.6"/><line class="cls-3" x1="193.92" y1="356.54" x2="122.3" y2="356.54"/><line class="cls-3" x1="179.6" y1="329.01" x2="6.17" y2="329.01"/><line class="cls-3" x1="179.6" y1="301.97" x2="73.84" y2="301.97"/><line class="cls-3" x1="62.02" y1="301" x2="2.55" y2="301"/><line class="cls-3" x1="111.96" y1="383.58" x2="3.87" y2="383.58"/><line class="cls-3" x1="179.85" y1="384.56" x2="121.6" y2="384.56"/><line class="cls-3" x1="111.53" y1="355.17" x2="3" y2="355.17"/><line class="cls-3" x1="203.8" y1="277.02" x2="132.17" y2="277.02"/><line class="cls-3" x1="116.11" y1="274.79" x2="7.58" y2="274.79"/><line class="cls-3" x1="193.92" y1="248.38" x2="11.48" y2="248.38"/><line class="cls-3" x1="196.11" y1="193.32" x2="140.31" y2="193.32"/><line class="cls-3" x1="184.95" y1="165.79" x2="132.8" y2="165.79"/><line class="cls-3" x1="184.41" y1="110.74" x2="127.99" y2="110.74"/><line class="cls-3" x1="184.95" y1="138.82" x2="119.64" y2="138.82"/><line class="cls-3" x1="124.68" y1="220.29" x2="28.43" y2="220.29"/><line class="cls-3" x1="185.14" y1="221.41" x2="133.26" y2="221.41"/><line class="cls-3" x1="84.55" y1="465.6" y2="465.6"/><line class="cls-4" x1="202.97" y1="3.34" x2="202.97" y2="599.08"/></g></g></svg>