<svg xmlns="http://www.w3.org/2000/svg" viewBox="0 0 432.81 432.81"><defs><style>.cls-1{fill:#020202;stroke:#231f20;stroke-width:4px;}.cls-1,.cls-2{stroke-miterlimit:10;}.cls-2{fill:none;stroke:#fffeff;stroke-width:3px;}.cls-3{fill:#fff;}</style></defs><g id="Layer_2" data-name="Layer 2"><g id="Layer_1-2" data-name="Layer 1"><circle class="cls-1" cx="216.41" cy="216.41" r="214.41"/><path class="cls-2" d="M113,358.35V44H210.4q41.76,0,74.7,18.67c22,12.45,60.67,45.09,73,68.05s18.48,49,18.48,78.26v14.46q0,43.83-18.15,77.93a129.51,129.51,0,0,1-51.21,52.89c-22,12.53-68.47,3.92-96.15,4.06ZM178.22,96.49V306.33h31.53q38.26,0,58.5-24.83t20.65-71V193.85q0-47.92-20-72.64T210.4,96.49Z"/><path class="cls-3" d="M137,374.41V60.08h97.41q41.76,0,74.7,18.68t51.43,53.11Q379,166.3,379,210.12v14.47q0,43.83-18.16,77.93a129.45,129.45,0,0,1-51.21,52.89q-33.06,18.78-74.58,19ZM202.2,112.54V322.38h31.53q38.27,0,58.5-24.82t20.65-71V209.91q0-47.92-20-72.65t-58.5-24.72Z"/><path class="cls-2" d="M137,374.41V60.08h97.41q41.76,0,74.7,18.68t51.43,53.11Q379,166.3,379,210.12v14.47q0,43.83-18.16,77.93a129.45,129.45,0,0,1-51.21,52.89q-33.06,18.78-74.58,19ZM202.2,112.54V322.38h31.53q38.27,0,58.5-24.82t20.65-71V209.91q0-47.92-20-72.65t-58.5-24.72Z"/><line class="cls-2" x1="112.99" y1="44.03" x2="136.97" y2="60.08"/><line class="cls-2" x1="136.97" y1="374.41" x2="112.99" y2="358.35"/><line class="cls-2" x1="202.2" y1="322.38" x2="178.22" y2="306.33"/><line class="cls-2" x1="178.22" y1="96.49" x2="202.2" y2="112.54"/></g></g></svg>