<svg xmlns="http://www.w3.org/2000/svg" viewBox="0 0 207.66 269.7"><g id="a0a64a04-e719-487e-90b9-d22cde677e1a" data-name="Layer 2"><g id="bcb3b786-5aec-4acf-b121-25106a8c4ed0" data-name="Layer 1"><path d="M0,269.7V0H83.59A149.91,149.91,0,0,1,99.9.87a135.25,135.25,0,0,1,15.49,2.62,122.13,122.13,0,0,1,16.68,5.13,119.61,119.61,0,0,1,15.6,7.4,115.49,115.49,0,0,1,13.15,8.69A109.86,109.86,0,0,1,172.46,35a111.73,111.73,0,0,1,10.47,12.4,121.56,121.56,0,0,1,8.87,14.15,128.09,128.09,0,0,1,6.48,14.08,132.23,132.23,0,0,1,4.79,15,142.17,142.17,0,0,1,3.44,18.47,165.33,165.33,0,0,1,1.15,19.64v12.42a169.26,169.26,0,0,1-.89,17.5,150.72,150.72,0,0,1-2.67,16.55,134.44,134.44,0,0,1-4.95,17A126.45,126.45,0,0,1,192.08,208a119.52,119.52,0,0,1-9.38,14.9,109.9,109.9,0,0,1-11.26,13,108,108,0,0,1-11,9.45,114.63,114.63,0,0,1-12.32,8.07A121.22,121.22,0,0,1,118,265.53a139.77,139.77,0,0,1-33.81,4.17H0ZM56,45v180H83q16.41,0,29-5.33a54.36,54.36,0,0,0,21.22-16,72.27,72.27,0,0,0,13.11-25.88q4.43-15.24,4.62-35.06V128.55q0-20.57-4.29-36.14T133.77,66.22a53.66,53.66,0,0,0-21.13-15.91Q100.1,45,83.59,45H56Z" fill="#2a2b2a"/></g></g></svg>