<svg xmlns="http://www.w3.org/2000/svg" viewBox="0 0 467.26 609"><defs><style>.cls-1,.cls-2,.cls-7{fill:none;}.cls-1,.cls-2,.cls-3,.cls-4,.cls-5,.cls-6,.cls-7,.cls-8{stroke:#000;}.cls-1,.cls-3,.cls-4,.cls-5,.cls-6,.cls-7,.cls-8{stroke-miterlimit:10;}.cls-2{stroke-linecap:round;stroke-linejoin:round;stroke-width:2px;}.cls-3,.cls-6,.cls-8{fill:none;}.cls-4,.cls-5{fill:#030202;}.cls-4,.cls-6{stroke-width:0.25px;}.cls-7,.cls-8{stroke-width:0.5px;}</style></defs><g id="Layer_2" data-name="Layer 2"><g id="Line_Me" data-name="Line Me"><path class="cls-1" d="M284.69,174.26a1,1,0,0,1,0-1.84c2.56-1.22,8-2.89,16.23-.75,3.87,1,5.81,2,6.78,2.65a1,1,0,0,1-.1,1.73,29.5,29.5,0,0,1-6.31,1.59,18.64,18.64,0,0,1-3.87.25c-.41,0-2.9-.46-5.14-1-2-.48-3.69-1.1-4.07-1.19A27.22,27.22,0,0,1,284.69,174.26Z"/><path class="cls-1" d="M219.72,95.46c16.89-21.25,80.94-13.93,92.39,7.54C287.26,88,248.7,78.38,219.72,95.46Z"/><path class="cls-1" d="M327.87,142.4c11.27,11.13-.59,27.44,3.51,39.95,2.05-10.45,12.31-12.08,17.89-21.15,7.78,1.42-11.86,23-13.21,23.75C321.72,200.58,333.5,151.92,327.87,142.4Z"/><path class="cls-1" d="M327.67,142.56c-2.26-15.38-2.3-29.37-16.28-38.69C334.83,101.64,328.65,126.14,327.67,142.56Z"/><path class="cls-1" d="M348.27,59.14c20.31,5.92,7,44.22,8.23,61.52C351.38,101.42,361.72,71.52,348.27,59.14Z"/><path class="cls-1" d="M258,6.2c11.5-12.95,21.42,6,34.25,2.11,5.82,8.59-15.71,1.77-20.84-.67C267.86,7.33,258.64,10.82,258,6.2Z"/><path class="cls-1" d="M329.18,22.15c7.18.68,15.55,9,14.95,14.91C340.12,36.41,328.9,27,329.18,22.15Z"/><path class="cls-1" d="M347.39,60c-4.38-2.82-4.19-14.69-4.14-22.13C348.46,40.47,355.85,54.09,347.39,60Z"/><path class="cls-1" d="M328.42,23c-8.57.19-21.14-3.73-25.32-9.75C309.72,15.19,326.43,15.42,328.42,23Z"/><path class="cls-1" d="M339.2,198.73c-3.66,3.93-10.87,25-13.65,18.39C329.79,212.72,333,195.87,339.2,198.73Z"/><path class="cls-1" d="M167.34,90.87c1.87-2.4,7-24.4,9.39-17.09C171.51,80.67,170.92,111.82,167.34,90.87Z"/><path class="cls-1" d="M223.47,8.17c6-1.66,12.3-9.46,17.65-3.15C236.49,7.55,228.29,10.23,223.47,8.17Z"/><path class="cls-1" d="M257.42,6.93c-4.37,1.17-15.67,1.5-16.3-1.91C245.67,4.45,256.12.41,257.42,6.93Z"/><path class="cls-1" d="M353.2,136.16c-.13,5.94,5.14,14.38,1.22,18.94C351.6,149.78,351.64,141.51,353.2,136.16Z"/><path class="cls-1" d="M219.79,95.55c-4.66,2.12-8.73,7.93-14,7.08A102.7,102.7,0,0,1,219.79,95.55Z"/><path class="cls-1" d="M377.05,511c-23.43-1.38,3.3-2.47,13.32-.87Z"/><path class="cls-1" d="M352.4,136.92c-5-4.46-1.09-7.83,1.46-11.3C357.43,125.31,353.65,134.77,352.4,136.92Z"/><path class="cls-1" d="M166.28,120.15c.38-4.33-.62-9,.94-13.08C169.38,109.49,167.94,120.11,166.28,120.15Z"/><path class="cls-1" d="M18.14,470.55c9.9,8.55,18.21,19.54,24.7,30.81C34.37,493.23,20.52,480.47,18.14,470.55Z"/><path class="cls-1" d="M14.23,469.72c-2.29,1.59-4.73,7.85-7,4.32C8.29,470.24,10.32,468.44,14.23,469.72Z"/><path class="cls-2" d="M44.76,338C48,471.82,38.18,382.15,5,458.53c1.26,48.31-15,105.72,10.27,149"/><path class="cls-2" d="M466.26,245c-4.83,82.71-7.11,165.35-12.5,248"/><path class="cls-2" d="M451.76,507.5C450,546.42,416,572.73,412.26,608"/><path class="cls-2" d="M49.26,247c-15.82-56.43,113.9-13.46,147-25.5"/><path class="cls-2" d="M50.26,339c-30.54,1.87-22.33,62.87-24.5,87.5"/><path class="cls-2" d="M373.76,518.75c-15.66,1.3-35.22,14.87-46.84-1.38-16-21.46-57.64-3-16.66,7.63"/><path class="cls-2" d="M460.76,405c1.92,24.59,2.06,50.12-4,74"/><path class="cls-2" d="M47.76,248c-2.44,29.35.46,59.56-3.5,88.5"/><path class="cls-2" d="M319.26,567.5c15.23-.87,12.74-43,4.06-34.49-.74,31.32-36.77,14.66-56.55,15.42-15.08-4-31-39.24-3.51-20.43"/><path class="cls-2" d="M229.76,517c-16.3-6.8-32.78-10.61-50.5-10.5"/><path class="cls-2" d="M171.76,506c-15.5-.89-47-4-47-4-89,5.69-84.19,5.34-81-81"/><path class="cls-2" d="M330.76,529c30.67,19.86,53.27,66.75,7.5,79"/><path class="cls-2" d="M4.26,497c13.57,24.92,34.17,56.68,59.5,20.5"/><path class="cls-2" d="M447.76,508.5c-14.15,6.75-29.26.42-44,3"/><path class="cls-2" d="M315.76,572.5c-8.86-15.93-29.46-4.94-44-7.5"/><path class="cls-2" d="M329.26,145c6,13-2.28,25.86.5,39"/><path class="cls-2" d="M318.26,567c-1,15.52-30.9,4.64-42.5,8"/><path class="cls-2" d="M17.26,470l26,32"/><path class="cls-2" d="M175.76,71c-3.95,9.55-4.68,19.91-6.5,30"/><path class="cls-2" d="M392.26,510h-29"/><path class="cls-2" d="M167.26,106c1.58,14.14-7.15,32.5,6,42.5"/><path class="cls-2" d="M10.26,487c18.09,7.9,35.66,33.19,56,20"/><path class="cls-2" d="M177.76,507.5c7.12,3.91,14.2,6.84,22.5,6"/><path class="cls-2" d="M260.26,514c-13.19-21.21-50,2.14-15,8"/><path class="cls-2" d="M265.26,86c-9.35-4.64-59.73,4.42-50,15"/><path class="cls-2" d="M244.76,525.5c-15,1.25-40,1.33-44.5-16.5"/><path class="cls-2" d="M309.76,99.5c-2.43-1.92-7.83-2.82-9.8-4-1.87-7.86-7.66-3-11.65-4.13-7.42-2.92-14.07-7.54-22.55-6.82"/><path class="cls-2" d="M186.26,170c-3.85,6.28-2.31,14.15,4,20.5"/><path class="cls-2" d="M192.51,200.5c.32,8.73-1,18,9.75,22"/><path class="cls-2" d="M288.26,11.5c-14.95-8.38-31-6.13-47-5"/><path class="cls-2" d="M337.76,198.5l-11.5,20"/><path class="cls-2" d="M356.26,64c-1.44,19.08-2.09,38,1,57"/><path class="cls-2" d="M265.26,558c11.89,15,11.52,35.26,25,49.5"/><path class="cls-2" d="M326.26,111.5c.48,10.86,1.09,21.71,2.5,32.5"/><path class="cls-2" d="M337.26,514l-17-5.5"/><path class="cls-2" d="M45.76,372l1.5,16"/><path class="cls-2" d="M78.26,504.5c.76,14.8-11,17.36-20.5,8"/><path class="cls-2" d="M373.76,516.5l-15.5-2.5"/><path class="cls-2" d="M269.26,546l-13.5-9"/><path class="cls-2" d="M337.26,176.5l-7,12.5"/><path class="cls-2" d="M184.76,50q-1,6-2,12"/><path class="cls-2" d="M238.26,1c.3,5-6.2,4.47-9.5,6.5"/><path class="cls-2" d="M316.26,23c-.66-7.38-9.74-6.28-15-9"/><path class="cls-2" d="M177.76,156.75c3.11,6.11-2.68,17.1,5,19.25"/><path class="cls-2" d="M344.76,38c1.42,5.41-.19,12.42,6,15"/><path class="cls-2" d="M14.76,470.5c-5.52-2.22-5.35,2.79-7,5.5"/><path class="cls-2" d="M351.26,164c-.68-4-9.56,8.75-13,11"/><path class="cls-2" d="M48.76,347c.41,4,.68,7.87,3.5,11"/><path class="cls-2" d="M314.26,510.5c.33,2.83.67,5.67,1,8.5"/><path class="cls-2" d="M232.26,506.5l-8-.5"/><path class="cls-2" d="M194.76,27c-3.56,6.38-8,12.28-7,20"/><path class="cls-2" d="M354.26,124l-3,10.5"/><path class="cls-2" d="M338.26,173q.25,6,.5,12"/><path class="cls-2" d="M352.76,136.5l1.5,16.5"/><path class="cls-2" d="M357.26,514.5l-7.5,1.5"/><path class="cls-2" d="M450.26,484l2.5,8.5"/><path class="cls-2" d="M295.26,9l-7.5,5"/><path class="cls-2" d="M48.26,399l-3.5,5.5"/><path class="cls-2" d="M314.76,105.5l10,6.5"/><path class="cls-2" d="M317.76,18.5l10.5,3"/><path class="cls-2" d="M329.26,23.5l4.5,3.5"/><path class="cls-2" d="M211.26,101.5l-6,1"/><path class="cls-2" d="M311.26,100l2,4.5"/><path class="cls-2" d="M355.76,63l-5.5-2"/><path class="cls-2" d="M186.26,44c-3.43,3.77-2.95,4.44,2,5"/><path class="cls-2" d="M6.26,492c.17,1.67.33,3.33.5,5"/><path class="cls-2" d="M208.26,9l-4.5,9"/><path class="cls-2" d="M209.26,10.5l11,.5"/><path class="cls-2" d="M41.26,513l8-1"/><path class="cls-2" d="M333.26,525.5l-5.5,5"/><path class="cls-2" d="M307.76,524.5c.33,1.17.67,2.33,1,3.5"/><path class="cls-2" d="M292.76,508h-3.5"/><path class="cls-2" d="M181.26,62.5V67"/><path class="cls-2" d="M311.26,528l-5,1"/><path class="cls-2" d="M342.26,30l-.75,5.5"/><path class="cls-2" d="M349.26,60.5l-1.5-1"/><path class="cls-1" d="M196.76,108.9c.82-1.84,5-5,4.72-1.15-3.12-2.53-3.61,4.06-2.63,5.89,3.15,2.16.35,1.56-.19,4.17,3.6.86,2.09,5.1,1.52,7.74-3.51,2.86-5.31,6.67-7.56,10.31-1.63.6-4.27-.58-3.65,2.14,4,7.71-2.1,23.28-1.65,34.6-1-6.07-7.22-7.61-6.41-.17,3.74,13.95,1.57,6-5.3-.34-1.9-4.49,5.78-8.85.17-12.2-4.19-3,6.05,1.47,3.26-1.93-2.22-7.29-4.48-11.36-6-.05-.73-2.52-.29-6-.77-8.71,2.16-3-5.95-3.65-.78-4.94,14.67,2.19,9.25-11,14.88-20.2C189.66,117.45,197.24,110.42,196.76,108.9Zm2,7a2.94,2.94,0,0,0-3.78,1.08C195.38,118.46,198.16,116.77,198.75,115.86ZM185.8,166.24c-.81-.53-1.09-1.18-1.82-.4C184.7,166.38,184.82,167.15,185.8,166.24Z"/><path class="cls-1" d="M329.89,183.77c1.94,3.1-2.18,4.14-3.14,4.12,2-9.8-3.94-20.77,9-22.57,7.24-2.49,6.85,6.14,3.05,7.34C334.86,165.55,330.43,179.68,329.89,183.77Z"/><path class="cls-1" d="M315.42,157.35c-6.92-3.46-43.36,7.12-31.6-3.9.77,4.56.3,2.3,6.11.56-3.69-.26-4.88-3,.79-3.13,4.76,1.84,20.54-2.54,20.64.88C300.25,150,325,157.75,315.42,157.35Z"/><path class="cls-1" d="M245.34,153.84c-9.75,2.67-28.26-2.65-40-3.65C217.74,139.45,234.49,152.83,245.34,153.84Z"/><path class="cls-1" d="M309.56,96.48c-3.53-.17-5.7-3.09-9.37-2.64-2.62.62-1.83-3.48-4.55-2.55C294.42,88.93,307,93.74,309.56,96.48Z"/><path class="cls-1" d="M309.56,96.49c8.36,6.4-3.41,8.31-2.49.06C308.12,98.17,309,99.52,309.56,96.49Z"/><path class="cls-1" d="M326.13,139.66c-.32,1.39-1.4-1-1.1-1.54C325.67,130.82,325.56,134.14,326.13,139.66Z"/><path class="cls-1" d="M209.62,98.83c-1.24,1.17-2.91,1.88-4.33,1.38C206.83,99.52,207.81,97.59,209.62,98.83Z"/><path class="cls-1" d="M285,88.87c-.47-.18-1.21-.38-.33-.54C285.45,88.5,286.27,88.61,285,88.87Z"/><path class="cls-1" d="M336.66,172c.27.37,1.34.86.68,1.07C337.1,172.73,336.07,172.3,336.66,172Z"/><path class="cls-1" d="M288.2,89.24c-.24-.15-.94-.35-.36-.48C288.31,88.92,289.09,89,288.2,89.24Z"/><path class="cls-1" d="M316.85,106.3c0-.12.11,0,.18,0S316.92,106.34,316.85,106.3Z"/><path class="cls-1" d="M196.52,109.15c0-.09.26-.2.21-.27C196.67,109,196.51,109,196.52,109.15Z"/><g id="p43Rsh.tif"><path class="cls-1" d="M281.41,204.26c5.95,5.18,16.17,19.71,17.9,19.69-4.28,2.88-5.77,2.46-8.61-3.29-1.32-4.82-10.4-9.56-10.06-14.35A4,4,0,0,1,281.41,204.26Z"/><path class="cls-1" d="M271.63,218.13c-5,.6-16.38,8.9-16.61-.8C259.27,221.26,285.61,211.75,271.63,218.13Z"/><path class="cls-1" d="M227.14,224.09c-.48-4.89,16.84-15.77,10-7.1C233.56,218.34,229.65,224.13,227.14,224.09Z"/><path class="cls-1" d="M246.6,211.43c-3.5,3.13-2.69-2.91-3.75-4.67C244.08,202.41,246.38,209.63,246.6,211.43Z"/></g><path d="M210.85,165.36s2.56,7.71,15.28,6.2,14.15-2.46,14.15-2.46-.46-1.28-2-.45C232.12,171.86,215.49,173.74,210.85,165.36Z"/><path class="cls-3" d="M238.48,168.47s-4.77-8-22.13-4.89a18.67,18.67,0,0,0-5.2,1.81S218.85,174.69,238.48,168.47Z"/><path class="cls-1" d="M233.65,147.09c1.91,1.93,11.46,7.53,13.67,9.77-3.59,1.69-10.28-4.66-18.3-6.2-10.35-2-22.54-.5-23.09-.56.08-1.44,14.32-2.36,14.4-3.65C224,144.74,233,146.68,233.65,147.09Z"/><ellipse class="cls-4" cx="225.17" cy="166.68" rx="4.22" ry="3.64"/><ellipse class="cls-5" cx="225.24" cy="166.54" rx="2.72" ry="2.36"/><ellipse class="cls-6" cx="227.31" cy="165.55" rx="0.7" ry="0.72"/><path class="cls-1" d="M202.89,150.44s23.09-9.44,34-4.07,10.32,10,10.32,10,0,1.07-1.28.68c-2.19-.7-5.95-3.79-11.61-6.48C225.43,146.38,202.89,150.44,202.89,150.44Z"/><path class="cls-7" d="M243.76,167.39a35.21,35.21,0,0,0-35.42-5.07"/><path class="cls-8" d="M284.6,173.75a1,1,0,0,1,0-1.84c2.56-1.22,8-2.89,16.23-.75,3.87,1,5.81,2,6.78,2.64a1,1,0,0,1-.1,1.74,30,30,0,0,1-6.3,1.59,19.53,19.53,0,0,1-3.88.25c-.41,0-2.9-.46-5.13-1-2-.48-3.7-1.09-4.08-1.18A27.82,27.82,0,0,1,284.6,173.75Z"/><ellipse class="cls-4" cx="296.11" cy="173.58" rx="4.22" ry="3.64"/><ellipse class="cls-5" cx="296.13" cy="173.6" rx="2.72" ry="2.36"/><path class="cls-7" d="M280.49,170s4.61-6.51,17.5-3.18,16.16,5,16.16,5"/><ellipse class="cls-6" cx="298.2" cy="172.61" rx="0.7" ry="0.72"/><path d="M282.55,172.12c.78,1.95,2.46,3.27,5.85,4.85,5.13,2.37,15.92,2.81,19.87.93,4.85-2.32,6.34-2.67,7.28-4.29.16-.28-5.1,3.4-10.28,4.63s-15.48-.86-19.4-3.23"/><path class="cls-1" d="M278.59,160.27a22.68,22.68,0,0,1,23.07-8.46,39,39,0,0,1,17.76,8.41s-14.45-4.92-25.49-5.06S278.59,160.27,278.59,160.27Z"/><line class="cls-1" x1="296.28" y1="223.84" x2="280.64" y2="206.31"/><line class="cls-1" x1="242.85" y1="206.76" x2="246.6" y2="211.43"/><line class="cls-1" x1="224.53" y1="225.01" x2="239.11" y2="213.49"/></g></g></svg>
