<svg xmlns="http://www.w3.org/2000/svg" xmlns:xlink="http://www.w3.org/1999/xlink" viewBox="0 0 18.66 18.94"><defs><style>.cls-1{fill:none;}.cls-2{isolation:isolate;}.cls-3{fill:#616262;}.cls-4{fill:#a0a1a2;}.cls-5{fill:#979899;}.cls-6{clip-path:url(#clip-path);}.cls-7{fill:#969798;}.cls-8{fill:#929394;}.cls-9{fill:#8f9091;}.cls-10{clip-path:url(#clip-path-2);}.cls-11{clip-path:url(#clip-path-3);}.cls-12{fill:#8b8c8d;}.cls-13{fill:#676868;}.cls-14{clip-path:url(#clip-path-4);}.cls-15{fill:#87898a;}.cls-16{fill:#848587;}.cls-17{clip-path:url(#clip-path-5);}.cls-18{fill:#606162;}.cls-19{fill:#5e5f5f;}.cls-20{fill:#5c5d5d;}.cls-21{fill:#595b5b;}.cls-22{fill:#575859;}.cls-23{fill:#555657;}.cls-24{clip-path:url(#clip-path-6);}.cls-25{fill:#a1a2a3;}.cls-26{clip-path:url(#clip-path-7);}.cls-27{fill:#626464;}.cls-28{fill:#656666;}.cls-29{fill:#696a6a;}.cls-30{fill:#6b6c6c;}.cls-31{fill:#6e6e6f;}.cls-32{fill:#707171;}.cls-33{clip-path:url(#clip-path-8);}.cls-34{fill:#9d9e9f;}.cls-35{fill:#999a9b;}.cls-36{clip-path:url(#clip-path-9);}.cls-37{fill:#a8a9aa;}.cls-38{fill:#a4a5a6;}.cls-39{fill:#a1a1a3;}.cls-40{clip-path:url(#clip-path-10);}.cls-41{fill:#acacad;}.cls-42{fill:#afb0b1;}.cls-43{fill:#737474;}.cls-44{clip-path:url(#clip-path-11);}.cls-45{clip-path:url(#clip-path-12);}.cls-46{fill:#b5b5b6;}.cls-47{clip-path:url(#clip-path-13);}</style><clipPath id="clip-path"><path class="cls-1" d="M8.88,14.15a8.38,8.38,0,0,0,1.19-.07l-.94.7a10.36,10.36,0,0,1-1.19.06H7.53l.94-.7Z"/></clipPath><clipPath id="clip-path-2"><path class="cls-1" d="M10.13,14.08l-1,.69h0l.94-.7Z"/></clipPath><clipPath id="clip-path-3"><path class="cls-1" d="M10.13,14.08l.36-.07-.94.7-.37.06Z"/></clipPath><clipPath id="clip-path-4"><path class="cls-1" d="M11.39,13.66l-1,.69-.29.17.94-.7-.94.7a2.2,2.2,0,0,1-.53.17l1-.69a2.61,2.61,0,0,0,.52-.18Z"/></clipPath><clipPath id="clip-path-5"><path class="cls-1" d="M11.4,13.52l-.94.7a2.5,2.5,0,0,1-.35.21,5.52,5.52,0,0,1-2.17.31H7.53l.94-.7h.42a5.43,5.43,0,0,0,2.16-.32A2.5,2.5,0,0,0,11.4,13.52Z"/></clipPath><clipPath id="clip-path-6"><path class="cls-1" d="M15.56,16.71l-1,.7a6,6,0,0,1-2.21,1,14.88,14.88,0,0,1-3.2.39H8.93l1-.7h.26a14.87,14.87,0,0,0,3.2-.4A5.92,5.92,0,0,0,15.56,16.71Z"/></clipPath><clipPath id="clip-path-7"><path class="cls-1" d="M11.46,13.6l-.94.7a2.77,2.77,0,0,0,.86-1.12,8.05,8.05,0,0,0,.44-3.11c0-1.9-.34-3.23-1-3.95A4.43,4.43,0,0,0,7.55,5l.94-.7a4.46,4.46,0,0,1,3.28,1.15c.66.73,1,2.06,1,4a8.05,8.05,0,0,1-.44,3.11A2.92,2.92,0,0,1,11.46,13.6Z"/></clipPath><clipPath id="clip-path-8"><path class="cls-1" d="M15.94,16.41a3.57,3.57,0,0,1-.38.3l-1,.7L15,17.1a7.2,7.2,0,0,0,1.9-2.58,11.4,11.4,0,0,0,.68-4.41l.94-.69a11.44,11.44,0,0,1-.68,4.41A7,7,0,0,1,15.94,16.41Z"/></clipPath><clipPath id="clip-path-9"><path class="cls-1" d="M18.06,6a13.1,13.1,0,0,1,.46,3.47L18,9.81l-.13.09-.23.17a.07.07,0,0,1-.05,0,12.63,12.63,0,0,0-.47-3.46Z"/></clipPath><clipPath id="clip-path-10"><path class="cls-1" d="M16.57,3.07A8,8,0,0,1,18.06,6l-.95.7a7.78,7.78,0,0,0-1.48-2.89l.94-.69-.94.69A6.91,6.91,0,0,0,13,1.82l.94-.7-.94.7a11,11,0,0,0-4.12-.77L9.87.36A11,11,0,0,1,14,1.12,7,7,0,0,1,16.57,3.07Z"/></clipPath><clipPath id="clip-path-11"><path class="cls-1" d="M13,1.82l.72-.53L13,1.82Z"/></clipPath><clipPath id="clip-path-12"><path class="cls-1" d="M15.62,16.79l-.95.7c.13-.1.27-.2.39-.31A7.15,7.15,0,0,0,17,14.57a11.64,11.64,0,0,0,.69-4.45,13.19,13.19,0,0,0-.47-3.49l.94-.7a12.85,12.85,0,0,1,.47,3.49,11.41,11.41,0,0,1-.69,4.45A7.24,7.24,0,0,1,16,16.48C15.88,16.59,15.75,16.7,15.62,16.79Z"/></clipPath><clipPath id="clip-path-13"><path class="cls-1" d="M8.92,1,9.87.26A11,11,0,0,1,14,1a7,7,0,0,1,2.63,2,8.07,8.07,0,0,1,1.5,2.93l-.94.7A8,8,0,0,0,15.7,3.7a6.91,6.91,0,0,0-2.62-2A11.16,11.16,0,0,0,8.92,1Z"/></clipPath></defs><g id="Layer_2" data-name="Layer 2"><g id="Layer_1-2" data-name="Layer 1"><g class="cls-2"><polygon class="cls-3" points="0.32 18.61 1.27 17.91 9.88 18.14 8.93 18.84 0.32 18.61"/><polygon class="cls-4" points="6.05 14.75 7 14.05 7 14.1 6.05 14.8 6.05 14.75"/><polygon class="cls-5" points="6.05 14.8 7 14.1 8.47 14.14 7.53 14.84 6.05 14.8"/><polygon class="cls-3" points="6.15 14.7 7.09 14.01 8.47 14.04 7.53 14.74 6.15 14.7"/><g class="cls-2"><g class="cls-6"><g class="cls-2"><path class="cls-7" d="M7.53,14.84l.94-.7h.08l-.94.7H7.53"/><path class="cls-8" d="M7.61,14.84l.94-.7h.33l.74,0-.95.69c-.22,0-.47,0-.73,0H7.61"/><path class="cls-9" d="M8.67,14.82l.95-.69.63-.07-.94.69a5.7,5.7,0,0,1-.64.07"/></g></g></g><g class="cls-2"><g class="cls-10"><g class="cls-2"><path class="cls-9" d="M8.67,14.82l.95-.69.63-.07-.94.69a5.7,5.7,0,0,1-.64.07"/></g></g></g><g class="cls-2"><g class="cls-11"><g class="cls-2"><path class="cls-9" d="M8.67,14.82l.95-.69.63-.07-.94.69a5.7,5.7,0,0,1-.64.07"/><path class="cls-12" d="M9.31,14.75l.94-.69.43-.09-.94.69a2.72,2.72,0,0,1-.43.09"/></g></g></g><polygon class="cls-13" points="0.31 0.82 1.26 0.13 1.27 17.91 0.32 18.61 0.31 0.82"/><g class="cls-2"><g class="cls-14"><g class="cls-2"><path class="cls-12" d="M9.31,14.75l.94-.69.43-.09-.94.69a2.72,2.72,0,0,1-.43.09"/><path class="cls-15" d="M9.74,14.66l.94-.69a2,2,0,0,0,.32-.11l-.94.7-.32.1"/><path class="cls-16" d="M10.06,14.56l.94-.7a.25.25,0,0,0,.09,0,2,2,0,0,0,.37-.22l-.94.7a2.77,2.77,0,0,1-.37.22l-.09,0"/></g></g></g><g class="cls-2"><g class="cls-17"><g class="cls-2"><path class="cls-18" d="M7.53,14.74l.94-.7h.11l-1,.69h-.1"/><path class="cls-19" d="M7.63,14.74l1-.69h.31l.72,0-.95.69c-.22,0-.46,0-.72,0H7.63"/><path class="cls-20" d="M8.66,14.72,9.61,14l.62-.07-.94.7a5.63,5.63,0,0,1-.63.06"/><path class="cls-21" d="M9.29,14.66l.94-.7a2.59,2.59,0,0,0,.42-.09l-.94.7-.42.09"/><path class="cls-22" d="M9.71,14.57l.94-.7a2.26,2.26,0,0,0,.31-.1l-.94.7-.31.1"/><path class="cls-23" d="M10,14.47l.94-.7.09,0a2.5,2.5,0,0,0,.35-.21l-.94.7a2.5,2.5,0,0,1-.35.21l-.09,0"/></g></g></g><g class="cls-2"><g class="cls-24"><g class="cls-2"><path class="cls-18" d="M8.93,18.84l1-.7h0l-.94.7H8.93"/><path class="cls-19" d="M9,18.84l.94-.7h.21l.74,0-.94.7-.74,0H9"/><path class="cls-20" d="M9.94,18.82l.94-.7A12.36,12.36,0,0,0,12.17,18l-.95.69c-.44.07-.87.12-1.28.15"/><path class="cls-21" d="M11.22,18.67l.95-.69c.38-.06.77-.14,1.17-.23l.2-.05-.94.7-.2.05c-.41.09-.8.16-1.18.22"/><path class="cls-22" d="M12.6,18.4l.94-.7a5.44,5.44,0,0,0,.68-.23l-.94.7c-.23.09-.45.16-.68.23"/><path class="cls-23" d="M13.28,18.17l.94-.7a6.21,6.21,0,0,0,1.34-.76l-1,.7a6.59,6.59,0,0,1-1.33.76"/></g></g></g><polygon class="cls-25" points="6.04 4.93 6.99 4.23 7 14.05 6.05 14.75 6.04 4.93"/><polygon class="cls-13" points="6.14 5.03 7.09 4.33 7.09 14.01 6.15 14.7 6.14 5.03"/><polygon class="cls-3" points="6.04 4.93 6.99 4.23 8.49 4.27 7.55 4.97 6.04 4.93"/><g class="cls-2"><g class="cls-26"><g class="cls-2"><path class="cls-18" d="M7.55,5l.94-.7.65,0L8.2,5C8,5,7.77,5,7.55,5"/><path class="cls-27" d="M8.2,5l.94-.7.55.08-.94.7A4.85,4.85,0,0,0,8.2,5"/><path class="cls-28" d="M8.75,5.09l.94-.7.45.1-1,.7-.44-.1"/><path class="cls-13" d="M9.19,5.19l1-.7.38.12-.94.7c-.13,0-.25-.09-.39-.12"/><path class="cls-29" d="M9.58,5.31l.94-.7.35.15-.95.7a3.49,3.49,0,0,0-.34-.15"/><path class="cls-30" d="M9.92,5.46l.95-.7L11.2,5l-.95.69a1.74,1.74,0,0,0-.33-.18"/><path class="cls-31" d="M10.25,5.64,11.2,5a2.82,2.82,0,0,1,.39.29l-.94.7a2.46,2.46,0,0,0-.4-.3"/><path class="cls-32" d="M10.65,5.94l.94-.7a1.53,1.53,0,0,1,.18.18,2.24,2.24,0,0,1,.31.43l-.94.7a3,3,0,0,0-.31-.43l-.18-.18"/><path class="cls-31" d="M11.14,6.55l.94-.7a3.1,3.1,0,0,1,.26.55l-.94.7a4.72,4.72,0,0,0-.26-.55"/><path class="cls-30" d="M11.4,7.1l.94-.7a3.31,3.31,0,0,1,.17.56l-.94.69c-.05-.19-.11-.38-.17-.55"/><path class="cls-29" d="M11.57,7.65,12.51,7a5.88,5.88,0,0,1,.14.66l-1,.7a6.13,6.13,0,0,0-.13-.67"/><path class="cls-13" d="M11.7,8.32l1-.7q.06.4.09.87l-1,.7q0-.46-.09-.87"/><path class="cls-28" d="M11.79,9.19l1-.7c0,.28,0,.58,0,.89,0,.12,0,.24,0,.36l-.94.69v-.36c0-.31,0-.6,0-.88"/><path class="cls-27" d="M11.82,10.43l.94-.69c0,.4,0,.78-.06,1.11l-.94.7c0-.34.05-.71.06-1.12"/><path class="cls-18" d="M11.76,11.55l.94-.7a6.25,6.25,0,0,1-.09.68l-.95.7c0-.21.07-.44.1-.68"/><path class="cls-19" d="M11.66,12.23l.95-.7c0,.16-.07.31-.1.45l-.95.69c0-.14.07-.28.1-.44"/><path class="cls-20" d="M11.56,12.67l.95-.69a3,3,0,0,1-.11.32l-.94.69a2.42,2.42,0,0,0,.1-.32"/><path class="cls-21" d="M11.46,13l.94-.69c0,.07-.05.13-.07.19a.31.31,0,0,0-.05.1l-.95.69a.31.31,0,0,0,.05-.1,1.82,1.82,0,0,0,.08-.19"/><path class="cls-22" d="M11.33,13.28l.95-.69c-.07.13-.14.25-.22.37l-.94.7a2.32,2.32,0,0,0,.21-.38"/><path class="cls-23" d="M11.12,13.66l.94-.7a2.31,2.31,0,0,1-.6.64l-.94.7a2.84,2.84,0,0,0,.6-.64"/></g></g></g><polygon class="cls-5" points="0.31 0.82 1.26 0.13 9.87 0.36 8.92 1.05 0.31 0.82"/><g class="cls-2"><g class="cls-33"><g class="cls-2"><path class="cls-34" d="M17.55,9.24l.94-.7c0,.29,0,.58,0,.88v.42l-.95.7c0-.14,0-.28,0-.43s0-.58,0-.87"/><path class="cls-35" d="M17.57,10.54l.95-.7c0,.51,0,1-.08,1.42l-1,.69c.05-.44.07-.91.08-1.41"/><path class="cls-7" d="M17.49,12l1-.69c0,.35-.08.68-.14,1l-.94.7c.05-.31.1-.64.13-1"/><path class="cls-8" d="M17.36,12.94l.94-.7c-.05.26-.1.51-.16.74l-.95.69c.06-.23.12-.47.17-.73"/><path class="cls-9" d="M17.19,13.67l.95-.69c-.06.2-.12.39-.19.57l-.94.69a4.75,4.75,0,0,0,.18-.57"/><path class="cls-12" d="M17,14.24l.94-.69c0,.09-.07.19-.11.28l-.15.33-1,.69c.06-.11.11-.22.16-.33s.07-.18.11-.28"/><path class="cls-15" d="M16.74,14.85l1-.69a9.29,9.29,0,0,1-.48.82l-.94.7a7.42,7.42,0,0,0,.47-.83"/><path class="cls-16" d="M16.27,15.68l.94-.7a6.68,6.68,0,0,1-1.27,1.43,3.57,3.57,0,0,1-.38.3l-1,.7L15,17.1a6.9,6.9,0,0,0,1.27-1.42"/></g></g></g><g class="cls-2"><g class="cls-36"><g class="cls-2"><path class="cls-37" d="M17.11,6.65l.95-.7c0,.11.06.21.08.32L17.2,7l-.09-.32"/><path class="cls-38" d="M17.2,7l.94-.7a10.63,10.63,0,0,1,.23,1.15l-.94.69c-.06-.39-.14-.77-.23-1.14"/><path class="cls-39" d="M17.43,8.11l.94-.69a10.36,10.36,0,0,1,.12,1.12l-.94.7c0-.38-.07-.76-.12-1.13"/><path class="cls-34" d="M17.55,9.24l.94-.7c0,.29,0,.58,0,.88v.42l-.95.7c0-.14,0-.28,0-.43s0-.58,0-.87"/></g></g></g><g class="cls-2"><g class="cls-40"><g class="cls-2"><path class="cls-7" d="M8.92,1.05,9.87.36c.45,0,.87,0,1.28.08l-1,.69c-.4,0-.83-.07-1.28-.08"/><path class="cls-35" d="M10.2,1.13l1-.69c.36,0,.7.08,1,.14l-.95.7c-.32-.06-.66-.11-1-.15"/><path class="cls-34" d="M11.23,1.28l.95-.7c.28.05.54.11.79.18l-.94.7c-.26-.07-.52-.13-.8-.18"/><path class="cls-39" d="M12,1.46,13,.76a6,6,0,0,1,.64.21l-.95.69L12,1.46"/><path class="cls-38" d="M12.66,1.66,13.61,1l.38.15.22.11-.94.69L13,1.82l-.38-.16"/><path class="cls-37" d="M13.27,1.92l.94-.69a5.86,5.86,0,0,1,.74.41L14,2.33c-.24-.15-.49-.28-.74-.41"/><path class="cls-41" d="M14,2.33,15,1.64a7.07,7.07,0,0,1,.93.7l-.94.7A7.14,7.14,0,0,0,14,2.33"/><path class="cls-42" d="M14.94,3l.94-.7a6,6,0,0,1,.69.73,7.33,7.33,0,0,1,.68,1l-.94.7a8.16,8.16,0,0,0-.68-1A5.87,5.87,0,0,0,14.94,3"/><path class="cls-41" d="M16.31,4.74l.94-.7a7.58,7.58,0,0,1,.58,1.22l-.94.7a8.05,8.05,0,0,0-.58-1.22"/><path class="cls-37" d="M16.89,6l.94-.7c.09.23.16.46.23.69l-.95.7A7,7,0,0,0,16.89,6"/></g></g></g><path class="cls-43" d="M17.21,6.63a13.19,13.19,0,0,1,.47,3.49A11.64,11.64,0,0,1,17,14.57a7.15,7.15,0,0,1-1.93,2.61,6.13,6.13,0,0,1-2.64,1.36,14.43,14.43,0,0,1-3.22.4H8.93l-8.7-.23,0-18L8.92,1a11.16,11.16,0,0,1,4.16.78,6.91,6.91,0,0,1,2.62,2A8,8,0,0,1,17.21,6.63Zm.37,3.48a12.68,12.68,0,0,0-.47-3.46,7.78,7.78,0,0,0-1.48-2.89A6.91,6.91,0,0,0,13,1.82a11,11,0,0,0-4.12-.77L.31.82V18.61l8.61.23H9.2a14.88,14.88,0,0,0,3.2-.39A6.09,6.09,0,0,0,15,17.1a7.2,7.2,0,0,0,1.9-2.58,11.4,11.4,0,0,0,.68-4.41"/><path class="cls-43" d="M7.55,5a4.43,4.43,0,0,1,3.28,1.15c.65.72,1,2.05,1,4a8.05,8.05,0,0,1-.44,3.11,2.62,2.62,0,0,1-1.23,1.34,5.68,5.68,0,0,1-2.21.32H7.53l-1.48,0V4.93Zm4.17,5.1c0-1.87-.32-3.18-1-3.89A4.33,4.33,0,0,0,7.55,5.07L6.14,5V14.7l1.38,0h.41a5.52,5.52,0,0,0,2.17-.31,2.5,2.5,0,0,0,1.18-1.29,7.86,7.86,0,0,0,.43-3.07"/><polygon class="cls-3" points="0.21 0.72 1.16 0.03 9.87 0.26 8.92 0.95 0.21 0.72"/><g class="cls-2"><g class="cls-44"><g class="cls-2"><path class="cls-38" d="M12.66,1.66,13.61,1l.38.15.22.11-.94.69L13,1.82l-.38-.16"/></g></g></g><g class="cls-2"><g class="cls-45"><g class="cls-2"><path class="cls-30" d="M17.21,6.63l.94-.7.09.32-.95.7a3,3,0,0,0-.08-.32"/><path class="cls-29" d="M17.29,7l.95-.7c.09.38.17.76.23,1.15l-.95.7A8.67,8.67,0,0,0,17.29,7"/><path class="cls-13" d="M17.52,8.1l.95-.7a10.47,10.47,0,0,1,.12,1.14l-.94.69c0-.38-.07-.76-.13-1.13"/><path class="cls-28" d="M17.65,9.23l.94-.69c0,.29,0,.58,0,.88v.42l-.95.7c0-.14,0-.28,0-.42,0-.3,0-.6,0-.89"/><path class="cls-27" d="M17.67,10.54l.95-.7c0,.51,0,1-.08,1.43l-.95.7c.05-.45.07-.92.08-1.43"/><path class="cls-18" d="M17.59,12l.95-.7c0,.35-.09.68-.14,1l-.95.69a9.44,9.44,0,0,0,.14-1"/><path class="cls-19" d="M17.45,13l.95-.69c0,.26-.11.5-.17.74l-.94.69a7.38,7.38,0,0,0,.16-.74"/><path class="cls-20" d="M17.29,13.7l.94-.69c-.05.2-.12.39-.18.57l-.95.7c.07-.18.13-.37.19-.58"/><path class="cls-21" d="M17.1,14.28l.95-.7-.12.29c-.05.11-.1.22-.16.33l-.94.7.16-.33.11-.29"/><path class="cls-22" d="M16.83,14.9l.94-.7a5.73,5.73,0,0,1-.48.84l-.94.7q.25-.4.48-.84"/><path class="cls-23" d="M16.35,15.74l.94-.7A6.54,6.54,0,0,1,16,16.48c-.13.11-.26.22-.39.31l-.95.7c.13-.1.27-.2.39-.31a7.38,7.38,0,0,0,1.29-1.44"/></g></g></g><path class="cls-46" d="M17.11,6.65a12.68,12.68,0,0,1,.47,3.46,11.4,11.4,0,0,1-.68,4.41A7.2,7.2,0,0,1,15,17.1a6.09,6.09,0,0,1-2.6,1.35,14.88,14.88,0,0,1-3.2.39H8.93L.32,18.61V.82l8.61.23A11,11,0,0,1,13,1.82a6.91,6.91,0,0,1,2.59,1.94A7.78,7.78,0,0,1,17.11,6.65Zm-5.29,3.42c0-1.9-.34-3.23-1-3.95A4.43,4.43,0,0,0,7.55,5l-1.5,0V14.8l1.48,0h.41a5.68,5.68,0,0,0,2.21-.32,2.62,2.62,0,0,0,1.23-1.34,8.05,8.05,0,0,0,.44-3.11"/><g class="cls-2"><g class="cls-47"><g class="cls-2"><path class="cls-18" d="M8.92,1,9.87.26c.45,0,.88,0,1.29.08L10.21,1C9.8,1,9.37,1,8.92,1"/><path class="cls-27" d="M10.21,1l.95-.69a10.19,10.19,0,0,1,1,.15l-.94.69c-.33-.06-.68-.11-1-.15"/><path class="cls-28" d="M11.25,1.18l.94-.69c.28.05.55.11.8.18l-.94.69c-.25-.07-.52-.13-.8-.18"/><path class="cls-13" d="M12.05,1.36,13,.67a5.51,5.51,0,0,1,.65.21l-.94.69-.65-.21"/><path class="cls-29" d="M12.7,1.57l.94-.69c.13,0,.26.1.38.15l.23.11-.94.69-.23-.1-.38-.16"/><path class="cls-30" d="M13.31,1.83l.94-.69a6.79,6.79,0,0,1,.75.41l-.94.7q-.36-.22-.75-.42"/><path class="cls-31" d="M14.06,2.25l.94-.7a7.41,7.41,0,0,1,.95.72L15,3a7.24,7.24,0,0,0-.94-.71"/><path class="cls-32" d="M15,3,16,2.27a6.92,6.92,0,0,1,.7.73,11,11,0,0,1,.69,1l-.95.7a6.75,6.75,0,0,0-.69-1A7,7,0,0,0,15,3"/><path class="cls-31" d="M16.39,4.69l.95-.7a8.77,8.77,0,0,1,.58,1.24l-.94.7a7.44,7.44,0,0,0-.59-1.24"/><path class="cls-30" d="M17,5.93l.94-.7a5.73,5.73,0,0,1,.23.7l-.94.7c-.07-.24-.15-.48-.23-.7"/></g></g></g></g><path d="M.17,17.52v-.3s0-.07,0-.11a2,2,0,0,0,0-.35v-.3a.34.34,0,0,0,0-.1,1.22,1.22,0,0,0,0-.33V15.7a.33.33,0,0,0,0-.1,1.07,1.07,0,0,0,0-.31v-.35a2.94,2.94,0,0,0,0-.42v-.34a2.54,2.54,0,0,0,0-.39v-.37a2.41,2.41,0,0,0,0-.38v-.38a1.29,1.29,0,0,0,0-.34V11.9a1.22,1.22,0,0,0,0-.33v-.85c0-.61,0-1.21,0-1.82s0-1,0-1.48,0-1,0-1.56v-3c0-.23,0-.47,0-.7,0-.41,0-.81,0-1.21,0,0,0-.05,0-.05S.11.76.09.7s0,0,0,0A.35.35,0,0,0,.42.59L1,.22A.09.09,0,0,0,1,.14S1,.06,1,.06s.12,0,.16,0,0,0,.05,0h.29l8,.19s.1,0,.11,0,.17,0,.17,0,.06,0,.1,0l.74,0,.52,0s.06,0,.08,0,.16,0,.18,0a.06.06,0,0,0,0,0L12,.54c.2,0,.39.07.59.12s.12-.05.19,0,.07,0,.06.06,0,0,.05,0a6.69,6.69,0,0,1,.86.29c.06,0,.12,0,.19,0S14,1,14,1.07s0,.06.06.08a5.83,5.83,0,0,1,.7.37.26.26,0,0,0,.17,0s.07,0,.06.05,0,.07.05.1a4.47,4.47,0,0,1,.6.45c.07.07.2,0,.21.08a.3.3,0,0,0,.11.19c.16.15.32.32.47.49a.13.13,0,0,0,.13.06s.05,0,0,0,0,.17.1.24a5.58,5.58,0,0,1,.39.56s0,.05.06.05.09,0,.08.1a.24.24,0,0,0,0,.14,5.75,5.75,0,0,1,.34.65.09.09,0,0,0,.09.06s.05,0,0,0a.8.8,0,0,0,.1.45c.06.17.12.34.17.51s0,0,0,0,.07,0,.07,0,0,.11,0,.15a.09.09,0,0,0,0,0c.07.28.14.56.19.84,0,0,0,0,0,0s.09.14.05.18,0,.05,0,.07c0,.27.08.53.1.8,0,0,0,.1.07.1s0,.16,0,.18,0,0,0,.05c0,.31,0,.61.05.91a.1.1,0,0,0,0,0c.11,0,.05.09.06.14s0,.06,0,.06,0,0,0,.06,0,.31,0,.47c0,.33,0,.67-.06,1,0,0,0,0,0,0s0,.11.05.16,0,0,0,0-.08.08-.08.14c0,.24-.06.48-.11.72a2.38,2.38,0,0,0-.06.37s0,.11,0,.17,0,.07-.06.06,0,0,0,0a6.72,6.72,0,0,1-.28.9c0,.07,0,.13,0,.19s0,.07-.06.06-.06,0-.08,0a6.85,6.85,0,0,1-.37.71c0,.05,0,.11,0,.17s0,.06-.05.05a.1.1,0,0,0-.11,0,4.75,4.75,0,0,1-.42.58.18.18,0,0,0-.05.16s0,.07,0,.06-.13,0-.17.08-.33.32-.49.48a.13.13,0,0,0-.06.13s0,.07-.06.06-.14,0-.2.08l-.25.19a.1.1,0,0,0-.06.1s0,.06-.06.06a.16.16,0,0,0-.17,0s0,0,0,0-.1.12-.18.14h-.05l-.4.27s0,0,0,.06,0,.09-.11.09-.14,0-.16.13,0,.05,0,0-.3.09-.45.16l-.33.16s-.06,0-.06,0-.07.09-.12.08a.46.46,0,0,0-.2,0l-.55.17s-.05,0-.05,0,0,.09-.08.07-.09,0-.11,0,0,0-.06,0l-.6.12-.33.06s0,0,0,0,0,.07-.08.06-.09,0-.11,0,0,0,0,0l-.59.07-.22,0c-.06,0-.13,0-.14.07s-.17,0-.17,0-.09-.06-.13,0l-.68,0s-.08,0-.1.05-.08,0-.12,0-.06,0-.05,0,0,0-.06,0H8.65l-8.23-.2s-.12-.05-.14.06-.1,0-.15,0,0,0,0-.07,0-.1,0-.12,0,0,0-.05,0-.29,0-.44,0-.07,0-.11A1.9,1.9,0,0,0,.17,17.52Zm16.28-1.69s0,0,0,0,0,0,0,0l0,0-.06,0-.48.33s0,0,0,.06,0,0,0,0a.21.21,0,0,0,.15,0,3.19,3.19,0,0,0,.42-.4ZM13.6,17.89a3,3,0,0,0,.4-.2c.05,0,.07-.06,0-.12l-.45.31,0,0S13.59,17.91,13.6,17.89Zm.3-.3c-.16,0-.32.11-.49.14a0,0,0,0,0-.05.06s0,0-.06,0a.3.3,0,0,0-.16,0l-.61.43,0,0s0,0,0,0a3,3,0,0,0,.58-.18c.05,0,.06,0,.06-.07s0-.07.07-.07a.22.22,0,0,0,.16,0l.52-.36,0,0S13.91,17.56,13.9,17.59ZM9,18.74H9.1c.2,0,.41,0,.61,0,0,0,.12,0,.14,0s0-.06.07-.05a.28.28,0,0,0,.23-.07l.18-.12.46-.33-.17,0-.67,0s-.06,0-.06,0-.05.05-.08,0a.33.33,0,0,0-.19.06,1,1,0,0,1-.17.12c-.15.12-.33.21-.47.34H9Zm9.46-8.27s0,0,0-.06c0-.29,0-.58,0-.87,0,0,0,0,0,0a.1.1,0,0,0-.09,0l-.63.44c-.05,0-.08.07-.07.13s0,.06,0,0,0,0,0,.08,0,.34,0,.51,0,.61,0,.91c0,0,0,.05,0,.06a.11.11,0,0,0,.08,0l0,0,.58-.4s.09-.06.08-.13,0,0,0,0,.05,0,.05-.06ZM1.2,18s0,.06-.06.06S1.05,18,1,18c-.23.17-.47.33-.72.5a.17.17,0,0,0,.12,0l8.25.19s.12.05.13,0,0,0,0,0,.21-.05.31-.12.38-.25.56-.39c0,0,0,0-.07,0L1.28,18S1.22,17.93,1.2,18ZM.21,1.84v.39a1.28,1.28,0,0,0,0,.34c0,.23,0,.46,0,.69s0,.49,0,.74,0,.52,0,.78,0,.49,0,.74V8.46c0,.51,0,1,0,1.54s0,1,0,1.47,0,1,0,1.52c0,.24,0,.48,0,.72V18.4s0,.06,0,.07a.07.07,0,0,0,.07,0L.94,18C1,18,1,18,1,17.88s0-.05,0-.05.05,0,.05-.06,0-.22,0-.33c0-.48,0-1,0-1.44V14.36c0-.22,0-.44,0-.66V12.06c0-.22,0-.44,0-.66V9.77c0-.22,0-.45,0-.67,0-.54,0-1.08,0-1.62,0-.23,0-.46,0-.68,0-.54,0-1.07,0-1.61s0-1,0-1.46,0-1.17,0-1.76c0-.36,0-.71,0-1.07v0s0-.05,0-.05C.8.82.56.81.32.82.28.82.2.87.2.89a5.81,5.81,0,0,1,0,.59A1.45,1.45,0,0,0,.21,1.84Zm.91,13.63v.12a2.08,2.08,0,0,0,0,.35v.41a2.17,2.17,0,0,0,0,.36v.42a2.29,2.29,0,0,0,0,.37v.25a.16.16,0,0,0,.17.16l8.3.2h0s.06,0,.06,0,0,0,.06,0,.11,0,.12,0,0,.06.09.06l.75,0s0,0,.06,0,0,0,0,0,.13,0,.15,0,0,0,.08,0l.75-.08s.12,0,.13,0,.06-.05.11-.06.1.05.16,0l.91-.18s.09,0,.08-.07,0,0,0,0,.14,0,.19,0a3.69,3.69,0,0,0,.64-.21s0,0,0,0,0-.08.07-.06a.5.5,0,0,0,.36-.09l.27-.14c.06,0,.11-.06.09-.14s0,0,0-.06.17,0,.24-.11.25-.23.37-.36.13-.13.1-.23,0-.05.06-.05a.13.13,0,0,0,.13,0c.13-.19.28-.37.41-.56a.33.33,0,0,0,.05-.16c0-.06,0-.13.09-.11s0,0,.05,0c.11-.19.21-.38.31-.57a.39.39,0,0,0,.06-.26c0-.06,0-.13.08-.11s0,0,0,0a4.87,4.87,0,0,0,.29-.89s0,0,0-.05,0-.07,0-.11,0-.09.07-.08,0,0,0-.05c0-.21.08-.43.12-.65l.06-.44s0-.11,0-.15-.06-.12,0-.19a0,0,0,0,0,0,0l0-.26c0-.11,0-.22,0-.33,0-.29,0-.58,0-.88,0,0,0,0,0,0s0-.17,0-.17.05-.13.06-.19,0-.27,0-.41,0-.26,0-.39,0,0,0,0-.07,0-.06,0,0-.12,0-.14,0-.05,0-.08,0-.07,0-.11c0-.25-.06-.49-.09-.74,0,0,0-.06-.05-.05s0,0,0-.06,0-.12,0-.18c-.05-.28-.12-.55-.19-.82,0,0,0-.06-.05,0s0,0-.06-.07.05-.12,0-.19c-.09-.24-.17-.48-.26-.71,0,0,0-.08-.09-.07s0,0,0,0,0-.13,0-.2-.22-.45-.34-.67a.09.09,0,0,0-.09,0s-.07,0-.06-.06a.24.24,0,0,0-.05-.2l-.38-.54s-.08-.09-.15-.08-.06,0-.05,0,0-.14-.08-.2L15,3.09A.21.21,0,0,0,14.84,3c-.06,0-.07,0-.07-.07a.08.08,0,0,0,0-.1c-.11-.08-.22-.18-.34-.26s-.26-.25-.47-.22c0,0,0,0,0-.05a.09.09,0,0,0-.06-.1,7.3,7.3,0,0,0-.68-.36l-.06,0c-.08,0-.2.09-.19-.08,0,0,0,0-.05,0A8.51,8.51,0,0,0,12,1.42s0,0-.08,0-.1,0-.16,0,0-.05,0-.07,0,0,0,0a10.83,10.83,0,0,0-1.11-.21s0,0,0,0a.11.11,0,0,1-.18,0,0,0,0,0,0,0,0c-.14,0-.28,0-.41,0a5.46,5.46,0,0,0-.57,0A.86.86,0,0,0,9,1s0,.06,0,.06-.13,0-.15,0S8.71,1,8.68,1L1.22.83s0,0,0,0-.07,0-.07.07,0,.21,0,.32c0,.5,0,1,0,1.5s0,1.08,0,1.62c0,.25,0,.5,0,.74s0,.52,0,.78,0,.33,0,.49a1.9,1.9,0,0,0,0,.34v.42a1.93,1.93,0,0,0,0,.34v.43a2.17,2.17,0,0,0,0,.36v.39a1.45,1.45,0,0,0,0,.36v.4a2.29,2.29,0,0,0,0,.37v.4a1.7,1.7,0,0,0,0,.39v.36a1.79,1.79,0,0,0,0,.4v.36a1.88,1.88,0,0,0,0,.41v.45a1.13,1.13,0,0,0,0,.32v.44a1.82,1.82,0,0,0,0,.33v.44a2,2,0,0,0,0,.34v.42a2,2,0,0,0,0,.35ZM9.68.4v0H9.56L1.36.18C1.3.18,1.2.12,1.18.25h0s0,0,0,0a1.61,1.61,0,0,1,0,.38c0,.08,0,.1.11.1L8.67,1h.07s0,0,0,0,0,0,.06,0A.3.3,0,0,0,9.08.81L9.27.68Zm7.38,3.49c0-.05,0-.08,0-.12a5.45,5.45,0,0,0-.41-.57.18.18,0,0,0-.22,0l-.62.43a.13.13,0,0,0,0,.2c.14.19.29.39.42.59s.13.11.23,0L17,4S17.08,4,17.06,3.89Zm-.71.72a.13.13,0,0,0,0,.12c.12.2.22.41.32.62s.1.12.2.05l.6-.42a.23.23,0,0,0,.07-.26c-.1-.2-.2-.41-.32-.61A.14.14,0,0,0,17,4.06l-.6.41A.12.12,0,0,0,16.35,4.61Zm.83,1.86s.05,0,.07,0L17.87,6a.26.26,0,0,0,.1-.24c-.08-.24-.16-.48-.26-.71S17.62,5,17.52,5l-.59.41a.23.23,0,0,0-.08.29c.09.23.17.47.25.7C17.11,6.46,17.13,6.48,17.18,6.47Zm1.21,4.83s0,0,0-.05a.11.11,0,0,0-.08,0c-.2.15-.41.29-.61.42s-.1.07-.09.15,0,0,0,0,0,0-.06.07l-.06.44a6,6,0,0,1-.13.72s0,.05,0,.06,0,0,.06,0l.64-.43s.07-.07.06-.12,0-.07,0-.06.08-.06.09-.1l.09-.54C18.34,11.69,18.36,11.49,18.39,11.3Zm-.94-3.72s.05,0,.08,0l.6-.41c.05,0,.08-.06.07-.12s0-.06,0-.06,0,0,0,0a7.91,7.91,0,0,0-.19-.81C18,6,18,6,17.91,6.06l-.6.41a.26.26,0,0,0-.11.29c.06.25.12.51.17.76C17.38,7.57,17.4,7.59,17.45,7.58Zm-1.8-4s.08,0,.13,0l.57-.39c.12-.08.13-.15,0-.26l-.44-.46a.24.24,0,0,0-.29,0L15,2.84c-.07.05-.08.1,0,.16s.35.36.53.54C15.57,3.57,15.6,3.6,15.65,3.59Zm2.76,4.46V8c0-.26-.07-.52-.11-.77s-.05-.14-.15-.07l-.59.4s-.1.07-.08.14,0,0,0,0,0,0,0,0c.06.28.08.57.12.85,0,.11,0,.11.14.05l.57-.4c.06,0,.13-.08.11-.17a0,0,0,0,1,0,0S18.41,8.08,18.41,8.05ZM14.93,1.74s-.1,0-.15,0l-.65.44c-.07,0-.07.08,0,.13s.4.28.59.43a.26.26,0,0,0,.3,0c.2-.14.4-.28.61-.41a.11.11,0,0,0,0-.18c-.18-.13-.35-.28-.54-.4A.2.2,0,0,0,14.93,1.74ZM17.6,9.56a2.53,2.53,0,0,0,0,.28s0,.08,0,.1.07,0,.1,0l.59-.4c.06,0,.12-.08.1-.16v0c.07,0,.05-.06.05-.09,0-.27,0-.55,0-.82,0,0,0-.08,0-.1s-.08,0-.11,0l-.55.38c-.07.05-.17.08-.15.2a0,0,0,0,1,0,0s0,0,0,0ZM14,2.17c.07,0,.12,0,.17,0l.62-.42c.08-.06.08-.1,0-.15a4.94,4.94,0,0,0-.68-.36.3.3,0,0,0-.26,0l-.69.47c-.05,0,0,.07,0,.1a5,5,0,0,1,.61.31C13.82,2.13,13.89,2.2,14,2.17ZM11.55.51s-.06,0-.06,0-.1,0-.15,0-.05,0-.08,0L10.59,1s0,0,0,0l0,0a6.48,6.48,0,0,1,1,.17.64.64,0,0,0,.15,0c0-.09.12,0,.18,0l.05,0,.66-.45s0,0,0-.05a.06.06,0,0,0-.06,0L12.25.63Zm1.33.27c-.06.09-.17,0-.24.06L12,1.29s-.05,0,0,0,0,0,.05,0a8.81,8.81,0,0,1,.87.28.36.36,0,0,0,.27,0l.65-.45c.08-.05.07-.07,0-.11l-.06,0A6.88,6.88,0,0,0,12.88.78ZM9,1V1a7.87,7.87,0,0,1,.84,0,2.09,2.09,0,0,1,.43,0s.1,0,.12,0a.06.06,0,0,1,.07,0,.29.29,0,0,0,.25-.07,1.88,1.88,0,0,1,.23-.16L11.29.5a.84.84,0,0,0-.31,0c-.32,0-.65,0-1-.06,0,0-.14-.06-.15.06s0,0,0,0a.39.39,0,0,0-.29.11Zm8,13.38h0c.23-.15.46-.3.68-.46l0,0c0-.07,0-.14.1-.12s0,0,0-.07a7.6,7.6,0,0,0,.3-.92s-.06,0-.09,0l-.64.43a.11.11,0,0,0-.06.12s0,.06,0,.06-.07,0-.08.08-.05.16-.07.25S17.05,14.11,17,14.33Zm-5,3.69-.68.08c-.1,0-.25-.05-.32.1h0c-.14,0-.23.06-.33.12L10,18.7h0l.83-.1s.13,0,.12-.08,0,0,.06,0,.1,0,.15,0Zm5.78-4.13-.68.47a.09.09,0,0,0-.06.1s0,.07,0,.06-.07,0-.09.06a1.11,1.11,0,0,0-.07.16c-.09.19-.2.38-.32.59l.7-.48a.09.09,0,0,0,0-.08c0-.06,0-.09.07-.08s.05,0,.07,0A3.94,3.94,0,0,0,17.72,13.89Zm-6.49,4.66h.08l.91-.17s0,0,0,0,0-.06.06-.05a.28.28,0,0,0,.22-.07l.24-.17.38-.26-.31.07-.65.11s-.08,0-.08.05,0,.06-.07.06a.23.23,0,0,0-.21.06l-.12.08Zm5.93-3.62s0,0,0,0l-.61.41s0,0,0,.07,0,.11-.09.09,0,0-.06,0a5.67,5.67,0,0,1-.42.58s.05,0,.07,0l.51-.35c.05,0,.08-.07.07-.13s0-.07.06-.06a.15.15,0,0,0,.16-.08.65.65,0,0,1,.13-.16C17,15.18,17.09,15.06,17.16,14.93ZM.26.76,1,.78s.05,0,0-.06a2.43,2.43,0,0,0,0-.27c0-.07.05-.16,0-.2S.93.3.87.34Zm15.16,15.9v0l.32-.22s.08,0,.05-.08a.11.11,0,0,0-.12,0Zm0,0s0,0,0,0,0,0,0,0S15.4,16.71,15.41,16.68Zm1.76-1.76,0,0s0,0,0,0l0,0S17.16,14.91,17.17,14.92Z"/><path d="M.17,16.76a2,2,0,0,1,0,.35s0,.07,0,.11A2.36,2.36,0,0,1,.17,16.76Z"/><path d="M.17,17.52a1.9,1.9,0,0,1,0,.34s0,.08,0,.11A2.26,2.26,0,0,1,.17,17.52Z"/><path d="M.17,16a1.22,1.22,0,0,1,0,.33.34.34,0,0,1,0,.1A2.06,2.06,0,0,1,.17,16Z"/><path d="M.17,14.52a2.94,2.94,0,0,1,0,.42A2,2,0,0,1,.17,14.52Z"/><path d="M.17,15.29a1.07,1.07,0,0,1,0,.31.33.33,0,0,1,0,.1A1.87,1.87,0,0,1,.17,15.29Z"/><path d="M.17,13.79a2.54,2.54,0,0,1,0,.39A1.7,1.7,0,0,1,.17,13.79Z"/><path d="M.17,13a2.41,2.41,0,0,1,0,.38A1.61,1.61,0,0,1,.17,13Z"/><path d="M.16,11.57a1.22,1.22,0,0,1,0,.33A1.82,1.82,0,0,1,.16,11.57Z"/><path d="M.16,12.32a1.29,1.29,0,0,1,0,.34A1.93,1.93,0,0,1,.16,12.32Z"/><path d="M9.69,18.17,1.2,18s.05,0,.08,0l8.34.2S9.67,18.13,9.69,18.17Z"/><path d="M18.45,10.47c0-.32,0-.65,0-1,0,0,0,0,0,0,0,.29,0,.58,0,.87C18.47,10.43,18.47,10.46,18.45,10.47Z"/><path d="M1.12,17a2.9,2.9,0,0,1,0,.51,2.29,2.29,0,0,1,0-.37Z"/><path d="M1.12,16.24a1.84,1.84,0,0,1,0,.47,2.17,2.17,0,0,1,0-.36Z"/><path d="M1.12,15.47a1.85,1.85,0,0,1,0,.47,2.08,2.08,0,0,1,0-.35Z"/><path d="M1.12,14a1.7,1.7,0,0,1,0,.45,2,2,0,0,1,0-.34Z"/><path d="M1.12,14.71a1.77,1.77,0,0,1,0,.46,2,2,0,0,1,0-.35Z"/><path d="M1.12,13.19a1.55,1.55,0,0,1,0,.43,1.82,1.82,0,0,1,0-.33Z"/><path d="M1.12,12.43a1.48,1.48,0,0,1,0,.42,1.13,1.13,0,0,1,0-.32Z"/><path d="M1.12,11.67a1.41,1.41,0,0,1,0,.41A1.88,1.88,0,0,1,1.12,11.67Z"/><path d="M1.12,10.91a1.79,1.79,0,0,1,0,.4A1.79,1.79,0,0,1,1.12,10.91Z"/><path d="M1.12,10.16a1.7,1.7,0,0,1,0,.39A1.7,1.7,0,0,1,1.12,10.16Z"/><path d="M1.12,9.39a1.53,1.53,0,0,1,0,.37A2.29,2.29,0,0,1,1.12,9.39Z"/><path d="M1.12,7.88a2.17,2.17,0,0,1,0,.36A2.17,2.17,0,0,1,1.12,7.88Z"/><path d="M.2,1.48a2.17,2.17,0,0,1,0,.36A1.45,1.45,0,0,1,.2,1.48Z"/><path d="M9.35,1H9A.86.86,0,0,1,9.35,1Z"/><path d="M1.12,8.63a1.45,1.45,0,0,1,0,.36A1.45,1.45,0,0,1,1.12,8.63Z"/><path d="M1.12,7.11a1.29,1.29,0,0,1,0,.34A1.93,1.93,0,0,1,1.12,7.11Z"/><path d="M1.12,6.35a1.3,1.3,0,0,1,0,.34A1.9,1.9,0,0,1,1.12,6.35Z"/><path d="M.2,2.23a2,2,0,0,1,0,.34A1.28,1.28,0,0,1,.2,2.23Z"/><path d="M6,7.66V7.28a1.45,1.45,0,0,0,0-.36v-.4a1.38,1.38,0,0,0,0-.35v-.4a1.36,1.36,0,0,0,0-.35,2.43,2.43,0,0,0,0-.27S6.05,5,6,5s0-.09,0-.15,0,0,.06,0,.24-.09.35-.15.3-.22.45-.32.07-.06.06-.1,0-.07,0,0,.13-.05.14.06,0,0,.06,0l1.13,0s.06,0,.07,0,.08,0,.12,0,.07,0,.06,0,0,0,.06,0a4.62,4.62,0,0,1,.65,0,1.21,1.21,0,0,1,.38.06s.07,0,.1,0,.1,0,.15,0,0,0,0,.06,0,0,.05,0a7.52,7.52,0,0,1,.8.27c.06,0,.13,0,.19,0s0,0,0,0,0,.08.06.1a2.67,2.67,0,0,1,.57.43.13.13,0,0,0,.08,0c.07,0,.11,0,.09.08s0,.12.08.17a3.33,3.33,0,0,1,.33.58s0,.06.05.06.08,0,.09,0a.25.25,0,0,1,0,.15s0,0,0,.06a6,6,0,0,1,.25,1s0,0,0,0,.07,0,.06,0,0,.11,0,.14,0,0,0,0c0,.19,0,.37,0,.55s0,.58,0,.87c0,0,0,0,0,0s0,.09.06.14,0,.05,0,0-.05.05-.06.09a1.15,1.15,0,0,0,0,.32v0s0,0,0,0,0,.32,0,.48,0,.11,0,.14,0,.07,0,.11,0,.07-.06.06,0,0,0,0c0,.18,0,.36-.07.54a.23.23,0,0,1,0,.12c0,.09.05.16,0,.25s0,.09-.06.08,0,0-.05.06a4.19,4.19,0,0,1-.14.47,1.09,1.09,0,0,0,0,.18s0,.06,0,0-.07,0-.09.06a1.56,1.56,0,0,1-.16.28A.35.35,0,0,0,12,13s0,.06,0,.05-.12.05-.15.1l-.12.12c-.06,0-.1.09-.09.17s0,0-.06,0-.12,0-.11.1,0,.05-.06.05a.21.21,0,0,0-.2.05.07.07,0,0,0,0,0c0,.07,0,.08-.08.07s-.1,0-.15.07l-.16.11s-.07,0-.06.07,0,.08-.08.07-.11,0-.09.08,0,0-.06,0a.29.29,0,0,0-.2.05s0,0,0,.05,0,.09-.09.07-.25,0-.37.08a.45.45,0,0,0-.11,0,.07.07,0,0,0-.06,0c0,.09-.09.09-.2,0s-.06,0-.09,0a4.1,4.1,0,0,1-.49.06c-.05,0-.1,0-.1.07s-.17,0-.18,0-.07,0-.11,0H8.21a1.63,1.63,0,0,0-.31,0H7.62s0,0-.06,0-.12.08-.19,0a.06.06,0,0,0,0,0l-1.13,0a.06.06,0,0,0-.07,0c0,.06-.09,0-.14,0s0,0,0-.06,0-.11,0-.14,0,0,0-.06,0-.25,0-.37S6,14,6,14a1.82,1.82,0,0,0,0-.33v-.29s0-.09,0-.13a1.82,1.82,0,0,0,0-.33v-.3s0-.07,0-.11a1.9,1.9,0,0,0,0-.34v-.31s0-.07,0-.11a1.69,1.69,0,0,0,0-.32v-.33A.33.33,0,0,0,6,11a1.14,1.14,0,0,0,0-.32v-.34a.27.27,0,0,0,0-.09A1.22,1.22,0,0,0,6,9.9V9.56a1.7,1.7,0,0,0,0-.39V8.8a1.7,1.7,0,0,0,0-.39V8A1.63,1.63,0,0,0,6,7.66Zm4.65,6.25-.2,0c.08,0,.16.06.22,0l0,0S10.66,13.89,10.65,13.91Zm1.43-1.36-.63.44s-.07,0-.07.07,0,.13-.1.11l0,0-.17.31c.21-.13.41-.28.62-.42a.11.11,0,0,0,.07-.13c0-.05,0-.06.06-.05s.08,0,.1,0a2.91,2.91,0,0,0,.17-.3s0,0,0,0ZM9.32,14.09H9.27c-.24,0-.48,0-.72,0,0,0-.07,0-.07,0s0,.05-.08.05a.26.26,0,0,0-.19.05l-.46.31a.56.56,0,0,0-.2.16,1.67,1.67,0,0,1,.38,0,4,4,0,0,0,.49,0s0,0,0,0,.06-.05.1-.06.08,0,.12,0l.67-.47,0,0Zm3.26-3.68a1.62,1.62,0,0,0,0-.31c0-.19,0-.39,0-.58s0-.08-.08,0l0,0-.61.41a.14.14,0,0,0-.07.13c0,.05,0,.06-.05.06a.63.63,0,0,0,0,.36c0,.23-.05.45,0,.67,0,0,0,0,0,.06a.08.08,0,0,0,.07,0l.11-.08c.18-.13.37-.25.55-.39s.06-.15.12-.22S12.57,10.44,12.58,10.41Zm-5.66-4V6a1,1,0,0,0,0-.34,2.16,2.16,0,0,0,0-.36,1.79,1.79,0,0,0,0-.23c0-.06,0-.07-.08-.07L6.18,5s0,0-.06,0,0,0,0,0-.06.08-.06.12,0,.07,0,.11c0,.25,0,.49,0,.74s0,.51,0,.76,0,.5,0,.74,0,.51,0,.76,0,.5,0,.75,0,.5,0,.76,0,.49,0,.74,0,.5,0,.75,0,.5,0,.75,0,.5,0,.75,0,.5,0,.75,0,.66,0,1c0,0,0,.05,0,.07s0,0,.07,0c.21-.14.41-.29.62-.42.05,0,.09-.07.08-.14s0-.05,0,0,0,0,0-.06,0-.22,0-.32,0-.45,0-.67,0-.58,0-.87,0-.47,0-.71,0-.55,0-.83,0-.45,0-.67,0-.54,0-.8,0-.44,0-.66,0-.19,0-.29V7.61a1.37,1.37,0,0,0,0-.35V6.84A1.7,1.7,0,0,0,6.92,6.45ZM7,13.1a.34.34,0,0,0,0,.1,1.61,1.61,0,0,0,0,.31v.32c0,.07,0,.11.07.17s0,0,.06,0l1.13,0s0,0,.06,0,0,0,0,0,.12,0,.15,0,0,0,.06,0c.25,0,.5,0,.75,0,0,0,.08,0,.1,0s.17-.07.18,0,0,0,.07,0a3.91,3.91,0,0,0,.48,0c.05,0,.12,0,.14,0s0-.09.08-.07.09,0,.12,0,0,0,0,0l.21-.06a.17.17,0,0,0,.14-.19c0-.06,0-.1.09-.08l0,0c.08-.15.22-.27.2-.45s0-.11.08-.1,0,0,0,0,.1-.32.16-.48a.09.09,0,0,0,0-.05c-.05-.09,0-.14,0-.2l0,0c0-.23.08-.45.09-.68,0,0,.07-.12,0-.13v0c0-.05-.06-.14.07-.15v0a2.83,2.83,0,0,1,0-.41c0-.18,0-.36,0-.53s0-.12-.06-.12,0,0,0,0-.06-.15.06-.16,0,0,0,0a1.77,1.77,0,0,1,0-.46c0-.32,0-.64-.08-1,0,0,0-.06,0-.06s-.05,0-.05-.07,0-.1,0-.11,0,0,0-.06a5.07,5.07,0,0,0-.25-1s0,0-.05,0-.06,0-.06-.07a.45.45,0,0,0,0-.2,3.9,3.9,0,0,0-.28-.49c-.05-.08-.1-.19-.23-.16s0,0,0,0a.18.18,0,0,0-.1-.2s-.08-.09-.13-.12-.3-.27-.52-.23c0,0,0,0,0,0s-.07-.12-.14-.15A3.1,3.1,0,0,0,9,5.2s0,0-.05,0-.1,0-.15,0,0,0,0-.07,0,0,0,0l-.28,0A5.27,5.27,0,0,0,7.65,5s-.05,0-.07,0-.1,0-.15,0,0,0,0,0a.54.54,0,0,0-.28,0S7,5,7,5a3,3,0,0,0,0,.52C7,5.78,7,6,7,6.28s0,.54,0,.82,0,.51,0,.77C7,8.4,7,8.93,7,9.46c0,.26,0,.51,0,.76s0,.51,0,.77a5.82,5.82,0,0,1,0,.59,1.61,1.61,0,0,0,0,.31v.45a2.17,2.17,0,0,0,0,.36Zm4.77-3.4a.48.48,0,0,0,0,.12s0,.07,0,.09a.1.1,0,0,0,.09,0l.59-.4c.06-.05.14-.08.11-.18s0,0,0,0,0,0,0-.08c0-.21,0-.42,0-.62s0-.48-.06-.72,0-.12-.12-.06l-.59.4c-.06.05-.14.08-.12.18s0,0,0,0a0,0,0,0,0,0,0c0,.13,0,.26,0,.39C11.72,9.11,11.73,9.4,11.74,9.7Zm.74-2.17s0,0,0,0a6.29,6.29,0,0,0-.24-1q0-.12-.15-.06L11.41,7a.07.07,0,0,0,0,0,.83.83,0,0,0,0,.27,6.13,6.13,0,0,1,.21.87c0,.09.05.1.13,0a4.7,4.7,0,0,1,.59-.4C12.45,7.72,12.42,7.6,12.48,7.53Zm-.36-1.18s0-.08,0-.1a2.48,2.48,0,0,0-.37-.63.18.18,0,0,0-.22,0L10.86,6a.1.1,0,0,0,0,.15,2.81,2.81,0,0,1,.39.64c0,.11.1.12.2,0L12,6.46C12.09,6.43,12.13,6.39,12.12,6.35ZM10.86,5a.17.17,0,0,0-.15,0l-.62.44c-.07,0-.07.07,0,.12a2.65,2.65,0,0,1,.54.41.19.19,0,0,0,.23,0l.63-.43c.09-.06.1-.13,0-.19A4.47,4.47,0,0,0,11.1,5,.33.33,0,0,0,10.86,5Zm-1,.46c.06,0,.14,0,.2,0l.68-.47s0-.08,0-.1a2,2,0,0,0-1-.24.27.27,0,0,0-.12,0L9,5.07s0,0,0,0a.05.05,0,0,0,0,0,4.92,4.92,0,0,1,.65.21ZM7.59,4.94,8,5a5.51,5.51,0,0,1,.57.06c.06,0,.13.06.17,0a.23.23,0,0,1,.14,0A.16.16,0,0,0,9,5l.64-.44s0,0,0,0,0,0-.06,0c-.25,0-.5-.08-.76-.09H8.61s-.12-.06-.12,0,0,0-.05,0a.3.3,0,0,0-.27.09L8,4.66Zm.71,9.15-1.22,0H7c0,.1-.08.06-.13.06a.23.23,0,0,0-.11,0l-.33.23-.34.24h0l1.19,0h0c0-.1.07-.05.12-.05a.29.29,0,0,0,.13,0Zm4.25-3.24s0-.09,0-.11-.07,0-.1,0c-.19.13-.38.28-.59.4s-.05.19-.16.22v0c0,.24-.07.48-.09.72,0,0-.05,0,0,.07a.08.08,0,0,0,.08,0l.64-.44s.07-.06.06-.11,0-.06,0-.06,0,0,0-.07,0-.06,0-.08A5.81,5.81,0,0,0,12.55,10.85ZM8.3,4.39v0l-1.08,0c-.06,0-.16-.06-.18.06H7c-.07,0,0,0,0,.07a2.84,2.84,0,0,1,0,.41C7,4.94,7,5,7,5h.32s.05,0,.05,0,0-.06.09-.06a.18.18,0,0,0,.16,0,1,1,0,0,1,.17-.12Zm3,8.6.69-.47s.07-.06.06-.11,0-.08.06-.06.06,0,.07-.06a3.53,3.53,0,0,0,.15-.46s0-.05,0-.06,0,0-.06,0l-.64.44a.1.1,0,0,0-.06.12s0,.06,0,.05-.07,0-.07.08a1.52,1.52,0,0,1-.06.2ZM8.67,14.63v0l.56-.07s.1,0,.1,0,.05-.07.1-.06a.28.28,0,0,0,.15,0l.31-.22.3-.21-.59.05h0c0,.09-.07.05-.11.06s-.06,0-.09,0ZM6.11,4.92l.75,0s.06,0,.06-.06a3,3,0,0,0,0-.42c0-.08,0-.06-.07,0ZM9.59,14.5l.33-.09s.06,0,.06-.08,0-.06,0-.05h.08a.16.16,0,0,0,.17-.14s0,0,0,0h.09s0,0,0,0a0,0,0,0,0,0,0c-.06,0-.13,0-.19,0C10,14.2,9.8,14.35,9.59,14.5Zm1.61-1-.13.08a.05.05,0,0,0,0,.07s0,0,.06,0S11.22,13.58,11.2,13.5Zm.23-.16a.26.26,0,0,0,.25-.18Zm-.07,0s-.09,0-.11.1S11.4,13.51,11.36,13.38Zm.35-.22h0v0h0Z"/><path d="M6,13.65A1.82,1.82,0,0,1,6,14s0,.09,0,.14A2.46,2.46,0,0,1,6,13.65Z"/><path d="M6,12.15a1.9,1.9,0,0,1,0,.34s0,.07,0,.11A2.26,2.26,0,0,1,6,12.15Z"/><path d="M6,12.9a1.82,1.82,0,0,1,0,.33s0,.09,0,.13A2.36,2.36,0,0,1,6,12.9Z"/><path d="M6,11.41a1.69,1.69,0,0,1,0,.32s0,.07,0,.11A1.55,1.55,0,0,1,6,11.41Z"/><path d="M6,10.66A1.14,1.14,0,0,1,6,11a.33.33,0,0,1,0,.1A1.48,1.48,0,0,1,6,10.66Z"/><path d="M6,9.9a1.22,1.22,0,0,1,0,.33.27.27,0,0,1,0,.09A1.48,1.48,0,0,1,6,9.9Z"/><path d="M6,7.66A1.63,1.63,0,0,1,6,8,1.6,1.6,0,0,1,6,7.66Z"/><path d="M6,8.41A1.7,1.7,0,0,1,6,8.8,1.7,1.7,0,0,1,6,8.41Z"/><path d="M6,9.17a1.7,1.7,0,0,1,0,.39A1.7,1.7,0,0,1,6,9.17Z"/><path d="M6,6.92a1.45,1.45,0,0,1,0,.36A1.45,1.45,0,0,1,6,6.92Z"/><path d="M6,6.17a1.38,1.38,0,0,1,0,.35A1.36,1.36,0,0,1,6,6.17Z"/><path d="M6,5.42a1.36,1.36,0,0,1,0,.35A1.38,1.38,0,0,1,6,5.42Z"/><path d="M12.66,9.86a1.15,1.15,0,0,1,0-.32A1.15,1.15,0,0,1,12.66,9.86Z"/><path d="M7.9,14.72a1.63,1.63,0,0,1,.31,0A.8.8,0,0,1,7.9,14.72Z"/><path d="M12.64,10s0,0,0,0A.06.06,0,0,1,12.64,10Z"/><path d="M7,14l1.25,0s0,0-.06,0L7.1,14S7.05,14,7,14Z"/><path d="M6.92,5.28a1.61,1.61,0,0,1,0-.22S6.9,5,6.86,5L6.12,5s0,0,.06,0l.68,0c.06,0,.08,0,.08.07A1.79,1.79,0,0,1,6.92,5.28Z"/><path d="M6.93,6.08a2.14,2.14,0,0,1,0-.44,1,1,0,0,1,0,.34Z"/><path d="M7,13.1a1.87,1.87,0,0,1,0,.41,1.61,1.61,0,0,1,0-.31A.34.34,0,0,1,7,13.1Z"/><path d="M7.4,5H7s.1,0,.14,0A.54.54,0,0,1,7.4,5Z"/><path d="M6.93,6.84a1.7,1.7,0,0,1,0-.39A1.7,1.7,0,0,1,6.93,6.84Z"/><path d="M7,12.34a1.09,1.09,0,0,1,0,.36A2.17,2.17,0,0,1,7,12.34Z"/><path d="M11.75,10.1v.36A.63.63,0,0,1,11.75,10.1Z"/><path d="M6.93,7.61a1.37,1.37,0,0,1,0-.35A1.37,1.37,0,0,1,6.93,7.61Z"/><path d="M7,11.58a.65.65,0,0,1,0,.31A1.61,1.61,0,0,1,7,11.58Z"/><path d="M12.58,10.41a.81.81,0,0,1,0-.31A1.62,1.62,0,0,1,12.58,10.41Z"/><path d="M6.93,8.36a.93.93,0,0,1,0-.29C7,8.17,6.92,8.27,6.93,8.36Z"/><circle cx="1.1" cy="0.15" r="0.15"/><circle cx="0.15" cy="0.8" r="0.15"/><circle cx="6.97" cy="4.31" r="0.15"/><circle cx="6.02" cy="4.94" r="0.15"/><circle cx="8.85" cy="0.99" r="0.15"/><circle cx="9.77" cy="0.35" r="0.15"/><circle cx="11.38" cy="0.47" r="0.15"/><circle cx="10.41" cy="1.12" r="0.15"/><circle cx="11.83" cy="1.38" r="0.15"/><circle cx="13" cy="1.76" r="0.15"/><circle cx="14.02" cy="2.29" r="0.15"/><circle cx="14.88" cy="2.91" r="0.15"/><circle cx="15.61" cy="3.7" r="0.15"/><circle cx="16.28" cy="4.57" r="0.15"/><circle cx="12.77" cy="0.72" r="0.15"/><circle cx="13.9" cy="1.09" r="0.15"/><circle cx="14.91" cy="1.64" r="0.15"/><circle cx="15.82" cy="2.29" r="0.15"/><circle cx="16.55" cy="3.04" r="0.15"/><circle cx="17.16" cy="3.95" r="0.15"/><circle cx="16.74" cy="5.52" r="0.15"/><circle cx="17.62" cy="4.9" r="0.15"/><circle cx="17.14" cy="6.56" r="0.15"/><circle cx="18.02" cy="5.94" r="0.15"/><circle cx="17.38" cy="7.68" r="0.15"/><circle cx="18.27" cy="7.06" r="0.15"/><circle cx="17.54" cy="8.82" r="0.15"/><circle cx="18.42" cy="8.2" r="0.15"/><circle cx="17.63" cy="10.03" r="0.15"/><circle cx="18.51" cy="9.41" r="0.15"/><circle cx="17.51" cy="11.77" r="0.15"/><circle cx="18.39" cy="11.15" r="0.15"/><circle cx="17.27" cy="13.27" r="0.15"/><circle cx="18.15" cy="12.65" r="0.15"/><circle cx="16.9" cy="14.45" r="0.15"/><circle cx="17.78" cy="13.83" r="0.15"/><circle cx="16.39" cy="15.43" r="0.15"/><circle cx="17.27" cy="14.81" r="0.15"/><circle cx="15.76" cy="16.28" r="0.15"/><circle cx="16.64" cy="15.66" r="0.15"/><circle cx="14.97" cy="17.02" r="0.15"/><circle cx="15.85" cy="16.4" r="0.15"/><circle cx="14.48" cy="17.41" r="0.15"/><circle cx="15.36" cy="16.79" r="0.15"/><circle cx="13.26" cy="18.06" r="0.15"/><circle cx="14.15" cy="17.44" r="0.15"/><circle cx="12.32" cy="18.38" r="0.15"/><circle cx="13.2" cy="17.76" r="0.15"/><circle cx="11.18" cy="18.58" r="0.15"/><circle cx="12.06" cy="17.96" r="0.15"/><circle cx="9.99" cy="18.72" r="0.15"/><circle cx="10.87" cy="18.1" r="0.15"/><circle cx="8.89" cy="18.76" r="0.15"/><circle cx="9.77" cy="18.14" r="0.15"/><circle cx="7.49" cy="4.96" r="0.15"/><circle cx="8.41" cy="4.34" r="0.15"/><circle cx="8.87" cy="5.14" r="0.15"/><circle cx="9.76" cy="4.49" r="0.15"/><circle cx="10.74" cy="6.09" r="0.15"/><circle cx="11.66" cy="5.49" r="0.15"/><circle cx="10.84" cy="4.88" r="0.15"/><circle cx="9.94" cy="5.52" r="0.15"/><circle cx="11.25" cy="6.99" r="0.15"/><circle cx="12.23" cy="6.38" r="0.15"/><circle cx="11.61" cy="8.28" r="0.15"/><circle cx="12.53" cy="7.67" r="0.15"/><circle cx="11.72" cy="10" r="0.15"/><circle cx="12.65" cy="9.33" r="0.15"/><circle cx="11.66" cy="11.29" r="0.15"/><circle cx="12.55" cy="10.63" r="0.15"/><circle cx="12.43" cy="11.69" r="0.15"/><circle cx="11.53" cy="12.29" r="0.15"/><circle cx="12.2" cy="12.44" r="0.15"/><circle cx="11.84" cy="13.02" r="0.15"/><circle cx="11.27" cy="13.05" r="0.15"/><circle cx="10.87" cy="13.66" r="0.15"/><circle cx="11.25" cy="13.64" r="0.15"/><circle cx="10.5" cy="14.08" r="0.15"/><circle cx="10.31" cy="14.24" r="0.15"/><circle cx="10.02" cy="14.39" r="0.15"/><circle cx="9.44" cy="14.58" r="0.15"/><circle cx="10.36" cy="13.89" r="0.15"/><circle cx="9.46" cy="14.03" r="0.15"/><circle cx="8.53" cy="14.67" r="0.15"/><circle cx="7.44" cy="14.68" r="0.15"/><circle cx="8.38" cy="14.07" r="0.15"/><circle cx="6.94" cy="14.02" r="0.15"/><circle cx="6.03" cy="14.66" r="0.15"/><circle cx="1.08" cy="17.92" r="0.15"/><circle cx="0.2" cy="18.57" r="0.15"/><circle cx="11.49" cy="13.43" r="0.15"/></g></g></svg>