<svg id="b05d7058-56b4-4ac0-9df0-1d3279a5f1cd" data-name="Layer 1" xmlns="http://www.w3.org/2000/svg" viewBox="0 0 205.16 265.66"><path d="M182.09,55c-10.2-7.28-27.23-5.06-28-5A13.23,13.23,0,0,0,151,51.3c-2.05,1.59-2.33.61-6.78,3.84a54.59,54.59,0,0,0-9.55,9.47c-1.17,1.61,2,8.31.86,10-.22.32,0,.94-.31,1.26-1.78,1.9-2,4.19-2.21,6.39a23.93,23.93,0,0,0-.35,7.15c.57,5.39-.92,12.21-.52,12.83,6,4.62,2.91,10.69,6,13.18,2.85.14,9.77.36,9.77.36s32.05,1.81,34.7,1.29c6.74-1.32,6.92-7.67,11.15-13.35.53-.9.79-12.11,1-12.55,2.39-6.28,3.86-18.2.12-26.17C192.21,59.5,185.32,57,182.09,55Z" transform="translate(-49.14 -18.93)" fill="#aa653e"/><path d="M124,81.89v.55c-.83-1.07-1.65-2.16-2.51-3.2a2.54,2.54,0,0,1,0-3.46,23.7,23.7,0,0,0,1,2.85A19.86,19.86,0,0,0,124.08,81Z" transform="translate(-49.14 -18.93)" fill="#91848d"/><path d="M121.64,73.14l-.08,1.47Z" transform="translate(-49.14 -18.93)" fill="#91848d"/><path d="M184.87,75.39l-.47-.09Zm-.55,3.8a2,2,0,0,1-.68-.44A5.28,5.28,0,0,0,184.32,79.19Zm-3.23-19.75c-10.66-6.33-27.41-4.7-28.16-4.65-1.69.13-8.18,3.05-11.86,6.73s-3.21,5.8-2.07,10.6c.39,1.61-2.42,3.18-4.05,6.94-1.4,3.21-1.63,8.63-1.82,10.24.06.48-2.06,14.43-1.63,14.84,4,3.79,3.75,8.73,4.85,11,.81.28,10.27.5,10.27.5s41.85,2.21,42.11.95c.37-1.82,5-11.43,4-17.76.41-.05.37-8.57.37-9.3s.38-7.79.11-9.83c-.45-3.41,0-7.35-1.57-10.52C189.48,64.8,184.77,61.62,181.09,59.44Z" transform="translate(-49.14 -18.93)" fill="#daa076"/><path d="M136.31,68.32l0,.85a4,4,0,0,1-.85-.06,4.06,4.06,0,0,1-1.73-1,4,4,0,0,1,1.29-.38A4.63,4.63,0,0,1,136.31,68.32Z" transform="translate(-49.14 -18.93)" fill="#3b2c31"/><path d="M136.28,69.18l.91.83Z" transform="translate(-49.14 -18.93)" fill="#3b2c31"/><path d="M141.18,73.14c.2.26,1.49,1,1.37,1.29s-.2,1.1-2.59,1.1c-1.32,1.19-3.49,4.54-3.55,7.39s-.48,4.41-.6,6.07a5.05,5.05,0,0,1-2.54,4,1.88,1.88,0,0,0-.41,0c0-.71.38-1.07,1.25-2.68s.77-9.21,2-11.84S139.67,73.54,141.18,73.14Z" transform="translate(-49.14 -18.93)" fill="#d59367"/><path d="M178.72,60.78c-4.07-2.06-18-3.31-23.84-2.41-5.34.81-9.77,6.77-9.72,8.69a49.89,49.89,0,0,0-2.87,5.7c.63.56,1.41.78,1.12,2s-2,1.14-2.21,1.44c-.88,1.63-2.3,4.19-2.4,4.52.41-.17,7.61-1.25,8.33-3s.35-7.85,5.93-10.61c2.87-1.41,11.69-2.65,19.87-1.24,6.36,1.09,17.62,18.18,17.86,18.25,2.68.75.39-15.12-4.43-19.05C184.18,63.32,179.86,61.36,178.72,60.78Z" transform="translate(-49.14 -18.93)" fill="#dfa880"/><path d="M142.66,67.39" transform="translate(-49.14 -18.93)" fill="#daa076"/><path d="M187.3,71.82a7.61,7.61,0,0,1,.5,4.91,19.44,19.44,0,0,1,3.47,6c.34,1.21.83,2.87,1.07,2.22a17.06,17.06,0,0,0-.13-5.7C191.52,76.6,191,73,190,70.72S186.8,70.58,187.3,71.82Z" transform="translate(-49.14 -18.93)" fill="#d59367"/><path d="M141.18,73.14c.2.26,1,.11,1.38.87s-.21,1.52-2.6,1.52" transform="translate(-49.14 -18.93)" fill="#d59367"/><path d="M161.8,85.51a9.39,9.39,0,0,0-1.2-2.26c-1.25-1.62-3.76-1.67-4.49-2.13a29,29,0,0,0-6.9-1.6c-1.4-.14-1.28-.5-6.09,0-1.78.17.27-2,1.58-4.49,2.2-4.28,2.68-9.33,10.31-12.59s22.25.1,27.4,3.62c5.74,3.93,4.52,11.08,4.52,11.08s4.45,4.3,4.53,6.65a5,5,0,0,1-.68,1.44c-.57.85-5-2.77-14.38-1.52a11,11,0,0,0-5.14,1.83L166.47,91l-3.56-.08Z" transform="translate(-49.14 -18.93)" fill="#e3ab8c"/><path d="M130.37,97.75" transform="translate(-49.14 -18.93)" fill="#daa076"/><path d="M125.2,90.8c.53,1.58,1.38,8.37,1.38,8.37l2,3.69s1.51,1.78,2.37,1.78,1.21-2.34,1.21-2.34a24.66,24.66,0,0,0,2-7.32,23.37,23.37,0,0,0-.9-3.69c0-.59,1.22-1.52,1.08-1.84a.74.74,0,0,0-.27-.36c-1.64-1.12-6.06-8.63-7.18-8.83s-2.32,1.3-2.63,2.77C123.7,85.76,124.86,89.78,125.2,90.8Z" transform="translate(-49.14 -18.93)" fill="#daa076"/><path d="M127,83.74l-.81,1.11s1.39-.09,1.82.57a3.81,3.81,0,0,1,.4,1.9c0,.52-.2.92,0,1,1,.58.61,3,1,3S127,93.48,127,93.48l-.35-2.59-.82-2-.43-3.41-.08-1,.67-2Z" transform="translate(-49.14 -18.93)" fill="#995539"/><path d="M132.54,92.79a6.78,6.78,0,0,1,.37,2.41c-.15,2.63-1,4.85-1.44,4.81-.72-.06-1.06-1.27-2.23-5.09a34.44,34.44,0,0,1-.4-4.15,6.09,6.09,0,0,0-.37-1.67c-.28-.64.5.39.63,1s.27,1.47.91,1.11,1.51-.7,1.79-.26A5,5,0,0,1,132.54,92.79Z" transform="translate(-49.14 -18.93)" fill="#a3583e"/><path d="M128.09,89.32s-1.5,3.54-.83,4.54a8.11,8.11,0,0,0,1.54,1.71l1.25,1.49a.87.87,0,0,0,.32-1c-.26-.62-1.4-1.44-1.18-2.18s.78-1.38,0-1.94S128.09,89.32,128.09,89.32Z" transform="translate(-49.14 -18.93)" fill="#834632"/><path d="M131.46,97.8a5.92,5.92,0,0,1,0,1.68.56.56,0,0,1-.44.25c-.15-.13-.54-1-.89-.47s-.64,1.18-.72,1.12a23,23,0,0,1,.27-2.6c-.15-.14-.57-1.63-1-2.31-.21-.33,1.81,2.2,2.46,1.43Z" transform="translate(-49.14 -18.93)" fill="#d59367"/><path d="M126.75,96.48s.15,5,2.65,6.75,2.71-3.74,1.54-4.33-1.4,3.45-2.5.51S126.75,96.48,126.75,96.48Z" transform="translate(-49.14 -18.93)" fill="#dfb6a3"/><path d="M127.13,81.13a4.39,4.39,0,0,0-2.41,4.74c.38,3.57,1.54,5.37,1.8,7.63.29,2.49.54,6.23,1,7.2,0,0-1.58-.88-1.72-7-2-6.56-1.8-9.33-1.8-9.33s.52-3.45,1.15-3.84S127.13,81.13,127.13,81.13Z" transform="translate(-49.14 -18.93)" fill="#d59367"/><path d="M132.27,94.36a35.59,35.59,0,0,1,.21,4,16.36,16.36,0,0,1-1.16,3.91c-.19,0,.31-5.67,0-6.46s-1.14-1.24-1.22-1.74c-.05-.35.45-.79.39-1.15l1.42.91Z" transform="translate(-49.14 -18.93)" fill="#d6a083"/><path d="M129.69,97.78l.86.48Z" transform="translate(-49.14 -18.93)" fill="#daa076"/><path d="M132.58,87.26s.64.54.66.77a25.43,25.43,0,0,0-.37,3c0,1.42.79,3.28.78,3.95a16.51,16.51,0,0,1-1.06,3.65c-.44.2.16-1.84.26-3.53A10.49,10.49,0,0,0,131.79,91C131.61,90.46,132.58,87.26,132.58,87.26Z" transform="translate(-49.14 -18.93)" fill="#aa653e"/><path d="M133.66,92.58a7.86,7.86,0,0,1,.25,2.53c0,.81-.6,1.64-.69,2.29a12.78,12.78,0,0,1-.94,2.56,8.64,8.64,0,0,0,.17-1.42c0-.79,1.16-2.85,1.1-4.12,0-.13-.4-1.55-.4-1.55s-.18-1.08.25-1.31S133.65,92.56,133.66,92.58Z" transform="translate(-49.14 -18.93)" fill="#d59367"/><path d="M125.75,82.7s-1.35,2.52.36,7.37c.79,2.24.16,2.92.87,3.86a19.6,19.6,0,0,0,2.47,2.37c.22.12.25.18-.19-.42-.27-.36-1.07-.83-1.46-1.36a5.19,5.19,0,0,1-.83-1.65,7,7,0,0,0-.43-2.9,8,8,0,0,1-.92-3.44c.06-1-.33-1.41-.07-2.5A8,8,0,0,1,126,82.5Z" transform="translate(-49.14 -18.93)" fill="#aa653e"/><path d="M130.37,92.79a.65.65,0,0,1,0-.94c.21-.27,1.28-.48,1.28-.48s-.24.44-.16.66.5.43.55.8.42,1,.48,1.61-.05,2.52-.21,2.4-.54-2.22-.85-2.83A4.73,4.73,0,0,0,130.37,92.79Z" transform="translate(-49.14 -18.93)" fill="#d59367"/><path d="M131.66,96.61" transform="translate(-49.14 -18.93)" fill="#d59367"/><path d="M127,83.74" transform="translate(-49.14 -18.93)" fill="#dfa880"/><path d="M128.28,84l-1.71.12s-.21-.75-.47-.58-.3,1.39-.06,1.4a1.75,1.75,0,0,1,2.1,1.06c.5,1.41-.29,1.89.27,2.76s.39,2.21,1,2.68,2.21-.83,2.34-.51,1.4-1,.69-2.41A34.46,34.46,0,0,0,129,84.08Z" transform="translate(-49.14 -18.93)" fill="#aa653e"/><path d="M129.91,95.38" transform="translate(-49.14 -18.93)" fill="#d59367"/><path d="M130.87,96.51" transform="translate(-49.14 -18.93)" fill="#844c31"/><path d="M193.19,102.26c.48-2.23,1.49-5.75.41-6.63s-4.23.87-5.55,1.32c-.85.29-1.5,1.68-1.5,1.68s.45,13-4.9,10.65a7.26,7.26,0,0,0,.36,1.15,6.81,6.81,0,0,1-1.76-1c-.33-.58-.28-1.4-.57-2h0l-.93-.83-3.05-2.23a9.78,9.78,0,0,0,1.39,3.47c.13.16,2.18,2.51,2.19,2.63a7.87,7.87,0,0,0,3.22,1.07c.78,1.69,1.86,3.51,2.34,3.7a3.63,3.63,0,0,0,2.74-.57s1.84.59,2.88-3.22c3.19-2.49,1.73-12.24,6.54-9.29.61-2.9,2-6.35,2.08-7.5s-1.3.08-1.54.32C197,95.53,195.91,99.09,193.19,102.26Z" transform="translate(-49.14 -18.93)" fill="#daa076"/><path d="M190.2,112.35c-.14-.35,1.49-2.23,1.2-2.44a14.8,14.8,0,0,0-3.81,3.48c-1,1.46-5.38.74-8.86-4.93-2.33-3.8-7-5-7.45-4.5a5.05,5.05,0,0,1,1.44,1.56,4.82,4.82,0,0,1,0,3,3.14,3.14,0,0,1-3,2.41,7.61,7.61,0,0,1-2.88-.33l0,1.85.45-.16c.29-.09,3.4.39,3.58-.48s3-1.6,3-2.72,2.69,1.91,3.35,2.67a26.4,26.4,0,0,0,3.41,3.5c.29.21,1.36,1.7,1.12,2,.69.12,7.44-.12,7.53.11.08,0-.24-2-.16-1.91A18.8,18.8,0,0,0,190.2,112.35Z" transform="translate(-49.14 -18.93)" fill="#d59367"/><path d="M190.92,110.56c.61-1,.36-2,.92-3.11.29-.56.76-1.3.6-1.78-.64-2,1.63-3.13,2.53-4.53l2,1a5,5,0,0,1-.31,1.65,42.08,42.08,0,0,1-3.18,5A10,10,0,0,1,190.92,110.56Z" transform="translate(-49.14 -18.93)" fill="#e3ab8c"/><path d="M193.48,96.51c.06-1.06.13-2.11.19-3.17l.84,2.9c1.21-2.48,2.86-4.29,5.81-4.38l-1.51,2.6c-1.42.55-1.84,1.86-2.15,3.11s-.64,2.33-2,2.88c-.5.2-.78.94-1.46,1.81C193.3,100.09,193.39,98.3,193.48,96.51Z" transform="translate(-49.14 -18.93)" fill="#a3583e"/><path d="M179,105.77l.93.83Z" transform="translate(-49.14 -18.93)" fill="#dfa880"/><path d="M167.17,110.86s2.49-1.44,3.16-.86C171.21,110.78,169.06,112.12,167.17,110.86Z" transform="translate(-49.14 -18.93)" fill="#bb7d62"/><path d="M167.26,111.25c-.2-.92-1.17-4.75-2.91-3.75a22.23,22.23,0,0,1-4.21,1.22c1-1.69,2.16-4.41,1.82-5.32-.14-.36-2.25,1.45-2.68,1.51a6.45,6.45,0,0,1-2.21,0c.19-.12.25-.22,0-.39a8.14,8.14,0,0,1-2.26-.38,2.7,2.7,0,0,1-1.16-2.67c-1.2,2.82-1,5.8-2.55,5.85-.26,0-.15,0-.1.29.63,3.6-3,5.24-4,5.79s-.79,3.52-.14,3.52,2.24-2.74,2.24-2.74,2.17-2.67,4.86-2.3c1.19.14,4.18,2,6.4,2.57.3.07,1.68.21,2,.24C165.39,114.9,167.53,112.5,167.26,111.25Z" transform="translate(-49.14 -18.93)" fill="#d59367"/><path d="M154.88,108.54s.74.19,2.05.39a4.39,4.39,0,0,0,1.89,0c1.36,1.29,2.75,2.49,4.37,2.56a1.54,1.54,0,0,1,.07,1.17c-1.12,1.89-4.38.43-4.5-2.1,0,0-3.43.23-3.63-.93S154.88,108.54,154.88,108.54Z" transform="translate(-49.14 -18.93)" fill="#b7693c"/><path d="M159.79,111.36c1.72.51,2.43,1.44,3.22,1.08s3.09-1.51,3.3-1-1.66,2.27-3.44,2.15S160,112.87,159.79,111.36Z" transform="translate(-49.14 -18.93)" fill="#bb7d62"/><path d="M158.76,110.56" transform="translate(-49.14 -18.93)" fill="#bb7d62"/><path d="M162.27,110.59l-2.19-.07c0-.56,0-1.13,0-1.7,1.44.05,3-.22,4,1.26Z" transform="translate(-49.14 -18.93)" fill="#daa076"/><path d="M169.12,88.59a68.56,68.56,0,0,0-1,10.82c.07.51-.17,5.07,1.19,6.94,1.49,2.05,2.84.34,3.2.38.84.18.12,2.57-.78,3.38s-2.32,1.33-4.93.59c-.59,1.45-2.46,2.15-4.06,2.15a5.58,5.58,0,0,1-2.95-1.45,3,3,0,0,0-.86-1.73c-.75-.85-.85-.21-3.18-.32-2.08-.1-2.34-3.89-.62-4.67,1.46-.72,2.79-.18,4.42-1.24,1.33-.86,2-3.56,2.34-6.32,0-.36,1.08-.39,1.1-.77.06-1.26-.31-7-.31-7l6.16-1.24Z" transform="translate(-49.14 -18.93)" fill="#e3ab8c"/><path d="M168.79,102a5.71,5.71,0,0,1,.58,2.94c-.16,1.52,2,3.36,2.69,1.78a1.59,1.59,0,0,0-1-2.15L168.79,102" transform="translate(-49.14 -18.93)" fill="#daa076"/><path d="M172.11,105.73a1.19,1.19,0,0,1-1,1.32c-.55,0-1-.59-1-1.32s-.3-1.66.25-1.66S172.11,105,172.11,105.73Z" transform="translate(-49.14 -18.93)" fill="#dfa880"/><path d="M169.1,98.65a18.91,18.91,0,0,0,6,1.15,24.78,24.78,0,0,0,8.52-.56c13.86-4,2,16.49-3.35,9.66-.38-.49.1-.77-2.18-2.86-2.07-1.89-4.61-2.71-8.47-5.85A1.9,1.9,0,0,1,169.1,98.65Z" transform="translate(-49.14 -18.93)" fill="#dfa880"/><path d="M162.28,92.08c-1.55,4-4.05,4.9-6.8,5.48s-7.1,1.22-9.87.34c-6.46-2.06-10.2-4-9.33,1.66s4.84,13.72,7.36,12.52c2-.92,2.61-1.56,4.46-4.49.46-.72,2.61-2.24,4-4.77.58-1.08,2.3-2.54,2.13-2.06a2.58,2.58,0,0,0,.57,2.43c.38.58,2.54,1.59,5,2.21S164.29,96.64,162.28,92.08Z" transform="translate(-49.14 -18.93)" fill="#dfa880"/><path d="M148.89,99.4c-3.34.74-7.18-1.28-9.15-2.29-1.45-.74-2.83.83-1.61,4.2.9,2.48,3.9,15.26,8.37,6.51,1.44-2.8,4.45-3.62,4.59-5.47S151.91,98.74,148.89,99.4Z" transform="translate(-49.14 -18.93)" fill="#e3ab8c"/><path d="M187.79,102.9c0-2,.21-4.21-3.39-2.8-1.29.5-11.69.84-14.74-.58,1.26.52,3.77,2.38,6.54,4,2.6,1.53,5.49,2.8,6,4.48.46,1.51,2.47,2,4-.27A10.52,10.52,0,0,0,187.79,102.9Z" transform="translate(-49.14 -18.93)" fill="#e3ab8c"/><path d="M175.87,101.21c2.23.08,5.66.7,8.7,0s1.48,7-.33,6.63-2.12-3-5.1-3.81S174.32,101.16,175.87,101.21Z" transform="translate(-49.14 -18.93)" fill="#e1b199"/><path d="M178.61,101.92c2.64.29,4,.83,5.79.25,2-.66,1.08,6.5-.91,3.34a4.11,4.11,0,0,0-2.36-1.73c-1.26-.55-3.52-.69-3.79-1.24C176.83,101.51,178.61,101.92,178.61,101.92Z" transform="translate(-49.14 -18.93)" fill="#dfb6a3"/><path d="M140.13,98.72a6.25,6.25,0,0,0,4,1.61c1.12.12,5.21.41,5.48.85s-.57,2-2.37,3.57c-3.07,2.6-2.59,5.36-4.56,3.78S137.72,96.12,140.13,98.72Z" transform="translate(-49.14 -18.93)" fill="#e1b199"/><path d="M141.48,101.39c1.83-.19,4.44-.32,4.11.85s-1.5,3.33-2.74,3.27S141.48,101.39,141.48,101.39Z" transform="translate(-49.14 -18.93)" fill="#dfb6a3"/><path d="M183.37,117s-.79-2.11.37-1.78a8.41,8.41,0,0,0,2.44.58,3.84,3.84,0,0,0,2.15-.79c.65-.49.18,1.2.34,2C188.88,118.06,183.37,117,183.37,117Z" transform="translate(-49.14 -18.93)" fill="#bd835c"/><path d="M155.23,105.52a20.15,20.15,0,0,0,4.74.58,4,4,0,0,0,3.48-3.48c1.82-9,2.31-15.59,3.71-14.51.46,2.6,0,6.89.46,10.46.49,4.13-.52,6.31.51,8.07s2.53,1.54,4,1.08c-1.55,2.6-4.83.89-4.83.89a4.63,4.63,0,0,1-4.2,2.46c-3.18.1-4.06-3.36-4.06-3.36s-1.63,1.4-3.17.5A2.15,2.15,0,0,1,155.23,105.52Z" transform="translate(-49.14 -18.93)" fill="#e1b199"/><path d="M153.63,80.25c-4.18-.58-3.92-1.43-7.64-.45a26.86,26.86,0,0,0-5.8,2.15s7.44-2.87,12.52-1.31S158.26,82,158.26,82Z" transform="translate(-49.14 -18.93)" fill="#e3ab8c"/><path d="M156.12,99.73c5.1-1.91,5.16-2.76,5.16-2.76s.52,4.08-1.37,6c-.77.77-1.86.3-3.16.12C154.67,102.77,154.12,100.48,156.12,99.73Z" transform="translate(-49.14 -18.93)" fill="#e3ab8c"/><path d="M160.84,108.13s4.31,1,5.14-2.73,2.27,2.94.37,3.64c0,0-.95,1.67-4.06,1A1.81,1.81,0,0,1,160.84,108.13Z" transform="translate(-49.14 -18.93)" fill="#dfb6a3"/><path d="M78.86,241.37c-1.51-1.69-1.89-1.77-3.33-.12l-.7.8c-1.45-1.62-4.08-1.91-4.21-4.63l-.33-.11a9.83,9.83,0,0,0-2-2.64c-1.15-.86-1-4.06-1.13-5.46-.13-1.19.11-2.36,0-3.56-1.33,0-2.53.1-2.68,1.27-.41,3.13-2.13,2-2.48.67s.75-3.92,1.27-6c.35-1.42,2.13-2.14,4.4-2.14.17-3.23.23-6.54.4-9.77v-.48c0-.57,0-1.14,0-1.71,0-.16.66-5.54.61-6-2.92.68-6.51,1.78-9,3.73l-.22-.85a31.41,31.41,0,0,1-3,3.33c-2.27,1.94-4.18,4.09-4.93,7-.79,3.15-1.38,6.36-2.21,9.5a3.61,3.61,0,0,0,.61,3.43l0,.87c-.47,2.11-1.07,4.22,0,6.33h.72a8.77,8.77,0,0,0,1.56,1.72c.42.29,3.68,9.86,4.84,10.6s6.18,4,6.65,4.5c.41.78,6.89-.55,8.71-2.09,2-1.68,4.31-5.24,4.84-5.4,1.54.44,3.12,1.17,4.32-.65A19.53,19.53,0,0,1,78.86,241.37Z" transform="translate(-49.14 -18.93)" fill="#daa076"/><path d="M72.83,241.92c-.45-.2-1.11.06-1.67.12h0c-.33-.15-2.61.51-4.19,1.2a19.78,19.78,0,0,1-3.3-1,53.72,53.72,0,0,1-5.6-3,60,60,0,0,1-5.86-3.94c.22.27-2.69-1.73-2.63-1.34s3.11,3.42,3.41,4.31c.17.41,1.84,5.6,2.52,6.86a4.66,4.66,0,0,0,1.63,2.08c1.05.65,2.21,1.41,3.26,2.12,1.74,1.17,3.22,2.23,3.58,2.53.92.44,4.18-.25,6.68-1a6.39,6.39,0,0,0,3-2.29c1-1.17,2.48-2.4,3.1-4.06l.6-.22C75.87,243.46,74.38,242.61,72.83,241.92Z" transform="translate(-49.14 -18.93)" fill="#a25829"/><path d="M52.25,235.26c0-.09-2.47-.6-2.51-1.08s.06-2.37-.11-4.54c-.2-2.55-.63-5.33-.28-5.81s.31,2,.83,3.82a6.51,6.51,0,0,0,1.55,2.44c.61.83,2.73,2.31,3.18,1.88.15.13,15.42,8.37,15.42,8.37s1.18.63,1.23,1-.33,2.2-1.11,2.34c-1.57.27-5-.59-7.6-1.8-4.11-1.93-9.12-5.57-9.51-5.59A10.51,10.51,0,0,1,52.25,235.26Z" transform="translate(-49.14 -18.93)" fill="#bb8057"/><path d="M51.29,230.81a12.82,12.82,0,0,1-1.21-2.74,13.47,13.47,0,0,1-.67-4.32c.09-.21,2.53,5.64,2.62,5.41a8.63,8.63,0,0,0,.49-1.5c.1-.55-.18-4.31-.16-4.54.13-1.62,2.26-3,2.29-2.71.17,1.5.64,6.1,1.37,6.6a117.43,117.43,0,0,1,8.64,8.51c.68.78,4.88,3.63,6.2,5.12.31.35.65.45.7.64s0,.56-.19.61a13.38,13.38,0,0,1-3.61-1.22c-1.68-.94-5.76-3.76-7.41-4.76Z" transform="translate(-49.14 -18.93)" fill="#d59367"/><path d="M57.79,236.3c-.49.59-4-1.17-3.49,1.6a25.87,25.87,0,0,0,3,7.7,7.71,7.71,0,0,0,3.1,2.74c1.77.67,2.37,1.86,4,1.62a11.92,11.92,0,0,0,4.93-1.87c1.61-.94,3.58-1,4.93-1.84,1-.6,1.59-1.76,2.19-2.3.38-.36-4.42,2.25-7.09,1.85C66,245.31,57.88,236.2,57.79,236.3Z" transform="translate(-49.14 -18.93)" fill="#aa653e"/><path d="M53,224.32a4,4,0,0,1,1.55-4c.22-.09,0,4.66.57,5.35,1.31,1.52,4,4.56,6.62,7.38,3.34,3.58,9.47,7.82,9.51,8.13s-4.39-2-7.3-4.53c-1.79-1.54-3.49-3.89-5.21-5.32-1.15-1-2-2.42-2.76-2.94A5.8,5.8,0,0,1,53,224.32Z" transform="translate(-49.14 -18.93)" fill="#c88b63"/><path d="M52.25,235.24c0-.09-2.47-.6-2.51-1.08s.06-1.13-.11-3.3c-.2-2.56-.63-5.33-.28-5.81s.31,2,.83,3.81a6.42,6.42,0,0,0,1.55,2.44A82.66,82.66,0,0,0,59.37,236c2.85,1.66,5.92,3.4,8,4.56A19,19,0,0,0,71.26,242s-.22,1.4-1,1.58c-1,.22-4.85-.56-7.42-1.77-4.11-1.93-9.12-5.57-9.51-5.59A10.51,10.51,0,0,1,52.25,235.24Z" transform="translate(-49.14 -18.93)" fill="#c88b63"/><path d="M63.12,250.71l1.33-.08c2.27.33,3.88-1.27,5.8-2l3-1.06c0,.15,0,.36-.07.42-2.83,2-5.73,3.91-9.45,3.44C63.52,251.44,63.33,251,63.12,250.71Z" transform="translate(-49.14 -18.93)" fill="#2f2225"/><path d="M61.73,249.83l1,.77Z" transform="translate(-49.14 -18.93)" fill="#70301f"/><path d="M67.61,219.45c0,3.38,0,6.72,0,10.1l0,3,0,.46c0,.12-.08.24-.13.36-.06-.55-.27.46-.33-.09-.09-.86,0-3.27-.12-4.12-.13-1.19-.24-2.35-.38-3.55-1.32,0-2.1.28-2.31,1.44s-.59,2-1.39,1.84a1.71,1.71,0,0,1-1.24-1.87c0-1.54,1.15-4.43,1.41-5.46C63.58,220.19,65.19,219.38,67.61,219.45Z" transform="translate(-49.14 -18.93)" fill="#d59367"/><path d="M53.59,224.08a2.93,2.93,0,0,1,1.06-3.38c.22-.09.12,3.27.72,4,1.31,1.52,4.55,5.09,7.19,7.92,3.33,3.57,7.49,7.21,7.53,7.53s-2.45-1.34-5.36-3.87c-1.79-1.54-3.5-3.89-5.22-5.32-1.14-.95-2-2.42-2.75-2.94C54.92,226.71,54.15,226.21,53.59,224.08Z" transform="translate(-49.14 -18.93)" fill="#b57e56"/><path d="M60.14,210.48c-2.69-.81-4.39,10.16-2.79,13.9a31.29,31.29,0,0,0,4.31,7.83c2.15,2.51,5.12,4.95,5,5.06s2.81,2.08,4.68,3.6a18.43,18.43,0,0,0,4.83,2.5s-1.11-1.13-.69-1.77a22,22,0,0,1,1.41-1.79s-1.64,2.12-3.92,1.55c-.67-.16-6.1-4.55-6.1-4.55a5.44,5.44,0,0,1-1-2.72c0-1,.85-1.89.93-3.11.14-2.22-2.37-.31-4.1-.72s-3-2-2.31-6.75c.08-.58,2.35-2.24,2.79-3.64.28-.85-1.08-1.28-.92-2.18C62.71,215.3,62.83,211.29,60.14,210.48Z" transform="translate(-49.14 -18.93)" fill="#e3ab8c"/><path d="M70.62,237.42q6.73.47,13.48,1a6.66,6.66,0,0,1,1.44.28c-1.64,0-3.15.84-3.06,2.49a7.42,7.42,0,0,1-.78,2.45,19.53,19.53,0,0,1-2.84-2.23c-1.51-1.69-1.89-1.77-3.33-.12l-.7.8C73.38,240.43,70.75,240.14,70.62,237.42Z" transform="translate(-49.14 -18.93)" fill="#d59367"/><path d="M194.44,249.75c.69,1.38,4.24,3.36,3.68,3.91a1.18,1.18,0,0,1-.81.2c-.17,0-.34-.12-.55-.14-7.56,7.92-2.95,24.29,10.21,23.46.47,0,1.62-.59,1.53-.14a9.6,9.6,0,0,1-1.37,3.32,9.15,9.15,0,0,1-5.67,2.83c-9-.31-18-17-15.38-24.12-11.19-7-4.85-6-8.27-12.78-.26-.52.09-1.48-.31-2.09,2.84.7,5.59-3.51,7.71-4.29.61-.23,2.69,1.65,2.79,1.55.61-.56,1.82.58,4.4.14,2.82-.3,4.28,2.16,3.48,4.79,2,1.05,1.24,2.34-1.44,2.06" transform="translate(-49.14 -18.93)" fill="#a3583e"/><path d="M200.74,276.61" transform="translate(-49.14 -18.93)" fill="#d59367"/><path d="M209,268.62c-.21-2.43-.36-5-2.07-7.43-2.11-3-6.07-5.71-8.9-7.53-7,1.09-7.28,12-3.79,18.36,2.41,4.39,11.46,7.17,14.93,4.33C210.77,275.06,210.07,272.62,209,268.62Z" transform="translate(-49.14 -18.93)" fill="#bd724b"/><path d="M159.21,238.74c1.33,4.12,15.94,10.76,19.62,13.13l-1-7.31C184.48,235.92,162.21,240.29,159.21,238.74Z" transform="translate(-49.14 -18.93)" fill="#1f1116"/><path d="M226.16,241.42c-.13,0-1.39-1.9-2-1.59-1.27.68-3.16,2-4.47,2.37-5.85,1.52-9.71-1.42-15.29,1.1-5.24,2.92-9.68-5.21-16.14-2.78-1.24-.08-3.75-1-4.09-.86-.64.24-.28,1.14,1.31,1.71,2.06.74,5.7,1.09,6.89.23,5.39-.42-.08,8.79,6.93,7.14,6.43-1.5,14.74.42,20.73-2.51a32.25,32.25,0,0,1,5.23-1.25A4,4,0,0,0,226.16,241.42Z" transform="translate(-49.14 -18.93)" fill="#70301f"/><path d="M163.28,242.78c.84,6.24-11.5,3-11.5,3a6.23,6.23,0,0,1-1.48-.79c-1.47-2.07-.2-4.57,1.31-5.53C154.5,237.57,161.46,238.65,163.28,242.78Z" transform="translate(-49.14 -18.93)" fill="#d6a083"/><path d="M185.39,240.63c2.25,2.07,2,3.45,1.44,4.25-1.21,1.76-6.59.85-9.33-.68-.62-1.88,0-3.79,1.11-4.45C180.37,238.7,183.43,239.7,185.39,240.63Z" transform="translate(-49.14 -18.93)" fill="#e3ab8c"/><path d="M153.63,239.87c3-1.32,8.89,2.9,4,4.33C154.89,243.9,152.71,244.14,153.63,239.87Z" transform="translate(-49.14 -18.93)" fill="#e3ab8c"/><path d="M176.76,284.5c-1.1-1-1.8-2.63-2.79-3.57-6.6-6.29-6.67-18.53-12.54-30.84,8.41,12.92,23.4,28.8,38.42,33.38-1.13.38-2.24.69-3.44,1Z" transform="translate(-49.14 -18.93)" fill="#a3583e"/><path d="M193.63,284.44c-9.16-4.47-23.06-18.82-26.19-25.75-.59-3-11.35-8.42-13.44-11-.88-1.09,1.05-1.72,3.81-1.44,3.75,1.4,11.07,3.6,11.75,1.81.27-.72.46-1.68-1.88-3.55,4.12-.27,5.76,6.22,10.11.11,1,.17,1.69.54,2.36.71,7.9,2-2.21,4.36,5.93,13.76,1.22,5.4,4.53,14.15,6.37,16.8s5.63,5.55,9.06,5.59,3.34-.23,3.22,0c-.43.93-2.1,2.11-3.84,3Z" transform="translate(-49.14 -18.93)" fill="#834632"/><path d="M160.94,252.21c4.58,1.81,7.95,7.39,9.44,11.43C168.3,262.94,163.86,255.93,160.94,252.21Z" transform="translate(-49.14 -18.93)" fill="#a3583e"/><path d="M188.72,257.7l.53-.83Z" transform="translate(-49.14 -18.93)" fill="#70301f"/><path d="M187.84,258.56l.44-.41Z" transform="translate(-49.14 -18.93)" fill="#793319"/><path d="M199,254.55l-.89-.89Z" transform="translate(-49.14 -18.93)" fill="#aa653e"/><line x1="142.65" y1="230.7" x2="144.34" y2="231.37" fill="#aa653e"/><path d="M193.47,250.3" transform="translate(-49.14 -18.93)" fill="#aa653e"/><path d="M197.75,240c7.27-5.36,7.38,7.56.23,3.88C190.49,239.33,193.07,239.13,197.75,240Z" transform="translate(-49.14 -18.93)" fill="#1f1116"/><path d="M137.32,239.25c3.56,1.21,9.57,4.24,13.23,4.56.07-.79-.13-3.84,1.26-4.13C153.41,239.32,137.54,239.39,137.32,239.25Z" transform="translate(-49.14 -18.93)" fill="#2b1815"/><path d="M169.92,246.6c-3.09-2-6.72-4-6.72-4a37.79,37.79,0,0,0-3-2.67c.61,1.16,1.25,1.95,1.22,2.88-.05,1.75-1.43,3.37-2.94,3.31A32.45,32.45,0,0,1,141.58,241c-7.25-.2-4.05,3.71,1.57,6,4,1.6,9.58,2.2,11.69.7,2.37-1.81,14.3,3.47,15.26.67C170.28,247.82,170.62,247.77,169.92,246.6Z" transform="translate(-49.14 -18.93)" fill="#a3583e"/><path d="M148.16,247.6l2.3.65Z" transform="translate(-49.14 -18.93)" fill="#70301f"/><path d="M185.49,263.83c-.13-.28,0-.36.27-.31S185.64,263.75,185.49,263.83Z" transform="translate(-49.14 -18.93)" fill="#65505f"/><path d="M150.56,243.68c-.52.18-1.24-.29-1.68-.39-2-.42-3.32-2.7-5.48-1.7-1.09-.52-2-1-2.28-1.11-.83-.51-2.53-1.39-3.43-1.2.09-2.44-7.06.13-8.59-.34-3-.5-6.44-.46-6.67,0-.62,1.18,8.53,4.8,12.9,4a.18.18,0,0,0,.09.2c2.17.68,9.68,1.48,11.59,1,2.32,1.4,4.73,2.58,4.62,1.28C151.61,245.09,150.88,245.07,150.56,243.68Z" transform="translate(-49.14 -18.93)" fill="#70301f"/><path d="M154.33,247.94l.52-.28Z" transform="translate(-49.14 -18.93)" fill="#70301f"/><path d="M187.4,259l.42-.41Z" transform="translate(-49.14 -18.93)" fill="#793319"/><path d="M187.86,269.2l-.43.41Z" transform="translate(-49.14 -18.93)" fill="#793319"/><path d="M208.56,266.08l-.46-1.36C208.25,265.17,208.4,265.63,208.56,266.08Z" transform="translate(-49.14 -18.93)" fill="#bd724b"/><path d="M217.32,243.43c-2.85-.15-4.48-.64-8.47-.44-4.4.22-9,3.11-11,.25,2.39,1.22,6.05,1.24,5.11-3,.61.12,17.29.87,18,.88C226.67,241.3,220.17,243.58,217.32,243.43Z" transform="translate(-49.14 -18.93)" fill="#2a0f0d"/><path d="M177.29,242.28l.07,1.77Z" transform="translate(-49.14 -18.93)" fill="#2f2225"/><path d="M177.77,241l-.39,1Z" transform="translate(-49.14 -18.93)" fill="#70301f"/><path d="M161.6,240.88a.45.45,0,0,1-.17-.36Z" transform="translate(-49.14 -18.93)" fill="#2f2225"/><path d="M185.39,240.63A11.92,11.92,0,0,0,179,240C179.33,236.28,185.57,237.26,185.39,240.63Z" transform="translate(-49.14 -18.93)" fill="#c07560"/><path d="M166.23,243" transform="translate(-49.14 -18.93)" fill="#2b1815"/><path d="M177.81,244.42c-1.94,3.52-5.52,2-9.86-.6-2.95-1.73-5.77-3.23-6.74-4.13-1.05-.08-1.05,0-1,.24.09,1,4.83,4.24,6.77,5C169.16,245.8,177.63,252,177.81,244.42Z" transform="translate(-49.14 -18.93)" fill="#2b1815"/><path d="M209,268.62c-3.19,8.35-8.4,6.05-7.62-2.2C200.14,258.21,209.44,262.21,209,268.62Z" transform="translate(-49.14 -18.93)" fill="#d59367"/><path d="M152.19,249.65" transform="translate(-49.14 -18.93)" fill="#a3583e"/><path d="M160.06,241.91" transform="translate(-49.14 -18.93)" fill="#e3ab8c"/><path d="M155.11,92.7S153,89.89,145.35,91a9.55,9.55,0,0,0-2.29.64S146.45,94.89,155.11,92.7Z" transform="translate(-49.14 -18.93)" fill="#f4e4db"/><path d="M153.7,91.75a1.39,1.39,0,0,1,.08,1.08l2.1-.08A5.71,5.71,0,0,0,153.7,91.75Z" transform="translate(-49.14 -18.93)" fill="#d7cac9"/><path d="M152.37,91.56s.64.56-.14,1.48a4.13,4.13,0,0,0,1.55-.21C154.63,92.55,153.43,91.56,152.37,91.56Z" transform="translate(-49.14 -18.93)" fill="#fff1d1"/><path d="M160.18,85.41c-.38-.94-4.07-3-6.7-3.58a26.37,26.37,0,0,0-9.46-.17,13.19,13.19,0,0,0-5.64,2.16l-.2,2s8.21-4.22,14.9-.79c8.35,4.29,5,5.28,5,5.28s-9-3.72-13.62-2.85a57.81,57.81,0,0,0-7.28,1.79l2.11,3.3a9.53,9.53,0,0,0,3.5,2.88c2.14.84,8.74,3,11.49,2.41s5.69-2.31,6.59-3.65S161.76,89.37,160.18,85.41Zm-20.76,5.94a14.2,14.2,0,0,1,7.13-2.83,16.13,16.13,0,0,1,10.22,3.24C162.52,96.29,142.93,96.64,139.42,91.35Z" transform="translate(-49.14 -18.93)" fill="#d5966b"/><path d="M155.24,92.87c-.57.12-4.61.53-5.18.64-2,.38-6.28,0-7.24-2.2,1-.42.49-.54,1.12-.82l-1-.53-1.4-.52c-.41,0-1.56,0-2,0-.68,1.33.13,2.6,2.27,4.16A15,15,0,0,0,149.93,96a12.3,12.3,0,0,0,7-2.9A3.67,3.67,0,0,0,155.24,92.87Z" transform="translate(-49.14 -18.93)" fill="#c17b5d"/><path d="M138.35,83.87s14.39.46,18.48,2.7c3.28,1.79,2.93,7.94,2.84,7.9s-1.18-8.13-12.25-8.84a73.5,73.5,0,0,0-9.53.3Z" transform="translate(-49.14 -18.93)" fill="#d59367"/><path d="M137.15,89c1.24-.59,4.25-1.13,5.45-1.57,1-.36.4-1.39.4-1.39s-4.63.13-5.36.31Z" transform="translate(-49.14 -18.93)" fill="#dfa880"/><path d="M136.25,89.13c.31-3.39.18-5,.37-6.18a6.61,6.61,0,0,1,3.57-3.85c2.74-.62,3.78.14,6.08.27,0,0-6.17,1.47-7.22,2.4s-1.18,4.35-1.18,4.35S136.81,88.79,136.25,89.13Z" transform="translate(-49.14 -18.93)" fill="#daa076"/><path d="M155.56,92.38a6.34,6.34,0,0,1-1.78-.63,19.11,19.11,0,0,0-3.18-1.19,37.89,37.89,0,0,0-6.55-.21c-1,0-2,0-1-.53,3-1.61,8.3-.56,10-.19S155.48,92.06,155.56,92.38Z" transform="translate(-49.14 -18.93)" fill="#d59367"/><path d="M149.38,89c.05,0,1.25.24,2.44.59a23.63,23.63,0,0,1,2.28.83,22.61,22.61,0,0,1,2.48,1.32c.51.33,1.24,1.08,1,1.35a1.65,1.65,0,0,1-1.43.2c-.31-.1-.89,0-.94-.33a.6.6,0,0,0-.12-.38c-.46-.43-.71-1-1-1.28A13.84,13.84,0,0,0,151.45,90,7.2,7.2,0,0,1,149.38,89Z" transform="translate(-49.14 -18.93)" fill="#70301f"/><path d="M152,90.15a13.5,13.5,0,0,0-8.88.44c-.71.26-1.08.39-1.16.44s.08.15.35.12c.06,0,.21-.13.29-.14,1.67-.26,6.84-1.12,11,.66C159.68,94.3,153.52,90.61,152,90.15Z" transform="translate(-49.14 -18.93)" fill="#2f2225"/><path d="M140.89,94.82" transform="translate(-49.14 -18.93)" fill="#daa076"/><path d="M160.21,93.46" transform="translate(-49.14 -18.93)" fill="#c17b5d"/><path d="M160.33,92.51A11.37,11.37,0,0,0,158,85.37c-1.34-1.64-4.18-2.88-7.8-2.85-4.65,0-9.38,2.2-10.43,2.14a44.09,44.09,0,0,1,10.9.77c1.78.33,6.9,4.36,6.86,4.54-3.48-1.8-9.41-2.12-11.82-1.92a45.6,45.6,0,0,0-6.1,1.5c.46.17,1.6.07,2.06.24a22.82,22.82,0,0,1,8.49-.61,10.11,10.11,0,0,1,3.71.77c1.44.62,2.79,1.9,4.06,2.61a5.68,5.68,0,0,0,2.12.65Z" transform="translate(-49.14 -18.93)" fill="#bb7d62"/><path d="M157.06,92.92s-.94,1.63-6.09,2.2c-3.58.39-8.47-.59-8.47-.47a47.43,47.43,0,0,0,6.09,1.78c1,.16,5.39-.07,5.39-.07s5.87-1,6.23-2.9l-2.79-1.09Z" transform="translate(-49.14 -18.93)" fill="#d59367"/><path d="M153,83.42c.85.86,5.06,3.33,6,4.31-1.58.75-4.53-2-8.07-2.73a42.55,42.55,0,0,0-10.19-.25c0-.63,6.32-1,6.35-1.61C148.72,82.39,152.71,83.24,153,83.42Z" transform="translate(-49.14 -18.93)" fill="#793319"/><ellipse cx="100.11" cy="73.14" rx="1.86" ry="1.6" fill="#857e31" stroke="#030202" stroke-miterlimit="10" stroke-width="0.25"/><ellipse cx="100.14" cy="73.08" rx="1.2" ry="1.04" fill="#030202"/><ellipse cx="101.05" cy="72.64" rx="0.31" ry="0.32" fill="#fff" stroke="#fff" stroke-miterlimit="10" stroke-width="0.25"/><path d="M155.9,92.58A14.47,14.47,0,0,0,148.74,90a14.65,14.65,0,0,0-6.53,1.13l1,.4s1.43-.86,5.84-.76A17,17,0,0,1,155.9,92.58Z" transform="translate(-49.14 -18.93)" fill="#2a0f0d"/><path d="M139.41,84.9s10.19-4.16,15-1.79S159,87.53,159,87.53s0,.47-.56.3c-1-.31-2.62-1.67-5.12-2.86C149.36,83.11,139.41,84.9,139.41,84.9Z" transform="translate(-49.14 -18.93)" fill="#2a0f0d"/><path d="M157.44,92.38a15.54,15.54,0,0,0-15.62-2.24" transform="translate(-49.14 -18.93)" fill="none" stroke="#fff" stroke-miterlimit="10" stroke-width="0.5"/><path d="M142.93,91.48s1.13,3.4,6.74,2.74,6.24-1.09,6.24-1.09-.13-.34-.9-.19C152.36,93.43,145,94.38,142.93,91.48Z" transform="translate(-49.14 -18.93)" fill="#ab6f54"/><path d="M138.49,85.87" transform="translate(-49.14 -18.93)" fill="#daa076"/><path d="M175.48,104.25" transform="translate(-49.14 -18.93)" fill="#a3583e"/><path d="M137.15,93.39" transform="translate(-49.14 -18.93)" fill="#d59367"/><path d="M154.75,98.09" transform="translate(-49.14 -18.93)" fill="#bd724b"/><path d="M156.54,89.43" transform="translate(-49.14 -18.93)" fill="#bd724b"/><path d="M138.3,85.79" transform="translate(-49.14 -18.93)" fill="#d59367"/><path d="M171.09,94.12c-.37-1.31,1-6.9,4-7.82,4.06-1.24,11.85,1,11.85,1s4.9,2.14,3.89,2.17c-.31.11-7.8-1.66-11.13-1.75s-6.16,3.67-5.7,3.54c2.52-.7,8.67-.57,10.38.44.1.08,4.2,2.51,4,2.67-.05,0-.33.31-1.66,0-2-.52-5.24-1.11-6.84-2-2.57-1.41-6,1.42-5.76,2.38Z" transform="translate(-49.14 -18.93)" fill="#bb7d62"/><path d="M183,92.58s5.08,1.41,5.37,1.76a.8.8,0,0,1,.23.63l-.68-.13-6.41-1.46-.87-.76Z" transform="translate(-49.14 -18.93)" fill="#bd724b"/><path d="M171.15,94.18c.45,2.06.47,1.48,1.46,2.63a17,17,0,0,0,6.84,2.58c4.52.29,6.89-1.33,6.89-1.46-1.78.56-11.45-2.1-12.62-3.21-.95-.91-1.45-1.12-2.4-2,0,0-.13.82-.15.82C170.34,93.69,171.15,94.18,171.15,94.18Z" transform="translate(-49.14 -18.93)" fill="#d59367"/><path d="M174.26,94.87c-.22-.58,1.86-1.83,3.29-1.79a6.5,6.5,0,0,1,2-.38,32.34,32.34,0,0,0,4.29,0c-.49,0-4.4-1-4.9-1-1.62-.23-4.5.44-5.35,1.77Z" transform="translate(-49.14 -18.93)" fill="#70301f"/><path d="M183.32,93.15a10.65,10.65,0,0,1,3,1.15,14.83,14.83,0,0,0,2.31.64l-2.8.67c0-1.84-11.18-.34-11.73-.71a5,5,0,0,1,4-2.2A12.75,12.75,0,0,1,183.32,93.15Z" transform="translate(-49.14 -18.93)" fill="#2f2225"/><path d="M175.46,95.19a.46.46,0,0,1,0-.82,10.46,10.46,0,0,1,7.16-.33,8.86,8.86,0,0,1,3,1.17.45.45,0,0,1,0,.76,13.74,13.74,0,0,1-2.78.71,9.08,9.08,0,0,1-1.71.11c-.18,0-1.28-.21-2.27-.45s-1.63-.48-1.79-.52A13,13,0,0,1,175.46,95.19Z" transform="translate(-49.14 -18.93)" fill="#ffeee5"/><ellipse cx="131.4" cy="76.18" rx="1.86" ry="1.6" fill="#857e31" stroke="#030202" stroke-miterlimit="10" stroke-width="0.25"/><ellipse cx="131.41" cy="76.19" rx="1.2" ry="1.04" fill="#030202"/><path d="M174.08,94.86s1.43-2.86,6.85-1.71,5.64,1.51,7.31,1.72c0,0,.09.18-1,.18a37.93,37.93,0,0,1-4.93-1A12,12,0,0,0,174.08,94.86Z" transform="translate(-49.14 -18.93)" fill="#2a0f0d"/><path d="M173.65,93.54s2-2.87,7.71-1.41a43.82,43.82,0,0,1,7.14,2.21" transform="translate(-49.14 -18.93)" fill="none" stroke="#fff" stroke-miterlimit="10" stroke-width="0.5"/><path d="M178.57,93.67s-2.45.89-.66,2.36a7,7,0,0,1-1.2-.26,6,6,0,0,1-1-.47c-.62-.36.36-1.2.81-1.38,0,0,.36,0,1-.12Z" transform="translate(-49.14 -18.93)" fill="#fff1d1"/><path d="M176.9,96.05" transform="translate(-49.14 -18.93)" fill="#fff1d1"/><path d="M176.61,93.93a5.68,5.68,0,0,0-.88.76c-.17.24.49.88.49.88l-1.58-.69s.3-.48.59-.59C176.36,93.86,176.61,93.93,176.61,93.93Z" transform="translate(-49.14 -18.93)" fill="#d7cac9"/><ellipse cx="132.32" cy="75.75" rx="0.31" ry="0.32" fill="#fff" stroke="#fff" stroke-miterlimit="10" stroke-width="0.25"/><path d="M181.42,99.53a.62.62,0,0,0-.18,0C181.39,99.54,181.46,99.54,181.42,99.53Z" transform="translate(-49.14 -18.93)" fill="#d5966b"/><path d="M180.79,84.26c-3.73-.12-9.62,1.55-10.33,4.2s-1.83,7.75.11,9.32c1.38,1.11,3.86,1.58,5.51,1.74a27.18,27.18,0,0,0,7.22-.13c3.52-.68,5.89-1.84,5.22-2-.4-.07-2.21.71-5,1-3,.34-4.92.64-7.64-.22s-4.73-1.78-4.54-5.14c.16-3,1.56-4.67,4.65-6.11a14.3,14.3,0,0,1,4.77-.89,23.72,23.72,0,0,1,5.43,1.18,38.11,38.11,0,0,1,4.65,2c-2.33-.33-9.08-1.88-11.4-1.62-4.58.52-5.45,3.61-5.45,3.61a8.9,8.9,0,0,1,5.24-2.37c4.69-.62,12.26,1,12.26,1s-.29-1.72-3.49-3.39A36.59,36.59,0,0,0,180.79,84.26Z" transform="translate(-49.14 -18.93)" fill="#d5966b"/><path d="M176.71,95.38" transform="translate(-49.14 -18.93)" fill="#a3583e"/><path d="M182.14,99.85" transform="translate(-49.14 -18.93)" fill="#a3583e"/><path d="M177.47,93.8" transform="translate(-49.14 -18.93)" fill="#a3583e"/><path d="M179,100.63" transform="translate(-49.14 -18.93)" fill="#e3ab8c"/><path d="M185.88,95.57s-2.69,3.06-10.73-.25L174,94.7c-.12.21-.08,3.44,7.22,3.47,5.53,0,7.39-3.2,7.39-3.2Z" transform="translate(-49.14 -18.93)" fill="#bb7d62"/><path d="M183.87,98.07" transform="translate(-49.14 -18.93)" fill="#aa653e"/><path d="M175.69,96c0,.22,5.32,2.18,7.77,1.18.54-.23,2-1.06,2-1.06l-2.16.48a11.37,11.37,0,0,1-2.74.12,26.47,26.47,0,0,1-4.94-1.39l-1.46-.55Z" transform="translate(-49.14 -18.93)" fill="#ab6f54"/><path d="M188.53,94.39a21.25,21.25,0,0,0-4.67-2.71c-3.34-1.61-10-.44-10-.44s5.48-1.52,8.74-.85c5.91,1.23,7.3,3.44,8.33,4C190.62,94.7,188.53,94.39,188.53,94.39Z" transform="translate(-49.14 -18.93)" fill="#bd724b"/><path d="M189.28,96.18" transform="translate(-49.14 -18.93)" fill="#2f2225"/><path d="M188.59,95.1A10.58,10.58,0,0,1,185.14,97c-2.25.68-7.34.48-9.13-.45s-2.17-2.66-2.39-2.73a4,4,0,0,0,.41,1.58,4.77,4.77,0,0,0,2.71,2.41c2.32.9,7.12.7,8.81-.25C187.62,96.38,188.23,95.84,188.59,95.1Z" transform="translate(-49.14 -18.93)" fill="#c17b5d"/><path d="M172.81,89.24A10,10,0,0,1,183,85.5a17.18,17.18,0,0,1,7.84,3.72s-6.38-2.17-11.24-2.24S172.81,89.24,172.81,89.24Z" transform="translate(-49.14 -18.93)" fill="#2a0f0d"/><path d="M188.22,94.82" transform="translate(-49.14 -18.93)" fill="#bd724b"/><path d="M183.65,93.38" transform="translate(-49.14 -18.93)" fill="#bb7d62"/><path d="M173.63,105a43.61,43.61,0,0,1,2.67,4.67c1.14,2.39,1.71,1.05,2.76,3.62s2.38,2.2,2.38,2.2S176.2,106.66,173.63,105Z" transform="translate(-49.14 -18.93)" fill="#64200d"/><path d="M148.92,108.9a3.43,3.43,0,0,1-2.3,2.95c-2.48,1.11-1.48,3.77-1.48,3.77a4.22,4.22,0,0,1,.76-2.56,12.38,12.38,0,0,1,2.46-1.87A2.72,2.72,0,0,0,148.92,108.9Z" transform="translate(-49.14 -18.93)" fill="#64200d"/><path d="M173,108.11" transform="translate(-49.14 -18.93)" fill="none" stroke="#fff" stroke-miterlimit="10" stroke-width="0.5"/><path d="M173.49,104.74c1.19,0,3.73,3,5.28,5.19a15,15,0,0,1,1.21,2.31,18.7,18.7,0,0,0,1.2,2,2.56,2.56,0,0,1,.2.42,6.61,6.61,0,0,1,.21,1c-.06.2-.45-.5-.74-.69a5,5,0,0,1-.42-.33,18.75,18.75,0,0,1-1.88-2C176.31,109.9,173.23,105.43,173.49,104.74Z" transform="translate(-49.14 -18.93)" fill="#c07560"/><path d="M173.5,104.84c.68,1.59,3.32,4.15,4.83,7a11.16,11.16,0,0,0,2.12,2.61c.41.37.9.94,1,.83s-.22-.65-.38-.88a7.81,7.81,0,0,1-.85-1.28A30.33,30.33,0,0,0,177,108,14.56,14.56,0,0,0,173.5,104.84Z" transform="translate(-49.14 -18.93)" fill="#a3583e"/><path d="M168,89.43c.05-.77,0-2.8.68-3.81,1-1.52,3-2,4.19-2.25a12.51,12.51,0,0,1-1.27,1.2L170.68,88c-.3,1.09-.56,2.19-.93,3.26a6.29,6.29,0,0,1-.84,1.26,11.56,11.56,0,0,0-.07-2.13C168.77,90,168.3,89.75,168,89.43Z" transform="translate(-49.14 -18.93)" fill="#daa076"/><path d="M197.48,100.88a4.63,4.63,0,0,1,1-4.37Z" transform="translate(-49.14 -18.93)" fill="#e3ab8c"/><path d="M130.1,103.1l.47.42Z" transform="translate(-49.14 -18.93)" fill="#e3ab8c"/><path d="M124.41,114.32h0Z" transform="translate(-49.14 -18.93)" fill="#91848d"/><path d="M193.93,88.93c0-1.85-.05-3.7-.07-5.55l.16-.13.45,0v0l.38.46L194.29,89A1.1,1.1,0,0,1,193.93,88.93Z" transform="translate(-49.14 -18.93)" fill="#aa653e"/><path d="M193.93,88.93a1.1,1.1,0,0,0,.36,0c-.21,1.21-.41,2.41-.62,3.62Z" transform="translate(-49.14 -18.93)" fill="#a3583e"/><path d="M169.34,54.23" transform="translate(-49.14 -18.93)" fill="#70301f"/><path d="M150.82,19.17A.3.3,0,0,1,151,19Z" transform="translate(-49.14 -18.93)" fill="#877983"/><path d="M194.86,83.71l-.38-.46Z" transform="translate(-49.14 -18.93)" fill="#70301f"/><path d="M145.41,113.31c.67-.89,3.05-1.68,3.37-3.11a3,3,0,0,1,1.05-1.9c.38.48-.25,2.42-.6,2.87-1.1,1.43-2.63,1.47-3.21,2.55a4.91,4.91,0,0,0-.58,2.1S144.74,114.2,145.41,113.31Z" transform="translate(-49.14 -18.93)" fill="#aa653e"/><path d="M157.89,114.47a9.36,9.36,0,0,1-4-1c-1.85-1.24-2.3,0-3,1.08-.73,2.77,8.42,2,11.82,1.81a3.79,3.79,0,0,0,.85.2C164.88,116.73,160.17,114.58,157.89,114.47Z" transform="translate(-49.14 -18.93)" fill="#e3ab8c"/><path d="M159.08,93.63" transform="translate(-49.14 -18.93)" fill="#d59367"/><path d="M155.17,82l2.68.44" transform="translate(-49.14 -18.93)" fill="#d59367"/><path d="M165.92,88.05" transform="translate(-49.14 -18.93)" fill="#e3ab8c"/><path d="M174.41,112.5" transform="translate(-49.14 -18.93)" fill="#daa076"/><path d="M169.7,92.43" transform="translate(-49.14 -18.93)" fill="#daa076"/><path d="M192.68,95.26" transform="translate(-49.14 -18.93)" fill="#daa076"/><path d="M142.62,113.5" transform="translate(-49.14 -18.93)" fill="#d6a083"/><path d="M161.54,84" transform="translate(-49.14 -18.93)" fill="#e3ab8c"/><path d="M162.33,84.82" transform="translate(-49.14 -18.93)" fill="#e3ab8c"/><path d="M131.93,102a19.14,19.14,0,0,1,3,5c.26,1.16,1.71,4.18,2.07,6,.14.74.63,1.78.48,2.2a5.3,5.3,0,0,1-1.11-.08c-.58-1.21-2.25-6.41-3.69-9.14a9.2,9.2,0,0,0-1.87-2.52,6.24,6.24,0,0,0,.82-1.87Z" transform="translate(-49.14 -18.93)" fill="#d59367"/><path d="M188.71,116.06" transform="translate(-49.14 -18.93)" fill="#bd724b"/><path d="M193.13,116.14" transform="translate(-49.14 -18.93)" fill="#bd724b"/><path d="M168.29,64.49" transform="translate(-49.14 -18.93)" fill="#181213"/><path d="M151.34,79.89" transform="translate(-49.14 -18.93)" fill="#dfa880"/><path d="M156.74,81.82" transform="translate(-49.14 -18.93)" fill="#aa653e"/><path d="M147.43,112.6" transform="translate(-49.14 -18.93)" fill="#e3ab8c"/><path d="M146,111.44s-1.58.9-1.61,1.71a23.48,23.48,0,0,0,.15,2.55s-1-1.89-.77-2.77S146,111.44,146,111.44Z" transform="translate(-49.14 -18.93)" fill="#dfa880"/><path d="M194.51,96.24" transform="translate(-49.14 -18.93)" fill="#bd724b"/><path d="M182.87,113.89" transform="translate(-49.14 -18.93)" fill="#793319"/><path d="M180.72,116.35" transform="translate(-49.14 -18.93)" fill="#d59367"/><path d="M174.78,84c-1.56.43-3.24,1.1-3.67,2.34s-2.82,8.64-3.52,8.24a4.09,4.09,0,0,1-.12-1.61c0-2.37.86-6.47.78-6.5-.41-.17,3.06-4.22,2.82-4.81,1.42.56,12.08-1.24,12.58.57,2.2-.52,4,.64,6,1.45.66.48,1.41,1.09,1.41,1.09l-.16,1.79a48.21,48.21,0,0,0-8.58-2.95A18,18,0,0,0,174.78,84Z" transform="translate(-49.14 -18.93)" fill="#dfa880"/><path d="M180,68.17c4.55,5.82.15,6.6,4.7,9.87,1.55,1.18,3.47,5.14,1,4s-8.8-.59-10.49-.39c-2.42.28-6,3.38-8.23,2.86-1.63-.38-5-3.47-7.74-4.37-5.2-1.71-9.67-2.51-10.38-3.69-1.41-2.38.45-6.74,4.84-9.88C159.05,62.76,175.45,62.35,180,68.17Z" transform="translate(-49.14 -18.93)" fill="#e1b199"/><path d="M168.3,66.27s1.59-3.61,6.5-1.59,4,4.62,2.6,5.2,3.9,2,2.89,4.62-4.19,3.33-2.16,4.2-.29,2.89,1.87,2.89,6.78.71,8.08,1.78c.54.44,1.59.77,1.91,1.06a1.82,1.82,0,0,1,.42.59l-.11.36s-1.28-.51-4.43-1.7c-2.59-1-6.25-1-8.59-1.1a14.55,14.55,0,0,0-5.95.73c-4.59,1.25-6.65-.06-7.58-1.09-1.45-1.62-6.58-2.94.2-3,3.2,0-1.29-3.25-.42-6S168.3,66.27,168.3,66.27Z" transform="translate(-49.14 -18.93)" fill="#dfb6a3"/><path d="M172.3,104.83" transform="translate(-49.14 -18.93)" fill="#d59367"/><path d="M182.75,116.53" transform="translate(-49.14 -18.93)" fill="#d59367"/><path d="M181.09,113.73" transform="translate(-49.14 -18.93)" fill="#d59367"/><path d="M165.48,115.33s2-1,2.07-1.86,3,.79,3.77-.21a6.15,6.15,0,0,1,2.15-1.94c1.2-.75,1.16-1.33,1.16-1.33s4.06,5.1,5.05,5.63a4.11,4.11,0,0,1,1.53,1.83l-15-.46S164.49,116.41,165.48,115.33Z" transform="translate(-49.14 -18.93)" fill="#dfa880"/><path d="M248.13,237.3c0,.14.17,2.78.07,3.22,0,.29-.09.59-.13.89l-.33,1.71-.12.49-.34,1.22-.17.55-.26.81c-1.07,3.1-2,6.26-3.25,9.3-1.64,4.06-3.47,8-5.25,12a9.08,9.08,0,0,1-4.82,5.14,3.37,3.37,0,0,0-1.32,1.58,13.15,13.15,0,0,0-1.46,6.56c0,1.15-.15,2.32-.24,3.68H198.4a3.31,3.31,0,0,1,3-1.75,7.14,7.14,0,0,0,5.45-3.41c2.5-3.21,3-6.83,2.19-10.71-.16-.85-.32-1.7-.47-2.54-.16-.45-.31-.91-.46-1.36-.09-.27-.19-.54-.28-.8l-1.06-2.22c-.86-1-1.71-2.09-2.57-3.14l-5.24-4-.89-.89,0,0-3.6-3.87c0-.43,0-.86,0-1.3l.85-.11,1.31-.05c.94-.09,8.31-.64,10.93-1.62a6.23,6.23,0,0,1,1.9-.42c3.64-.17,7.28-.27,10.91-.46a22,22,0,0,0,2.75-.49,3,3,0,0,0,3.18-2.59c.05,0,.14-.08.14-.11a1.66,1.66,0,0,0-.12-.31c0-.29-.09-.58-.14-.87l14.11.42,2.2-.44h1.32c.47-.22.74-.37.89-.43l.45-.41.42,0c1.42.25,1.37-1,1.78-1.77a2.7,2.7,0,0,0,.07-.41c.11,0,.33-1.52.6-1.5Z" transform="translate(-49.14 -18.93)" fill="#070505"/><path d="M59.5,204.42c.06-2.77,0-5.54.21-8.3.14-2.48.49-5,.72-7.43a8.78,8.78,0,0,0,.14-2.83,12.08,12.08,0,0,1,.84-7.48c1.27-3.35,2.43-6.73,3.79-10a41.09,41.09,0,0,1,2.41-4.41c1.35.17.77,1.22.77,1.88,0,6.52.72,13.08.64,19.6-.06.73.21,2,.21,2.69,0,4.75-.69,8.85-.7,13.6-2.92.68-6.35,1.62-8.81,3.57Z" transform="translate(-49.14 -18.93)" fill="#181213"/><path d="M250.24,188.25c0-1,.65-.76.69-1.72.11,0,0-1.21.07-1.22s.33.45.53,1.16a143.34,143.34,0,0,1,.5,25.62c-.44,5.08-1.13,10.15-1.7,15.22l-.39,2.12-.14.55-.33,1.58,0,.14a11.72,11.72,0,0,1-.39,1.55c-.15.39-1.49,5.17-1.71,5.53.21-4.26,2.62-46.62,2.72-47.8C250.06,190.68,250.22,188.56,250.24,188.25Z" transform="translate(-49.14 -18.93)" fill="#2f2225"/><path d="M176.85,284.51c-39.2.16-78.4,0-117.6.06-3.91,0-4.14.12-5.8-3.21-6-10.47-4.31-22.76-3.28-34.24-.24-4.11-1.29-8.11-.11-12.2,3.71.92,3.92,6.16,5.61,9.12,1.12,4,5.54,4.87,8.09,7.43a11.4,11.4,0,0,0,9.52-3.86c2.09-.32,2.67-2.36,4.1-3.36,1.54.44,3.12,1.17,4.32-.65a7.42,7.42,0,0,0,.78-2.45c-.22-4.57,12.92-4.38,15.91-4.06,9.38.31,15,.69,24.39,1.46,4,2.29,8.88,4.62,13.55,4.11,1.67-.08,2.93,1.54,4.39,2.23,2.58,2.73,10.76,4.13,14.13,2.77,2.06.16,5.94,4.85,6.09,4.55a25.77,25.77,0,0,1,2.88,3.59c1.16,2,.69,2,2.07,2.19,6.61,2.05,13.42,1,20.19,1.08,1.86.22,5.61-3.4,7.36-5.3.28-1.33.73-2.67,1-4,.69-.35,1.25.36,2,.53,2.77,8.68-.31,8.32-4,14.8-3.35,1.27-2.55,2.6-5,4.53-3.36.36-6.92-.11-10.16.83-2.85.09-5.67.54-7.89-1.79C170,273.48,173.35,280,176.85,284.51Z" transform="translate(-49.14 -18.93)" fill="#070505"/><path d="M170.64,19.33c-3.47,1.22-7.79-1.09-11.6-.08-4.22.9-6.28-1.68-11.58.75l0,0c-2.05,2.39-2,1-4.72.47-.05,0-4.61,0-3.37,1.13s-2.62,2-4.6,5.7a.1.1,0,0,0,0,.12,8.79,8.79,0,0,1,1,.81c-2.67.73-5.76,3.81-3.78,6.07.81.93.76,2.62-1.68,2a.07.07,0,0,0-.08,0c-.91,3.29.13,7.46-2.18,10.13h0c-2.42,1.79-2.7,7.36-2.71,7.36-2.29,1.38-2.26,7.45-2.26,7.45h0c-.22,4.87-1.41,9.59-1.65,14.45v0a17.73,17.73,0,0,0,3.37,6.27l.08,0c1.4-.11.77,1.17,1.15,2.09a.09.09,0,0,0,.11,0c2.46-.5,2.4,1.51,3,3.39v0c-.42,1.82,2.18,1.23,3.35,1.65a.09.09,0,0,0,.12-.09c-1.21-16.16,11.7-16.21,1.18-21a.09.09,0,0,1,0-.16c1.3-.9,3.83,1.58,3.27-1.16-.61-2.13.14-3.59,2-4.73.89-.66,2.91-4,6.89-5.87,4.21-2,10.39-2.47,11.18-2.73h0c1.76-.09,13.23.87,16.09,2.06h0c1.42-.13,2.64.86,3.95,1.3,0,0,0,0,0,0,.36,0,2.56-.73,3.46,1.2l.07.06c2.27.34,4.58.56,5.62,3.15l0,0c6.3,3.06,7,7.62,7.78,14.57a.08.08,0,0,1-.07.1s-.46,5.09.3,7.21c1.11,4-2,8.72,0,12.82a.09.09,0,0,0,.17,0c1.19-2.37,2.81-4.09,5.66-4.21a.09.09,0,0,0,.07-.06c.3-1,2.23-1.26,1.4-2.81a.11.11,0,0,1,0-.12c1.82-1.29,3.6-2.71,4-5.05a.09.09,0,0,0-.07-.1c-.79-.17-1.24-.53-.92-1.47,1.65-3.47-3.35-7.46.56-10a.09.09,0,0,0,0-.11c-.7-2,1.24-3.72-.1-5.61v0c-.25-2.92.29-6,.33-9,.3-2.56-1.13-3,.77-5.44l0-.06c-.17-3.45-.27-5.58-1.81-8.13s0-.1-.05-.11c-.95-.33-2.2.36-2.48-1H200.2a.09.09,0,0,1-.08-.13c.92-1.79,2.48-3.47.26-4.36a.08.08,0,0,1,0-.13,6,6,0,0,0,0-5.17c-1.06-1.72-3.76-2.43-4.52-2.94h0c-1.54-.18-1.59-.29-.72-1.88V28c-.11-.53-1.14-.66-1-.7-1.77-1.84-4.41-.76-6.49-2.51-1.66-1.18-3.91-1.53-5.9-2.25l0,0a5,5,0,0,0-3-1.8.1.1,0,0,0-.1,0c-1.44,2.41-2.15,1-3.87.34a.1.1,0,0,0-.1,0c-1.49,1.58-2.35-1.13-3.87-1.78Z" transform="translate(-49.14 -18.93)" fill="#181213"/><path d="M144.82,139l-.21-.09.19.09Z" transform="translate(-49.14 -18.93)" fill="none" stroke="#fff" stroke-miterlimit="10" stroke-width="0.5"/><path d="M209.12,128.72l.75-.11h0Z" transform="translate(-49.14 -18.93)" fill="none" stroke="#fff" stroke-miterlimit="10" stroke-width="0.5"/><path d="M243.79,226.43c.29.88.59,1.76.88,2.64C245.53,227.8,245.16,227,243.79,226.43Z" transform="translate(-49.14 -18.93)" fill="none" stroke="#fff" stroke-miterlimit="10" stroke-width="0.5"/><path d="M192.25,123.77h0L192,124Z" transform="translate(-49.14 -18.93)" fill="none" stroke="#fff" stroke-miterlimit="10" stroke-width="0.5"/><path d="M252,120.3a11.78,11.78,0,0,0-4.33-.84C241.87,119.31,77.84,113,75.5,113l0,.67v.82a11.65,11.65,0,0,1,3.77-.44s112.53,9.48,135.43,31.19,30.87,95.31,30.87,95.31c1.42.25,1.4-1.06,1.81-1.83-.14-.15,3.8-54.94,3.91-56.33.15-4.11,1.08-19.58,1.29-23.21s1.48-29.63,1.72-34.5A4.29,4.29,0,0,0,252,120.3Zm-59.78,3.47L192,124l.26-.19Zm16.87,5,.75-.11h0Zm40,64.88" transform="translate(-49.14 -18.93)" fill="#595d5f"/><path d="M245.13,240.56l.42,0s-1.2-2.17-3.42-5.87C243.12,236.64,244.13,238.6,245.13,240.56Z" transform="translate(-49.14 -18.93)" fill="#2f2126"/><path d="M70.57,144.65c.13-1.82,0-3.67.08-5.49.17-2.45.59-4.89.73-7.35.11-1.92-.09-3.86-.07-5.79,0-2.94,0-5.9.28-8.82A8.64,8.64,0,0,1,73,114.14l.24-.43v-.46c-2.88.82-3.7,3.1-3.87,5.7-.19,2.92-.26,5.84-.31,8.77-.21,10.75-.36,21.5-.62,32.25a20.66,20.66,0,0,1-.87,4c1.35.17.77,1.22.77,1.88,0,6.52-.14,13-.22,19.56h.47c.3-11.18.62-23,.73-25.64C69.56,154.7,70.2,149.68,70.57,144.65Z" transform="translate(-49.14 -18.93)" fill="#1f171a"/><path d="M169,181.79c-2.71-2.85-2.71-4.29-.21-7.48a1.3,1.3,0,0,0-.17-2.06,5,5,0,0,0-4.18-1.33c-.74.22-1.48.49-2.24.66-1.1.25-2.28.71-3.05-.65H157a6.11,6.11,0,0,0-6.11,5.1,13.08,13.08,0,0,0,3.2,10.7,3.86,3.86,0,0,0,4.75,1.06,3.86,3.86,0,0,1,3.33-.11,4.56,4.56,0,0,0,5.41-.89l.43-.44,1.33-2.2C169.41,183.34,169.86,182.66,169,181.79Z" transform="translate(-49.14 -18.93)" fill="#070505"/><path d="M164,169.6c.86-1.13,2-2.19,1-3.85-2.1-.37-3,1.3-4.08,2.53l-.41,1.85C162,171,163,170.07,164,169.6Z" transform="translate(-49.14 -18.93)" fill="#070505"/><path d="M214.68,145.23C191.78,123.52,79.25,114,79.25,114a11.65,11.65,0,0,0-3.77.44c-1.31.45-2.25,1.34-1.37,3.11,1.52,3,36.23,6.63,70.5,21.32l.21.09a156.72,156.72,0,0,1,29.35,16.22c32.4,23.18,58.85,64.26,68,79.45,2.22,3.7,3.42,5.87,3.42,5.87S237.58,167,214.68,145.23Z" transform="translate(-49.14 -18.93)" fill="#3f4040"/><path d="M242.13,234.67c-9.11-15.19-35.56-56.27-68-79.45A156.72,156.72,0,0,0,144.82,139h0l-.19-.09c-34.27-14.69-69-18.27-70.5-21.32-.88-1.77.06-2.66,1.37-3.11,0-.27,0-1.22,0-1.49-.32,0-1.81.24-2.23.27-.07.15-.15.74-.23.88a8.64,8.64,0,0,0-1.45,3.06c-.31,2.92-.25,5.88-.28,8.82,0,1.93.18,3.87.07,5.79-.14,2.46-.56,4.9-.73,7.35-.13,1.82,0,3.67-.08,5.49-.37,5-1,10-1.21,15.09-.11,2.61-.43,14.46-.73,25.64s-.56,21.56-.54,21.63-.39,5.82-.5,11.53c-.11,5.15,0,10.24.06,11l0,3a10.28,10.28,0,0,0,.33,3c.46,1,2.5,1.76,2.61,1.8q6.73.47,13.48,1c.18,0,.35.22.52.34,2.41-1.11,5-.86,7.51-.82,1.08,0,2.15.37,3.23.4,7.14.18,14.28.29,21.42.47.72,0,1.43.06,2.14.1L124,239a5.56,5.56,0,0,1,3,.07l60.3,1.47,1,0a19.35,19.35,0,0,1,4.64.16l10,.25,3.36.08,18.23.44a1.52,1.52,0,0,1,.73,0h.11l.76-.05,14.11.42,2.2-.44h1.32l.89-.43.45-.41C244.13,238.6,243.12,236.64,242.13,234.67ZM161,168.28c1.12-1.23,2-2.9,4.08-2.53,1,1.66-.14,2.72-1,3.85-1.08.47-2.09,1.37-3.49.53Zm7,18.06-.43.44a4.56,4.56,0,0,1-5.41.89,3.86,3.86,0,0,0-3.33.11,3.86,3.86,0,0,1-4.75-1.06,13.08,13.08,0,0,1-3.2-10.7,6.11,6.11,0,0,1,6.11-5.1h2.2c.77,1.36,1.95.9,3.05.65.76-.17,1.5-.44,2.24-.66a5,5,0,0,1,4.18,1.33,1.3,1.3,0,0,1,.17,2.06c-2.5,3.19-2.5,4.63.21,7.48.82.87.37,1.55.29,2.35C168.78,185.13,168,186.34,168,186.34Z" transform="translate(-49.14 -18.93)" fill="#282827"/></svg>