<svg xmlns="http://www.w3.org/2000/svg" viewBox="0 0 465.07 602.21"><defs><style>.cls-1{fill:#ab643e;}.cls-2{fill:#91858d;}.cls-3{fill:#dba176;}.cls-4{fill:#3b2c31;}.cls-5{fill:#d59467;}.cls-6{fill:#e0a981;}.cls-7{fill:#e3ac8d;}.cls-8{fill:#995439;}.cls-9{fill:#a3583e;}.cls-10{fill:#854632;}.cls-11{fill:#e0b7a4;}.cls-12{fill:#d6a183;}.cls-13{fill:#bc7d61;}.cls-14{fill:#b7693c;}.cls-15{fill:#e1b29a;}.cls-16{fill:#be845c;}.cls-17{fill:#a35829;}.cls-18{fill:#bc8057;}.cls-19{fill:#c88c62;}.cls-20{fill:#2f2225;}.cls-21{fill:#70301f;}.cls-22{fill:#b67e56;}.cls-23{fill:#be724b;}.cls-24{fill:#1f1116;}.cls-25{fill:#793319;}.cls-26{fill:#2b1815;}.cls-27{fill:#66505f;}.cls-28{fill:#2b100d;}.cls-29{fill:#c0755f;}.cls-30{fill:#f4e5db;}.cls-31{fill:#d7cbca;}.cls-32{fill:#fff1d2;}.cls-33{fill:#d6976a;}.cls-34{fill:#c17b5d;}.cls-35{fill:#867e31;stroke:#030202;}.cls-35,.cls-37,.cls-38{stroke-miterlimit:10;}.cls-35,.cls-37{stroke-width:0.25px;}.cls-36{fill:#030202;}.cls-37{fill:#fff;stroke:#fff;}.cls-38,.cls-45{fill:none;}.cls-38{stroke:#2b100d;stroke-width:0.5px;}.cls-39{fill:#ab6f54;}.cls-40{fill:#feefe6;}.cls-41{fill:#64200d;}.cls-42{fill:#887984;}.cls-43{fill:#070505;}.cls-44{fill:#181213;}.cls-46{fill:#595e5f;}.cls-47{fill:#2f2126;}.cls-48{fill:#20171a;}.cls-49{fill:#40403f;}.cls-50{fill:#282828;}</style></defs><g id="Layer_2" data-name="Layer 2"><g id="_Me" data-name="+Me"><g id="Laptop"><path class="cls-1" d="M301.4,81.78C278.26,65.26,239.67,70.31,238,70.4s-6.85,2.76-7.14,3c-4.66,3.61-5.29,1.4-15.37,8.71s-21.1,20.33-21.66,21.47c-2.65,3.64,4.52,18.83,2,22.54-.51.74-.06,2.14-.73,2.86-4,4.32-4.45,9.51-5,14.5a54.1,54.1,0,0,0-.8,16.21c1.3,12.22-2.08,27.68-1.16,29.09,13.67,10.47,6.59,24.23,13.53,29.87,6.45.3,22.14.82,22.14.82s72.65,4.1,78.65,2.92c15.29-3,15.7-17.4,25.3-30.27,1.2-2,1.79-27.44,2.17-28.45,5.42-14.24,8.75-41.26.26-59.32C324.33,92,308.71,86.36,301.4,81.78Z"/><path class="cls-2" d="M169.64,142.72l0,1.25c-1.89-2.42-3.74-4.88-5.69-7.25-2.19-2.65-1.94-5.23,0-7.85a55.5,55.5,0,0,0,2.37,6.47,46,46,0,0,0,3.63,5.26Z"/><path class="cls-2" d="M164.36,122.9l-.18,3.33Z"/><path class="cls-3" d="M307.7,128a7.39,7.39,0,0,1-1.07-.2C307,127.84,307.31,127.9,307.7,128Zm-1.25,8.63a4.57,4.57,0,0,1-1.55-1A12.91,12.91,0,0,0,306.45,136.62Zm-7.32-44.78C275,77.48,237,81.18,235.29,81.3c-3.83.29-18.55,6.92-26.88,15.26s-7.28,13.13-4.69,24c.87,3.65-5.49,7.22-9.2,15.72-3.18,7.29-3.69,19.57-4.13,23.23.14,1.09-4.67,32.71-3.68,33.65,9,8.57,8.5,19.78,11,25,1.84.63,23.28,1.15,23.28,1.15s94.87,5,95.46,2.13c.84-4.12,11.26-25.9,9.15-40.26.91-.11.83-19.43.83-21.07s.87-17.65.25-22.29c-1-7.72,0-16.66-3.57-23.84C318.13,104,307.46,96.78,299.13,91.84Z"/><path class="cls-4" d="M197.61,112l-.08,1.93a8.6,8.6,0,0,1-1.91-.15,9.18,9.18,0,0,1-3.92-2.23c1-.31,2-.94,2.91-.86A10.23,10.23,0,0,1,197.61,112Z"/><path class="cls-4" d="M197.54,113.91l2.08,1.9Z"/><path class="cls-5" d="M208.65,122.89c.46.59,3.38,2.23,3.11,2.92-.37,1-.45,2.49-5.88,2.49-3,2.71-7.9,10.3-8,16.77s-1.07,10-1.35,13.75a11.37,11.37,0,0,1-5.76,9,4.13,4.13,0,0,0-.93,0c0-1.61.86-2.43,2.83-6.09s1.76-20.87,4.65-26.81S205.23,123.79,208.65,122.89Z"/><path class="cls-6" d="M293.75,94.87c-9.23-4.67-40.71-7.5-54-5.46-12.1,1.85-22.16,15.35-22,19.7A110.19,110.19,0,0,0,211.17,122c1.41,1.27,3.2,1.77,2.54,4.49s-4.66,2.59-5,3.27c-2,3.68-5.2,9.5-5.43,10.24.92-.37,17.24-2.83,18.89-6.69s.79-17.8,13.43-24c6.51-3.22,26.51-6,45-2.82,14.41,2.48,39.94,41.21,40.48,41.36,6.07,1.72.89-34.27-10-43.18C306.13,100.63,296.33,96.18,293.75,94.87Z"/><path class="cls-5" d="M313.2,119.9c.21.54,2.67,5.63,1.13,11.12,0,0,6.08,7.13,7.88,13.66.75,2.75,1.88,6.5,2.4,5,.65-1.82.56-9.57-.29-12.9-1.55-6.06-2.66-14.18-4.91-19.39S312.07,117.09,313.2,119.9Z"/><path class="cls-5" d="M208.65,122.89c.46.59,2.28.26,3.14,2s-.48,3.43-5.91,3.43"/><path class="cls-7" d="M255.38,150.93a19.77,19.77,0,0,0-2.72-5.12c-2.82-3.67-8.51-3.8-10.17-4.83a65.1,65.1,0,0,0-15.64-3.62c-3.16-.32-2.91-1.13-13.79-.09-4.06.38.6-4.43,3.56-10.19,5-9.7,6.08-21.14,23.39-28.54s50.44.22,62.11,8.22c13,8.91,10.23,25.11,10.23,25.11s10.11,9.75,10.27,15.08a11.05,11.05,0,0,1-1.54,3.27c-1.29,1.91-11.28-6.29-32.58-3.46-5.53.74-9.21,2.37-11.66,4.16L266,163.36l-8.07-.19Z"/><path class="cls-3" d="M172.43,162.93c1.19,3.59,3.13,19,3.13,19l4.63,8.36s3.44,4,5.38,4,2.74-5.3,2.74-5.3,4.25-9.54,4.46-16.58c.06-1.84-2-8.2-2-8.38-.05-1.34,2.76-3.45,2.44-4.17a1.81,1.81,0,0,0-.6-.81c-3.73-2.54-13.74-19.56-16.28-20s-5.26,2.93-6,6.27C169,151.5,171.65,160.6,172.43,162.93Z"/><path class="cls-8" d="M176.45,146.92l-1.85,2.51s3.16-.18,4.13,1.31a8.37,8.37,0,0,1,.9,4.29c0,1.18-.44,2.09,0,2.37,2.19,1.31,1.38,6.8,2.36,6.9s-5.46,4.7-5.46,4.7l-.79-5.87-1.86-4.49-1-7.72-.19-2.34,1.51-4.47Z"/><path class="cls-9" d="M189.06,167.43c.6,2.5,1,3.15.83,5.46-.32,6-2.37,11-3.26,10.92-1.61-.15-2.4-2.88-5-11.54-.54-1.76-.91-9.4-.91-9.4a14.53,14.53,0,0,0-.83-3.8c-.64-1.44,1.12.88,1.41,2.24s.61,3.33,2.08,2.53,3.42-1.6,4-.61A11.38,11.38,0,0,1,189.06,167.43Z"/><path class="cls-10" d="M179,159.57s-3.39,8-1.86,10.3a17.87,17.87,0,0,0,3.48,3.87l2.83,3.38a2,2,0,0,0,.72-2.3c-.59-1.43-3.17-3.29-2.67-5s1.78-3.13-.07-4.39S179,159.57,179,159.57Z"/><path class="cls-5" d="M186.63,178.78a14.88,14.88,0,0,1,0,3.83,1.27,1.27,0,0,1-1,.56c-.35-.3-1.24-2.15-2-1.07-.92,1.25-1.45,2.68-1.63,2.55s.61-5.05.61-5.9c-.33-.33-1.3-3.69-2.26-5.24-.47-.74,4.11,5,5.57,3.25Z"/><path class="cls-11" d="M176,175.79s.33,11.32,6,15.31,6.15-8.49,3.49-9.82-3.16,7.82-5.66,1.17S176,175.79,176,175.79Z"/><path class="cls-5" d="M176.79,141s-6.32,2.51-5.45,10.76c.85,8.08,3.48,12.17,4.08,17.29.66,5.65,1.22,14.11,2.24,16.32,0,0-3.57-2-3.89-15.83-4.42-14.86-4.09-21.15-4.09-21.15s1.19-7.83,2.61-8.69S176.79,141,176.79,141Z"/><path class="cls-12" d="M188.45,171a84.35,84.35,0,0,1,.47,9c-.1,2.1-2.34,8.86-2.61,8.86-.43,0,.69-12.86,0-14.64s-2.58-2.81-2.76-3.94c-.13-.8,1-1.81.87-2.6l3.21,2.06Z"/><path class="cls-3" d="M182.6,178.75l2,1.08Z"/><path class="cls-1" d="M189.17,154.9s1.45,1.22,1.47,1.74c-.09,1.2-.88,4.73-.83,6.84.08,3.22,1.79,7.42,1.78,8.93a37,37,0,0,1-2.42,8.28c-1,.46.36-4.16.59-8s-2-8.48-2.4-9.44S189.17,154.9,189.17,154.9Z"/><path class="cls-5" d="M191.61,167c.5.78.54,3.61.57,5.75,0,1.83-1.37,3.71-1.56,5.19a29.8,29.8,0,0,1-2.14,5.8,20.23,20.23,0,0,0,.37-3.23c0-1.77,2.64-6.46,2.51-9.32,0-.3-.91-3.53-.91-3.53s-.4-2.45.57-3S191.59,166.92,191.61,167Z"/><path class="cls-1" d="M173.68,144.58s-3.07,5.69.8,16.7c1.79,5.07.37,6.62,2,8.75a45,45,0,0,0,5.61,5.37c.48.26.56.41-.45-1-.59-.81-2.41-1.88-3.29-3.06a11.55,11.55,0,0,1-1.89-3.76c-.06-1.09.18-4.2-1-6.56s-2.2-5.51-2.08-7.8-.74-3.2-.16-5.68a19.49,19.49,0,0,1,1-3.46Z"/><path class="cls-5" d="M184.15,167.43a1.45,1.45,0,0,1,.07-2.12c.47-.62,2.9-1.1,2.9-1.1s-.55,1-.37,1.51c.11.18,1.13,1,1.25,1.8s.95,2.34,1.08,3.66-.11,5.7-.46,5.43-1.23-5-1.93-6.41A11.08,11.08,0,0,0,184.15,167.43Z"/><path class="cls-1" d="M179.41,147.44l-3.87.28s-.48-1.7-1.07-1.31-.68,3.14-.15,3.17,3.63-.79,4.76,2.4-.65,4.28.61,6.25.89,5,2.33,6.07,5-1.87,5.3-1.15,3.18-2.3,1.55-5.46-7.84-10-7.84-10Z"/><path class="cls-3" d="M326.56,188.91c1.08-5.07,3.37-13,.93-15s-9.61,2-12.58,3c-1.93.65-3.41,3.81-3.41,3.81s1,29.48-11.12,24.15a18.61,18.61,0,0,0,.84,2.61,17.35,17.35,0,0,1-4-2.22c-.74-1.31-.62-3.18-1.29-4.54l0,0-2.1-1.88-6.92-5.05s1.06,5.37,3.15,7.85c.29.36,4.93,5.69,5,6,1,1,4.34,1.93,7.31,2.44,1.77,3.82,4.21,8,5.31,8.38,2.73,1,6.19-1.3,6.19-1.3s4.19,1.35,6.54-7.29c7.22-5.64,3.93-27.74,14.83-21,1.37-6.57,4.65-14.4,4.72-17,.06-2.3-3,.19-3.51.73C335.16,173.65,332.73,181.72,326.56,188.91Z"/><path class="cls-5" d="M319.77,211.78c-.32-.79,3.38-5.05,2.72-5.53-.36-.27-6.38,4.69-8.63,7.88s-12.2,1.69-20.09-11.17c-5.28-8.6-15.86-11.26-16.89-10.2-.1.09,2.3,1.4,3.27,3.54s.51,5.13,0,6.91c-1,3.56-3.41,5.11-6.79,5.45a17.49,17.49,0,0,1-6.55-.74l.07,4.19s.35-.14,1-.35,7.71.88,8.13-1.09,6.76-3.63,6.76-6.16,6.1,4.32,7.6,6.05,5.21,6.1,7.75,7.94c.64.46,3.07,3.83,2.53,4.41,1.55.27,16.86-.28,17.06.24.17.09-.53-4.41-.36-4.33A40.8,40.8,0,0,0,319.77,211.78Z"/><path class="cls-7" d="M321.4,207.73c1.38-2.35.83-4.66,2.09-7.07.67-1.27,1.71-2.94,1.36-4-1.44-4.52,3.71-7.1,5.73-10.27l4.59,2.35c-.22,1.25-.11,2.7-.71,3.74a97.35,97.35,0,0,1-7.21,11.29C325.86,205.51,323.39,206.43,321.4,207.73Z"/><path class="cls-9" d="M327.2,175.86q.23-3.59.44-7.17l1.91,6.56c2.75-5.61,6.48-9.71,13.16-9.93l-3.41,5.91c-3.22,1.25-4.18,4.2-4.88,7.05s-1.46,5.28-4.56,6.53c-1.12.45-1.76,2.12-3.3,4.1C326.8,184,327,179.92,327.2,175.86Z"/><path class="cls-6" d="M294.35,196.86l2.09,1.88Z"/><path class="cls-13" d="M267.57,208.41s5.65-3.28,7.16-2C276.72,208.21,271.86,211.26,267.57,208.41Z"/><path class="cls-5" d="M267.77,209.27c-.44-2.08-2.66-10.74-6.6-8.48-2.46,1.42-6.75,1.93-9.53,2.77,2.21-3.83,4.89-10,4.11-12.06-.31-.83-5.08,3.28-6.07,3.42a15.32,15.32,0,0,1-5-.12c.43-.27.57-.49.06-.88-.27-.2-3.31.05-5.1-.86-2.16-1.1-2.83-3.89-2.64-6.05-2.72,6.38-2.23,13.14-5.77,13.25-.6,0-.35.08-.25.67,1.44,8.16-6.75,11.87-9.09,13.11-2.52,1.32-1.78,8-.31,8s5.09-6.21,5.09-6.21,4.92-6.06,11-5.23c2.69.33,9.47,4.64,14.52,5.84.67.16,3.79.47,4.54.53C263.53,217.55,268.38,212.12,267.77,209.27Z"/><path class="cls-14" d="M239.7,203.14s1.68.44,4.66.89a10,10,0,0,0,4.27,0c3.1,2.92,6.24,5.64,9.91,5.8,0,0,.76,1.63.16,2.65-2.54,4.3-9.92,1-10.19-4.75,0,0-7.78.53-8.24-2.11S239.7,203.14,239.7,203.14Z"/><path class="cls-13" d="M250.83,209.54c3.9,1.14,5.53,3.25,7.31,2.44s7-3.41,7.48-2.27-3.76,5.16-7.8,4.87S251.32,213,250.83,209.54Z"/><path class="cls-3" d="M256.47,207.78l-5-.14c0-1.29,0-2.58,0-3.87,3.28.11,6.79-.5,9,2.86Z"/><path class="cls-7" d="M272,157.92c-1.31,6.49-2.52,21.91-2.19,24.52.15,1.17-.38,11.49,2.7,15.74,3.38,4.64,6.43.76,7.25.85,1.9.41.29,5.83-1.76,7.66-1.75,1.58-5.28,3-11.19,1.34-1.32,3.3-5.56,4.89-9.19,4.89-2.35-.18-4.66-1.59-6.7-3.3A6.72,6.72,0,0,0,249,205.7c-1.68-1.93-1.92-.49-7.21-.73-4.72-.21-5.29-8.81-1.39-10.59,3.29-1.62,6.31-.41,10-2.8,3-2,4.65-8.07,5.3-14.33.09-.81,2.45-.88,2.5-1.75.14-2.85-.71-15.9-.71-15.9l14-2.81Z"/><path class="cls-3" d="M271.25,188.32a13,13,0,0,1,1.31,6.66c-.37,3.45,4.6,7.61,6.1,4s-2.35-4.88-2.35-4.88l-5.06-5.82"/><path class="cls-6" d="M278.75,196.77c0,1.66-1,3-2.25,3s-2.25-1.34-2.25-3-.68-3.76.56-3.76S278.75,195.11,278.75,196.77Z"/><path class="cls-6" d="M272,180.72c8.17,2.39,6.86,2,13.48,2.6,8.68.78,15.87-.23,19.32-1.25,31.4-9.07,4.54,37.36-7.6,21.88-.87-1.11.23-1.75-4.93-6.47-4.71-4.3-10.46-6.15-19.21-13.28A4.25,4.25,0,0,1,272,180.72Z"/><path class="cls-6" d="M256.49,165.82c-3.53,9-9.18,11.1-15.43,12.42S225,181,218.69,179c-14.64-4.66-23.12-9.13-21.14,3.77s10.95,31.1,16.68,28.38c4.42-2.1,5.9-3.54,10.11-10.18,1-1.63,5.92-5.07,9-10.82,1.31-2.44,5.22-5.76,4.84-4.66-1,2.81.88,4.87,1.3,5.51.85,1.31,5.76,3.6,11.29,5S261,176.16,256.49,165.82Z"/><path class="cls-7" d="M226.12,182.43c-7.57,1.67-16.27-2.9-20.73-5.19-3.29-1.69-6.41,1.88-3.65,9.51,2,5.63,8.84,34.59,19,14.77,3.26-6.37,10.08-8.22,10.41-12.42S233,180.92,226.12,182.43Z"/><path class="cls-7" d="M314.31,190.35c-.05-4.57.47-9.53-7.68-6.35-2.93,1.15-26.51,1.91-33.41-1.31,2.84,1.18,8.54,5.4,14.83,9.1,5.88,3.47,12.42,6.33,13.6,10.15,1.06,3.42,5.62,4.47,9.15-.62A23.73,23.73,0,0,0,314.31,190.35Z"/><path class="cls-15" d="M287.28,186.53c5.07.17,12.84,1.58,19.72-.09s3.36,15.75-.75,15-4.78-6.76-11.54-8.63S283.78,186.41,287.28,186.53Z"/><path class="cls-11" d="M293.49,188.13c6,.66,9.08,1.89,13.14.57,4.6-1.5,2.44,14.73-2.07,7.58-1.5-2.38-2.84-2.82-5.35-3.92-2.86-1.26-8-1.58-8.59-2.82C289.46,187.21,293.49,188.13,293.49,188.13Z"/><path class="cls-15" d="M206.27,180.89c2.67,2.88,6.71,3.37,9.09,3.63s11.82.93,12.42,1.94c.78,1.32-1.29,4.65-5.37,8.1-7,5.87-5.88,12.15-10.33,8.55S200.8,175,206.27,180.89Z"/><path class="cls-11" d="M209.34,186.94c4.14-.44,10-.74,9.32,1.93s-3.41,7.54-6.22,7.39S209.34,186.94,209.34,186.94Z"/><path class="cls-16" d="M304.28,222.3s-1.78-4.79.85-4c1.26.36,3.46,1.33,5.53,1.31a8.68,8.68,0,0,0,4.89-1.78c1.47-1.11.38,2.71.75,4.51C316.79,224.72,304.28,222.3,304.28,222.3Z"/><path class="cls-15" d="M240.5,196.29s7.68,1.76,10.76,1.32c3.94-.56,6.93-3.16,7.88-7.88,4.13-20.45,5.23-35.35,8.4-32.9,1,5.9.09,15.63,1,23.72,1.11,9.35-1.19,14.29,1.15,18.28s5.74,3.5,9.14,2.46c-3.51,5.89-10.95,2-10.95,2s-2.32,5.35-9.53,5.58-9.19-7.63-9.19-7.63-3.7,3.18-7.18,1.14C240,201.21,239.5,198.14,240.5,196.29Z"/><path class="cls-7" d="M236.87,139c-9.47-1.33-8.87-3.26-17.31-1a60.93,60.93,0,0,0-13.16,4.88s16.86-6.5,28.4-3,12.57,3,12.57,3Z"/><path class="cls-7" d="M242.53,183.16c11.54-4.33,11.68-6.24,11.68-6.24s1.2,9.25-3.09,13.51c-1.75,1.74-4.22.67-7.18.27C239.23,190.07,238,184.87,242.53,183.16Z"/><path class="cls-11" d="M253.23,202.21s9.76,2.35,11.63-6.19,5.17,6.66.85,8.26c0,0-2.15,3.79-9.2,2.34A4.06,4.06,0,0,1,253.23,202.21Z"/><path class="cls-3" d="M67.38,504.25c-3.41-3.83-4.28-4-7.56-.28l-1.58,1.82c-3.28-3.68-9.23-4.33-9.54-10.5l-.75-.24c-.34-.29-2-4-4.58-6s-2.22-9.2-2.57-12.38c-.29-2.7.27-5.35,0-8.08-3,0-5.73.25-6.07,2.89-.92,7.11-4.83,4.51-5.63,1.51s1.72-8.89,2.88-13.55c.8-3.22,4.84-4.85,10-4.84.39-7.32.51-14.82.89-22.14l0-1.09c0-1.29.07-2.59.11-3.88,0-.38,1.49-12.57,1.38-13.55C37.71,415.5,29.56,418,24,422.41c-.25-1-.38-1.45-.5-1.92-2.21,2.54-4.17,5.37-6.7,7.54-5.14,4.4-9.49,9.28-11.17,16-1.8,7.15-3.13,14.42-5,21.55A8.18,8.18,0,0,0,2,473.31c0,.66,0,1.32.07,2-1.06,4.78-2.43,9.56,0,14.33l1.63,0h0c.68.66,1.63,2.53,3.53,3.88.95.67,8.36,22.36,11,24s14,9.08,15.09,10.2c.91,1.77,15.61-1.26,19.73-4.75,4.48-3.79,9.78-11.87,11-12.22,3.49,1,7.08,2.64,9.8-1.48C71.65,507.64,69.16,506.25,67.38,504.25Z"/><path class="cls-17" d="M53.7,505.5c-1-.45-2.51.14-3.78.26h0c-.75-.34-5.92,1.15-9.5,2.71a44.08,44.08,0,0,1-7.48-2.32,124,124,0,0,1-12.7-6.77S9,492.6,6.92,490.47c.51.6-6.09-3.92-6-3,.17,1.11,7,7.75,7.73,9.77.39.93,4.17,12.7,5.71,15.54.63,1.16,1.44,3.32,3.7,4.71s5,3.2,7.4,4.82c3.93,2.66,7.29,5.06,8.1,5.73,2.08,1,9.48-.57,15.14-2.34a14.38,14.38,0,0,0,6.89-5.17c2.32-2.66,5.64-5.44,7-9.2l1.36-.5C60.59,509,57.23,507.06,53.7,505.5Z"/><path class="cls-18" d="M7.06,490.39C7,490.2,1.46,489,1.37,488c-.07-.8.13-5.36-.25-10.28-.45-5.8-1.44-12.08-.63-13.17s.71,4.51,1.89,8.65c.85,3,2.93,4.73,3.51,5.52,1.38,1.88,6.17,5.24,7.2,4.26.34.31,35,19,35,19s2.69,1.41,2.8,2.22-.76,5-2.53,5.3c-3.55.61-11.4-1.34-17.23-4.08C21.76,501,10.4,492.73,9.53,492.68A21.54,21.54,0,0,1,7.06,490.39Z"/><path class="cls-5" d="M4.88,480.3a29.26,29.26,0,0,1-2.74-6.2C.91,470,.31,465,.61,464.3c.21-.48,5.74,12.79,6,12.26a19.63,19.63,0,0,0,1.09-3.4c.23-1.24-.39-9.75-.35-10.28.3-3.68,5.12-6.69,5.18-6.15.4,3.4,1.45,13.83,3.12,15S30.25,485.3,35.2,491c1.54,1.77,11,8.23,14.06,11.61.7.79,1.46,1,1.58,1.45s0,1.26-.45,1.37c-.94.25-6.9-2-8.17-2.75-3.82-2.13-13.06-8.52-16.8-10.79C21.39,489.62,4.88,480.3,4.88,480.3Z"/><path class="cls-1" d="M19.63,492.76c-1.11,1.33-9-2.66-7.93,3.62.63,3.46,3.24,12.06,6.72,17.46,1.07,1.67,3.95,5,7,6.21,4,1.53,5.35,4.21,9.12,3.68,4.12-.58,6.65-1.61,11.18-4.25,3.65-2.12,8.12-2.3,11.17-4.16,2.26-1.38,3.62-4,5-5.23.88-.8-10,5.11-16.07,4.21C38.26,513.18,19.82,492.52,19.63,492.76Z"/><path class="cls-19" d="M8.72,465.6c-1.3-5,3-8.85,3.52-9.05s-.06,10.57,1.29,12.14c3,3.45,9,10.32,15,16.73,7.55,8.1,21.45,17.71,21.54,18.43s-9.94-4.55-16.54-10.27c-4.05-3.51-7.92-8.83-11.82-12.07-2.59-2.15-4.54-5.49-6.24-6.66C11.32,472,10,470.41,8.72,465.6Z"/><path class="cls-19" d="M7.06,490.34c-.08-.19-5.6-1.36-5.69-2.43-.07-.81.13-2.58-.25-7.49-.45-5.8-1.44-12.08-.63-13.17s.71,4.5,1.89,8.65c.85,3,2.93,4.73,3.51,5.52s8.52,5.62,17.3,10.74c6.48,3.77,13.42,7.71,18.23,10.34a43,43,0,0,0,8.74,3.25s-.51,3.17-2.26,3.57c-2.24.51-11-1.27-16.82-4-9.32-4.38-20.68-12.64-21.55-12.68A22.55,22.55,0,0,1,7.06,490.34Z"/><path class="cls-20" d="M31.7,525.43l3-.19c5.14.75,8.79-2.88,13.15-4.44,2.28-.82,4.58-1.6,6.87-2.4-.06.33,0,.82-.18,1-6.4,4.62-13,8.85-21.42,7.78C32.6,527.08,32.18,526,31.7,525.43Z"/><path class="cls-21" d="M28.56,523.43l2.23,1.74Z"/><path class="cls-5" d="M41.87,454.55c.11,7.68,0,15.24.1,22.92,0,2.3.05,4.6.08,6.91l.08,1c-.1.27-.19.55-.29.82-.13-1.24-.62,1-.75-.21-.21-1.94-.07-7.4-.29-9.34-.29-2.7-.54-5.32-.84-8.05-3,0-4.76.64-5.24,3.27s-1.35,4.43-3.15,4.16c-.34-.05-2.83-.72-2.82-4.22s2.61-10.06,3.19-12.39C32.74,456.23,36.4,454.4,41.87,454.55Z"/><path class="cls-22" d="M10.09,465.06c-1.31-4.95,1.91-7.46,2.4-7.67s.28,7.41,1.64,9c3,3.44,10.32,11.54,16.29,17.95,7.56,8.1,17,16.36,17.08,17.08s-5.56-3-12.16-8.77c-4.05-3.51-7.91-8.83-11.81-12.07-2.6-2.15-4.55-5.49-6.25-6.67C13.1,471,11.35,469.88,10.09,465.06Z"/><path class="cls-7" d="M25,434.23c-6.1-1.83-10,23-6.33,31.5s6.68,14.18,9.76,17.76C33.27,489.17,40,494.71,39.83,495c0,0,6.37,4.71,10.61,8.15s11,5.68,11,5.68-2.5-2.56-1.57-4S63,500.7,63,500.7s-3.72,4.83-8.88,3.54c-1.53-.39-13.84-10.32-13.84-10.32A12.51,12.51,0,0,1,38,487.75c-.06-2.27,1.93-4.29,2.11-7.06.33-5-5.38-.69-9.28-1.63s-6.73-4.45-5.24-15.3c.18-1.32,5.31-5.07,6.32-8.24.62-1.94-2.45-2.9-2.1-4.95C30.78,445.16,31,436.07,25,434.23Z"/><path class="cls-5" d="M48.7,495.29c10.19.72,20.37,1.42,30.56,2.18a16,16,0,0,1,3.25.63c-3.72,0-7.12,1.9-6.92,5.65.1,1.81-1.14,3.7-1.77,5.56-2.17-1.67-4.66-3.06-6.44-5.06-3.41-3.83-4.28-4-7.56-.28l-1.58,1.82C55,502.11,49,501.46,48.7,495.29Z"/><path class="cls-9" d="M329.38,523.25c1.57,3.11,9.62,7.61,8.35,8.87a2.9,2.9,0,0,1-1.83.45c-.39,0-.78-.28-1.25-.31-17.13,17.94-6.7,55,23.15,53.17,1-.06,3.65-1.34,3.46-.31-.31,1.7-1.67,5.76-3.1,7.52-2.87,3.51-9.65,6.54-12.86,6.42-20.36-.72-40.81-38.62-34.87-54.69-25.35-15.78-11-13.66-18.74-29-.59-1.18.19-3.36-.71-4.75,6.45,1.59,12.68-8,17.48-9.72,1.4-.52,6.1,3.74,6.34,3.51,1.37-1.27,4.1,1.32,10,.33,6.39-.69,9.7,4.89,7.9,10.86,4.55,2.36,2.8,5.3-3.26,4.66"/><path class="cls-23" d="M362.45,566c-.46-5.52-.8-11.36-4.68-16.83-4.8-6.78-13.76-13-20.17-17.09-16,2.47-16.51,27.14-8.59,41.62,5.44,10,26,16.27,33.83,9.83C366.41,580.62,364.81,575.09,362.45,566Z"/><path class="cls-24" d="M249.53,498.28c3,9.35,36.13,24.4,44.47,29.77l-2.24-16.57C306.81,491.9,256.32,501.81,249.53,498.28Z"/><path class="cls-21" d="M401.3,504.36c-.29,0-3.16-4.3-4.48-3.59-2.87,1.53-7.15,4.64-10.12,5.36-13.26,3.45-22-3.21-34.67,2.49-11.87,6.62-21.95-11.81-36.58-6.3-2.81-.17-8.51-2.25-9.28-1.95-1.45.55-.64,2.58,3,3.88,4.67,1.68,12.91,2.46,15.62.53,12.21-1-.17,19.91,15.71,16.19,14.58-3.42,33.41.94,47-5.71,2.67-1.31,11.85-2.82,11.85-2.82A9.06,9.06,0,0,0,401.3,504.36Z"/><path class="cls-12" d="M258.74,507.45c1.91,14.14-26.06,6.72-26.06,6.72s-2.92-1.2-3.36-1.81c-3.32-4.69-.45-10.35,3-12.53C238.84,495.64,254.61,498.07,258.74,507.45Z"/><path class="cls-7" d="M308.87,502.57c5.1,4.68,4.51,7.82,3.26,9.63-2.73,4-14.93,1.94-21.15-1.54-1.39-4.27,0-8.6,2.52-10.09C297.48,498.2,304.43,500.47,308.87,502.57Z"/><path class="cls-7" d="M236.87,500.84c6.9-3,20.17,6.59,9,9.81C239.73,510,234.79,510.53,236.87,500.84Z"/><path class="cls-9" d="M289.3,602c-2.48-2.17-4.07-6-6.31-8.08-15-14.26-15.12-42-28.44-69.92,19.07,29.29,53.06,65.29,87.11,75.67-2.58.87-5.09,1.57-7.8,2.27Z"/><path class="cls-10" d="M327.56,601.88c-20.77-10.13-52.28-42.65-59.37-58.36-1.35-6.9-25.73-19.1-30.48-25-2-2.47,2.38-3.89,8.65-3.26,8.49,3.19,25.07,8.17,26.62,4.1.62-1.62,1-3.79-4.26-8,9.33-.61,13,14.09,22.93.25a51.5,51.5,0,0,1,5.34,1.6c17.91,4.57-5,9.89,13.44,31.19,2.76,12.25,10.27,32.09,14.43,38.1s12.77,12.57,20.55,12.66,7.58-.52,7.3.1c-1,2.09-4.75,4.78-8.71,6.77Z"/><path class="cls-9" d="M253.44,528.83c10.39,4.1,18,16.75,21.41,25.9C270.14,553.15,260.07,537.26,253.44,528.83Z"/><path class="cls-21" d="M316.41,541.27l1.2-1.89Z"/><path class="cls-25" d="M314.43,543.23l1-1Z"/><path class="cls-1" d="M339.61,534.13l-2-2Z"/><line class="cls-1" x1="323.37" y1="522.97" x2="327.2" y2="524.49"/><path class="cls-24" d="M336.88,501.22c16.49-12.15,16.75,17.13.52,8.8C320.44,499.63,326.28,499.18,336.88,501.22Z"/><path class="cls-26" d="M199.9,499.43c8.07,2.75,21.7,9.63,30,10.35.15-1.8-.29-8.71,2.85-9.36C236.37,499.59,200.4,499.77,199.9,499.43Z"/><path class="cls-9" d="M273.8,516.11c-7-4.55-15.22-9-15.22-9s-7.21-6.85-6.79-6.06c1.38,2.64,2.83,4.42,2.77,6.53-.13,4-3.24,7.65-6.66,7.51-8.69-.36-23.7-2-38.35-11.71-16.43-.45-9.18,8.42,3.57,13.54,9,3.63,21.71,5,26.5,1.59,5.38-4.1,32.41,7.86,34.59,1.53C274.62,518.86,275.4,518.76,273.8,516.11Z"/><path class="cls-21" d="M224.47,518.37l5.22,1.49Z"/><path class="cls-27" d="M309.09,555.16c-.29-.63-.06-.81.62-.7C310.17,554.87,309.43,555,309.09,555.16Z"/><path class="cls-21" d="M229.91,509.49c-1.17.41-2.81-.67-3.81-.88-4.57-.95-7.52-6.13-12.42-3.87-2.47-1.18-4.62-2.17-5.17-2.51-1.88-1.15-5.73-3.16-7.76-2.71.18-5.54-16,.28-19.47-.78-6.84-1.14-14.6-1.05-15.13-.08-1.42,2.66,19.34,10.87,29.24,9.08,0,.23,0,.39.21.45,4.91,1.54,21.93,3.35,26.28,2.23,5.24,3.17,10.71,5.84,10.47,2.89C232.29,512.68,230.64,512.64,229.91,509.49Z"/><path class="cls-21" d="M238.46,519.15l1.19-.65Z"/><path class="cls-25" d="M313.42,544.2l.95-.92Z"/><path class="cls-25" d="M314.47,567.33l-1,.94Z"/><path class="cls-23" d="M361.38,560.26l-1-3.08Z"/><path class="cls-28" d="M381.26,508.92c-6.46-.33-10.17-1.44-19.22-1-10,.5-20.35,7.06-25,.57,5.43,2.77,13.71,2.81,11.58-6.7,1.4.26,39.21,2,40.78,2C402.45,504.08,387.72,509.25,381.26,508.92Z"/><path class="cls-20" d="M290.5,506.31l.18,4Z"/><path class="cls-21" d="M291.59,503.42l-.88,2.31Z"/><path class="cls-20" d="M254.94,503.14a1,1,0,0,1-.39-.82Z"/><path class="cls-29" d="M308.87,502.57c-4.71-2-9.59-2.1-14.55-1.41C295.12,492.7,309.28,494.93,308.87,502.57Z"/><path class="cls-26" d="M291.69,511.17c-4.41,8-12.51,4.42-22.36-1.36-6.68-3.92-13.06-7.32-15.28-9.36-2.36-.18-2.38-.11-2.33.54.21,2.28,10.94,9.62,15.34,11.34C272.07,514.3,291.28,528.41,291.69,511.17Z"/><path class="cls-5" d="M362.45,566c-7.22,18.92-19,13.72-17.27-5C342.3,542.41,363.4,551.49,362.45,566Z"/><path class="cls-30" d="M240.23,167.23s-4.77-6.37-22.12-3.89a21.54,21.54,0,0,0-5.2,1.44S220.6,172.19,240.23,167.23Z"/><path class="cls-31" d="M237,165.07a3.16,3.16,0,0,1,.18,2.45l4.74-.17A12.73,12.73,0,0,0,237,165.07Z"/><path class="cls-32" d="M234,164.65s1.44,1.28-.32,3.35a9.29,9.29,0,0,0,3.51-.48C239.14,166.88,236.42,164.65,234,164.65Z"/><path class="cls-33" d="M251.73,150.72c-.86-2.15-9.24-6.73-15.19-8.12-9.65-2.27-18.63-.68-21.44-.39a30.06,30.06,0,0,0-12.8,4.89l-.44,4.6s18.6-9.57,33.77-1.78c18.93,9.71,11.26,12,11.26,12s-20.46-8.44-30.87-6.47a128,128,0,0,0-16.5,4.08l4.77,7.48c.86.59,3.1,4.63,7.94,6.52s19.82,6.69,26,5.46,12.91-5.24,15-8.26S255.31,159.68,251.73,150.72Zm-47.07,13.45a32.19,32.19,0,0,1,16.17-6.41c7.58-.66,17.34,2.75,23.15,7.33C257,175.37,212.61,176.17,204.66,164.17Z"/><path class="cls-34" d="M240.53,167.63c-1.29.25-10.45,1.18-11.74,1.43-4.49.86-14.25-.05-16.43-5,2.17-1,1.12-1.23,2.54-1.86L212.57,161l-3.16-1.19c-.93.06-3.54,0-4.47.07-1.54,3,.29,5.89,5.14,9.43.68.49,8.93,5.77,18.4,5.41,7.64-.29,14.4-5.14,15.85-6.55C242.87,167.33,240.53,167.72,240.53,167.63Z"/><path class="cls-5" d="M202.23,147.21s32.62,1.06,41.91,6.13c7.43,4,6.63,18,6.41,17.9,0,0-2.67-18.43-27.75-20-8.92-.56-21.62.68-21.62.68Z"/><path class="cls-6" d="M199.52,158.94c2.81-1.34,9.62-2.57,12.35-3.56,2.22-.81.91-3.15.91-3.15s-10.49.29-12.15.7Z"/><path class="cls-3" d="M197.48,159.14c.7-7.67.4-11.29.84-14,.48-2.95,5.28-8.09,8.1-8.73,6.19-1.41,8.56.33,13.77.61,0,0-14,3.33-16.38,5.45s-2.67,9.85-2.67,9.85S198.74,158.36,197.48,159.14Z"/><path class="cls-5" d="M241.25,166.5c-.77,0-2.25-.66-4-1.42a46.48,46.48,0,0,0-7.21-2.71,88.09,88.09,0,0,0-14.85-.47c-2.33,0-4.62-.08-2.33-1.19,6.83-3.65,18.8-1.28,22.58-.43S241.08,165.78,241.25,166.5Z"/><path class="cls-21" d="M227.23,158.74c.13.07,2.85.54,5.54,1.33a48.17,48.17,0,0,1,5.16,1.88,50.51,50.51,0,0,1,5.63,3c1.17.74,2.81,2.45,2.22,3.06a3.85,3.85,0,0,1-3.24.44c-.69-.23-2,0-2.12-.75a1.31,1.31,0,0,0-.29-.85c-1-1-1.6-2.34-2.25-2.9-.83-.72-3.46-1.74-6-2.77C230,160.37,228.09,159.6,227.23,158.74Z"/><path class="cls-20" d="M233.24,161.46c-3.38-1-10.22-2.58-20.12,1-1.62.59-2.44.88-2.64,1s.18.35.79.26c.14,0,.5-.28.66-.31,3.8-.58,15.51-2.53,24.83,1.49C250.6,170.85,236.61,162.49,233.24,161.46Z"/><path class="cls-13" d="M252.05,166.81a25.71,25.71,0,0,0-5.23-16.19c-3-3.73-9.47-6.52-17.67-6.47-10.54.06-21.27,5-23.65,4.85a100,100,0,0,1,24.71,1.76c4,.74,15.65,9.87,15.56,10.28-7.89-4.08-21.35-4.8-26.81-4.34-3.48.29-10.41,2.45-13.83,3.39,1.05.39,3.63.15,4.68.55,4-1.33,12.94-2.3,19.25-1.38,1.95.28,4.07-.1,8.4,1.75,3.27,1.4,6.32,4.3,9.2,5.91a13.07,13.07,0,0,0,4.81,1.48Z"/><path class="cls-5" d="M244.65,167.74s-2.12,3.69-13.8,5c-8.13.89-19.21-1.34-19.2-1.07s11.45,3.66,13.8,4,12.22-.14,12.22-.14,13.3-2.27,14.12-6.58l-6.33-2.48Z"/><path class="cls-25" d="M235.41,146.2c1.91,1.94,11.46,7.53,13.66,9.77-3.59,1.69-10.27-4.66-18.3-6.19-10.35-2-22.53-.51-23.09-.57.08-1.43,14.33-2.36,14.4-3.64C225.74,143.86,234.78,145.79,235.41,146.2Z"/><ellipse class="cls-35" cx="226.93" cy="165.8" rx="4.22" ry="3.64"/><ellipse class="cls-36" cx="227" cy="165.66" rx="2.72" ry="2.36"/><ellipse class="cls-37" cx="229.07" cy="164.66" rx="0.7" ry="0.72"/><path class="cls-28" d="M242,167s-7.37-5.45-16.22-5.8a33.45,33.45,0,0,0-14.8,2.56l2.38.91s3.24-2,13.25-1.73A38.48,38.48,0,0,1,242,167Z"/><path class="cls-28" d="M204.64,149.55s23.1-9.44,34-4.07,10.31,10,10.31,10,0,1.06-1.27.67c-2.2-.69-6-3.78-11.62-6.47C227.19,145.49,204.64,149.55,204.64,149.55Z"/><path class="cls-38" d="M245.52,166.5a35.24,35.24,0,0,0-35.43-5.06"/><path class="cls-39" d="M212.61,164.48s2.56,7.7,15.28,6.2S242,168.22,242,168.22s-.28-.78-2-.45C234,168.89,217.34,171,212.61,164.48Z"/><path class="cls-13" d="M276.46,170.44c-.85-2.95,2.2-15.62,9.11-17.72,9.21-2.8,26.85,2.19,26.85,2.19s11.13,4.87,8.82,4.94c-.69.25-17.67-3.77-25.23-4s-13.95,8.33-12.92,8c5.72-1.59,19.67-1.3,23.54,1,.22.19,9.51,5.69,9,6-.1.06-.73.71-3.77-.09-4.44-1.18-11.86-2.51-15.49-4.49-5.84-3.19-13.5,3.21-13.06,5.39Z"/><path class="cls-23" d="M303.42,167s11.53,3.21,12.18,4a1.84,1.84,0,0,1,.52,1.43l-1.53-.28-14.53-3.33-2-1.71Z"/><path class="cls-5" d="M276.6,170.58c1,4.68,1,3.35,3.29,6,1.16.86,9.12,5.46,15.51,5.86,10.24.64,15.62-3,15.62-3.33-4,1.28-26-4.74-28.6-7.28-2.16-2.06-3.29-2.53-5.45-4.64,0,0-.3,1.87-.33,1.87C274.76,169.47,276.6,170.58,276.6,170.58Z"/><path class="cls-21" d="M283.65,172.15c-.51-1.3,4.21-4.15,7.45-4.06.69-.63,4.62-.85,4.62-.85s9.74.51,9.72.09c-1.12-.07-10-2.18-11.11-2.26-3.67-.51-10.19,1-12.11,4Z"/><path class="cls-20" d="M304.19,168.24a24.82,24.82,0,0,1,6.68,2.61,33.76,33.76,0,0,0,5.23,1.46s-3.59.85-6.34,1.52c0-4.18-25.35-.78-26.6-1.61,0-.41,2.85-4.35,9-5A29.59,29.59,0,0,1,304.19,168.24Z"/><path class="cls-40" d="M286.36,172.87a1,1,0,0,1,0-1.85c2.56-1.21,8-2.88,16.23-.75,3.87,1,5.81,1.95,6.77,2.65a1,1,0,0,1-.09,1.73,30,30,0,0,1-6.31,1.6,20.25,20.25,0,0,1-3.87.25c-.41-.05-2.91-.46-5.14-1-2-.48-3.69-1.09-4.07-1.18A28.82,28.82,0,0,1,286.36,172.87Z"/><ellipse class="cls-35" cx="297.87" cy="172.7" rx="4.22" ry="3.64"/><ellipse class="cls-36" cx="297.88" cy="172.72" rx="2.72" ry="2.36"/><path class="cls-28" d="M283.23,172.12s3.23-6.46,15.52-3.88,12.8,3.44,16.59,3.91c0,0,.2.42-2.34.42s-11.18-2.23-11.18-2.23S291.8,167.43,283.23,172.12Z"/><path class="cls-38" d="M282.25,169.13s4.61-6.5,17.5-3.18,16.16,5,16.16,5"/><path class="cls-32" d="M293.41,169.44s-5.56,2-1.49,5.34a16.43,16.43,0,0,1-2.72-.58,14.68,14.68,0,0,1-2.37-1.07c-1.4-.83.82-2.73,1.85-3.14,0,0,.81-.06,2.3-.26S293.41,169.44,293.41,169.44Z"/><path class="cls-31" d="M289,170a13.85,13.85,0,0,0-2,1.72c-.37.54,1.12,2,1.12,2l-3.59-1.55s.7-1.09,1.34-1.34C288.4,169.86,289,170,289,170Z"/><ellipse class="cls-37" cx="299.95" cy="171.72" rx="0.7" ry="0.72"/><path class="cls-33" d="M299.87,182.71a1.8,1.8,0,0,0-.41,0C299.79,182.75,300,182.74,299.87,182.71Z"/><path class="cls-33" d="M298.45,148.1c-8.47-.27-21.82,3.52-23.42,9.53s-4.16,17.55.25,21.12c3.13,2.53,8.75,3.58,12.48,3.94a61.37,61.37,0,0,0,16.36-.29c8-1.55,13.36-4.17,11.85-4.46-.91-.17-5,1.61-11.43,2.34-6.83.78-11.16,1.46-17.32-.49s-10.71-4-10.29-11.64c.37-6.84,3.54-10.59,10.54-13.85a31.54,31.54,0,0,1,10.81-2A54.29,54.29,0,0,1,310.6,155a88,88,0,0,1,10.53,4.41c-5.28-.74-20.58-4.26-25.84-3.66-10.38,1.17-12.34,8.19-12.34,8.19s3.86-4.31,11.87-5.38c10.62-1.41,27.8,2.22,27.8,2.22s-.67-3.9-7.92-7.68C311.38,151.32,300.28,148.16,298.45,148.1Z"/><path class="cls-13" d="M310,173.74s-6.1,6.95-24.31-.56L283,171.77c-.27.46-.18,7.8,16.39,7.87,12.53.06,16.74-7.27,16.74-7.27Z"/><path class="cls-39" d="M286.89,174.68c0,.5,12,5,17.6,2.67,1.23-.5,4.5-2.39,4.5-2.39l-4.91,1.09a25.65,25.65,0,0,1-6.19.28,60.58,60.58,0,0,1-11.21-3.16l-3.31-1.24Z"/><path class="cls-23" d="M316,171.06c-1.26-.95-2.94-2.48-10.58-6.15s-22.6-1-22.6-1,12.42-3.45,19.8-1.92c13.4,2.77,16.54,7.78,18.88,9.08C320.72,171.76,316,171.06,316,171.06Z"/><path class="cls-34" d="M316.13,172.67a24.16,24.16,0,0,1-7.82,4.23c-5.1,1.56-16.65,1.11-20.71-1s-4.91-6-5.4-6.18a9.24,9.24,0,0,0,.91,3.57,10.78,10.78,0,0,0,6.15,5.46c5.26,2,16.14,1.59,20-.55C313.92,175.57,315.3,174.35,316.13,172.67Z"/><path class="cls-28" d="M280.35,159.39a22.68,22.68,0,0,1,23.07-8.47,38.86,38.86,0,0,1,17.75,8.42s-14.44-4.92-25.48-5.07S280.35,159.39,280.35,159.39Z"/><path class="cls-41" d="M282.21,195.22a99.18,99.18,0,0,1,6.05,10.58c2.59,5.4,3.89,2.38,6.27,8.21s5.4,5,5.4,5S288.05,198.89,282.21,195.22Z"/><path class="cls-41" d="M226.2,204s.09,4.3-5.21,6.68c-5.63,2.54-3.36,8.56-3.36,8.56s-.13-3.69,1.72-5.81c2.12-2.44,4.54-3.3,5.58-4.22C226.87,207.43,226.2,204,226.2,204Z"/><path class="cls-29" d="M281.9,194.52c2.69.07,8.46,6.77,12,11.77a35.21,35.21,0,0,1,2.74,5.24,44.28,44.28,0,0,0,2.72,4.56,4.89,4.89,0,0,1,.44.95,13.9,13.9,0,0,1,.48,2.3c-.13.46-1-1.13-1.68-1.56a7.7,7.7,0,0,1-.95-.75,41,41,0,0,1-4.26-4.58C288.29,206.22,281.31,196.09,281.9,194.52Z"/><path class="cls-9" d="M281.92,194.75c1.55,3.62,7.53,9.42,10.94,15.84a25,25,0,0,0,4.81,5.92c.93.84,2,2.14,2.15,1.89s-.48-1.48-.86-2A18.89,18.89,0,0,1,297,213.5a67,67,0,0,0-7.2-11.66C284.93,196,282.51,195.57,281.92,194.75Z"/><path class="cls-3" d="M269.48,159.82c.11-1.74,0-6.34,1.54-8.64,2.3-3.45,6.8-4.49,9.5-5.09a29.72,29.72,0,0,1-2.88,2.72s-1.77,6.57-2.11,7.82c-.68,2.47-1.27,5-2.12,7.38a13,13,0,0,1-1.91,2.86,26,26,0,0,0-.14-4.84C271.19,161.2,270.13,160.55,269.48,159.82Z"/><path class="cls-7" d="M336.27,185.77c-.86-3.64-.37-7,2.18-9.89Q337.37,180.83,336.27,185.77Z"/><path class="cls-7" d="M183.54,190.82l1.07.94Z"/><path class="cls-2" d="M170.63,216.25l-1.1,0Z"/><path class="cls-1" d="M328.22,158.69l-.15-12.58.36-.29,1-.06,0,.05c.29.35.58.69.86,1L329,158.75A2.84,2.84,0,0,1,328.22,158.69Z"/><path class="cls-9" d="M328.22,158.69a2.84,2.84,0,0,0,.82.06q-.69,4.11-1.4,8.21Z"/><path class="cls-42" d="M230.51.54a.68.68,0,0,1,.43-.49Z"/><path class="cls-21" d="M330.33,146.85c-.28-.35-.57-.69-.86-1C329.76,146.16,330.05,146.5,330.33,146.85Z"/><path class="cls-1" d="M218.24,213.94c1.53-2,6.92-3.8,7.63-7s2.39-4.31,2.39-4.31c.86,1.1-.56,5.48-1.36,6.52-2.49,3.24-6,3.33-7.27,5.77a11.07,11.07,0,0,0-1.32,4.76S216.72,216,218.24,213.94Z"/><path class="cls-7" d="M246.52,216.58a21.53,21.53,0,0,1-9.06-2.32c-4.18-2.83-5.21,0-6.92,2.44-1.64,6.29,19.09,4.48,26.8,4.11a9,9,0,0,0,1.93.45C262.37,221.71,251.71,216.84,246.52,216.58Z"/><path class="cls-5" d="M240.35,143l6.08,1"/><path class="cls-5" d="M187.67,188.31c3.12,3.54,6.45,9.93,6.8,11.46.61,2.62,3.88,9.47,4.7,13.7.32,1.69,1.44,4.05,1.08,5a11.89,11.89,0,0,1-2.5-.19c-1.32-2.75-5.11-14.53-8.37-20.71a21,21,0,0,0-4.23-5.72s1.86-3,1.86-4.24Z"/><path class="cls-6" d="M219.65,209.72s-3.58,2-3.66,3.87a55,55,0,0,0,.35,5.77s-2.22-4.27-1.76-6.26S219.65,209.72,219.65,209.72Z"/><path class="cls-6" d="M284.81,147.54c-3.54,1-7.33,2.49-8.31,5.3-1,3-6.4,19.59-8,18.68-.23-.13-.3-1.45-.28-3.66.07-5.36,2-14.66,1.79-14.73-.94-.39,6.92-9.55,6.38-10.89,3.21,1.25,27.39-2.82,28.51,1.28,5-1.19,9.16,1.45,13.54,3.29,1.49,1.09,3.2,2.48,3.2,2.48l-.36,4s-11.58-5.24-19.46-6.68A41.14,41.14,0,0,0,284.81,147.54Z"/><path class="cls-15" d="M296.65,111.63c10.31,13.2.35,15,10.66,22.37,3.51,2.68,7.86,11.65,2.31,9.1-5.28-2.43-19.95-1.35-23.77-.9-5.5.65-13.58,7.66-18.66,6.49-3.69-.85-11.37-7.86-17.56-9.9-11.77-3.89-21.92-5.69-23.51-8.37-3.2-5.4,1-15.27,10.95-22.4C249.16,99.36,286.34,98.44,296.65,111.63Z"/><path class="cls-11" d="M270.13,107.32s3.6-8.19,14.74-3.61,9.17,10.48,5.89,11.79,8.85,4.59,6.56,10.49-9.5,7.53-4.92,9.5-.65,6.55,4.26,6.55,15.36,1.63,18.32,4c1.21,1,3.6,1.76,4.31,2.4a4.17,4.17,0,0,1,1,1.34l-.26.82s-2.91-1.16-10.05-3.85c-5.87-2.22-14.17-2.16-19.47-2.49C286.12,144,284,144.05,277,146c-10.41,2.83-15.1-.14-17.2-2.48-3.27-3.67-14.91-6.65.45-6.84,7.27-.09-2.91-7.37-.94-13.59S270.13,107.32,270.13,107.32Z"/><path class="cls-6" d="M263.74,218.54s4.6-2.34,4.69-4.22,6.76,1.78,8.54-.47a14,14,0,0,1,4.88-4.41c2.72-1.69,2.63-3,2.63-3s9.2,11.55,11.45,12.77a9.43,9.43,0,0,1,3.47,4.13l-34-1S261.49,221,263.74,218.54Z"/><path class="cls-43" d="M451.1,495c-.12.32.37,6.31.15,7.3-.1.67-.19,1.34-.29,2-.25,1.3-.5,2.59-.74,3.89-.1.37-.19.74-.29,1.11-.25.92-.51,1.84-.76,2.76-.13.42-.25.84-.38,1.26-.2.6-.39,1.21-.59,1.82-2.44,7-4.6,14.19-7.38,21.09-3.71,9.2-7.86,18.22-11.89,27.29-2.28,5.13-5.45,9.39-10.93,11.66-1.28.53-2.3,2.2-3,3.56a29.76,29.76,0,0,0-3.32,14.88c.1,2.62-.33,5.26-.54,8.36H338.37c1.58-2.47,3.56-4,6.76-4,5.06-.24,10.77-4.25,12.37-7.73,5.67-7.28,6.74-15.49,4.95-24.29q-.52-2.88-1.07-5.76l-1-3.08c-.22-.6-.44-1.21-.65-1.82l-2.39-5q-2.93-3.55-5.83-7.12l-11.88-9.09-2-2-.05-.09-8.17-8.76c0-1,0-2,0-3l1.93-.25,3-.11c2.12-.2,18.82-1.44,24.77-3.68a14.61,14.61,0,0,1,4.31-1c8.24-.39,16.49-.62,24.73-1a48.21,48.21,0,0,0,6.23-1.12c3.85-.17,6.39-2,7.21-5.85.11-.09.32-.2.31-.27a4,4,0,0,0-.26-.68c-.1-.67-.21-1.33-.31-2l32,.95,5-1h3c1.07-.51,1.68-.85,2-1l1-.93c.31,0,.62-.05.94-.06,3.23.58,3.1-2.26,4.05-4,.06-.3.12-.61.16-.93.25,0,.74-3.44,1.34-3.4C450.9,494.36,451,494.69,451.1,495Z"/><path class="cls-44" d="M23.49,420.49c.14-6.27.11-12.56.47-18.82.33-5.63,1.11-11.22,1.64-16.83.21-2.14.81-4.43.31-6.42-1.51-6-.17-11.46,1.91-17,2.87-7.59,5.52-15.26,8.58-22.76,1.43-3.49,3.63-6.68,5.48-10,3.06.38,1.75,2.78,1.74,4.27-.08,14.78,1.63,29.65,1.44,44.43-.13,1.64.5,4.45.49,6.09C45.49,394.26,44,403.55,44,414.32c-6.62,1.55-14.41,3.69-20,8.09C23.74,421.43,23.61,421,23.49,420.49Z"/><path class="cls-20" d="M455.87,383.84c.08-2.18,1.48-1.72,1.57-3.9.24,0-.07-2.76.17-2.78s.73,1,1.18,2.65c1.81,19.33,2.83,38.69,1.14,58.06-1,11.53-2.55,23-3.86,34.52-.29,1.6-.58,3.2-.88,4.8l-.3,1.23-.76,3.59-.08.32a29.37,29.37,0,0,1-.88,3.5c-.34.89-3.38,11.72-3.89,12.55.49-9.66,6-105.67,6.17-108.36C455.48,389.34,455.84,384.52,455.87,383.84Z"/><path class="cls-43" d="M289.52,602c-88.86.38-177.74,0-266.6.13-8.85,0-9.39.27-13.14-7.28C-3.84,571.17,0,543.32,2.33,517.28,1.81,508-.59,498.9,2.09,489.62c8.42,2.1,8.9,14,12.73,20.68,2.52,9,12.56,11.05,18.32,16.84,8.09.77,16.85-2.9,21.6-8.74,4.73-.74,6-5.35,9.28-7.61,3.49,1,7.08,2.64,9.8-1.48.63-1.86,1.87-3.75,1.77-5.56-.5-10.35,29.28-9.92,36.05-9.2,21.28.71,34.08,1.55,55.3,3.3,9.15,5.21,20.13,10.48,30.73,9.32,3.77-.17,6.62,3.5,9.93,5.07,5.85,6.18,24.39,9.34,32.05,6.26,4.65.38,13.45,11,13.79,10.33,0,0,4.68,4.89,6.54,8.14,2.63,4.6,1.55,4.51,4.69,5,15,4.65,30.41,2.29,45.76,2.44,4.22.5,12.72-7.71,16.68-12,.64-3,1.66-6.05,2.3-9.06,1.57-.81,2.83.82,4.41,1.19,6.3,19.67-.69,18.87-9.08,33.56-7.6,2.87-5.78,5.89-11.27,10.27-7.62.81-15.68-.27-23,1.88-6.46.2-12.86,1.21-17.88-4.07C274,577,281.58,591.92,289.52,602Z"/><path class="cls-44" d="M275.44.92c-7.87,2.75-17.67-2.49-26.3-.19-9.58,2.05-14.25-3.8-26.26,1.71l-.07.05c-4.64,5.42-4.56,2.31-10.69,1.08-.11,0-10.46,0-7.63,2.55s-6,4.55-10.44,12.92a.21.21,0,0,0,.07.27,19.67,19.67,0,0,1,2.34,1.85c-6.05,1.65-13.05,8.64-8.57,13.76,1.84,2.1,1.71,5.93-3.81,4.5a.15.15,0,0,0-.19.1c-2.06,7.46.3,16.9-4.94,23t0,0c-5.51,4.05-6.14,16.68-6.15,16.69-5.19,3.11-5.12,16.87-5.12,16.87h0c-.5,11-3.19,21.76-3.75,32.76v.07c1.34,5.35,4.36,9.92,7.62,14.21l.18.07c3.18-.25,1.76,2.64,2.62,4.74a.22.22,0,0,0,.24.12c5.59-1.15,5.45,3.4,6.89,7.69v.1c-.93,4.13,4.94,2.78,7.61,3.74a.19.19,0,0,0,.27-.2c-2.75-36.62,26.52-36.75,2.67-47.7a.22.22,0,0,1,0-.36c3-2,8.68,3.58,7.42-2.62-1.38-4.84.31-8.15,4.53-10.73,2-1.51,6.59-9.07,15.62-13.31,9.54-4.47,23.55-5.61,25.35-6.18h0c4-.21,30,2,36.47,4.68h.08c3.21-.29,6,1.95,8.94,2.95h.08c.8,0,5.8-1.65,7.85,2.72l.14.12c5.16.77,10.38,1.28,12.74,7.16l.1.1c14.29,6.93,15.8,17.29,17.64,33a.19.19,0,0,1-.17.22s-1,11.54.68,16.35c2.53,9-4.51,19.76-.1,29.07a.21.21,0,0,0,.37,0c2.7-5.38,6.39-9.28,12.83-9.55a.21.21,0,0,0,.18-.15c.66-2.28,5-2.85,3.16-6.36a.2.2,0,0,1,0-.26c4.11-2.93,8.16-6.15,9-11.45a.21.21,0,0,0-.17-.24c-1.78-.37-2.8-1.2-2.06-3.33,3.74-7.87-7.6-16.91,1.26-22.76a.2.2,0,0,0,.08-.24c-1.58-4.46,2.82-8.45-.21-12.73l0-.1c-.55-6.62.66-13.63.75-20.35.69-5.8-2.56-6.72,1.76-12.34l0-.15c-.38-7.8-.62-12.64-4.1-18.43s0-.21-.13-.24c-2.13-.74-5,.82-5.61-2.38l0,0h-4.09a.2.2,0,0,1-.18-.29c2.07-4.07,5.61-7.86.58-9.88a.2.2,0,0,1-.1-.3c1.08-1.66,2.4-7.83,0-11.73S334.23,26.15,332.5,25l-.1,0c-3.5-.41-3.6-.66-1.62-4.27l0-.15c-.27-1.21-2.59-1.5-2.31-1.59-4-4.16-10-1.71-14.72-5.69-3.77-2.66-8.87-3.45-13.38-5.1l-.08-.06A11.29,11.29,0,0,0,293.6,4a.22.22,0,0,0-.22.1c-3.26,5.47-4.86,2.27-8.77.78a.2.2,0,0,0-.22.05c-3.38,3.6-5.33-2.55-8.78-4Z"/><path class="cls-45" d="M216.91,272.19l-.48-.21.43.21Z"/><path class="cls-45" d="M362.67,248.89l1.69-.24h0Z"/><path class="cls-45" d="M441.26,470.37c.66,2,1.33,4,2,6C445.2,473.5,444.36,471.56,441.26,470.37Z"/><path class="cls-45" d="M324.41,237.66h0a3.93,3.93,0,0,1-.59.44A3.93,3.93,0,0,0,324.41,237.66Z"/><path class="cls-46" d="M459.94,229.81a26.3,26.3,0,0,0-9.81-1.9c-13.24-.36-385.07-14.65-390.38-14.69,0,.51,0,1,0,1.54v1.84a26.62,26.62,0,0,1,8.54-1s255.1,21.48,307,70.71,70,216,70,216c3.23.58,3.17-2.4,4.12-4.14-.33-.34,8.59-124.55,8.85-127.69.34-9.32,2.44-44.39,2.93-52.62.52-8.57,3.35-67.16,3.91-78.2C465.31,235.61,463.64,231.4,459.94,229.81Zm-135.53,7.85a3.93,3.93,0,0,1-.59.44,3.93,3.93,0,0,0,.59-.44Zm38.26,11.23,1.69-.24h0Z"/><path class="cls-47" d="M444.3,502.42c.31,0,.62-.05.94-.06,0,0-2.71-4.92-7.74-13.3C439.74,493.52,442,498,444.3,502.42Z"/><path class="cls-48" d="M48.59,285c.3-4.13-.11-8.3.17-12.43.39-5.57,1.35-11.1,1.67-16.67.24-4.35-.21-8.75-.16-13.12.07-6.68-.07-13.39.62-20,.26-2.39,2-4.64,3.3-6.92.19-.33.37-.66.53-1v-1c-6.52,1.85-8.38,7-8.77,12.91-.44,6.61-.59,13.24-.71,19.87-.47,24.37-.81,48.75-1.39,73.12-.07,3-1.29,6-2,9,3.06.38,1.75,2.78,1.74,4.27-.08,14.78-.3,29.56-.49,44.34l1.06,0c.67-25.35,1.41-52.22,1.65-58.12C46.31,307.79,47.75,296.41,48.59,285Z"/><path class="cls-43" d="M271.8,369.18c-6.14-6.45-6.13-9.72-.47-17,1.46-1.87,1.24-3.22-.38-4.65a11.28,11.28,0,0,0-9.47-3c-1.7.51-3.37,1.11-5.08,1.5-2.5.56-5.17,1.6-6.91-1.49h-5c-6.89.12-13.11,5-13.87,11.56-1,9,1,17.33,7.26,24.26,2.89,3.21,6.77,4.27,10.78,2.4a8.67,8.67,0,0,1,7.55-.24c4.45,1.83,8.65,1.61,12.25-2l1-1,3-5C272.66,372.7,273.66,371.15,271.8,369.18Z"/><path class="cls-43" d="M260.47,341.56c1.95-2.56,4.42-5,2.28-8.73-4.77-.83-6.72,2.95-9.27,5.73-.31,1.4-.61,2.79-.92,4.2C255.74,344.67,258,342.61,260.47,341.56Z"/><path class="cls-49" d="M375.26,286.32c-51.91-49.23-307-70.71-307-70.71a26.62,26.62,0,0,0-8.54,1c-3,1-5.1,3.05-3.09,7.06,3.45,6.9,82.12,15,159.81,48.32l.48.21c22.93,9.86,45.76,21.9,66.53,36.77,73.43,52.55,133.4,145.66,154.06,180.1,5,8.38,7.74,13.3,7.74,13.3S427.18,335.55,375.26,286.32Z"/><path class="cls-50" d="M437.5,489.06C416.84,454.62,356.87,361.51,283.44,309c-20.77-14.87-43.6-26.91-66.53-36.77h0l-.43-.21c-77.69-33.29-156.36-41.42-159.81-48.32-2-4,.13-6,3.09-7.06,0-.62,0-2.76,0-3.37-.72,0-4.1.54-5,.61-.16.33-.33,1.67-.52,2-1.32,2.28-3,4.53-3.3,6.92-.69,6.62-.55,13.33-.62,20-.05,4.37.4,8.77.16,13.12-.32,5.57-1.28,11.1-1.67,16.67-.28,4.13.13,8.3-.17,12.43-.84,11.42-2.28,22.8-2.75,34.22-.24,5.9-1,32.77-1.65,58.12-.67,25.18-1.26,48.87-1.23,49s-.87,13.19-1.14,26.13c-.24,11.67.13,23.23.15,25,0,2.3.05,4.6.08,6.91,0,.23-.16,5,.73,6.84,1,2.16,5.67,4,5.92,4.07,10.19.72,20.37,1.42,30.56,2.18.41,0,.79.5,1.19.76,5.46-2.51,11.28-1.94,17-1.85,2.44,0,4.87.85,7.31.91,16.19.4,32.39.65,48.58,1.07,1.61,0,3.23.13,4.84.23l11.59.28a12.53,12.53,0,0,1,6.79.17l136.71,3.34c1.08,0,1.86,0,2.17-.06a43.76,43.76,0,0,1,10.51.37l22.75.55,7.63.19,41.32,1a3.36,3.36,0,0,1,1.66,0h.24l1.74-.13,32,.95,5-1h3l2-1,1-.93C442,498,439.74,493.52,437.5,489.06Zm-184-150.5c2.55-2.78,4.5-6.56,9.27-5.73,2.14,3.76-.33,6.17-2.28,8.73-2.45,1.05-4.73,3.11-7.91,1.2C252.87,341.35,253.17,340,253.48,338.56Zm16,40.94-1,1c-3.6,3.64-7.8,3.86-12.25,2a8.67,8.67,0,0,0-7.55.24c-4,1.87-7.89.81-10.78-2.4-6.23-6.93-8.3-15.24-7.26-24.26.76-6.57,7-11.44,13.87-11.56h5c1.74,3.09,4.41,2.05,6.91,1.49,1.71-.39,3.38-1,5.08-1.5a11.28,11.28,0,0,1,9.47,3c1.62,1.43,1.84,2.78.38,4.65-5.66,7.24-5.67,10.51.47,17,1.86,2,.86,3.52.66,5.33C271.21,376.75,269.46,379.5,269.46,379.5Z"/></g></g></g></svg>