<svg xmlns="http://www.w3.org/2000/svg" xmlns:xlink="http://www.w3.org/1999/xlink" viewBox="0 0 471.28 637.23"><defs><style>.cls-1,.cls-3,.cls-4{fill:none;}.cls-2{clip-path:url(#clip-path);}.cls-3{stroke:#000;stroke-width:4px;}.cls-3,.cls-4{stroke-miterlimit:10;}.cls-4{stroke:#808285;}</style><clipPath id="clip-path" transform="translate(1.17 -0.89)"><rect class="cls-1" x="251.39" width="239.89" height="646.32"/></clipPath></defs><g id="Layer_2" data-name="Layer 2"><g id="Coder_Me" data-name="Coder Me"><g class="cls-2"><g id="z5pwxw.tif"><path d="M21.85,506.55a.93.93,0,0,0,1.45.3l-1.12-.69c-1.54-1-3-2.05-4.87-2.32A11.59,11.59,0,0,0,21.85,506.55Zm158.66,16.2c0,.54.36.55.75.49.07,0,.13-.12.2-.18l-1-.26a11.71,11.71,0,0,0-6.75-2.23C175.92,521.47,177.88,523.13,180.51,522.75ZM198,136.19l-.11-1.81c-.59.85-.67,1.39.16,1.76a12.06,12.06,0,0,1,0,1.48c-.33,2,.81,3.18,2.47,3.12,1.44-.06,1.68-1.76,1.76-3.06.15-2.36-1.68-1.29-2.74-1.51A7.44,7.44,0,0,0,198,136.19Zm76.9,452.51c-.28-1-.78-1.67-1.89-1.34-1.59.47-.46,1.42-.25,2.12a69.69,69.69,0,0,0,6.07,14.32c.59,1,1.75,2,1.21,3.42-4.19-5.24-6.42-11.44-8.39-17.71-3.06-9.74-5.82-19.58-8.74-29.38-.27-.92-.53-2-1.94-1.77-2.24.39-2.19-1.13-2-2.57.23-2.12-.17-5.09-1.85-5.22-3.49-.27-4.73-2.47-6.41-4.73-.8-1.06-2.43-1.34-3.22-2.56,1.43-1,2.1,1.43,3.51.9-.78-1.44-2.5-1.92-2.87-3.52,1.5.24,2.37,1.41,3.44,2.3.44.37.82,1,1.5.75s.53-1.06.43-1.57c-.59-2.95,1-3.39,3.38-3.11a20.42,20.42,0,0,0,2.71,0c.1,2.29-.88,5,.33,6.8,3.36,5,6,10.85,12.3,13.2.18.07.44.2.46.33.39,3.38,3.18,2.17,5.05,2.58a26.3,26.3,0,0,0,4.18.37,193.65,193.65,0,0,0,27.82-.43c-2.24-2.71-5.63-3.32-7.36-5.94,2.84,0,4.18,3.14,7.15,3.55-4.2-5.61-6.33-11.59-4.63-18.37a13.4,13.4,0,0,0-.13-7.51c2.92,1.39,2,3.86,1.44,6-1.54,6.16-.92,11.86,2.71,17.2,2.52,3.72,3.4,4,6.1.17,1.77-2.51,4.28-2.92,6.18-2s2.64-.09,4.08-.63c-.55,2-2.61,2.45-2.93,4-.93,4.52-3.14,7.55-8.24,7.36.85,5,2.6,9.56,4,14.24.51,1.76,1.27,1.9,2.67.68-.11,1.7-1.73,2.49-.92,4.21,1.82,3.88,3.35,7.9,5,11.85.36.83.8,1.67,2,1.44,2.76-.55,2.84,1.12,2.74,3.13a35,35,0,0,0,.23,4.09c-.68-.74-1.71-1.82-2.46-.94-1.81,2.12-2.38-1.08-3.69-.62.15-2.85-2.57-4.37-3.19-6.86,1.94-.27,1.43,2.11,3.27,2.65.32-4.83-3-8.28-3.93-12.36-2.67,2.33-1.36,4.52-.11,6.83.46.84,1.6,1.66.8,2.91-.75-.28-.82-1.07-1.21-1.63-1.6-2.31-1.49-6.39-6-5.73-.43.07-.64-.43-.62-.85.08-1.81-1.23-1.5-2.27-1.45-3.39.16-6.8.28-10.18.64-1,.11-3.27-1.25-2.89,1.68.06.54-.63.22-.91.05-.72-.45-1-.57-1.34.51-.53,1.53-1.27,1.06-5.58,1.18-.12,0-.36-.51-.34-.76.1-1.51-.87-1.59-1.95-1.5a22.36,22.36,0,0,1-9.08-1.52A3,3,0,0,0,274.86,588.7Zm15.38-51.43c-.46-.81.44-1.74-.37-2.66-3.78,2.86-7.33,1.41-10.89-1.15.56,2.8,3.76,3.78,11.29,3.78-.75,1.19-1.94,1.17-3.14,1.21-1.61,0-3.09-.92-4.73-.59a.85.85,0,0,0-1.14-.48c-.06,0-.09.16-.13.24l1.31.19c2.61,2.69,6.21,3.76,9.32,5.64a1.91,1.91,0,0,0,2.55-.68c.7-1.85,0-3.89-.65-5.56S291.43,537.32,290.24,537.27ZM25.53,515.55c-2.17,1-1.62,2.36-.25,3.45a18.7,18.7,0,0,0,3.51,1.78c.93-.72-.06-1.69.65-2.32a4.55,4.55,0,0,0,4.06,2c1.66.05,3.36.71,3.48,2.89,0,.74.09,1.55.89,1.71,1.05.22,1.78-1.1,1.86-1.47.33-1.65,1-3.51-1.27-4.65a66.88,66.88,0,0,1-7.25-4.19,8.32,8.32,0,0,0-6.49-1.47C24.33,514.24,26.05,514.5,25.53,515.55Zm275.58,10.84-1.54,1.71c1.36,0,2.42.2,2.19,1.89s1.23,1.65,2.25,1.76c1.48.15,3,0,4.48.09s2.52-.23,2.26-2.07c-.18-1.32,0-2.42,1.81-2.21.57.07,1.25,0,1.15-.9s-.72-.84-1.32-.85c-1,0-2,0-3,0s-1.71-.18-1.68-1.45c.06-3.76-1.52-1.86-2.84-.79,0-1.19.6-2.5-1.3-3.09-2.87-.88-4.59,1.69-7,2-.11,0-.21.53-.19.81.11,1.52-.58,3.1.17,4.57C298.34,528,299.25,525.79,301.11,526.39Zm-98.29-3.64c-.52,2.85.94,4.78,4.05,4.79a38.56,38.56,0,0,1,8.24,1,20.81,20.81,0,0,0,3.88.23c.49,0,1-.08,1.2-.67s-.28-1.07-.81-1.39a6.44,6.44,0,0,0-3.72-.9,11.57,11.57,0,0,1-2.94-.24c-3.36-.74-6.1-3.71-9.94-2.74.94-1.5,3-.73,4.14-2a1.56,1.56,0,0,0-1.8-.27c-2.08.81-5.34,1.48-6.19-.27-1-2.06-2.14-2.18-3.58-2-3.49.38-7.32-1.78-10.49,1.48-.5.51-2,0-2.94.15a22.14,22.14,0,0,0-2.94.85c4,2.25,8.17,2.77,12.2,3.85.73.2,1.77.43,2.3-.22C196.17,521,199.52,522.08,202.82,522.75ZM253.45,533c1.92.34,3.43-1.19,5.62-1.4-1.62,2.21-4,1.94-6,3.07a85.57,85.57,0,0,0,15.82,3.74c2.17.28,3.76-1.25,3.53-3.83-.15-1.65-1.93-.74-3-1a4.71,4.71,0,0,0-1.5,0c-1.71.22-2.64-.23-2.42-2.23.21-1.81-1.14-2.23-2.61-2.63-2.13-.58-2.08,1.7-3.2,2.33-1.22-.53,1.08-2.09-.71-2.23-1.08-.08-2.41-.63-3.26.73-.71,1.17-1.48,2.3-2.23,3.44l-.33.25c.07,0,.18,0,.21,0A1.07,1.07,0,0,0,253.45,533Zm18.66,35a1.58,1.58,0,0,0,.86,1.32s.2-.13.19-.17a1.76,1.76,0,0,0-.9-1.29c-.27-1.18-.62-2.49-1.89-2.76-1.09-.23.15,1.27-1.08,1.57-.1-1.6-2.42-1.17-2.64-3-.08-.66-.75-.61-1.21-.43s-.26.6-.15,1q2.91,10.1,5.77,20.19a4,4,0,0,0,.52-1.89c.55-2.5,2.55-1,3.87-1.27,1.05-.25,2.44-.22,2.1,1.52-.66,3.44,1.53,4,4.13,4.82,3.88,1.24,6.55-.64,9.29-2.72,0,0-.31-.46-.48-.71.66-.38,1.08.2,1.62.33,1.85.45,2.82,2.94,4.69,2.62,4.2-.71,8.42-.22,12.6-.71,2.76-.33,4.39-1.89,3.7-4.56-.58-2.21.2-6.14-4.33-5.49a.8.8,0,0,1-1-.85,30.44,30.44,0,0,1,.14-4.78c.16-1.1,1.36-.94,2.24-1,.62-.08.65-.63.81-1.1a4.11,4.11,0,0,0-4.05-5.45c-10.8.29-21.61,1.13-32.39-.59-.52-.09-1.27-.31-1.6.36s.26,1.17.61,1.58c1.57,1.81,3.44,3.42,4.83,5.29,1.68,2.25,4.41,3.89,4.8,7l-3.6-3.33c-.62,1,.28,2.24-.3,3.67-1.11-1.84-2.72-1.28-4.18-1.38-.76-.05-1.86.15-1.68-1.07.39-2.54-.66-4.4-2.38-6.07-.25-.24-.77-.87,0-1.12C271.34,567.5,271.76,567.88,272.11,568.05ZM29.78,478.72c0,1.48,0,3,0,4.46,0,.83,0,1.64-1.18,1.59s-1.35.57-1.27,1.51c.06.6.39.83,1,.89A1.41,1.41,0,0,0,30,486c.72-2.46,2.4-4.93-.24-7.27-.47-.71.45-1.05.44-1.58-.06-1.88,1.23-4.68-.67-5.41-2.87-1.1-1.13-3-1.54-4.41-.48-1.67.69-2,2.07-1.92.82,0,.89-.65.89-1.27a20.66,20.66,0,0,0-.58-6.54c-.51-1.63-1.27-2.74-3.15-2.37s-4.27-1.19-5.4,2.07c-2.51,7.26-2.66,14.68-2.31,22.2.05,1.09.48,1.77,1.63,1.62,1.95-.26,2.29.9,2,2.34-.89,3.93.43,7.29,2.31,10.61.64,1.12,1.27,1.73,2.54,1.54.15,1-.45,2.2,1,2.73.12-1.76.12-1.76-1-2.69-.31-1.83-1.09-3.52-1.57-5.3-.57-2.12,1.21-5.38-2.55-6.24-.09,0,0-.56-.08-.86-.49-4.22-.33-4.4,4-4.53Zm366,41.35c0-.79.06-1.58,0-2.37-.14-1.47.75-1.8,1.85-1.53,1.39.33,3.85-1.19,4,1,.2,2.51,1.22,2.75,3.14,2.58.61-.06,1.17.05,1.27.89.18,1.51,1.32,1.49,2.48,1.52,6.22.18,12.45.55,18.67.5,1.94,0,5,1.73,5.73-2.07,0-.15.72-.21,1.1-.25,2.17-.21,4.34-.42,6.52-.61,2.63-.23,3.65-2,2.45-4.36-.55-1.07-1-2.16-1.51-3.26-.55-1.26-1.19-2.32-2.86-2s-1.85-.79-1.88-2.15c-.05-2.14.33-4.22-1-6.34-27.35-43.43-57.15-85-92.42-122.45-16.27-17.27-33.52-33.48-52.59-47.68a7.16,7.16,0,0,0-5.5-1.69c-2.18.29-3.25-.38-2.83-2.74.29-1.62-.95-2.21-2-3a322.78,322.78,0,0,0-45.28-25.94c-5.88-2.81-11.57-6.73-18.72-5.18-.91.19-1.66-.21-1.46-1.3.44-2.32-1.23-2.83-2.82-3.5A565.26,565.26,0,0,0,154.3,268c-16.42-4.87-32.94-9.37-49.69-12.95s-33-9-49.95-11.41c-1.3-.19-2,0-2.18,1.59a77.15,77.15,0,0,0-.42,10.53c0,.8-.07,1.59,1.14,1.69,2.25.18,1.18,2,1.19,3s1,2.63-1.23,3.07c-1.35.27-1.72,6.8-.45,7,2.58.32,1.64,2.05,1.74,3.33s.47,3.06-2,3.08c-.82,0-.83,1.3-.89,2-.21,2.5-.25,5-.44,7.51-.07.83.27,1,1,1.14,2.4.56.8,2.47,1.11,3.71.22.9.47,2-1.3,2.41-2.27.52-.88,2.9-1.51,4.34-.47,1.11.24,1.44,1.36,1.67s1.44,5.63.43,5.75c-3.17.38-2.34,2.75-2.51,4.52-.47,5.19-1.24,10.42-1,15.58.14,3-2.74,6.72,1.51,9.08.14.08.1.58.06.87-.22,1.86,1,4.23-2,5.13-.78.23-.39,1.45-.56,2.21-1,4.21.2,8.42-.33,12.72-1.43,11.58-.92,23.27-.23,34.92,0,.66-.19,1.81.55,1.84,2.74.09,1.88,2,1.93,3.45.08,2.31,0,4.62,0,6.93,0,.73.32,1.84-.93,1.82-1.94,0-1.64,1.38-1.69,2.51-.34,6.52-.63,13-1,19.56-.06,1.2.1,1.78,1.56,2.27,1.73.57.65,2.59.78,4,.07.82.63,1.95-.82,2.53s-3.12,4.55-2,5.27c2.74,1.75,1.73,4.24,1.54,6.29-.22,2.4,2.13,6-2.33,7-.1,0-.14.36-.18.56a19.94,19.94,0,0,0-.28,7.49c.36,2.11-2.48,5.15,1.55,6.38.16.05.26.8.14,1.14-.78,2.18,2.05,5.54-2.15,6.61-.11,0-.2.35-.2.53,0,2.11-.62,4.5.17,6.26,1.18,2.63,1.6,4.77-.07,7.23-.36.54-.27,1.34.64,2,2.4,1.72,2.29,5.34,0,7.37.55.79,2.34-.24,2.21,1.39-.22,2.67,1.94,4.89,1.28,7.65-.33,1.39.64,1.66,1.81,1.58s3.24-.07,3.37,1.16c.24,2.34,1.82,2.16,3.15,2.25,6.7.48,13.41.82,20.12,1.22.42,0,1,0,1-.43,0-2.65,2-1.88,3.19-1.73,4.62.58,9.22,1.24,13.78-.08,2.32-.67,4.62-1.85,7-1.09s4.56.38,6.84.5c.89,0,1.64.09,1.91-1.26s5.64-1.76,5.76-.56c.34,3.1,2.64,2.26,4.27,2.38,6.8.49,13.62,1,20.44,1.13,4.26.06,8.46.79,12.82.34,3.34-.35,7.28-1.77,10.45,1.17.11.11.65,0,.77-.18,2.16-3,4.58-2.08,7.35-.85a7.94,7.94,0,0,0,3.89.45c2.85-.3,5.68-1.18,8.6-.8.67.08,1.53-.14,1.53.94,0,2.11,1.48,1.54,2.55,1.28,4.93-1.24,9.94-1.09,15-1,.73,0,1.79-.29,1.79,1,0,1.85,1.32,1.39,2.33,1.41,6.63.09,13.26.19,19.89.2,1.56,0,3.81,1.08,3.89-2.07,0-.79,1.19-.4,1.83-.54,2-.44,3.71,1,5.52.84a33.1,33.1,0,0,1,7.77.06c.65.11,1.22.53,1.62-.57.5-1.39,4.49-2.17,5.72-1.28a23.42,23.42,0,0,0,8.17,2.77c8.62.08,17.25-.82,25.87.52,1.52.24,4.16,2.33,4.59-1.49,0-.11.55-.26.82-.22,2.5.37,4.64-.52,6.79-1.69a6.17,6.17,0,0,1,4.13-.32,46.64,46.64,0,0,1,8.63,3,10.4,10.4,0,0,0,5.34.66c2.1-.23,2.74,2.71,5,1.72,3.61-1.59,7.45-.93,11.21-.94.52,0,1.06,0,1.12-.68.15-1.59,1.37-1.22,2.27-1.17,4.48.28,9-.68,13.47.52,1.23.34,2.57-.14,2.54,1.92,0,.9.9,1.34,1.64.48s1.51-.3,2.21-.54c2.8-1,4.56,1.77,7.15,1.85,7.22.23,14.44.74,21.65,1.11.67,0,1.88.33,1.92-.3.14-2.26,1.55-2.15,3.1-2.05C392.75,519.23,394.3,518.72,395.77,520.07ZM58.6,237.49c1,.77,3,.13,2.52,2.48s.89,3,2.87,3.65c12.57,3.93,25.47,6.5,38.26,9.49,37.48,8.76,74.45,19.12,110.08,33.88a4,4,0,0,0,3,.2,11.57,11.57,0,0,1,5.64,0c1.17.27.27,2,.63,3s1.49,1.24,2.37,1.62a334.07,334.07,0,0,1,54.18,29.47c2.5,1.7,4.92,3,8,2.51,1.9-.32,2.59.54,2.28,2.34s.57,2.67,1.91,3.66a355.92,355.92,0,0,1,36.88,31.38,609.91,609.91,0,0,1,62.19,71.08q25.44,33.74,47.75,69.57c.74,1.19,1.08,2.83,3.17,2.33,2.32-.55,2.82.86,2.45,2.73-.76,3.86,1.33,6.64,3.35,9.63.68-1.39-.23-2.45-.25-3.59-.09-7-2.6-13.6-3.72-20.43-.05-.29-.16-.77-.31-.79-2.39-.44-1.09-2.36-1.49-3.6-.66-2.07,1.63-3.3,1.21-5.49-2.35-12.23-4.65-24.46-7.17-36.66-5.29-25.6-11.75-50.87-20.68-75.44-7.83-21.58-16.82-42.61-31.71-60.53-1.62-1.95-3.11-3.64-5.94-3.08-1.56.3-2.29-.41-2-2,.41-2.35-.87-3.7-2.63-4.92a127.88,127.88,0,0,0-15.75-9.33C340.45,283,324.3,277.84,308,273.16c-20.48-5.89-41.27-10.53-62.18-14.68Q215,252.38,184,247.84c-13.53-2-27-4.22-40.63-5.68-10.62-1.14-21.19-2.8-31.81-4-11.42-1.33-22.87-2.48-34.32-3.53-1.65-.15-3.79-1.35-5.08,1.4-.57,1.21-5,.11-5.58-1.31a1.2,1.2,0,0,0-1.37-.79.94.94,0,0,0-1,1.19c.38,2.44-1.07,2.57-2.87,2.41C60.4,237.43,59.49,237.49,58.6,237.49ZM459.42,391.68c-1-.48-2.44-.23-2.14-1.86s-.84-4,.69-4.31c2.62-.57,2.17-2.26,2.26-3.79.83-13.62,1.59-27.25,2.37-40.88,0-1,.33-1.93-1.29-2.11-1-.12-1.57-5.61-.63-5.73,3.77-.49,2.44-3.39,2.56-5.32.62-9.92,1-19.85,1.49-29.78q.82-17.61,1.56-35.22c0-1,.35-2-1.39-2.38s-.81-2.32-.93-3.55c-.08-.79-.72-2.25.94-2.33s1.16-1,.92-2c-.57-2.41-2.45-1.66-3.9-1.65-1.76,0-3.28,0-2.86-2.42.16-1-.49-1.52-1.35-1.67s-1.8-.62-2.37.89c-.45,1.17-5.67,1.1-5.75.08-.15-2.23-1.61-1.92-3-2-7.42-.34-14.84-.71-22.27-1-13.75-.48-27.5-.85-41.25-1.32-7-.24-14.05-.65-21.07-.92q-19.41-.74-38.84-1.38c-.72,0-1.49-.24-2.17.55-1.5,1.71-4.25,1.65-6.23.31a5.4,5.4,0,0,0-5.63-.47c-2,1.11-6.17,1.86-8,1.05a19.68,19.68,0,0,0-7.23-2.07c-12.34-.41-24.7-.6-37-1.39-5.5-.35-11-.56-16.52-.78-4.14-.17-8.91-2.31-12.68,1.55-.05.06-.2,0-.3,0-2.11,0-4.22,0-6.33,0-.49,0-1.25,0-1.26-.5,0-2.78-2.1-1.74-3.46-1.93a20.09,20.09,0,0,0-4.49-.34c-2,.19-4.91-2.09-5.74,1.87,0,.17-.71.28-1.08.29a26.49,26.49,0,0,1-5.71-.12c-1-.21-2.85.14-3-1.21-.28-2.11-1.64-1.77-2.82-1.64-6.75.74-13.55-2-20.31.52-3.64,1.37-6.71-1.78-10.39-1.86-18.77-.39-37.54-1.12-56.3-1.79-7.43-.27-14.85-.76-22.27-1-3.81-.14-7.62,0-11.43,0l0,.76c2.49.32,5,.73,7.48,1,11.46,1,22.9,2.17,34.32,3.58,15.76,1.94,31.55,3.63,47.25,6,14.2,2.18,28.48,3.85,42.65,6.23,19.94,3.35,39.84,7,59.61,11.29,23.27,5.09,46.33,10.94,68.81,18.82,13.32,4.67,26.29,10.17,37.95,18.3,2.33,1.62,4.49,3.29,7.57,2.72,1.62-.3,1.85.75,1.7,2a6.49,6.49,0,0,0,1.93,5.36,120.94,120.94,0,0,1,14.43,20.65c11.32,20.12,19.18,41.64,25.84,63.64,9,29.71,15.16,60.07,20.44,90.62.27,1.53.48,2.49,2.25,2.29,1.58-.18,1.41.93,1.46,1.95.07,1.28-.42,2.7.42,3.82,2.24,3,2,4.94-.94,6.33-.92.43-.75,1.14-.67,1.76.83,5.88,1.7,11.75,2.57,17.63.39-1,.15-2.26.67-2.93,2.6-3.36,2.74-7.23,2.94-11.21.66-13.13,1.47-26.25,2.24-39.38.53-9.22,1.11-18.43,1.63-27.65.3-5.42.54-10.83.75-16.25,0-.86.53-2.2-1.17-2.2-1.34,0-2.72.15-2.44-1.92.18-1.28-.59-3.29.34-3.72,2-.92,1.56-2.36,1.43-3.68-.22-2.17.44-3.25,2.86-2.92-1.9-.7-3.43-5.08-1.92-6,2.22-1.31,1.54-3,1.45-4.58C456.48,392.37,457.24,391.54,459.42,391.68ZM411.29,609.26c3.29-.3,1.91-2.94,2.24-4.37.37-1.62,1.57-3.15.63-5.24-.72-1.61-.86-5.37.32-5.35,3.49.09,1.54-3.27,3.23-3.92a2.38,2.38,0,0,1,.89-.06,33.56,33.56,0,0,1,3.62,0c2.83.32,6.06-3.15,5.65-5.93a12.47,12.47,0,0,1,.09-5.06c.33-1.13,2-.33,3-.57s1.11-1.11,1.42-1.79q3.9-8.61,7.69-17.27c.26-.61.83-1.15.17-2.1-1.07-1.56-.63-3.53-.32-5.21.26-1.42,1.91-.42,2.87-.77a2,2,0,0,0,1.13-1.65c1.22-5.25,5-9.88,3.18-15.89-1.1-3.61,2.25-6.81,2-10.73-1.79.85-2.81,2.54-4.88,2.43a40.16,40.16,0,0,0-6.83.41c-1.68.2-4.58,1.72-5.15-1.93,0-.18-.89-.31-1.37-.32-7.33-.22-14.66-.36-22-.66-1.93-.08-2.56.6-2.29,2.4.45,3-3.67,4.43-2.73,7.64a6.9,6.9,0,0,0-2,.29c-3,1.47-7.29-1.38-9.55,2.79-.16.3-1.14.11-1.73.21-1.82.31-3.68-1.1-5.13-.73-10.15,2.6-20.49,2.39-30.81,2.51a35.74,35.74,0,0,0-7.8.57c-.61.15-1.73-.2-1.64.82.25,2.63-1.49,2.24-3.07,2.26-1.88,0-3.36-.67-4,2.69s.5,2.71,2.3,2.7c2.68,0,3.72,1.63,4.09,4,.12.76-.3,1.72.53,2.22,3,1.82,5.13,5.32,9.34,4.68,1.67-.25,2.46.38,2.2,2.14-.45,3,.75,4.33,3.85,3.93.87-.12,2.19-.46,2.16,1.21a13.65,13.65,0,0,0,1.62,6c1.81,4.1,2.5,8.72,3.33,13.22.36,1.9-1.89,2.3-1.37,3.88,1.17,3.53,1,7.27,1.79,10.88.85,4.08-.54,6.22-4.25,7-.87.19-1.17.31-.77,1.33a14.94,14.94,0,0,1,.28,3s-10.12,4.42-19.43,3.48c-.7-.07-.59-.88-1.16-1.13-2.16-1-4.31-2-6.41-3.1-.64-.33-1.86-.43-1.37-1.75,2.6,1.25,5.18,2.52,7.8,3.72.53.24,1,.81,1.81,0,2.18-2.27,5.26-1.79,7,1.31,0-2.34,1.11-2.93,3-2.66.76.11,2.09.45,2-1-.07-1.61,1-4.19-.62-4.64-2.22-.63-4.84-1.1-7.29-.08-1.62.67-3.34.37-5,.25s-.64-1.6-.93-2.43-1-.87-1.56-1.26c-1.43-1-3.32-1.35-4.43-2.88,2.33-.45,3.63,2,5.95,2.19-.91-2.08-4.23-2-3.92-4.79,2.27,2.34,4.87,3.8,8.29,3.23.55-.1,1.51-.2,1.59.43.51,4.25,4,2.47,6.24,3.14.53.15,1.58.15,1.58-.43,0-2.75,2-1.92,3.42-1.93a4.4,4.4,0,0,0,4.28-3.7,26.72,26.72,0,0,0,0-9.91c-1.95,2.17-2.26,5-5,6.65.8-2.64,3.3-4,2.65-6.18s-.34-4.45-1.32-6.72c-.7-1.64-2.25-3.32-2-5.25.31-2.35-.66-3.56-2.52-4.75a6.25,6.25,0,0,0-5.95-.65c-2.28.89-2.47,3.18-2.72,5.31-.06.59.05,1.05.7,1,1.58-.15,2.17.51,2,2.06-.14,1.19.24,3.25-.23,3.45-4.3,1.82-1.94,5-1.54,7.49.93,5.82,4.27,7.43,9.59,5,.1-.05.31.14.47.22-3.11,3.32-6.85,3.14-9.19-.54a29,29,0,0,1-2.28-5.49c-.84-2.17,1.23-5.68-2.72-6.55-.11,0-.22-.58-.14-.83.56-1.68-1.61-4.39,1.93-5,.58-.09.39-1,.47-1.62.66-4.69,2.73-6.64,7.21-5.83,2.89.52,2.5-.94,2.41-2.61-.06-1.24-.77-1.91-2-1.71-3,.53-3.94-.83-3.47-3.61a1.37,1.37,0,0,0-.46-1.36c-2.92-2.44-5.78-4.91-10.09-4.15-1.17.2-1.37.61-1.53,1.65-.52,3.28-1.61,6.34-4.18,8.65-.59-1.29.64-1.92,1.08-2.81,1-2.06,2.14-4.07,1.94-6.46-.07-.77.62-1.94-.82-2.15-1.08-.16-2.07-.19-2.82,1a33,33,0,0,0-4.83,15.68c1.2.22,1.14-1.8,2.45-1.08-.69,1.69-1.87,3-1.92,5.14-.17,8,3.41,14.33,8.16,20.26-1.83.16-2.28-1.88-3.83-2.52v3.68a4.63,4.63,0,0,0-3.81-1.22c-2,.37-2.51-.66-2.23-2.38a20.1,20.1,0,0,0-1-10.15c-1.18-3.37-2-4-5.2-2.88a30.09,30.09,0,0,0,4.19-11.62c.4-3.64.88-7.31,3.2-10.38.79,1.18-.24,2-.58,3-1.9,5.12-2.37,9.52-1.2,12.67.21-.24.51-.42.53-.63.51-5.78,1.47-11.4,4.29-16.62,1.22-2.26-1.12-.08-1.29-.81l1.27-1.8a3.05,3.05,0,0,0,1.86-3.1c0-1.17-.87-2.92,1.58-3.06.76,0,0-.69-.18-1-.58-1.14-2.29,0-2.75-1.37a6.38,6.38,0,0,0-1.45.95,2.34,2.34,0,0,0-.45,1.29c2.88,1.61.64,4.34,1.44,6.38-2,0-4.09-.25-6.2.32,0-.85.07-1.53.11-2.21.09-2-.93-4.7,2.83-4.34.21,0,.58-.5.67-.83a.57.57,0,0,0-.66-.74c-1.81.49-2.94-1.29-4.62-1.3-3.36,0-1.42-2.59-1.79-4-.49-1.81.67-2.08,2.23-2.09s4.14,1.05,3.84-2.33c0-.42.46-.67.87-.61,2.22.32,2.09-1.12,2.08-2.6a3.24,3.24,0,0,1,.43-2.24c1.05-1.4.2-5.15-1.18-6.08-.29-.2-.58-.56-1-.1-2,2.45-4.19,1.7-6.49.4-.62-.35-1.91-.53-2.27-.16-1.4,1.4-3.06,1-4.68,1.13-.47,0-1.1,0-1.07.67,0,.35.18.88.44,1,2.7,1.33,1.24,3.74,1.06,5.45-.15,1.41-2.22.52-3.42.68a9.17,9.17,0,0,1-2.63-.33c-1.9-.34-3.91-.81-5.76.36-2-.79-3.76,1-5.55.52a3,3,0,0,0-3.7,2.76c.3,2.09-.17,4.94,1.8,6.15a2.38,2.38,0,0,1,1.41,2.4c.07,2.76-1.53,5.61.43,8.27-1.17-1.46-2.29-4.08-3.52-4.14-3-.13-3.14-1.56-3-3.74a1.3,1.3,0,0,0-.59-1c-4.27-2.4-8.56-4.77-13.4-7.45.86,3.77-.76,4.35-3.27,4-1-.13-1.94-.24-2.91-.43-4.29-.8-8.63-1.34-12.95-2a39,39,0,0,0-14.88-2.46c-.18,1,1,1.07,1,1.83-1,.59-2.2,1.1-.5,2.31.39.28,1.12.59.49,1.32a20,20,0,0,1-2-1.22c-1.36-1.05-2.94-.71-4.34-.47s-.76,1.81-.82,2.77c-.1,1.91-1.54,1.44-2.41,1.26-1.23-.26-3.4,1.3-3.57-1.22-.12-1.79-.81-1.89-2.31-2.5-2.44-1-5.18-.47-7.53-2.13-1.2-.85-3.07-2.3-5.24-.35-1.6,1.44-5.57,0-5.46-1.48.17-2.52-1.13-3.17-3.25-3.1-1.26,0-2,0-2.38-1.75-.52-2.63-3.78-3.77-6.24-2.64-2,.93-5.36-.08-6.29-2.07-.5-1.07-1.32-.72-2-.77a54,54,0,0,1-17.94-4.48,24.26,24.26,0,0,0-12.26-2.17h-.31c-2.61,0-5.22,0-7.83,0-.64,0-1.7.31-1.71-.68,0-2.35-1.72-1.78-3-1.83-11.14-.38-22.29-.82-33.44-1-2.12,0-5.3-1.89-6.29,2.08,0,.1-.35.12-.54.18a4.37,4.37,0,0,1-5.68-2.8,4,4,0,0,1-6.7-.13,1.2,1.2,0,0,0-1.19-.64c-2,0-4,0-6,.17-.71.06-1.83.17-1.72,1.28.36,3.72-2.53,2.89-4.52,3.36-.9.21-2.79-.34-2.57.62.75,3.24-2.62,5.27-2.05,8.34.16.83.24,1.86-1.19,1.9-3.67.1-7.17.08-10.85,1.58s-5.93,2.84-6,7.06a3.41,3.41,0,0,1-1.56,3.16c-1.43,1.13-2.36,2.32-4.33,2.14-.45,0-.71.37-.69.8.08,2-1.5,1.72-2.51,1.49a20.74,20.74,0,0,0-10.41,0c-.85.24-1.64.17-2.21,1.18-1.14,2.08-5.39,1.68-6.72-.33a12.45,12.45,0,0,0-3.25-3.18c-1.86-1.3-5.31-.91-4.62-4.76.13-.71-.71-.79-1.35-.77-.8,0-1.61,0-2.4.06-2.38.29-4-.15-3.4-3.11.15-.74.17-1.87-1.05-1.68-3.05.46-2.54-1.6-2.54-3.36,0-1.51.08-3,0-4.53-.15-2.75-1.44-5.15-2.54-7.61-3.4.81-3.2-2.25-4.33-3.94-.61-.93,0-2-.62-2.88-.36-.52-.43-1.41-1.44-1.2-.85.18-.59.89-.72,1.42C2,517.31,3,522.4,3.62,527.45c.21,1.85-1.28,5.27,2.87,5.2a1,1,0,0,1,.3.76c-.69,1.74,2,4.92-2.24,5.19-.9.06-.67,1.1-.73,1.76C2.73,552.66,1.51,565,2,577.32a83,83,0,0,0,6.81,30.57c.62,1.42,1.25,2.76,3.25,2.35,1.57-.33,2.19.42,2,2-.14,1.29-.07,2.6-.23,3.88-.29,2.3,1.3,3,3,3.26,1.52.27,3.39,1.85,4.48-.79.53-1.3,5.66-1.74,5.81-.53.28,2.25,1.67,1.81,3,1.81l.77,1.25c-1.42,0-3.45-1-3.79,1.92-.13,1.14-5.41.52-5.74-.81-.28-1.13-.89-1.07-1.71-1.16-2.94-.33-5.8-.83-7.18-4a1.42,1.42,0,0,0-1.74-.8c-2.39.42-3.11-.73-2.69-2.85C9.12,608,5.7,603.75,4.36,599,.86,586.44.27,573.7,1.12,560.84c.44-6.81,1.07-13.6,1.6-20.4,0-.57.31-1.14-.16-1.7-2.44-2.89-2.46-4-.14-6.52.51-.55.27-1.12.24-1.69-.34-6.09-1.41-12.16-.67-18.3.06-.53.16-1.11-.61-1.49C-1.57,509.26-1,506.48-1,503.92c0-1.69,1.7-.6,2.19-1.42-3.06-2.71-1.38-6.28-1.38-9.46,0-1.81.27-3.29-.5-5.22-.9-2.26-.26-5.13-.25-7.74a.68.68,0,0,1,.8-.69c3.27.48,2.94-2,3.38-4,.5-2.24,1.2-4.46,1.49-6.72.18-1.41,1.92-3.16-.71-4.42-.54-.26-.11-2.46-.22-3.75-.2-2.27,1.46-1.64,2.62-1.71s1.23-.83,1.64-1.52c1-1.76,1.8-3.73,3.52-5.1.15.29.33.5.28.6-1.83,3.61-1.85,3.61-2,9.81,0,1.25.13,2.5-1.78,2.27-1.33-.16-1.63.74-1.86,1.84-.72,3.41-1.36,6.86-2.37,10.2C3.35,478.64,5,479.3,5,480.59c.07,2,0,4,0,6,0,.8-.08,1.72,1.11,1.73.58,0,1.4.06,1.7-.28.83-.91-.6-1.26-.67-1.76-.22-1.74-1.85-2.84-1.65-4.85s0-3.55,2.89-3.47c2,.06,2.25-2,2-3.68-.46-3,1.31-2.76,3.37-2.88,2.39-.15,3.15.79,2.68,2.9-.36,1.61,1.3,3.84-1.56,4.79-.6.2-.08,1.53.38,2.16.61.85,1.34.27,2.11,0s1.19-.44,1.1-1.56a59.09,59.09,0,0,1,1-17.94,24,24,0,0,1,3-8.09,4.77,4.77,0,0,0,.57-1.33c.27-1-.59-2.61.59-3,1.36-.46,3-.15,4.48-.16.41,0,1,.17.89.6-.63,4.13,3.43,7.09,2.86,11.1-.48,3.4,2.89,5.71,2.2,9.17-.19,1,3.73,3,4.63,2.59.35-.16,1-.41,1-.55-.48-3.94,4.6-6,3.39-10.3-.55-2-.08-4.2,0-6.31,0-1,.29-2-1.25-2.21-.9-.14-.59-1.15-.6-1.79,0-2.21-.11-4.43,0-6.64.09-1.44-.88-3.15,1.89-3.89,1.23-.33,1.07-3.55.34-5.21a2.6,2.6,0,0,0-3.6-1.34c-2.38,1-4.94,1.57-7.32,2.63s-4.58,2-4,5.3c.31,1.85-1.34,1.56-2.26,1.36-3.58-.78-6-.43-5,4.19.23,1.1-.61,1.39-1.51,1.27-2.85-.38-5.34.2-7.08,3.1-.55-1.74.55-2.28,1.18-2.86A3.62,3.62,0,0,0,15.26,446c-.33-2.13.3-3.21,2.7-2.86,2.86.41,4-1.05,4-3.83,0-1.61-1.15-4.05,2-4.2l.64-12.18c-3.43-.38-1.79-3-2.09-4.79-.08-.43.13-1.26.38-1.33,1-.31,2.21-.07,2.25-1.76.07-2.9.8-5.91.2-8.65-.19-.87-1.64-2-1.72-3.67-.1-2.12.3-3.48,3-3.09-.84-.81-2.55,0-2.29-1.71s-.88-3.49.71-4.71c.59-.46,1.11-.68,1.07-1.49-.16-2.82.75-5.6.7-8.31,0-1.71-.64-3.63-.7-5.51,0-1,.13-1.89,1.42-1.68,2,.33,2.57-.83,3.08-2.43.77-2.38,1.76-4.68,2.66-7,1.37-3.59,2.7-7.13,1.34-11.1-.54-1.57.1-2.59,2.15-2.44,2.78.2,3.4-1.68,3.29-4-.05-1.2,0-2.41-.08-3.61s.16-2,1.75-2c2.46,0,2.31-1.4,1.23-3A5,5,0,0,1,44,334.37c.91-.66.82-1.53.84-2.42q.59-31.2,1.16-62.39c0-1.29.24-2.45-1.79-2.72-1.25-.16-.87-5.5.48-5.75,1.59-.29,1.29-1.25,1.3-2.19a68.75,68.75,0,0,1,.49-9.62c.09-.65.42-1.8-.3-1.91-3.61-.54-1.45-3.25-2-4.92-.16-.54,0-1.43.8-1.28,2.37.41,2.53-1.49,3.08-2.86a12.05,12.05,0,0,1,3.54-5.14c.23-.18.63-.38.65-.6.65-6.29,5.75-3.94,9.2-4.69,1.15-.25,2.68-.52,2.71,1.65,0,1.14,1.18.81,1.92.85l33.61,1.37q19.11.76,38.23,1.51,13.71.53,27.4,1c1,0,2.56.83,2.38-1.11-.24-2.6,1.37-2.57,3-2.26s4.67-1.61,4.35,2.38c-.1,1.16.72,1.25,1.57,1.28,6,.24,12.05.68,18.06.59,1.84,0,2.59-2.35,2.07-4-1.25-3.89-2.86-7.67-4.4-11.47-.27-.67-.52-1.59-1.61-1.49-1.81.15-3.4.14-3.2-2.47,0-.68-1-.58-1.51-.54-1.31.1-2.09-.17-2-1.76s-1.37-1.67-2.51-1.87c-1.9-.35-3.41-.92-2.92-3.39.18-.93.29-2.12-1.33-2.06-1,0-1-.73-1-1.45,0-1.13.15-2.2-1.58-2.23-1.21,0-.76-1.18-.83-1.89-.28-3.11,1-6.12.6-9.23-.07-.53.8-1.46-.56-1.45-1.1,0-2.16-.07-1.83-1.55.36-1.64-1.23-3.87,1.39-4.86-2.41-.41-4.07-3.89-2.29-5.94a3.16,3.16,0,0,0,.12-4.27c-3.36-3.69-2.85-8.08-2.85-12.41,0-1.88-.3-3.38-2.63-3.58-1.11-.1-2.85.7-3.22-.62a7,7,0,0,1,.22-5.23c.3-.54.7-.92.42-1.5-1.85-3.85-.6-7.75-.19-11.64,0-.27.25-.75.36-.75,3.61.19,2.5-2.67,2.75-4.44.72-5,1.25-9.94,1.83-14.91.09-.74.39-1.48-.78-1.91-2.31-.83-.81-2.88-1.16-4.35-.31-1.29.43-1.77,1.68-1.74.92,0,1.21-.75,1.19-1.44-.12-4.87,3.25-9.09,2.55-14.06-.07-.47,0-1.26.55-1.2,3.1.33,2.48-2.24,2.9-3.79,1.06-3.9,3.28-7.57,2.58-11.87-.22-1.34.78-1.49,1.73-1.34,2.69.4,3.51-1,3.73-3.41.26-2.89.94-5.76,1-8.65.06-1.79,1.24-4-1.42-5.41-.63-.33-.24-2.63-.25-4,0-2.35,1.81-1.23,2.87-1.42.79-.14,1.26-.26,1.34-1.2.37-4.67,2-8.64,5.82-11.71,1.32-1.06.08-3.13.12-4.73.05-2,.23-3.38,2.72-2.9a3,3,0,0,0,3.07-1.41A5.19,5.19,0,0,1,201,29.37c.34,1.52-1.21,1.79-1.79,2.7-.76,1.17-1.41,2.72.15,3.21,3.39,1.07,1.35,3.54,1.47,5.21s-1.87.67-2.88,1a4.44,4.44,0,0,1-1.5,0,7.12,7.12,0,0,0-7.62,5.6c-.37,1.52-.16,2.42,1.59,2.22s2.2.56,2.17,2.22c0,3-3.24,7.37-6.21,8-.95.22-1.06.71-1.07,1.46-.08,6.6-2.11,13-1.76,19.66.1,2.06-.64,2.63-2.56,2.46-1.12-.1-2.51-.44-3.1,1.09a28,28,0,0,0-2.2,7.13c-.08.78-.27,1.47.93,2.12,1.9,1,.76,3.23.76,4.87s-1.66.86-2.6,1c-1.12.18-2.41-.35-3,1.28a54.46,54.46,0,0,0-2,8.44c-.19,1.09.5,1.08,1.23,1.17,1.65.19,1,1.53,1,2.35,0,1.2.72,3.34-.61,3.44-3,.24-2.2,2.15-2.38,3.8-.27,2.49-.52,5-1,7.44-1.16,6.39-1.19,6.4.92,10.7a1,1,0,0,1,0,.3A59,59,0,0,1,168,149.83c.86.74,3.21-.81,2.87,1.78-.44,3.26,1.74,2.94,3.52,2.51a31.82,31.82,0,0,1,4.42-.5c1.8-.18,2.61.38,2.37,2.31-.18,1.49-.3,3.22,1.09,4.15,2.72,1.81,3.34,5,5.2,7.35.37.47.71,1,1.1,1.43s1.25.54,1.3.25c.3-1.67,1.29-3.65.35-5-1.82-2.69-1.81-4.66.84-6.34a1.89,1.89,0,0,0,.81-1.52c.41-3.95,2.59-7.54,2.09-11.73-.14-1.13-.1-3.85,1.12-3.88,3.62-.11,1.9-2.22,1.69-3.64-.3-2.17-2.83-5.11-4.34-5-2,.16-2.31-.72-2.28-2.44,0-2-.35-4.1,2.79-3.85.45,0,.94-.56,1.68-1-3-.89-1.8-3.15-2-4.91-.07-.62-.2-1.77.78-1.59,2.4.43,4.23-1.08,6.35-1.55-1.43,1.22-1.14,2.89-1.1,4.46,0,.61-.37,1.54.64,1.71s1.05-.63,1.18-1.36a8.5,8.5,0,0,1,1.63-3.48,4,4,0,0,0,.14-4.72c-.2-1.65,1.56-2,2.12-3.1.06,1.32.65,2.59,2,1.76s3.13-1.08,4-2.64l.54.59c.4,2,1.51.84,2.36.48s1.22-1.39,2.27-.71c-1.84,1.4-2.94,3.1-2.43,5.56.26,1.28-.39,1.74-1.69,1.71-3-.08-4.77,1.56-6,4.12-2,4.15-1.24,8.37-.48,12.6a1.57,1.57,0,0,0,2,1.35c1-.1,1.54.34,1.41,1.37-.2,1.52.6,4.28-.52,4.34-2.63.13-3.36,2.17-4.91,3.35-.81-1.24.82-1.76.82-3.08-2.61.43-3,2.24-3.2,4.31,1.11-.12,1.11-1.84,2.41-1.26-2.44,3.36-4.68,6.77-3.66,11.28.17.73-.09,1.49-1.07,1.38-3.13-.36-2.91,2-3.1,3.88a12.42,12.42,0,0,1-.86,4.29c-1.65,3.51-.34,6.87,3,8.91a1.54,1.54,0,0,1,.84,1.77c-.54,1.66,1.71,4.47-2,4.89-.13,0-.37.6-.29.71,1.39,1.81-.1,4.07,1.24,6.22.88,1.41,2,4.87-1.44,6.23a.82.82,0,0,0-.51,1c.43,2.65-1.52,4.77-1.67,7.22-.16,2.62-1,5.42.6,7.87,1.44,2.2,3.47,4.08,5,6.09s-.16,5.63.81,8.47a5.89,5.89,0,0,1,.1,1.2c.22,1.48.61,2.77,2.57,2.49,1.07-.16,1.67.21,1.66,1.46,0,1.84-.68,4.1,2.29,4.42.39,3.7,3.23,1.42,4.89,1.92a13.59,13.59,0,0,0,4.19.28c1.66,0,4.16,1.87,4.49-1.73,0-.13.58-.36.79-.28,2.71,1.05,6.58-2.53,8.44,2.13.14.36,1.27.42,2,.45,7.31.35,14.62.71,21.94,1,13.74.52,27.49,1,41.23,1.55,1.79.07,2.23-.09,2.84-2a21.87,21.87,0,0,0,1-6.2,1.13,1.13,0,0,1,1.66-1.11c2.74,1.1,7.19-2.84,8.38,2.8,4.12,1.46,1.42,4.37,1.56,6.77,1.56,0,3.51.64,4.81-.34.6-.45.05-2.58-.15-3.92-.32-2.2.86-2.4,2.62-2.37,3.59,0,4.34-1,3.5-4.71s0-5.25,3.22-5.95c-1.47-.9-1.39-2.19-1.55-3.52-.21-1.8,1.2-3.16,1.15-4.63-.08-2.36.84-3.17,3.59-3.06-2.07-1.41-1.56-3-1.67-4.55s.76-2,1.54-3c1.46-1.88-2.47-.53-2.11-2.37s-.91-3.75.92-5.31a1.37,1.37,0,0,0-.1-1.9c-2.22-2.6-2.09-4.18.53-6.34.55-.45.34-1.09.45-1.66.26-1.41-.66-3,.58-4.26.27-.27.21-.31-.05-.54-2.43-2.18-2.45-3.76-.14-6.39,1.22-1.4,2.12-6.65,1-7.95a5.08,5.08,0,0,1-.61-5.29c.82-2,1.33-2.92-1.39-2.83a.64.64,0,0,1-.56-.88c.74-1.69-1.94-4.65,1.9-5.22.19,0,.45-.68.41-1-.62-5.16-.26-10.43-1.67-15.51-.2-.71-.31-1.52-1.23-1.37-2.72.43-2.56-1.31-2.49-3.09.05-1.4,0-2.8,0-4.2.95-.63,1.12.41,1.58.78a1.92,1.92,0,0,0,2.21.27c1-.64.08-1.4-.23-2a23.93,23.93,0,0,0-3.79-5.62c1.92-.22,2.45,1.39,3.24,2.56,3.06,4.61,4,9.9,4.94,15.23.33,1.9-1.05,5.26,3,5.2a.59.59,0,0,1,.4.38c.06,1.71.11,3.41.11,5.11,0,1.51-1.29.85-2,1.13a1.32,1.32,0,0,0-.77,1.74,14.82,14.82,0,0,1,.25,6.55c-.42,3.07,3.2.94,3.54,2.93,0,.13,1,.3,1.08.17a3.15,3.15,0,0,0,.33-1.38c.15-1.8.27-3.6.38-5.4a72.75,72.75,0,0,0-3.35-28.14c-.25-.76-.44-1.89-1.3-1.79-4.07.45-2.81-2.48-2.94-4.48-.08-1.28.64-2.58-.1-4.13a4.83,4.83,0,0,0,5,2.54c1.66-.12,1.24,1.5,1,2.23-1.28,4.52.45,8.7,1.27,13,.17.88.45,1.75.57,2.63a100.31,100.31,0,0,1-2.58,39.62,2.3,2.3,0,0,0,.27,2.35,5.18,5.18,0,0,1,.06,5.63c-1.75,2.33-2.05,2.1-1.56,4.73.82-.92,1.65-1.77,2.39-2.69a11.14,11.14,0,0,1,3.15-2.27c1.44-.88,3.6-1.05,3.18-3.61-.1-.63.55-.8,1.06-.73,2.09.27,1.88-1.12,1.89-2.46.05-4.13.07-4.26,4.32-4.16,3.15.08,4.67-2.17,5.4-4.33a4.64,4.64,0,0,0-1.87-4.85c-.92-.55-.94-5.7-.14-5.76,4.61-.35,2.29-3.27,1.81-5.12-1.11-4.32-3.13-8.42-1.17-13.08.76-1.81-1.12-4.69,2.3-5.45.16,0,.17-.74.25-1.13q.51-2.34,1-4.65c-.31-.11-.51-.17-.69-.25-.93-.41-2.91.8-2.69-1.24.17-1.64-1.69-4.13,1.49-4.88,1.19-.29.8-1.26.8-2a74.44,74.44,0,0,1,.52-10.23c.09-.71.43-1.55-.47-2.17-2.66-1.82-2.6-4.09.08-6.23.26-.21.54-.76.44-1-.78-1.83,0-3.71-.2-5.58-.24-2.15-2-4.91,1.43-6.37.18-.08.18-.72.16-1.1a34,34,0,0,0-1.08-8c-.6-2-1.09-3.65-3.68-3.18-.47.09-1.27,0-1.27-.48,0-2.82-2.08-1.78-3.44-1.88-1.7-.13-3.41,0-5.12,0-.64,0-1.63.28-1.72-.69a14.48,14.48,0,0,1,.09-4.79c.29-1.08,1.77-.51,2.71-.52,2.27,0,2.65-2,2.78-3.31.18-1.72-1.59-.61-2.45-.91a2.1,2.1,0,0,0-.9,0c-1.6.21-2-.76-1.69-2s-1.44-3.87,1.45-4c2.35-.08,2.35-1.36,2.18-2.88-.16-1.34.82-3.56-2.06-3.23-2,.22-1.67-1.31-1.58-2.41.14-1.85-.25-3.17-2.09-4.12-2.09-1.08-4,.47-6-.09-.85-.23-2.26.43-2.12-1.27s-.65-2.39-1.65-3.49S327,38,327.57,35.79c.31-1.1-.7-1.31-1.66-1.62-3.69-1.19-7.4-1-11.15-.54-1.64.21-2.29-.33-2.26-2.12,0-2.52-5-5.16-7.2-3.9-3.43,1.95-5.93.64-6-3.18a3.18,3.18,0,0,0-.19-.75c-.83.24-1.33.9-2.24.93-3.23.11-6.46.41-9.69.55-1.29.06-3.62.17-3.73-.22-1.58-5.79-8-2.4-10.67-5.75-5.25.32-10.36-1-15.57-1.23-1.46-.06-3.41-.66-3.16,2.11.09,1-.9.8-1.56.9-2.28.33-3.84-1.06-5.75-1.89-2.8-1.21-6.28-.84-9.47-1.14-1.14-.11-2,.09-1.86,1.56.15,1.26-.62,1.69-1.64,1.43-1.46-.38-3.39,1.14-4.38-1.08-.17-.38.16-1.14-.65-1-.59.09-1.23.43-1.12,1.17.54,3.36-1.84,2.49-3.71,2.82-2.66.47-5.35-.13-8.08.89-1.27.48-4.36,2-5.26-1.53-.25-.94-1.59-.6-1.49,0,.64,3.55-1.59,4.35-4.26,5-.69.18-1.16,1.1-1.84,1.51s-1,1.43-2,.71a5.34,5.34,0,0,0,1.86-5.61c-.72-3,.78-3.93,3.57-3.47.88.15,1.79.16,2.68.23.62.05,1.42,0,1.44-.68,0-3,2.3-1.69,3.71-1.93,1.61-.27,2.67.06,2.51,2.16s1.76,1.78,3,2c1.58.29,1.7-.79,1.78-2,.07-1.1-.72-2.8.68-3.18,1.58-.42,3.78-.65,5,.14,1.77,1.17,2,.64,2.11-.89.07-1.14.18-2.2,1.59-1.79s3.68-1.45,4.51,1.3c.1.35.31.92.53.95,3.78.45,7.56.84,11.35,1.2.2,0,.51-.28.65-.5,1.92-3.12,2.87-2.95,6.52-1,1.87,1,4.47.72,6.75,1,2.88.32,5.77.68,8.67.84,1.79.11,4.05,1.11,4.25-2.38.1-1.73,2.16-.62,3.31-.84,2.33-.45,3.68.25,3.18,3a3.46,3.46,0,0,0,2.05,3.95c.92-.66-.41-2.46,1.1-2.61a17.94,17.94,0,0,1,5.38.13c1,.19.52,1.6.47,2.43a1.7,1.7,0,0,0,1.75,2c1.22,0,.63-1.24.66-1.91.18-3.56,2.47-5.08,5.85-3.89a1.08,1.08,0,0,1,.8,1.36c-.48,3,1.38,3,3.46,2.84,1.9-.15,3.73-.25,3.24,2.63-.2,1.17,1,1.08,1.64,1.39a17.06,17.06,0,0,0,9.53,1.39c1.54-.14,2.32.37,2,2s.53,2.22,2.07,2.52a38.19,38.19,0,0,0,9.78,1c3.32-.22,4.27,1.22,5.18,4.42.53,1.9,1.17,4.24,2.37,5.56a7.9,7.9,0,0,0,6.12,2.69c3.21-.16,4.75,2.9,3.05,5.88-1.24,2.17-.77,4.07-.07,6.42.91,3,1.38,6.46-.46,9.59,1,.67,2.11,0,2.95.41,2.4,1,4.37,3,7.35,2.89.51,0,.47,2.66.18,3.94a12.27,12.27,0,0,0,.51,6,32.82,32.82,0,0,1,.74,6c.08,1.3.15,2,1.84,2.38,2.39.5.83,2.78,1.18,4.23.3,1.29-.41,1.83-1.7,1.7-1.5-.15-3-.05-2.93,2,0,1.74-.81,3.86,1.78,4.68,2,.64.89,2.34,1,3.53.09.89.74,2.44-1.15,2.47-1.29,0-1.46.82-1.49,1.78-.15,3.71-.3,7.42-.41,11.13a2,2,0,0,0,.43,1.37c2.72,2.51,2.66,3.37.74,6.81-.83,1.49-.81,3.46-1.15,5.22a.61.61,0,0,0,.65.78c2.37-.18,1.68,1.55,1.86,2.83.38,2.56-.41,3.76-3.19,3.3s-2.88,1.57-2.83,3.41c.07,2.32,1.22,4.43,1.61,6.67a26.94,26.94,0,0,0,3.55,9.7,10.17,10.17,0,0,1,1.42,5.17c.08.66.1,1.29-.91,1.58-3.56,1-7.34,5.94-7.5,9.59,0,1,0,2.39-1.24,2.34-2.8-.1-2.41,1.71-2.38,3.39s.29,3.13-2.18,2.79c-1.85-.25-1.54,1.27-1.4,2.25.38,2.88-.42,4.34-3.65,3.79-1.39-.23-2.8-.26-1.34,2,.6.92.12,2.55.11,3.85,0,2.13-1.69,1.1-2.66,1.39-1.4.41-1,1.47-1,2.43s.06,1.64,1.38,1.81,3.66-1.27,3.42,1.73c-.11,1.47.82,3.17-.81,4.43-.61.47-.29,1.32-.36,2s0,1.52-.76,1.34c-3.77-.85-4.23,2.47-5.78,4.42a4.06,4.06,0,0,1-.7.51,16,16,0,0,0,.77-10.52,35.91,35.91,0,0,0-.17,4.15c0,.69.06,1.6-1,1.48-2.23-.25-2.26,1.17-2,2.61.2,1.18-.91,1.6-1.16,2.37,1.33,1.4,2.36-.47,3.56-.13a20.16,20.16,0,0,0,0,3c.38,2.7-.28,4.28-3.42,3.67-1.55-.29-2.18.38-2.07,2,.06.85.54,2.1-1.15,2.24-1,.08-2.48-.62-2.92.78-.62,2-2.17,3.81-1.47,6.16a5.44,5.44,0,0,1,.14,2.09c-.2,1.72.26,2.5,2.23,2.56s2.22-.94,2-2.37c-.51-2.94,1.4-2.53,3.26-2.67,2.21-.16,3.22.47,2.81,2.79-.35,2,.34,2.69,2.54,2.76,20.78.69,41.55,1.55,62.33,2.29,13.45.48,26.9.83,40.35,1.28,3.52.12,7,.41,10.54.57.77,0,2.12.32,2.2-.4.42-3.57,3.06-1.48,4.64-2,1-.3,1.59.2,1.65,1.44.12,2.39,2.35,2.3,3.33,1.62s2-.5,3-.68c2.56-.46,3.17.5,3.46,3.15.26,2.39.71,5.41,3.85,6.59,1.6.61.64,2.29.72,3.46.06.83.68,2.33-.87,2.41-1.92.1-1.66,1.38-1.72,2.51-.34,6.72-.78,13.44-.94,20.17-.38,15.87-1.39,31.7-2.34,47.54-.06,1.08-.44,2.13,1.38,2.31s.87,1.78.87,2.7.76,2.91-.72,3.09c-2.14.26-2,1.6-2.12,2.92-.48,8.12-.89,16.25-1.33,24.37-.29,5.41-.62,10.82-.9,16.24-.07,1.3-1.09,2.71,1.49,3.34,1.4.35.38,2.85.62,4.36.28,1.79-1.34,1.18-2.13,1.65,1.82,1.14,4,7.77,2.58,8.69-4,2.51-1.53,5.87-1.35,8.54A341.86,341.86,0,0,1,463,450c-.07,1.3-.75,2.45,1.51,3.07,1.47.4.43,2.83.64,4.34.18,1.3-.64,1.5-1.67,1.44s-1.26.63-1.35,1.54c-.78,8.27-1.62,16.55-2.39,24.83-.1,1-.31,1.83,1.11,2.84s1,3.77.14,5.69c-.18.39-.7.71-.62,1.22.55,3.72-1.94,6.91-1.82,10.54.05,1.44-.68,1.69-1.84,1.59a1.73,1.73,0,0,0-2.11,1.16c-.55,1.43.81,1,1.16,1.44a2.94,2.94,0,0,1,.33,2c-.77,5.24.82,10.56-.56,15.79a68.33,68.33,0,0,1-2.38,8.18c-.27.68-.52,1.1-1.2,1-2.36-.42-2.76,1.18-3.21,2.9a29.88,29.88,0,0,1-1.72,5.09,15.37,15.37,0,0,0-1.19,10.82c.37,1.4,0,2.66-1.94,2.33-1.5-.25-2.09.63-2.6,1.87-1.69,4.07-3.38,8.14-5.27,12.11-1.59,3.3-3.2,6.48-2.25,10.35.43,1.74.07,3.27-2.37,2.82a1,1,0,0,0-.3,0c-.8.15-8.15,8.4-8.13,9.23,0,1.3,0,2.49-1.81,2.23-.09,0-.26,0-.29,0-1.08,1.87-1.69,3.66-4.59,4.25-1.48.3-1.82,4.3-1.79,6.85,0,.5-.1,1.3.38,1.32,3.08.14,1.85,2.43,2,4ZM41.65,350.78c-2.28,1.6-.85,3.72-1,5.54s.1,3.47-2.58,3c-1.19-.19-1.38.91-1.68,1.75q-2.44,6.6-4.87,13.22a1.74,1.74,0,0,0,.35,2.23c1.2,1.32.14,5.73-.95,5.61-2.61-.28-2.84,1.35-3.27,3.24a36.56,36.56,0,0,0-.5,6c-.06.8.06,1.67,1.21,1.68s2.32-.08,1.92,1.46,1.51,3.88-1.44,4.63c-.4.1-.88.23-.13.53,1.92.77.73,2.38,1,3.59.43,1.92-.48,2.74-2.4,2.66-.17,0-.51.59-.54.93-.25,2.7-.42,5.4-.65,8.1-.09,1.1.38,1.37,1.44,1.74,1.93.68.69,2.57.92,3.9.12.74.47,2-1,2-1.85,0-2,1.34-1.81,2.42.77,3.68-2.4,7.89,2.05,11.26,1.08.82,1.29,1.2,2.36.62a51.69,51.69,0,0,1,10.25-4.12c.7-.2,1.76-.22,2-1.11.76-3.14,2.39-6,2-9.52A66.94,66.94,0,0,1,44.5,411c.35-5.81-.1-7.92-3.18-13a1.23,1.23,0,0,1-.1-.88c.52-1.67-1.56-4.44,2-4.88.21,0,.38-1.05.42-1.63.81-11.64.48-23.3.52-34.95,0-.63.3-1.68-.72-1.68C41,354,42.09,352.1,41.65,350.78Zm412,147.15c1.09-2.37.66-4.41,1.53-6.32s.25-4.15,3.17-4.42a3.45,3.45,0,0,0,.11-.85c.86-8.67,1.69-17.33,2.61-26,.11-1-.13-1.21-1.06-1.62-2-.85-.61-2.77-.9-4.19-.15-.72-.23-1.78,1-1.71,2.11.12,1.81-1.41,1.88-2.65.87-13.75.18-27.47-.65-41.19a8,8,0,0,0-1.13-4.58c0,2.19.58,4.31-.11,5.86-1.69,3.77-1.36,7.69-1.65,11.56-.49,6.5-.87,13-1.33,19.5q-1.14,16-2.3,32.07c-.46,6.5-.87,13-1.34,19.49C453.42,494.36,452.72,495.8,453.67,497.93ZM44.21,534.56c0-1,.35-2.86-1.86-3.84-1.62-.72-3.84-.67-4.43-3-.11-.43-.79-.24-1.31-.18a21.06,21.06,0,0,1-4.2.07c-1.56-.16-3.28-1-3.15-2.56.2-2.56-1.42-3.16-3.07-4.09-1.91-1.09-3.92-.47-5.88-.5-1.54,0-2.23-.44-2-2s-.08-2.81-1.83-3.27c-.35,1.38-1.87,2.26-1.68,3.88.44,3.64,3.15,6.23,4.43,9.5.09.24.91.35,1.37.29,1.66-.2,2,.6,2,2.1.09,4.47.15,4.44,4.78,4.59.79,0,2.35-.49,2.26.65-.24,2.82,1.94,2.12,3.27,2.7,2.09.91,4.45-.47,6.7,1.54C41.14,541.75,44.21,538.38,44.21,534.56ZM371.58,533c3.81-.87,8.36-.38,12.87-.69.67,0,1.85-.17,1.92-.47.76-3.13,3.35-1.89,5.23-2.54,2.69-.94,5.48-1,8.16-1.71.42-.12.73-.26.77-.74s-.14-1-.48-.93c-2.13.56-4-1.71-6.28-.34-2,1.19-4,2.77-6.66,2.11-1-.24-.8.81-1,1.44-.67,1.79-2.24.74-3.38.84-.83.08-2.42.69-2.49-.73-.1-2.38-1.65-2.12-3.11-2.17-2.71-.09-5.42-.15-8.13-.15-.92,0-2.09-.3-2.16,1.33-.08,1.87-1.64,1.21-2.51,1.11-1.19-.12-2.79,1-3.52-1-.87-2.4-3.26-.49-3.3-.27-.7,3.79-3.8,2.1-5.26,1.79-4.94-1.05-9.37,1.28-14.07,1.43-.63,0-.75.46-.86,1-.47,2.34.5,3.57,2.82,3.74a46.87,46.87,0,0,0,15.08-.81c1.5-.38,3-.61,2.62-2.77-.12-.65.17-1.24,1-1.19,2.81.21,5.5-1,8.33-.64.67.09,1.54-.09,1.51,1C368.57,533.43,369.88,532.94,371.58,533Zm-81.65-12.6c-10.13.09-20.16-1.13-30.94-.42,2.69,2.14,4.85,3.53,7.81,3.47a5.75,5.75,0,0,1,3.7.78c2.09,1.34,4.09,2.14,3.88,5,0,.07.33.18.51.27,3,1.53,6,3.23,9.44,3.57,6.26.6,5.79-.27,5-5.43C289,525.21,288.64,522.82,289.93,520.38ZM54.84,514.71c-.89-.37-1.12,0-1.66.83-1.9,2.9,1.36,3,2.23,3.88,1.23,1.29,3.14-.4,4.83-.35,1.22,0,.64-1.2.89-1.86.84-2.25,2.74-.7,4.11-1,1-.26,2.09,0,1.89,1.48-.25,1.79.61,2.36,2.23,2.09,2.12-.34,2.88.53,2.65,2.64-.08.72-.58,2.1.85,2.09s.87-1.35.86-2.1c0-1.89-.26-3.72,2.64-3.3.9.13,1-.76,1-1.5s0-1.43-1-1.55-2.18-.41-3.27-.46C67,515.25,60.94,515,54.84,514.71ZM50.59,263.28c-1.67,1.12-.14,3.39-1.54,3.55-2.5.29-1.76,1.92-1.87,3.26-.14,1.59-.24,3.19-.27,4.79-.11,7.62-.18,15.23-.31,22.85,0,1.36.3,2.22,1.84,1.79.88-.26,1.49-5.18.77-5.81-2.82-2.5-2.79-4.43.07-6.31a1.45,1.45,0,0,0,.64-.91c.27-3,.49-6,.68-9a1,1,0,0,0-.4-.71c-2.57-2.26-2.51-4,.21-6.29a1.54,1.54,0,0,0,.44-1A22.38,22.38,0,0,0,50.59,263.28ZM42.41,480.2a10,10,0,0,1,0-2.06c.79-2.82-2.48-2.49-3.36-4.13-.25-.46-2.8.14-2.72,2.37.07,2,1,4.68-2.82,4.31-.71-.07-2.36,5.24-1.92,6a1.35,1.35,0,0,0,.66.4c1.59-1.83,6,2,6-3,0-.16.67-.51,1-.46C42.86,484.25,42.63,482,42.41,480.2Zm201.14,47.69a3.64,3.64,0,0,0,.57,0c.06,0,.13-.16.14-.25.26-3.07,2.63-1.43,4.08-1.84.7-.19,1.75.44,2-.7a2.6,2.6,0,0,0-.65-2.77,13.12,13.12,0,0,0-5.84-2.89c-1.39-.33-2.68-.64-2.48,1.54.08.93-.45,1.25-1.29,1.19-2-.14-1.67,1-1.37,2.33C239.33,527.08,241.52,527.35,243.55,527.89ZM29.1,507.15c-.8-1-2.27-.23-2.25-1.27,0-3.54-2.4-3.16-4.57-3s-2.22-.84-2.21-2.48c0-4.12-.06-4.22-4.11-4.14-1.93,0-2.74-.45-2.53-2.49.16-1.45.3-3.06-1.68-3.77a29.47,29.47,0,0,1-.63,5.66c-.22.86-.62,2.43,1.27,2.34,2.75-.12,5.62-.47,4.82,3.85,0,.12.2.36.35.43C21.21,503.94,24.21,507.11,29.1,507.15ZM214,518.84c1.59,1.64,3.48.06,4.46,1.58,2,3.08,7.14,5,10.27,3.45a4.56,4.56,0,0,0,2.28-3.94c0-1.49-1.74-.63-2.69-.81a20.23,20.23,0,0,0-3.57-.27C221.28,518.82,217.86,518.84,214,518.84ZM151.24,516c-.93-.93-2.07-.84-3.11-.91-6.8-.46-13.6-.94-20.41-1.26-3.2-.14-6.41-.19-9.6-.55-.74-.08-2-.64-2.1.87s1.2,1.25,2.12,1.34c.7.06,1.4,0,2.11,0,6.21.17,12.43,0,18.66.4C143,516.18,147.05,516,151.24,516Zm93.21,16.37c.9-3-1-3.68-3.23-4.07s-3.39-1.71-3.36-3.65c0-3-2.17-2.55-3.81-3-.82-.22-1.65.07-1.67,1.18,0,.75-.28,1.79,1,1.77,1.58,0,1.37,1,1.44,2,0,.73-.43,1.91.56,2.08,1.3.22,2,.56,1.91,2,0,.7.69,1,1.28,1C240.53,531.82,242.41,532.86,244.45,532.32Zm141.89,1.39c-4.7,0-9.61,0-14.52,0-1.47,0-3.41-.44-3.28,2.21,0,.83-.82.68-1.38.69-1,0-1.94,0-2.9,0C372.84,537.82,384.29,536,386.34,533.71Zm-169.71-4.23a3.17,3.17,0,0,0-1,0c-1.11.33-3-1.16-3.2,1.34s1.82,1.46,2.95,1.6,2.45-.21,2.62,1.83c.1,1.26,5,2.26,5.06,1.34.17-2.41,1.74-1.87,3.14-1.94.82,0,2,.32,1.85-1.16-.22-1.66-1.06-1.1-2.29-.81-1.66.4-4.73.84-5.05-.22C219.93,528.64,218,529.87,216.63,529.48ZM46,334a3.07,3.07,0,0,0,1.15-2.61c.54-8.1,1-16.2,1.61-24.3.05-.79.1-1.38-.93-1.45s-1.25.63-1.31,1.51C46,316,46,324.82,46,334ZM349.49,525.36c-4.16-6.68-10.72-1.32-15.78-3.68,1.87,1.39,3.75,2.61,6.24,2.34.73-.08,1.63-.44,2.19.87C343.63,528.4,347.21,528.46,349.49,525.36Zm-302-264.49c1.32-1.24.4-3.87,3.14-3.82.08,0,.24-.53.24-.81A111.19,111.19,0,0,1,51.28,244c0-.11-.42-.26-.75-.46-.52,1.55.39,4-2.5,3.81-.17,0-.54.62-.55,1C47.45,252.49,47.46,256.68,47.46,260.87Zm-38.91,242H6.75c-.52,0-1,.08-1.07.75a.86.86,0,0,0,.78,1c2,.5,4.53.08,5.2,2.95,0,.09.57.1.86.08,1.17-.11,1.65.41,1.55,1.56s.52,1.45,1.48,1.3c.71-.11,1.72.55,2.05-.59.26-.93.75-2.52.39-2.78A22.39,22.39,0,0,0,8.55,502.88Zm281,16c-9.87-2.11-19.79-1.59-29.72-.63A241.6,241.6,0,0,0,289.56,518.89Zm95.79,4.2c-7.94.23-15.84-1.42-23.78-.31C369.48,523.63,377.36,525.92,385.35,523.09Zm-335,8.17c2.68.77,4.93-.63,7.31-1.26,1.07-.28,2.59-.48,2.19-2.2-.34-1.46-1.65-.67-2.52-.78s-2,0-3,0-1.88.23-1.62,1.46C53.1,530.42,51.82,530.74,50.33,531.26Zm-14-25.42c-.52-2.59,1.05-3.2,3.29-3.45-1.89-.79-1.28-2.21-1.43-3.42-.07-.58.48-1.53-.57-1.66a2.89,2.89,0,0,0-2,.39C34,498.93,34.41,504.2,36.3,505.84ZM344.4,521c1.36-.22,3.38.75,3.18-2.09-.11-1.42-.35-2.48-2-2.14s-3.83-.13-4.08,2.46S343.23,520.71,344.4,521Zm-29.69,52.1c-1.68,8.64-1.37,9.6,3,9.14Zm17,15.76a43.71,43.71,0,0,1-2.94-8.31c-.13-.66-.45-1.15-1.19-1s-.61.72-.45,1.19c.8,2.34,1.12,4.81,2.15,7.09A1.62,1.62,0,0,0,331.74,588.86Zm-25.4-73.63c-2.23-.78-4.1-1.39-6.07-.38-.56.29-1.53.22-1.27,1.18.16.61.5,1.38,1.41,1.27,1.72-.22,4.1,1.43,4.85-1.68C305.3,515.47,305.78,515.42,306.34,515.23Zm31.51-329.57c-2.19,1.63-3.71,2.93-3,5.43.17.61-.33,1.51.72,1.7s1.32-.54,1.74-1.29C338.29,189.78,337.76,188,337.85,185.66ZM329,144c.92-3.41-.28-6-.41-8.57a1,1,0,0,0-1.25-1c-.56.09-.55.49-.4.88C328,137.86,327.1,140.85,329,144ZM68.37,527.5c-.25,1.39.29,1.94,1.75,2s1.9-.5,1.86-1.9c0-1.2-.27-1.84-1.65-1.79S68.08,525.84,68.37,527.5ZM201.1,122.74c3.75.56,3-3,4.63-4.48C201.81,117.49,202,120.43,201.1,122.74Zm53.78,406.52c-1.6-.11-.93-2.06-2.25-2.19s-2,.61-2.19,1.9c-.32,2,1.32,1.43,2.26,1.84C254.1,531.41,254,530,254.88,529.26ZM333.12,172.9c1.8-.69,1-2.8,1.65-4.19.4-.83-.37-1.38-1.15-1.14-2.19.66-.9,2.86-1.68,4.2C331.64,172.28,331.94,173,333.12,172.9Zm-137.45,48,2,7.3C199.39,227.14,198.66,223.46,195.67,220.88Zm45,296.39a12.63,12.63,0,0,0,5.83,1.19c.57,0,1.35.12,1.36-.73s-.74-.9-1.32-.91C244.91,516.78,243.22,516.34,240.71,517.27ZM51.15,535.48c1.8,0,2.45-1.86,3.84-2.6.22-.12-.16-1-.81-.66-1.32.72-3.6-.23-3.91,2.2C50.21,534.92,50.06,535.75,51.15,535.48Zm-4.38,6.72c-3-.62-5.19,1.59-7.82,2.24C41.84,544.71,44.35,543.55,46.77,542.2Zm145-25.75v.89h5.66c.51,0,1-.08,1-.75a.84.84,0,0,0-1-.89C195.63,515.9,193.72,516.19,191.81,516.45Zm-5.89-346.69a19.78,19.78,0,0,0,0,2.59c.2,1.18-.66,2.58.67,3.51.17.11.74,0,.79-.14a5.17,5.17,0,0,0-.11-4.25A13.43,13.43,0,0,0,185.92,169.76ZM37,496.23c1.07-.16,1.83-.58,1.8-1.89s-.88-1.06-1.66-1.12c-1.1-.08-1.4.49-1.34,1.46C35.83,495.47,35.66,496.39,37,496.23ZM13.25,517.76a10.81,10.81,0,0,0,2.68,7.71Q14.6,521.62,13.25,517.76Zm10.27-3.59c-1.66-.73-3-.31-4.21-.46-.63-.07-1.48.25-1.59-.82-.07-.71-.09-1.44-1.09-1.43-.51,0-.69.34-.71.76A1.76,1.76,0,0,0,17.28,514C19.19,514.65,21.14,514.33,23.52,514.17ZM46.44,344.7c0-.71.12-1.68.14-2.66,0-.54.2-1.27-.66-1.35s-.82.54-1.14,1.06C43.56,343.77,46.65,343.54,46.44,344.7Zm-7.64,198c2.22-.17,4-.52,5.2-2.28a4.41,4.41,0,0,0-2.52.68C40.69,541.62,39.39,541,38.8,542.68Zm11-305.33c3.42.13,3.42.13,2.42-3.16A5.75,5.75,0,0,0,49.8,237.35ZM351.07,536.89l0,.36h5.57c.72,0,1.2-.25,1-1s-.74-.33-1.16-.26ZM35.27,515c2.46,1.32,3.77,3.18,6.16,2.61C39.7,516.72,38.4,514.85,35.27,515ZM334.18,199.47c-.59-.64-1.12-.89-1.16-1.63s.55-1.86-.78-1.81c-.69,0-1,.85-1,1.65s-.16,1.92,1.29,1.8C332.93,199.45,333.33,199.47,334.18,199.47Zm-141.85-30.3.63-5.09C191.39,165.6,191,167.29,192.33,169.17ZM365.63,598.6a8.71,8.71,0,0,0,.28-5.68C365.59,594.8,364.77,596.62,365.63,598.6ZM20.06,487.53l2.37,5.09C23,490.34,21.79,488.82,20.06,487.53Zm292.27,78c-.23,1.68-.83,2.91.09,4.14a.85.85,0,0,0,.82,0c1.1-1.22-.4-2.28-.27-3.47C313,566.18,312.84,566.1,312.33,565.56ZM332.83,519c-.64.21-1.94-.4-1.93.56,0,1.47,1.5.72,2.33.84s2,.44,2-.47C335.2,518.46,333.67,519.49,332.83,519Zm1.06,6.75c1.34,1.77.67,3.5,2,4.54C335.67,528.86,337,526.93,333.89,525.79ZM40,489.64c-.75-.13-1.22.18-1.2,1.11,0,.65.09,1.21.91,1.23s1.44.07,1.46-1C41.2,490.25,41.13,489.58,40,489.64Zm5.63-76.87h.16v-7.41h-.16ZM283,534.3c1.73,1.29,3.08,1.46,4.81,0Zm-.82-.54-.21.16c.07.06.13.16.2.17s.14-.09.21-.15Z" transform="translate(1.17 -0.89)"/><path d="M251.79,411.88a4.72,4.72,0,0,0-.48.73c-.39.94.59,2.79-.9,2.78-1.77,0-3.82,1.37-5.49-.95-1.07-1.49-3.39-.64-5-1.3a4.33,4.33,0,0,0-1.53,0c-4.3,0-4.33,0-4.32-4.39a7.62,7.62,0,0,0-1-3.74c-2.44-4.54-4.1-9.31-4-14.57,0-1.11.42-2.14-1.47-2.72-2.14-.65-.58-3-.93-4.56-.29-1.3.64-1.55,1.68-1.44,1.26.13,1.73-.63,2.26-1.62a14.57,14.57,0,0,1,6.67-6.1c1.51-.75,3.79-.5,3.78-3.42,0-1.06,2.12-.4,3.27-.55,1.82-.24,4.44.91,4.95-1.86.63-3.43,2.25-4.5,5.69-4.8a5.89,5.89,0,0,0,4.54-4.3c.42-1.76,3-.49,4.66-.71,1.43-.2,1.35,1,1.24,1.87-.2,1.65.39,3.19-1.32,4.86s-.5,4.53.27,6.67c.5,1.36,2.31,1.37,3.73,1.39,6,.08,6,.07,6.57,6.27.08.92-.07,1.86,0,2.77.2,1.69-.6,2-2.13,2-3.06,0-4.76,2.11-4.8,5.59s1.53,5.37,4.89,5.4c1.64,0,2.28.56,2,2.13-.35,2.07.8,4,.62,6-.15,1.62.88,3.88-2.35,3.73-1.12-.06-.67,1.28-.71,2-.22,4-.2,4-4.21,4-3.47,0-6.86.08-10.14,1.72C255.35,416.08,252.87,414.69,251.79,411.88ZM268.6,383c-.32-3-.56-5.15-.76-7.26-.15-1.54-1.52-1.53-2.49-1.87-1.4-.49-1.06.76-1.21,1.47-.27,1.23-1.28.67-2,.81-1.14.22-2.13-.19-3.24,1.33-.95,1.31-4.55,1.36-5.5-.05-1.1-1.63-2.14-1-3.25-1.28-3.27-.87-7.18,1.91-10-1.74-.12-.16-.79,0-1.15.15a14.12,14.12,0,0,0-6.74,5.1c-.35.52-.91,1-.48,1.9,1.63,3.47,1.5,3.83-1.14,6.55a2.35,2.35,0,0,0-.36,1.43,27.52,27.52,0,0,0,4.43,15.94c.35.56.72,1.47,1.53,1.36,3.12-.4,4.38.74,4,4-.16,1.42,1.46,1.51,2.49,1.6.75.05,2.13.69,2.24-.74s.35-2.58,2.22-2.29c1.29.2,2.87-.56,3.83.41s.83.85,1.53-.2c1.24-1.84,3.35-.47,5.05-.77.77-.14,1.08.48,1,1.17-.32,2.83,1.65,2.71,3.37,2.42s3.81-.19,3.46-3.07c-.22-1.84-.15-3.79,2.67-3.69,1.29,0,1-1.11.95-1.83-.12-1.81-.77-3.67-.5-5.41.48-3.11-1.92-5.28-2.12-8.18S268.88,385.05,268.6,383Zm-6.27-17.55a.74.74,0,0,0-.75-.95c-1.14-.1-2.56.29-2.44-1.73,0-.61-.6-.28-.91-.14a2.88,2.88,0,0,0-2.08,3,29.19,29.19,0,0,1-.14,4c0,.51-1.3.42-.82,1.26a1.26,1.26,0,0,0,1.09.26,1.31,1.31,0,0,0,1.08-1.59c-.46-2.61,1.05-2.82,3-2.64C261.33,367,262.28,366.88,262.33,365.45Z" transform="translate(1.17 -0.89)"/><path d="M243.21,556.59c1.15-.36,2-.25,1.88,1.26A2.3,2.3,0,0,1,243.21,556.59Z" transform="translate(1.17 -0.89)"/><path d="M365.47,278.24c-3.93,0-5-1.47-4-5.15.25-1,.81-1,1.54-1a19.5,19.5,0,0,0,3.06,0c2.84-.45,3.43.73,3.54,3.47C369.72,279.44,367.11,278,365.47,278.24Z" transform="translate(1.17 -0.89)"/><path d="M325.47,267c-2.87.69-3.42-.46-3.56-3.14-.17-3.39,1.76-2.77,3.77-3,2.53-.25,3.24.57,3.25,3.15C328.94,267,328,267.79,325.47,267Z" transform="translate(1.17 -0.89)"/><path d="M317.15,121.81c-1.52.58-3.69-.13-4.34,2.18-1.79-1.39-4-2.2-5.43-4.13a2.3,2.3,0,0,0,1.8-2.55c0-2.84-2.32-3-4-3.83-.63-.32-1.66-.9-2.05,0a2.05,2.05,0,0,0,.66,2.73c1,.59,1.92,1.17,2.85,1.8.64.45,1.51.86.83,1.91-2.25-2.38-5.09-2.72-8.15-2.44-1.34.12-2.31.17-2.63-1.87s-1.5-4-4.44-3.74c-1.9.16-4.53,1.21-5.15-2.29-.12-.67-1.77-.68-2.82-.76-2.37-.18-5,1.09-6.87-1.94-.53-.89-2.83-.77-4.33-1A152.05,152.05,0,0,0,242.53,104c-1.91.09-4.45-1.07-5.21,2.57-.24,1.11-4.65,1.11-5.24.16-1.53-2.45-2.65-.54-3.91-.31-.94.16-1.71,1.17-2.82.61.76-1.53,2.83-1.13,3.69-2.51.59-.11,1.27.27,1.85-.33-.75-.31-1.39-.46-1.82.37-2.45-.32-4.54.91-6.75,1.58-.68.21-1.49.47-1.18,1.43.44,1.36,1.13.13,1.65,0,.87-.15,1.6-.93,2.6-.59l-12.94,8c.51-2.85,3.57-2.75,5.33-4.74-3,.46-3.81-4.15-7.2-2.67.21-.76.72-1.58.57-2.27-.86-4.2,1.71-4.06,4.6-3.93,4,.18,6.75-3.1,10.38-4,.23-.06.49-.73.43-1.06-.77-4.65,2.66-3.78,4.95-3.38,2.07.37,2.76.16,2.51-2-.08-.67.19-1.32,1-1.19,1.71.29,4-1.14,5,.8.74,1.39,1.53,1,2.43,1a153.29,153.29,0,0,1,18.44-.08c12.63.9,24.91,3.08,36.18,9.2,2.09,1.14,4.18.66,6.28.69,1.55,0,2.39.41,2.08,2.06s.72,2.48,2.09,3.19a111,111,0,0,1,13.54,7.83,8.31,8.31,0,0,1,1,1.08c-1,.58-1.46-.12-2-.44-2.55-1.52-5.1-3-7.61-4.6-3.29-2.06-6.59-3.89-10.72-2.93-1.64.38-2.88-.09-2.49-2.2.34-1.85-.71-2.75-2.19-3.56-8.74-4.75-18.16-7.09-27.94-8.43a123.21,123.21,0,0,0-21.45-1.1c-2,.07-4.08.36-6.11.54-.52,0-1.29,0-1.25.59.13,2.28-1,2.75-3,2.51-1.42-.18-3,.41-4-1.26-.25.29-.49.45-.47.56.52,3.38-1.14,4-4.16,3.82-4.47-.32-7.7,1.11-11.14,4.3,4.44,2.77,9,1,12.74-.9a12.25,12.25,0,0,1,8.14-1.21c1,.15,3.13.25,2.92-2.08-.15-1.67,1.13-1.61,2.05-1.36,1.37.36,3.63-1.38,4,1.19.27,1.85,1.29,1.78,2.53,1.82,5.83.18,11.62.76,17.41,1.47.64.08,1.39.67,1.66-.54.18-.77-.49-2.06,1-2.11a20.73,20.73,0,0,1,4.6.12c.95.2.55,1.42.54,2.18,0,2,1.77,2.59,2.58,1.76,1.66-1.72,3.44-.69,5.13-1,.91-.16,1.57.12,1.55,1.29,0,2.27,1.65,2.27,3.11,2a29.25,29.25,0,0,1,4.27-.19c.5,0,1.38,0,1.44.22,1.16,3.94,4.37,1.74,6.63,2.15,1.39.26,2.71,0,2.42,2.06-.08.53.11,1.21.63,1.27,3.8.47,6.26,4.34,10.29,4.1,1.72-.1,2.26.66,2,2.15A3.72,3.72,0,0,0,317.15,121.81Zm-69.37-20.14-.05.91,20.65,1.36C261.56,102.48,254.67,102.09,247.78,101.67Z" transform="translate(1.17 -0.89)"/><path d="M213.61,240c.68,2.63-.46,3.24-3,3.28s-3.25-.72-3.19-3.25c0-2.29.48-3.23,3-3.1C212.67,237,214.43,237,213.61,240Z" transform="translate(1.17 -0.89)"/><path d="M322,200c.75,2.76-.65,3.1-3.05,3.2-2.73.12-3.1-.92-3.13-3.31s.71-3.08,3.08-3S322.75,197.15,322,200Z" transform="translate(1.17 -0.89)"/><path d="M314,124.88a4.79,4.79,0,0,1,4.34,4.35Z" transform="translate(1.17 -0.89)"/><path d="M319.25,130.43c2-.26,2.41.82,2.18,2.49C320.35,132.4,320.05,131.19,319.25,130.43Z" transform="translate(1.17 -0.89)"/><path d="M313.08,124.27c.82-.54,1.05-.17,1,.65Z" transform="translate(1.17 -0.89)"/><path d="M318.32,129.18c.82-.07,1.18.16.65,1Z" transform="translate(1.17 -0.89)"/><path d="M322.59,116.51a7.2,7.2,0,0,1,4.62,4.91Z" transform="translate(1.17 -0.89)"/><path d="M198.92,118.71c-.06,1.7-1.68,2.27-2.48,3.44C196.16,120.2,197.19,119.21,198.92,118.71Z" transform="translate(1.17 -0.89)"/><path d="M208.76,108.53c0,1.93-.87,2.75-2.81,2.19Z" transform="translate(1.17 -0.89)"/><path d="M319.6,124c-1.31-.17-2.54-.43-2.49-2.17C318.18,122.23,319.35,122.57,319.6,124Z" transform="translate(1.17 -0.89)"/><path d="M210.62,107.63c-.29.79-.68,1.37-1.59.63C209.52,107.93,209.84,107.21,210.62,107.63Z" transform="translate(1.17 -0.89)"/><path d="M329.43,570.42c.6,1.31.47,2.21-1.26,2.19Z" transform="translate(1.17 -0.89)"/><path d="M299.87,540.61c.4-1.86,1.38-2.91,3.43-2.49A11,11,0,0,1,299.87,540.61Z" transform="translate(1.17 -0.89)"/><path d="M207.18,114.66l2-1.73.55.6-2,1.73Z" transform="translate(1.17 -0.89)"/><path d="M209.14,112.93c.29-.38.58-.75,1.14-.69a1.93,1.93,0,0,0,.35.35c-.31.31-.63.62-.94.94Z" transform="translate(1.17 -0.89)"/><path d="M212.63,109.93l.09-.19.29.18c-.06.06-.12.17-.19.18S212.69,110,212.63,109.93Z" transform="translate(1.17 -0.89)"/><path d="M210.28,112.24c.21-.29.42-.62.76-.17,0,0-.27.34-.41.52A1.93,1.93,0,0,1,210.28,112.24Z" transform="translate(1.17 -0.89)"/><path d="M20.7,530.72c-.92.76-1.31.21-1.6-.63C19.91,529.61,20.18,530.48,20.7,530.72Z" transform="translate(1.17 -0.89)"/><path d="M19.14,530.12c-.5.06-.72-.15-.65-.65C19.11,529.28,19.35,529.48,19.14,530.12Z" transform="translate(1.17 -0.89)"/><path d="M245.71,555c-1.32-.15-2.53-.45-2.48-2.17A3.11,3.11,0,0,1,245.71,555Z" transform="translate(1.17 -0.89)"/></g></g><line class="cls-3" x1="1.17" y1="71.56" x2="82.79" y2="71.56"/><line class="cls-3" x1="25.36" y1="99.09" x2="91.08" y2="99.09"/><line class="cls-3" x1="1.17" y1="596.27" x2="82.79" y2="596.27"/><line class="cls-3" x1="25.36" y1="319.31" x2="85.66" y2="319.31"/><line class="cls-3" x1="44.95" y1="125.5" x2="105.25" y2="125.5"/><line class="cls-3" x1="118.77" y1="127.73" x2="210.14" y2="127.73"/><line class="cls-3" x1="53.26" y1="154.14" x2="232.22" y2="154.14"/><line class="cls-3" x1="53.26" y1="209.2" x2="113.56" y2="209.2"/><line class="cls-3" x1="65.32" y1="236.73" x2="244.27" y2="236.73"/><line class="cls-3" x1="65.9" y1="291.78" x2="126.87" y2="291.78"/><line class="cls-3" x1="65.32" y1="263.7" x2="167.92" y2="263.7"/><line class="cls-3" x1="179.39" y1="264.81" x2="237.09" y2="264.81"/><line class="cls-3" x1="130.44" y1="182.23" x2="234.46" y2="182.23"/><line class="cls-3" x1="65.11" y1="181.11" x2="121.17" y2="181.11"/><line class="cls-3" x1="122.63" y1="210.57" x2="214" y2="210.57"/><line class="cls-3" x1="1.17" y1="624.39" x2="62.14" y2="624.39"/><line class="cls-3" x1="25.36" y1="564.85" x2="85.66" y2="564.85"/><line class="cls-3" x1="44.95" y1="353.72" x2="105.25" y2="353.72"/><line class="cls-3" x1="118.77" y1="355.95" x2="210.14" y2="355.95"/><line class="cls-3" x1="53.26" y1="382.36" x2="232.22" y2="382.36"/><line class="cls-3" x1="53.26" y1="437.42" x2="113.56" y2="437.42"/><line class="cls-3" x1="65.32" y1="464.95" x2="244.27" y2="464.95"/><line class="cls-3" x1="65.9" y1="520" x2="126.87" y2="520"/><line class="cls-3" x1="65.32" y1="491.92" x2="167.92" y2="491.92"/><line class="cls-3" x1="179.39" y1="493.03" x2="237.09" y2="493.03"/><line class="cls-3" x1="130.44" y1="410.45" x2="234.46" y2="410.45"/><line class="cls-3" x1="65.11" y1="409.33" x2="121.17" y2="409.33"/><line class="cls-3" x1="122.63" y1="438.79" x2="214" y2="438.79"/><line class="cls-4" x1="251.74" x2="251.74" y2="637.23"/></g></g></svg>