<svg xmlns="http://www.w3.org/2000/svg" viewBox="0 0 502.95 574.67"><defs><style>.cls-1{fill:#65465d;}.cls-2{fill:#7a5778;}.cls-3{fill:#e4ab87;}.cls-4{fill:#d49f66;}.cls-5{fill:#060506;}.cls-6{fill:#010101;}.cls-7{fill:#90878c;}.cls-8{fill:#ba8168;}.cls-9{fill:#6e6d6d;}.cls-10{fill:#c58d71;}.cls-11{fill:#969190;}.cls-12{fill:#694d45;}.cls-13{fill:#454548;}.cls-14{fill:#c3c2c4;}.cls-15{fill:#929191;}.cls-16{fill:#767575;}.cls-17{fill:#cbc9cc;}.cls-18{fill:#818080;}.cls-19{fill:#83534e;}.cls-20{fill:#acabac;}.cls-21{fill:#0c0c0c;}.cls-22{fill:#131313;}.cls-23{fill:#fdfefe;}.cls-24{fill:#e3eff4;}.cls-25{fill:#374255;}.cls-26{fill:#484d59;}.cls-27{fill:#c9c7c9;}.cls-28{fill:#3b4250;}.cls-29{fill:#7182a1;}.cls-30{fill:#4f4f4f;}.cls-31{fill:#5f5f60;}.cls-32{fill:#a4b2c9;}.cls-33{fill:#fffdf8;}.cls-34{fill:#f7f7f8;}.cls-35{fill:#2f323e;}.cls-36{fill:#353846;}.cls-37{fill:#564a43;}.cls-38{fill:#7a787b;}.cls-39{fill:#b9c0ca;}.cls-40{fill:#323c51;}.cls-41{fill:#6e5f4e;}.cls-42{fill:#f3f3f2;}.cls-43{fill:#edb48e;}.cls-44{fill:#f8f8f9;}.cls-45{fill:#f4f0ef;}.cls-46{fill:#8f8d90;}.cls-47{fill:#c0987c;}.cls-48{fill:#f6f6f6;}.cls-49{fill:#f8cba8;}.cls-50{fill:#595d67;}.cls-51{fill:#f5f5f5;}.cls-52{fill:#fbfbfc;}.cls-53{fill:#e8e8ee;}.cls-54{fill:#c2c5cc;}.cls-55{fill:#757477;}.cls-56{fill:#424a5e;}.cls-57{fill:#5c5b5c;}.cls-58{fill:#56595f;}.cls-59{fill:#f6f5f5;}.cls-60{fill:#c49867;}.cls-61{fill:#444d63;}.cls-62{fill:#e5e4e7;}.cls-63{fill:#646a77;}.cls-64{fill:#efeeee;}.cls-65{fill:#767474;}.cls-66{fill:#fefefd;}.cls-67{fill:#686868;}.cls-68{fill:#939194;}.cls-69{fill:#8f8c8f;}.cls-70{fill:#83698a;}.cls-71{fill:#777a9e;}.cls-72{fill:#747699;}.cls-73{fill:#443843;}.cls-74{fill:#5c505e;}.cls-75{fill:#a0a3c0;}.cls-76{fill:#705a6d;}.cls-77{fill:#dda88e;}.cls-78{fill:#d19e89;}.cls-79{fill:#0b0708;}.cls-80{fill:#090a0d;}.cls-81{fill:#e0a486;}.cls-82{fill:#ddac8c;}.cls-83{fill:#f7c9a9;}.cls-84{fill:#eaae86;}.cls-85{fill:#605563;}.cls-86{fill:#70413f;}.cls-87{fill:#e8eaea;}.cls-88{fill:#221a14;}.cls-89{fill:#f8aa6b;}.cls-90{fill:#9d765a;}.cls-91{fill:#312c24;}.cls-92{fill:#070808;}.cls-93{fill:#111314;}.cls-94{fill:#949494;}.cls-95{fill:#929091;}.cls-96{fill:#909090;}.cls-97{fill:#a19c97;}.cls-98{fill:#6c4e55;}.cls-99{fill:#c9a094;}.cls-100{fill:#f9c3a4;}.cls-101{fill:#b27c64;}.cls-102{fill:#c58a6d;}.cls-103{fill:#f8c29b;}.cls-104{fill:#933a3a;}.cls-105{fill:#fff;}.cls-106{fill:#db8d78;}.cls-107{fill:#392a22;}.cls-108{fill:#4f3e1f;}.cls-109{fill:#231f20;}.cls-110{fill:#241a12;}.cls-111{fill:#dd9968;}.cls-112{fill:#aa7459;}.cls-113{fill:#efb18f;}.cls-114{fill:#cb8b68;}.cls-115{fill:#eaad8f;}.cls-116{fill:#dca381;}.cls-117{fill:#26160f;}.cls-118{fill:#d59c7b;}.cls-119{fill:#ce9476;}.cls-120{fill:#c78e71;}.cls-121{fill:#c0876c;}.cls-122{fill:#8d5746;}.cls-123{fill:#d69a78;}</style></defs><g id="Layer_2" data-name="Layer 2"><g id="_MeYoga" data-name="+MeYoga"><path class="cls-1" d="M472.85,184.34a68.09,68.09,0,0,1,1.85-7.45c.54.61-.29,2,1.08,2,1,0,2.06.19,2.35-1.3,4.6-1.15,10.42.39,15.42,1.09-2,.52-1.32,1.62-.51,2.44,2.15,2.18,2.29,5.16,3.29,7.79.25,3.19,1.18-.07,2.42-.21-4.29,12.24-6.13,25-8.29,37.5-3.59,8.5-1,25.24-14.76,17.06.9-.47,1.78-.82.95-2.19-1.52-15.36,14.52-35.74-1.93-47.89C470.54,191.59,473.3,187.5,472.85,184.34Z"/><path class="cls-2" d="M492.22,216.86c-.64.24-.12,1.24-1.11,1.48C495.58,190.45,501.25,181.47,492.22,216.86Z"/><path class="cls-3" d="M284.55,180c6.94.6,13.57,1.13,15.53,1.51,2.73.54,4.7.6,5.95-1,2-2.49-1-6.38.75-7.22s1.25-2.2,1.25-2.2-2.94.37-4.46-1c-.45-.41-1.79-1.36-1.82-2s1.24-.89,1.87-1.09,5.07-.58,5.07-.58a6.1,6.1,0,0,0,.53-1.21c.22-.73-1.51-3.29-1.51-3.29l.4-1.78a12.22,12.22,0,0,0,4.54-.62,2.88,2.88,0,0,0,1.61-3.18,28.58,28.58,0,0,0-2.28-5.76,22.25,22.25,0,0,0-2.73-4.13,2.18,2.18,0,0,1-.34-1.19c.21-.74.51-1.73.76-2.9a26.91,26.91,0,0,0,.36-7.87c-.65-4.27-2.94-7.19-3.66-8.88-.52-1.22-2.4-.91-3.88-1.06-.26-.09-.5-.23-.75-.33-3.34-1.31-4.76-.45-5.13,3.07a11.15,11.15,0,0,1-2.27,5.86c0,2.33-2,3-3.47,4.09A11,11,0,0,0,288.6,139a35.91,35.91,0,0,0-1.76,3.58s-4.12,1.09-4.77,2.51-.56,5.82-1.25,6.39l.06.09c-2.19,3-3.41-2.55-6-6-.08-.1-9.51-1.14-9.63-1.19-.86-.35-5.09,18.13-5.09,18.13s-7.51,10.59-7,14c.39,2.57,0,10.16,2.51,10.28,3.4.16,11-8.1,22.13-11.36Z"/><path class="cls-4" d="M85.32,80.45a126.76,126.76,0,0,1-12-8c-.56-.45-1.26-.83-1.51-1.6,3.09,1.59,5.79,3.78,8.69,5.67,1.66,1.09,3.31,2.19,5,3.26C86.08,80.22,85.89,80.36,85.32,80.45Z"/><path class="cls-5" d="M462.39,228c4-3.62,10.79-46,12.35-50.23.33,1.62,1.73,2.3,2.92,1.2,4.47-2.88,9.86.28,14.77-.27-1.45,2.39,3.55,6.85,3.35,10.41.36,1.27.69,2.09,2.18,1-3.9,8.51-8.47,55.94-16,54.73-6.67-3.21-19.1-3.61-20.31-11.77Z"/><path class="cls-5" d="M460.17,232.49c-1.25,1.19-2,4.24-4.73,4.47-5.65.56-9.45,1.08-15.11,1.66-5,3.47,9.83,2.28,11.95,1.75,9.42-2,17.35,4.62,26.07,7-13.48-.06-27.33,2.22-40.55,4.24,7.91,4.28,24.19-.94,34.71-.85,3.11-1.08,12.07-.94,12.76-1.22,2.78-1.13,3.32-4.91,4.08-7.89,4.54-23.49,11.25-41.18,13.6-64.33-5.84-.32-28.63-6.27-30.65-1.14q-6,25.43-11.33,51Z"/><path class="cls-6" d="M102.34,351.23c-.71,1,.3,2-.07,3A86,86,0,0,1,99,338.57c-1.14-10.26-1.59-20.6-3.53-30.77A43.12,43.12,0,0,1,95,299a6.22,6.22,0,0,0-2.81-5.37c-2.38-1.86-5-3.42-7.32-5.31-2.71-2.18-4.49-5.17-7-7.49-5.31-4.92-9.31-11-14.14-16.27-4.4-4.83-8.28-10.21-13.65-14.18-2.18-1.61-3.86-3.9-5.91-5.72a113.11,113.11,0,0,1-14.71-16,9.91,9.91,0,0,1-.61-1,.77.77,0,0,1,.5-.28c1.78.57,2.5,2.07,3.21,3.59,1.1,2.32,3.74,3.08,5.15,5.16s3,4.28,5.25,5.65a1.57,1.57,0,0,1,1.66.71,120.41,120.41,0,0,0,10.49,11.17,132.75,132.75,0,0,1,13.24,13.9c.33.42.61.89.91,1.33a27.54,27.54,0,0,0,6.7,7.76l7,7.43c1.87,3,4.77,4.78,7.64,6.61,2.7,1.47,4,4,5.24,6.65a8.77,8.77,0,0,1,.58,5.09,15.11,15.11,0,0,0,.87,6c-.4,2.3.44,4.49.81,6.68.77,4.67,1,9.37,1.5,14.06.65,6.59,1.18,13.2,2.72,19.68A3.34,3.34,0,0,1,102.34,351.23Z"/><path class="cls-7" d="M460.11,233.55c-.46,7-23,3.56-20.23,6.57,1,2.58-2.86.08-2.94-1.24,25.68-4.21,21,1.32,26-25.09,4.6-8.22,4.21-41.7,14.36-40.43,8.37,1.67,18,.76,25.69,4-6.47-.63-13.18-1.17-19.47-2-3.38-.18-9.58-3.22-10.77,1.56C468.44,195.84,463.88,214.73,460.11,233.55Z"/><path class="cls-6" d="M29.38,227.56l-.56.06c-4.13-4.49-7.84-9.32-11.61-14.11A212.67,212.67,0,0,1,4.85,196.08C1.76,191.23.56,185.91.13,180.32c-.59-7.55,1-14.85,2.51-22.17,1.71-8.24,2.59-16.62,3.62-25q1-8.25,2-16.51c.25-.13,1-6.34,1.15-6.08.58,2.69-.64,11.63-1.1,14.19-1.22,6.76-1.47,13.61-2.5,20.37A60.94,60.94,0,0,0,5,151.88a2.65,2.65,0,0,1-.18,1,116.68,116.68,0,0,0-2.29,12c-.29,2.26-.68,4.5-.85,6.77a24.19,24.19,0,0,0-.39,3.69c0,.49-.14,1.05.36,1.43v.83a10.17,10.17,0,0,0,.82,8.72l.4,1.65c-.19,1.53.72,2.73,1.31,4a32.17,32.17,0,0,0,5,7.9c3.85,5.82,8.2,11.27,12.41,16.81,1.26,1.67,2,3.74,3.59,5.17C27.06,223.43,28.81,225.05,29.38,227.56Z"/><path class="cls-8" d="M407.74,243.59a28.94,28.94,0,0,1-5.28.27c-1-1,.64-2.36,1.61-2.14,1.58.8,1-5.79-3.11-3.67-5,2.6-8.86,7.31-14.56,7.45-6.17,1.18-7.27,10.9-13.75,9.13.14-2.13,1.85-8.45,7.05-11.21,6.11-3.24,16.52-4.06,20-6.58,6.3-3,5.65,2.3,7.2,3.89Z"/><path class="cls-9" d="M222.2,325.66c.63-1.21,2-1.38,3-2,8.62-5.17,17.69-9.81,25-16.71,5.42-5.1,12.15-8.43,17.24-13.85a3.44,3.44,0,0,1,.89-.48c.41.86-.3,1.24-.78,1.64a7.61,7.61,0,0,0-1.66,1.74c-8.66,5.63-15.45,13.68-24.45,18.88-5.79,3.34-11.11,7.46-17.13,10.44C223.65,325.52,223,326.32,222.2,325.66Z"/><path class="cls-10" d="M371.82,276.16c-3.59,3.1-13.65,23.95-17.15,20.22-.34-.8.7-1,1.21-1.37,4.89-8.58,12.12-16,16.9-24.51C374.73,272.27,374.91,273.1,371.82,276.16Z"/><path class="cls-11" d="M295,102.08c3,5.82,9.45,8.63,12.31,14.62,1.41,3,1.89,5.71.83,8.76-1.81-.16-1.74-1.47-1.25-2.54,1-2.09,0-3.58-1-5.26-2.56-4.33-5.51-8.28-9.78-11.09a2.09,2.09,0,0,1-1-1.26c-.41-2.13-1.93-2.63-3.8-2.63-.38-.16-.83-.31-.8-.79s.48-.4.79-.39C292.57,101.57,293.91,101.11,295,102.08Z"/><path class="cls-12" d="M359.43,289.72c-.83,2.61-1.49,5.34-4.46,6.75h2.91l-.33.4c-1.14.31-2.2,1-3.47.71,0-.65-.34-.94-.94-1.15-8.33-2.95-9.76-9.66-9.23-16.39.13-1.62,1.56-2.51,2.79-3.4.56.79,0,1.31-.47,1.79A4.21,4.21,0,0,0,345,281c-.32,4.4.72,10.61,6,12.94a2.27,2.27,0,0,0,2.45-.07,22.09,22.09,0,0,0,4.63-3.4A1.7,1.7,0,0,1,359.43,289.72Z"/><path class="cls-13" d="M291.77,102.49c1.6-.68,3.14,0,3.4,1.35.42,2.13,1.82,3.22,3.32,4.16,3.87,2.43,5.49,6.57,8,10,1.08,1.46,2.4,2.91.77,4.94-.79,1,0,1.89.9,2.5,0,.39-.08.78-.11,1.16a1.57,1.57,0,0,1-.29.08,4.17,4.17,0,0,1-1-4.79,3.92,3.92,0,0,0-.51-3.17c-2.77-4.47-5.68-8.83-10.16-11.84-1-.67-2.61-.36-3.09-1.88C292.83,104.06,291.65,103.59,291.77,102.49Z"/><path class="cls-14" d="M206.16,152.1c-.11.78-.44.88-1.08.42-.94-.67-2-1.25-2.88-1.94-4-3-8.91-3.59-13.35-5.43-1.51-.62-3.11-1.05-4.11-2.5a8.82,8.82,0,0,1,1.36.38c4.26,1.89,8.58,3.57,13.32,3.73a2.66,2.66,0,0,1,1.87,1.13A27.54,27.54,0,0,0,206.16,152.1Z"/><path class="cls-15" d="M222.2,325.66l2.15-.34c-5,4.66-9.59,9.74-15.22,13.68-.77-.81,0-1.31.48-1.63,1.31-.89,2.33-2.09,3.54-3.06Z"/><path class="cls-16" d="M190,357a2.32,2.32,0,0,1,.43-3.13,51.18,51.18,0,0,1,6.33-5.53c2.18-1.76,4.28-3.61,6.41-5.42.5.95-.39,1.28-.82,1.81-1.42,1.72-3.42,2.81-4.87,4.51-2.62,2.05-5.43,3.93-6.66,7.27A.74.74,0,0,1,190,357Z"/><path class="cls-17" d="M291.77,102.49c.29.9,1.84,1.19,1.22,2.53-2-2-4.62-3.11-7.06-4.45-1.39-.91-3-.14-4.45-.56,2-1,2.7-1,6.3.18.27-.66-.55-.84-.6-1.35.07,0,.17,0,.21,0,1.9,1.76,4,2.9,6.75,2.46.4-.06.72.35.89.76a9.74,9.74,0,0,0-4.06-.32C291,102.28,291.45,102.32,291.77,102.49Z"/><path class="cls-18" d="M265.93,296c.18-1.58,2-2,2.44-3.38,2.11-2,4.26-4,6.32-6.09a2.53,2.53,0,0,1,2.38-.8c0,.12,0,.23,0,.34C273.42,289.46,270,293.12,265.93,296Z"/><path class="cls-15" d="M197.52,349.21c.1-1.49,1.64-1.67,2.36-2.6,1-1.32,2.61-2.14,3.33-3.72l1.22-1.19c.87-.28,1.35-1.06,2-1.62.5-.44,1-.78,1.42.06A59,59,0,0,1,197.52,349.21Z"/><path class="cls-16" d="M207.85,340.14c-.71-.47-1.1.07-1.57.47s-.93,1.25-1.85,1.09a59.19,59.19,0,0,1,8.72-7.39,10.48,10.48,0,0,1-2.91,2.95c-.59.45-1.24.84-1.11,1.74Z"/><path class="cls-19" d="M216.86,567.69c.86.91.46,1.83.06,2.76-.26.61-.9,1-.85,1.78l-.42.39-.54-.08c-1-.21-.77-.84-.54-1.54C215,569.66,216.07,568.78,216.86,567.69Z"/><path class="cls-20" d="M173.22,131.91h-5C169.89,131.6,171.56,130.35,173.22,131.91Z"/><path class="cls-21" d="M29.38,227.56l-4.22-5.65c1-.9,1-1.75.14-2.84q-3.89-5.16-7.6-10.45c-.48-.67-1.95-1.6.07-2.4.63-.24.37-1.09.41-1.7.28-4.73-.83-9.44-.34-14.15.78-7.63-3.48-12.29-9.15-16.2-1-.68-2.54.27-3.06,2a20,20,0,0,0-1,5.43,7.28,7.28,0,0,1-.24,2.22c-.77-6.78-.08-13.5,1-20.2,1.39-2.86,1.5-6,2.11-9,1.61-7.92,1.9-16,2.7-24,.18-1.86,1.61-17.38,2.77-23.22,1.4-7,2.52-14.07,3.86-21.11.31,4.56-.42,9-.88,13.54-.73,7.21-2.05,14.38-1.11,21.66.11.82-1,2.19.47,2.41,1.17.17,1.38-1.33,1.83-2.2.83-1.59,1.85-2.55,3.74-1.58a1.72,1.72,0,0,0,.78.23c5.53-.11,7.74,3.66,9.31,8.06A22.49,22.49,0,0,1,32.22,136c0,5.08,0,10.16,0,15.25,0,4.8-1,9.51-1.42,14.27a5.11,5.11,0,0,1-4.32,4.84c1.31.69,2.43,1.07,3.19,2.23.41.63,1.1,1,.69,1.86a.79.79,0,0,0,.23.93c1,1,2.34,1.58,2.43,3.46,0,.82,2,.85,3.33,1.08-1.45,1.84-.4,2.36,1.17,2.73,3.55.85,5.85,3.62,8.69,5.61,8.37,5.85,15.51,13,22.63,20.22C74,213.66,78.89,219,84.49,223.63a49.4,49.4,0,0,0,5.4,3.73c4.69,2.94,9.36,5.92,14,8.88-.82.68-1.55.09-2.29-.18-3.1-1.14-5.93-2.85-9-4.08-2.35-.94-4.82-1.52-7.22-2.31-3.25-1.06-6.37-2.49-9.6-3.65a43.2,43.2,0,0,0-4.29-1.44,11.19,11.19,0,0,1-5.14-2.41A4.42,4.42,0,0,0,63.59,221a1.31,1.31,0,0,0-1.27.53,1,1,0,0,0,.24,1.31,5.89,5.89,0,0,1,1.55,2.84,3,3,0,0,0,.94,1.57c2.44,1.64,3.79,4.2,5.65,6.3,2.46,2.77,4.18,6.15,7,8.58,3,2.6,5.15,5.84,7.63,8.83,2.23,2.68,4.39,5.41,6.74,8a74,74,0,0,0,6.43,6c3.1,2.68,6.24,5.3,9.46,7.84.41.33.82.77.55,1.41a105.54,105.54,0,0,1-17-10C82.4,257.47,73.29,250.71,63.44,245a44.26,44.26,0,0,1-9-7.38c-3.08-3.12-6.3-6.1-9.49-9.11-2-1.91-3.95-1.94-5.93-.07-.77.72-1.95.94-2.35,2.17-.28.87-.83.26-1.24-.08a9.39,9.39,0,0,1-2.25-3.64c-.43-.93-.77-1.89-1.25-3.1-1,1.76.07,3.08.23,4.45.1.91,1.12,1.68.41,2.7C31.18,230.08,30.62,228.51,29.38,227.56Z"/><path class="cls-22" d="M108.47,274.19c-1.77-2.31-4.49-3.46-6.58-5.38-.1-.09-.25-.12-.35-.21-4.28-4.24-9.29-7.71-12.92-12.63-2.57-3.48-5.56-6.63-8-10.21-1-1.41-2.49-2.28-3.68-3.51-2.41-2.51-3.53-6.07-6.64-8a2.6,2.6,0,0,1-1-1.73,5.55,5.55,0,0,0-3.17-3.75,5.31,5.31,0,0,1-2.76-4.11,1.61,1.61,0,0,0-1-1.2,1.58,1.58,0,0,1-.77-2.1c.32-.94,1.23-1,2.06-.95a5.89,5.89,0,0,1,3.8,1.85,6.12,6.12,0,0,0,2.86,1.44,89.18,89.18,0,0,1,13.46,4.92,30.25,30.25,0,0,0,5,1.51c3.7,1,6.91,2.87,10.37,4.29,1.56.64,3,1.64,4.76,1.8a18.36,18.36,0,0,0,7.61.93c6.66-.61,11.93,2.25,16.07,7.36,1,1.17,1.69,2.73,2.91,3.41,4.89,2.75,3.54,7.82,4.65,11.92,1,3.67,1,7.57,2,11.27.17.64.43,1.49-.13,1.93s-.91-.37-1.32-.66a1,1,0,0,0-1.61.24c-2.2,4.31-6.42,4-10.19,4.3C118.6,277.39,113.29,277,108.47,274.19Z"/><path class="cls-23" d="M167,338.85a6.51,6.51,0,0,0-1.66,4.67c0,.51.3,1.15-.38,1.44a1.28,1.28,0,0,1-1.49-.39c-1.92-2-4.46-3.16-6.61-4.84a19.59,19.59,0,0,1-4.07-4,25.28,25.28,0,0,0-4.35-4.89c-4.41-3.64-5.5-8.93-6.44-14.08-.88-4.82-1.66-9.84-1.27-14.67.69-8.56-.93-16.9-1.26-25.35a2.84,2.84,0,0,1,.3-1.77,3.06,3.06,0,0,0,0-3.29c-.68-.75-.34-1.65-.37-2.49v-2.67c.88-.09,1,.56,1.15,1,3,11.15,9.12,20.81,14.69,30.71,5.79,10.28,11.88,20.4,17.8,30.61a33.7,33.7,0,0,1,2.24,4.6c1,2.51.57,3.36-2,4.67-3.48.83-6.73-.22-10-1.3-.69-.23-1.48-.67-1.45-1.54,0-1.06,1-.9,1.71-1.07,2.65-.68,4.59-4.57,3.72-7.48a27.45,27.45,0,0,0-2.81-5.47c-2.16-3.79-4.09-7.74-6.84-11.18-1.46-1.58-2-3.65-2.91-5.53a28.57,28.57,0,0,0-2-3.74,7.23,7.23,0,0,0-1.35,4.95,29.43,29.43,0,0,1-.05,3.87c0,.46-.09,1-.62,1.17s-.78-.41-1-.8c-1-3.29-1.41-6.69-2.35-10-1.19-4.21-2.89-8.29-3.11-12.07.22.76.15,2.22.37,3.64A102.12,102.12,0,0,0,147.41,305c1.21,4.12,1.51,8.34,2,12.55a29.68,29.68,0,0,0,5.11,13.73,24.16,24.16,0,0,0,8,6.85c.7.39,1.79.47,1.69,1.69,0,.27-.05.61.09.77.36.44.45,0,.67-.23C165.57,339.78,165.58,338.32,167,338.85Z"/><path class="cls-10" d="M153,541.73c2.12.82,3.55-5,5.46-5.4,2.9-.62,4.49-9,7.36-9.81,1.52.6,4.17,13.66,5,15.05,1.53,2.62,1.29,3,5.89,6.74s29.44,8.22,28.53,8.32c-.42.26,2.12,1.63,1.23,1.79-8.62,1.54-40.15-2.63-45.1-3.39-5.75-.89-11.55-1.48-17.23-2.83-.43-.11-1.48.3-1-.9a7.48,7.48,0,0,0,0-2.79c-.13-.84,0-1.76,1-1.93,1.75-.3,1.18-1.35.9-2.36.32.11,1-1.35,1.18-2.17.59-.53,2.42.51,3.07.15Z"/><path class="cls-24" d="M164.18,339.84c-1.75-1.52-4-2.21-5.78-3.79a30.58,30.58,0,0,1-4.18-4.18c-.95-3-2.06-6-3.06-9-1.31-3.92-1.1-7.94-1.39-11.93a1,1,0,0,1,.41-.89c.28.13.72,1.05.75-.13a16.83,16.83,0,0,0,0-3.69c-.52-2.45,1.2-4.39,1.29-6.68,0-.1.3-.31.39-.28.37.14.41.5.44.85a31.68,31.68,0,0,0,1.93,6.81c1.14,3.29,2.94,6.29,4.36,9.47A25.82,25.82,0,0,0,158,311.6c-.25-.62-.59-1.27-.17-2,1.3.4,1.54,1.69,2.11,2.65,2.44,4.11,4.88,8.23,7.14,12.43,2,3.74,1.46,6.54-1.54,9.42a2.81,2.81,0,0,1-2.1.63c-.44,0-1.09-.2-1.19.45s.55.71.95.94a17.2,17.2,0,0,0,7.26,1.88c1,.08,1.92,0,2.88.07-1.54,1.3-3.2.78-4.79.21C166.65,337.64,165.14,337.88,164.18,339.84Z"/><path class="cls-25" d="M97.73,294.79l-3.32-4.63c3,.93,5.71,1.18,7.54,3.58,1.08,1.42,2.91,1.38,4.44,1.84,3.72,1.12,7.52,2,10.68,4.49s4.78,5.5,4.15,9.45c-.58,3.69-2.32,6.54-6.15,8-5.09,1.92-9.24.38-11.16-4.53.83-.42,1.23.33,1.74.69a7.72,7.72,0,0,0,3.82,1.37c1.27.13,2.09-.84,1.4-1.71-2.68-3.35-3.25-7.85-6.21-11C102.34,299.81,99.82,297.49,97.73,294.79Z"/><path class="cls-26" d="M276.61,257.92a3.63,3.63,0,0,1-2.48,4.62c-1.58.64-2.21.37-2.43-1.33a122.57,122.57,0,0,0-5.09-23.81,13,13,0,0,1-1.07-5.79c0-.38-.07-.91.51-.94.37,0,.53.35.66.69,1.24,3.43,3.31,6.45,4.8,9.76a18.53,18.53,0,0,1,1.42,6.37,6.47,6.47,0,0,0,1.45,4A7.65,7.65,0,0,1,276.61,257.92Z"/><path class="cls-6" d="M42.9,82.91a2.89,2.89,0,0,1,2.47,2.47,3.37,3.37,0,0,0,.82,2c1.31,3,1.37,6.23,1.88,9.38,1.48,9.07,1.88,18.27,3.29,27.34.35,2.24,1.28,4.36,1.25,6.66-.17,3.72.29,7.46-.48,11.15a6.7,6.7,0,0,1-.72,2.27A2.51,2.51,0,0,0,50,146.43a27.4,27.4,0,0,1-1,5.39c-.2.63-.12,1.58-1.2,1.59a.88.88,0,0,1,0-.91c.91-4.29,1.49-8.64,2.43-12.93a23.94,23.94,0,0,0-.48-10.77c-1.26-5.22-1.61-10.57-2.21-15.88-1.11-9.74-1.79-19.53-4.67-29A4.4,4.4,0,0,1,42.9,82.91Z"/><path class="cls-27" d="M169.91,224.72l0,.84c.52,1.48-.48,2.14-1.53,2.69a6.47,6.47,0,0,1-5.19.26c-.84-.1-1.34-.75-2-1.22a2.91,2.91,0,0,0-4.17.46,4.6,4.6,0,0,1-4.63,1.36,15,15,0,0,0-4-.27c-2.32-1.23-4.57-1.68-7.1-.29a2.52,2.52,0,0,1-3.44-1,2.82,2.82,0,0,0-1.08-.91,2.06,2.06,0,0,0-2,0c-.72.39-.43,1.12-.33,1.67a84,84,0,0,1,.74,9c-1.36-.84-1.57-2.26-2.49-3.1-1.42-1.06-2.12-2.8-3.65-3.79a6,6,0,0,0-2.52-1.14c-1.54-.42-3.09,0-4.63-.09-.77,0-1.63.23-2.29-.44-3.28-.84-5.47-3.31-8-5.32-.13-.1,0-.38.06-.57,1-1,1.78-.21,2.53.31a36.13,36.13,0,0,1,3.2,2.55c2.07,1.83,4.39,2,6.91,1.55s4.77-.42,6.92,1a2,2,0,0,1,1.3,2.25c.26-1.2-.44-1.86-1.28-2.44,1-2.57,4.08-3.89,6.33-2.51a4,4,0,0,0,4.24.21c2.38-1.16,4.48-1.11,6.59.81a5.73,5.73,0,0,0,7.19,0c2.22-1.82,4.27-2,6.69-.27,2.08,1.47,4.6.91,6.35-1C169.05,224.92,169.32,224.48,169.91,224.72Z"/><path class="cls-28" d="M179.82,211a34,34,0,0,1,.19,8.55c-.26,2.22-.12,4.49-1,6.66-.29.75-.18,1.55,1.13.84a2.57,2.57,0,0,1,3.67,2.1,7.37,7.37,0,0,1-.09,2.65c-.3,1.29-.66,2.77-2.52,1.29a1.68,1.68,0,0,0-1.56-.3c-.75.28-1.52.92-2.21,0-.8-1.08-1.88-2.09-1.74-3.59.09-.94.43-1.81-.29-2.71-.43-.54.09-1.2.43-1.68,2.25-3.22,2.89-6.89,3-10.69A7.11,7.11,0,0,1,179.82,211Z"/><path class="cls-29" d="M97.73,294.79c.65-.49.88.21,1.09.5,1.65,2.22,3.76,4,5.6,6a19,19,0,0,1,3.74,5.85c.73,1.89,1.35,3.88,2.92,5.37.57.54,1.07,1.43.39,2.21a2.28,2.28,0,0,1-2.34.86,11.06,11.06,0,0,1-5.22-2.62c-.17-.42-.34-.83-.5-1.24,1.8-1.15,2.08-2.38.86-4.45a34.86,34.86,0,0,0-3.15-4.53c-1.16-1.42-1.41-3.28-2.58-4.64Z"/><path class="cls-6" d="M8.68,116.65c.69-9.63,3.24-19,4.53-28.49a2.2,2.2,0,0,1,.11,1.89c.32,4.15-.7,8.16-1.43,12.18s-1.32,8.11-2,12.16c-.81,4.6-.15,9.38-1.58,13.89-1.24,3.92-.6,8-1.27,12a3.67,3.67,0,0,0-.59,2.1c-.28,3.16-.87,6.28-1.25,9.42a.5.5,0,0,1-.56.45c0-4.32,1.06-8.52,1.45-12.8.48-5.29,1.2-10.57,1.82-15.85C8.16,121.26,8.42,119,8.68,116.65Z"/><path class="cls-30" d="M83.25,205.38c-8.34-5.56-17-10.6-24.8-17-1.93-1.6-3.87-3.28-4.47-6a2.56,2.56,0,0,0-1.71-1.65,4.41,4.41,0,0,1-2.81-3l.23-.17a4.92,4.92,0,0,1,2.47,1.64,6.21,6.21,0,0,0,3,1.48,1.5,1.5,0,0,1,.85.86c1.17,4.5,4.8,6.92,8.19,9.42,6.19,4.54,12.85,8.4,19.15,12.8.7.49,1.91.72,1.61,2C84.26,206.15,83.82,205.5,83.25,205.38Z"/><path class="cls-31" d="M83.25,205.38l1.81.3c.68-.4,1.18,0,1.69.36,5.56,3.48,11.19,6.83,16.31,11,2.13,1.72,4.6,3,6.86,4.5.66.45,1.46.78,1.77,1.63a51.46,51.46,0,0,0,8,5.62c-.73.43-1.55.89-2.24.12-3.7-4.1-9-6-13.23-9.21C97.48,214.5,90.18,210.21,83.25,205.38Z"/><path class="cls-32" d="M98.54,298.12c.19-.33-.05-.84.67-1.16.63,4,3.35,6.79,5.49,9.93a5.05,5.05,0,0,1,.83,3.09c-.07,1.2-.43,2.37-2.12,1.76l-.77-1.26a27.1,27.1,0,0,1-3.21-6.66A16.71,16.71,0,0,1,98.54,298.12Z"/><path class="cls-33" d="M13.29,66.73c0,.84-.87,1.85.75,2.28.74.19.44,1,.13,1.57a4.69,4.69,0,0,0-.88,3.07,1.2,1.2,0,0,0-.46,1c-.79.51-1-.08-1.27-.65a5.85,5.85,0,0,1-.44-2.11c0-.27.13-.58,0-.81-1.34-3.13-.75-6.17.43-9.18,1-.63,1.74-.41,2.15.74C13.84,64,14.21,65.43,13.29,66.73Z"/><path class="cls-34" d="M243.69,115.87c-.36-2.07,1.23-3.54,1.76-5.34.14-.5,1.59-.74,2.48-.86a5.13,5.13,0,0,0,4.2-3.14c1.51-3.24,4-5.07,7.84-4.1a12.9,12.9,0,0,0-7.59,5A12.68,12.68,0,0,1,248,111C246,112.1,245.42,114.5,243.69,115.87Z"/><path class="cls-35" d="M189.3,209.06a12.07,12.07,0,0,1-.58-9.92c1-2.53,3.38-3.33,6.4-3.81-1.43,1.53-3.15,1.82-4.19,3.1-.82,1-1.53,2-1.21,3.32A13.5,13.5,0,0,1,189.3,209.06Z"/><path class="cls-36" d="M191.23,205.06A25.45,25.45,0,0,1,192,202a2.23,2.23,0,0,1,3.13-1.43c1.33.67.95,2.15.32,3.2a14.08,14.08,0,0,0-1.12,2.14c-.41,1-1.23,1.17-2.17,1C191,206.77,191.5,205.79,191.23,205.06Z"/><path class="cls-37" d="M284,151.12c-.82.42-1.07,1.47-2,1.77.25-1,1-1.78,1-2.84,0-.49.28-1-.31-1.23-2.81-.93-.86-2.31-.34-3.52.11-.28.5-.44.76-.65.77-.06,1.39-.58,2.14-.71s1.7-.28,1.84.95C286.18,147,285.89,149.47,284,151.12Z"/><path class="cls-30" d="M47.85,152.5l.11.85c.63,1,0,1.89,0,2.83-.1.52-.3,1-.37,1.54a19,19,0,0,0-.78,4.23c0,1.88-.38,3.88,1.69,5.1.27.15.27.61.28.95a1.86,1.86,0,0,1-.21.87c-1.28.39-1.43,1.15-.69,2.17.32.43.79.72,1.13,1.14a2.09,2.09,0,0,1,.48,1.07c-.55,1.48.38,2.9.18,4.36l-.18.15c-1.63-2.89-3.42-5.68-3.24-9.25.13-2.63-1.23-5.15-.47-7.9S47,155.16,47.85,152.5Z"/><path class="cls-38" d="M163.21,228.51c1.34-.3,2.72.08,4.07-.4s2.35-1.1,2.65-2.55a15.16,15.16,0,0,1,3.47-3.11c1.5-.92,1.63-1.48,1.93-4.46.27.67.47,1.18.67,1.69a6.35,6.35,0,0,1-1.69,3.15,30.9,30.9,0,0,0-3.62,4.41A5.19,5.19,0,0,1,163.21,228.51Z"/><path class="cls-39" d="M273.72,238.75a20.35,20.35,0,0,1-5.4-11.14,4.59,4.59,0,0,1,.26-2.92c.63,1.59.53,3,1.05,4.15a46,46,0,0,0,4.89,9.09C275,239,274.47,239,273.72,238.75Z"/><path class="cls-40" d="M102.26,325.38l3.28,23.41C103.24,341.13,102.59,333.23,102.26,325.38Z"/><path class="cls-41" d="M340.1,298c-1.61-.05-2.64-.66-2.47-2.49a2.37,2.37,0,0,1,2.88-2.4c1.36.09,2.83,0,2.85,2A3.11,3.11,0,0,1,340.1,298Z"/><path class="cls-42" d="M173.18,189.66c-1,.59-1.77-.24-2.46-.69a71.33,71.33,0,0,1-12.37-10.29c-.65-.68-1.77-1.29-1.28-2.6C161.57,181.63,167.21,185.84,173.18,189.66Z"/><path class="cls-43" d="M39.61,81.67l.09.33a14.64,14.64,0,0,1-5-.85c-3.76-1.41-7.19-3.59-11-4.83a1.81,1.81,0,0,1-1.45-1.55l.21-.24C26.94,76.12,31.36,78,35.71,80,37,80.54,38.54,80.58,39.61,81.67Z"/><path class="cls-44" d="M262.09,101.65a4.94,4.94,0,0,1,4.1-2.83,29.86,29.86,0,0,1,6.28-.62,2.17,2.17,0,0,1,1.74.85c.84,1.11-.5.49-.67.82a13.59,13.59,0,0,0-9.4,1C263.48,101.17,262.78,101.39,262.09,101.65Z"/><path class="cls-45" d="M143.15,542.09c0,.86.72,1.66.07,2.87-2.12-5.2-5.19-9.77-5.88-15.29a1.51,1.51,0,0,1,.35-1.53C138.75,533.09,140.19,537.89,143.15,542.09Z"/><path class="cls-46" d="M148.43,228.84c3.68,0,7.36.18,10.37-2.72.56-.54,2-.06,2.45,1.17a6.42,6.42,0,0,0-5.18,2,2.23,2.23,0,0,1-3,.38C151.65,228.66,149.82,230,148.43,228.84Z"/><path class="cls-47" d="M286.82,145c-.29-1.27-1.07-.56-1.69-.42s-1.27.93-2,.1c1.42-2,3.93-2.06,5.74-3.37l1.59-.49c-.67,1.12-.86,2.52-2,3.38C288.05,144.67,287.71,145.4,286.82,145Z"/><path class="cls-48" d="M108.24,130.27a64.53,64.53,0,0,1-10.95-6.91c-1.12-.85-2.52-1.73-2.83-3.38C98.71,123.87,103.93,126.47,108.24,130.27Z"/><path class="cls-49" d="M260.93,199.05c.08-.07,6.67,7.47,7.12,12.76.12,1.33,1,2.29,1.49,3.41a1.29,1.29,0,0,1-1.63-1.38c-.24-5.71-3.44-10-6.72-14.24A2.33,2.33,0,0,1,260.93,199.05Z"/><path class="cls-50" d="M269.63,228.84c-.79-.94-.62-2.18-1-3.32-.51.7-.08,1.44-.28,2.09-.85-1.72-.1-3.65-.71-5.42a30.8,30.8,0,0,1-.87-3.56c-.07-.38-.15-.93.31-1.09s.86.35.95.8c.32,1.74.59,3.5.86,5.25S269.38,227.09,269.63,228.84Z"/><path class="cls-51" d="M293.53,298.92c-2.79-.14-4.82-1.86-6.59-3.67-1.48-1.53-2.44-3.56-3.95-5.13-.2-.21-.11-.51.19-.67C286.32,293,289,296.91,293.53,298.92Z"/><path class="cls-51" d="M239.75,126.6l-.16,1c-1.34-1.85-1.71-4.3-.67-6a4,4,0,0,1,3.52-2A6.35,6.35,0,0,0,239.75,126.6Z"/><path class="cls-52" d="M182.91,352.48c-.2,0-.47,0-.6-.06-2.87-2.54-6.13-4.7-8.16-8.09-.05-.08.16-.31.25-.47Z"/><path class="cls-53" d="M9.16,199.93c-1.13.39-1.09-.79-1.36-1.21-1.91-3-4.12-5.84-5-9.39-.12-.48-.36-.88.08-1.28C4.28,192.38,6.77,196.13,9.16,199.93Z"/><path class="cls-54" d="M139.39,156.7c-2,.06-3.42-1.65-5.36-1.8,0,0-.05-.13,0-.18a.45.45,0,0,1,.11-.17,18.06,18.06,0,0,0,8,.43C141.78,156.72,140.16,156,139.39,156.7Z"/><path class="cls-55" d="M154.24,172.25c-.07.47-.21.9-.61.2a9,9,0,0,0-5.54-4.16c.39-.57,1.07,0,1.51-.41C152.47,167.94,153.15,170.31,154.24,172.25Z"/><path class="cls-56" d="M44.59,242.45c-.47-.42-1.42.25-1.66-.71-.27-2.06-1.4-3.77-2.22-5.63A10.83,10.83,0,0,1,44.59,242.45Z"/><path class="cls-57" d="M126.59,229.27c3.33,0,4.83,2.39,6.17,4.93a1.92,1.92,0,0,1-2-1.14A10,10,0,0,0,126.59,229.27Z"/><path class="cls-34" d="M181.41,198.61c-1.37-1.41-2.76-2.81-4.11-4.25-.56-.6-1.45-1.12-.87-2.2a55.14,55.14,0,0,1,5.36,6.07c.05.07,0,.27-.06.37S181.52,198.61,181.41,198.61Z"/><path class="cls-58" d="M99.43,303.82a30.29,30.29,0,0,1,3.21,6.66C100,309,100,306.26,99.43,303.82Z"/><path class="cls-59" d="M149.6,167.88l-1.51.41c-1.78-.91-4-.12-5.69-1.64a6.7,6.7,0,0,1-1.76-1.88A19.41,19.41,0,0,0,149.6,167.88Z"/><path class="cls-60" d="M40.77,71.41c1.47.15,1.88,1.35,2.68,2.76-1.66-.57-3.15-.51-4.26-1.61C39.47,71.84,40.24,71.78,40.77,71.41Z"/><path class="cls-61" d="M139.44,269.18c.62.76.23,1.67.37,2.49-.52-.12-1.36-1.16-1.21.48a23.62,23.62,0,0,1,0,2.38c-.77-1.57-.59-3.31-.72-4.95C137.7,267.73,138.88,269.28,139.44,269.18Z"/><path class="cls-62" d="M336,281.18c-.22-.06-.42-.14-.38-.43,1.42-.92,2.78-1.94,4.27-2.73.65-.34,1.31-1.34,2.29-.54A37.85,37.85,0,0,1,336,281.18Z"/><path class="cls-63" d="M273.72,238.75c.41-.13.82-.26.8-.82,1.64.73,1.91,2.46,2.81,3.75A6.81,6.81,0,0,1,273.72,238.75Z"/><path class="cls-64" d="M90.71,117.17c-2.42-.23-5.6-2.73-6.13-4.83Z"/><path class="cls-16" d="M188.49,357.79c-2.28-.19-4.32-2.17-4.17-4.07C185.65,355.14,186.76,356.78,188.49,357.79Z"/><path class="cls-61" d="M139.83,289.44a21.94,21.94,0,0,1-.07,10.16C139.78,296.21,139.81,292.82,139.83,289.44Z"/><path class="cls-65" d="M22.34,69.65c-.82,1.28-1.4,2.59-.45,4.07a.73.73,0,0,1,.52.84l-.2.21C20.2,73.21,20.25,70.89,22.34,69.65Z"/><path class="cls-66" d="M327.35,319.16c-2.18.56-4.17.35-5.76-1.45A13.13,13.13,0,0,0,327.35,319.16Z"/><path class="cls-67" d="M164.16,521.87l-.09,1.35c-.4-1.81-.79-3.62-1.19-5.43C164,518.94,163.93,520.45,164.16,521.87Z"/><path class="cls-68" d="M13.27,85.35c.75-.49,0-1.56.79-2,.08,1,.94,1.9,0,2.87-.58.21.23,1.34-.82,1.24Z"/><path class="cls-61" d="M138.6,275a19.15,19.15,0,0,1,.37,6.13C138.24,279.12,138.62,277.05,138.6,275Z"/><path class="cls-61" d="M140.17,307.67c.7,1.69.46,3.46.44,5.21C139.87,311.19,140.28,309.41,140.17,307.67Z"/><path class="cls-69" d="M13.29,87.41l.82-1.24a11.72,11.72,0,0,1-.79,3.88c0-.63-.07-1.26-.11-1.89C13.24,87.91,13.26,87.66,13.29,87.41Z"/><path class="cls-61" d="M139,282a10.12,10.12,0,0,1,.37,4.06C138.66,284.78,139,283.38,139,282Z"/><path class="cls-70" d="M472.85,184.34c2.33,2-3.31,6.09,3.06,8.81,8.39,6.62,7.36,19,5,28.2-.94,5.85-4.72,10.91-4,17-.25,2.46.12,4.94-3.12,3.44-4.45-2.28-13.38-2.48-11.21-9.42-.26.87-.33,1.93-1.54,2.22C465,218.15,469.12,201.12,472.85,184.34Z"/><path class="cls-71" d="M444.61,252.35a49.11,49.11,0,0,1-8.59.92c-2.16,1-14.12,2.11-14.12,2.11l-4.78,1a5.73,5.73,0,0,0-1.71.53,12.24,12.24,0,0,0-2.92,0,15.47,15.47,0,0,0-2-1.68,34.33,34.33,0,0,1-3.59-2.26c-4-2.68-8.64-6.43-7.45-8,2.83-3.7,21.31-3.5,25.75-5.16C428.38,241.25,445.47,248.83,444.61,252.35Z"/><path class="cls-72" d="M425.56,240.37c1.64-.38,5.73-1,6.36.65.42,3,6.88,4,8.72,5.16-1.51-.94-11.85-5.93-5.83-6.44,1.61,0,3.11-1.31,4.19.72.72.92.88.34.88-.42,10.17,1.31,20.69-3.37,29.62,3.66-2.56,2.19-10.19-4-15.62-1.89,2,.11,5.69-1.18,5,2.19-.1,1.43,5.11,2.72,1.42,3.85-11,3.05-23.25,2.94-32.16-5.18C427.54,241.62,424.5,242,425.56,240.37Z"/><path class="cls-73" d="M460.87,246.15c-7.81-2.15,4-3.7-7.22-4.23,4.32-2.67,8.16.05,12.16,1.35,5,1.88,9.73,2.54,14.71,4.14-8.9-.17-17.57,1.28-26.23,2.78,1.76-2.81,6.68-2.41,9.9-2.72A19,19,0,0,1,460.87,246.15Z"/><path class="cls-74" d="M460.87,246.15c2-.37,7.3,2.18,2.36,2-3.1-1.2-5.56,1.15-8.38,1.48-4.56,1.46-10.43.89-15.42,1.8.3-1.59-1.43-1.56-2-2.47.7-1.1,2.42.79,2.39-.31C443.78,249.9,460.15,249.18,460.87,246.15Z"/><path class="cls-70" d="M461,234.59c.84-.94,1-2.24,1.7-3.43-.69,8.57,5,6.93,11.23,10.14,3.25,1.58,2.1-.83,2.94-3,.2,1.61-.38,3.48,1.86,4.52C475.75,244.21,459.43,238.6,461,234.59Z"/><path class="cls-75" d="M445.66,252.38c-8.4,1.31-17.34,1.7-25.32,3.2-.46-.07-1.27.3-1.25-.57C426.79,252.92,437.08,252.7,445.66,252.38Z"/><path class="cls-76" d="M475.68,245.78c-2,2.42-7.12-2-9.87-2.51C469.13,243.43,472.41,244.6,475.68,245.78Z"/><path class="cls-77" d="M143.71,550.55c4.09,1,8.14,2.36,12.34,2.65,2.36.17,12.84-.79,22.41,1.49a82.41,82.41,0,0,0,17.1,2.16c5.56.77,10.78-.56,14.35,4.45,1.35,1.88,5,4.53,6.61,6.15,2.21,2.19.17,5.52-2.63,6.72-2.15.93-4.33.4-6.35-.32-4.34-1.54-8.8-2.19-13.26-3.06-3-.58-6.13-1.2-8.85-3,0-1.25-1-.91-1.55-1a58.9,58.9,0,0,0-8.67-1c-1.43,0-7.7-2.53-6.78-1.09-1.27,1.17-2.79.51-4.18.73-1.66.27-3.34.23-5.23.49,1.8-.07,3.39-.58,5,0,.47,1.25-.47,1.21-1,1.29a35.87,35.87,0,0,1-12.23,0c-3.71-.75-6.69-2.42-7.5-6.65a26.82,26.82,0,0,0-.39-2.86c-.3.88.25,1.82-.49,2.42-1.8-.54-1-1.95-.67-3C142.28,554.83,142.36,552.43,143.71,550.55Z"/><path class="cls-78" d="M216.84,568.49a12.67,12.67,0,0,0-2.09,3.32c-.17.6.15.65.36.92a.52.52,0,0,0-.29.09c-3.24,1.81-6.62,1.22-10,.39-2.55-.62-5.15-1-7.75-1.46-3,.36-5.7-.89-8.52-1.48a113,113,0,0,0-22.5-2.22,5.42,5.42,0,0,0-2.39.38c-2.93.81-5.94.35-8.91.3a12.94,12.94,0,0,1-3.82-.27c-2.68-.91-5.54-1.35-8.06-2.7a2.56,2.56,0,0,1-1.24-1.1c.48-.36.89.18,1.41,0-.42-1.12-.84-2.23-1.25-3.34A5.14,5.14,0,0,1,143,557.9,25.53,25.53,0,0,0,144.5,563a4.67,4.67,0,0,0,3.46,2.8,39.08,39.08,0,0,0,15.39.24c.67-.69,1.59-.57,2.47-.59a125.56,125.56,0,0,1,16.68.91,3,3,0,0,1,1.83.7c3.62.78,7.1,2.09,10.88,2.27,4.81.23,9.26,2,14,2.57a7.45,7.45,0,0,0,3.19-.27Z"/><path class="cls-79" d="M399.83,247.07c1.18-1.63,2.71,1.26,4.08,2.94a16.1,16.1,0,0,0,7.53,5.47c.71.2.07-1.1.8-1.13,1.24.82,3.27,2.46,3.27,2.46l-11.05,1s-3.79-.84-1-1c7.61.34-3-4.61-3.94-6-2.77-1.17-4.19-4.58-7.62-3.87C382.66,245.08,404,241.29,399.83,247.07Z"/><path class="cls-80" d="M430.56,253.73c8-.77,16.12-2.21,24.3-1.49-12.14,2.37-25.25,2.21-37.15,4.39-1.09-.57-2.43,1.09-3.42-.38.09-2.17,3-.67,7.17-2A68,68,0,0,1,430.56,253.73Z"/><path class="cls-66" d="M418.43,258.06a4.32,4.32,0,0,1,2.94-.31C420.38,257.93,419.49,259,418.43,258.06Z"/><path class="cls-10" d="M361.15,267.12c-1,2.47-3.11,4.11-4.73,6.1a73.78,73.78,0,0,1-5.48,5.57c-.33.32-.64.8-1.21.51s-.54-.75-.54-1.25c0-1.69.93-3.13,1.28-4.73,2.24-2,5.17-3.23,7-5.76a8.33,8.33,0,0,1,2.45-2.46l.4-.33c.44-.49.7-.36.81.25a41.38,41.38,0,0,0-7.21,8C356.39,271.09,358.44,268.7,361.15,267.12Z"/><path class="cls-81" d="M385.86,263.87c-.1-1.21-.38-2.24-2-1.92-2.69,2.12-1.3-12.47-3.09-15.85-1.06-2-6.63,9.57-6.75,7.42-5.48.87-8.53,8.19-13.24,11.2-2.32,2.47-6.7,5.17-7.1,8.5a16.7,16.7,0,0,0,4.61-3.12c-3.56,3.82-10.58,14.36-7.85,3.22-12.67,5.07-3,32,9,16.4,3.62-6,9.89-10.63,12.5-17.05a3.14,3.14,0,0,0,1.84.06c-.81,1.2-2.19,2.14-2.67,3.38,1.33,0,2.45-2.17,3.77-3.72C379.24,270.68,385.38,264.67,385.86,263.87Zm-16.09-.26.34.39a6.41,6.41,0,0,0-1.4-.36A3.42,3.42,0,0,1,369.77,263.61Z"/><path class="cls-82" d="M52.41,49.43c0,1.89-1.56,3.11-2.26,4.71-.88,2-.58,3.14,1.26,4.18.66.37,1.53.65,1.84,1.52-1.36.58-2.19-.47-3.08-1.09C47.71,57,45.52,55,42.86,53.5c-3.51-1.93-7.5-2-11.19-3.2-.72-.24-1.91,0-1.9-1.32,2.48-.75,4.77.26,7,.92,1.28.37-.25-.64.3-.44,1.27-1,2.29.09,3.25.29-6-2.1-11.56-7-18.94-4.8-.24-.09.08.28,0,0,0-.1,0-.14.13-.16.81-.08,1.66-.2.94,1.07a2.63,2.63,0,0,1-2,.36c-1.47-.16-2.24-1.05-1.67-2.36.69-1.61-.06-2.16-1.27-2.84a8,8,0,0,1-3.92-4.29c-.38-1.88-1.3-3.62-1.46-5.56-.06-.66,0-1.25.68-1.58a1.16,1.16,0,0,1,1.48.38c2.21,3.06,5.65,3,8.77,3.18,6,.33,10.49,3.06,14.22,7.56,1.81,2.19,3.66,4.5,6.92,4.74,2,.14,2.33-.19,1.93-2.17a10.29,10.29,0,0,0-2.24-5c-.45-.5-1-1-.78-1.81,1-.67,1.48.24,2,.74a21.65,21.65,0,0,1,6.5,10.86C51.77,48.6,51.78,49.2,52.41,49.43Z"/><path class="cls-82" d="M52.41,49.43c-.88.43-1-.12-1.16-.8-1-5.19-4.11-9-7.94-12.4a3.07,3.07,0,0,1-1.65-1.15C37,30.5,32.3,25.89,28.45,20.54c-1.32-1.83-3-3.34-4.42-5.1-3.28-4.52-6.94-8.65-12-11.28-.18-.1-.37-.18-.55-.29C8.9,2.31,8.7,2.35,6.69,4.82a3,3,0,0,1-.36.44c-1,.87-2.26,1.52-3.27,2.45a1.48,1.48,0,0,1-1.65.5,2.47,2.47,0,0,0-.11-.36c-.42-.61-.06-1.23.11-1.76C2.42,3,6.73.06,10,0c1.7,0,2.91.82,4.29,1.62,3.85,2.24,6.49,5.62,9,9.12,1,1.41,2.27,2.55,3.37,3.86a11.93,11.93,0,0,1,1.84,2.68C31.7,21,34.3,25.22,37.92,28.61c.81,1,1.65,2,2.53,2.95a34.49,34.49,0,0,0,4.85,4.33,18.6,18.6,0,0,1,7.08,10,4.16,4.16,0,0,1,.13,2.42Z"/><path class="cls-83" d="M24.37,15.32a90.32,90.32,0,0,1,7.94,9.31c3.28,4.23,7.46,7.62,11,11.61,1.41,2.36,3.23,4.48,3.59,7.42.26,2.15-.18,2.65-2.36,2.47-3.77-.3-5.9-2.92-8-5.48C33.12,36.57,29,34,23.58,33.81a44.34,44.34,0,0,1-6.26-.91,5.2,5.2,0,0,1-3.15-2.45c-.26-.37-.62-.83-1.19-.53s-.3.77-.28,1.25c.11,1.95,1.24,3.62,1.4,5.54-1.06.07-1.28-.85-1.72-1.49-1.52-2.21-2.33-4.79-3.63-7.13-.52-.92-.64-2,1-1.84,1.17.12,1-.49.92-1.23a47.33,47.33,0,0,0-2-6.9c-.48-1.45-2.16-.69-2.82-1.71L5.42,16c0-.45.34-.52.7-.56C8.27,15.21,8.3,15.2,7.85,13a26.6,26.6,0,0,1-.63-5.47A1.88,1.88,0,0,0,6.13,5.79a.88.88,0,0,1,.08-.86h0A7.85,7.85,0,0,1,7.77,3.39c1.72-1.1,3.36-.17,3.47,2-1.79-.14-2,1-1.83,2.35a25.89,25.89,0,0,0,1.88,8.77c.64,1.36.82,2.87,1.39,4.52a1.47,1.47,0,0,0,.25-1.42c-.55-3.38-1.33-6.7-2-10-.26-1.33-.59-2.69.11-4,.38-.4.78-.22,1.09,0,3.43,3,7.16,8.85,5.1,13.75a13,13,0,0,0-.38,1.39c-1,3.54-1,3.64,2.35,5.33.68.34,1.1,1,1.79,1.36a6.18,6.18,0,0,0-.41-3.26,2.44,2.44,0,0,1,1.11-3c2.43-1.66,2.51-2.41.86-4.84-.54-.79-1.11-1.56-1.62-2.37-.32-.5-.81-1.11-.09-1.61.56-.38,1.07,0,1.4.49A20.2,20.2,0,0,1,24.37,15.32Z"/><path class="cls-83" d="M5.84,16.41c3.85-.69,3.55,2.68,4.43,4.72a34.94,34.94,0,0,1,1.11,4.75c.35,1.32-.06,1.51-1.2,1.05-.4-.16-.85-.71-1.27-.19s.1.86.34,1.26c1.73,2.84,2.54,6.19,4.85,8.71A9,9,0,0,0,18.55,41c1.17.55,2.28,1.06.86,2.65-.84.94-.49,2,1,2.12a15.47,15.47,0,0,0,2,0c1.86-.26,3.78-.89,5.31.86a2,2,0,0,1-1.69.54c-3.57-.34-6.83.85-10.12,2-1.14.39-2.34.84-3.49,0-1.06-3.49-2.2-7-3.14-10.49a135.27,135.27,0,0,1-3.4-14A20.85,20.85,0,0,0,4.3,19.2C3.25,17,4.16,16.69,5.84,16.41Z"/><path class="cls-83" d="M6.22,5.76C7.35,5.24,8,5.61,7.85,6.84a20.56,20.56,0,0,0,.56,6.41c.55,3,.57,3-2.44,2.56-.17,0-.37.13-.55.2C3,16.12,2,15.16,1.77,12.31c-.07-1-.3-1.88-.42-2.83A26.38,26.38,0,0,1,6.22,5.76Z"/><path class="cls-83" d="M12.44,49.1A9,9,0,0,0,17,48.16a20.4,20.4,0,0,1,10.66-1.47c3.56-.49,6.47,1.15,9.36,2.84l1.22.67c-3.15,0-5.81-1.07-8.59-1.11-5.5-1.94-10.42-.37-15.14,2.47a1.39,1.39,0,0,1-1.65.39Z"/><path class="cls-84" d="M12.88,52a2.89,2.89,0,0,1,1.65-.39c.69.58,1.33,1.28,2.38.68,5.75-3.32,11.17-1.57,16.51,1.12,1.79.9,3.55,1.86,5.33,2.8.39.14.77.37.6.83-.28.78-1,.4-1.51.41-3.43-1.3-6.73-3-10.37-3.67-.8-.16-1.57-.5-2.37,0-2.41.31-4.72,1.55-7.25.74-.07-1,.77-1.07,1.35-1.25A21.61,21.61,0,0,1,27.25,52c.28.06-.06.31.05.06q0-.09-.18-.09A27.26,27.26,0,0,0,17,53.57c-1.21.39-2.45,1-3.73.12Z"/><path class="cls-83" d="M13.33,62.83c-.15-1.09-1-1-1.75-1a11.43,11.43,0,0,1,.87-4.12c3.32-.32,6.23-2.14,9.52-2.58a4.34,4.34,0,0,1,1,.05c.48.08,1,.17,1.12.73s-.28,1-.76,1.29c-2.69,1.47-5.21,3.25-8,4.48C14.61,62,14.13,62.69,13.33,62.83Z"/><path class="cls-83" d="M13.31,53.69c2.32.08,4.37-1,6.53-1.57a22.53,22.53,0,0,1,6.69-.54,1.45,1.45,0,0,1,1.35.6c-3.5.49-7,.53-10,2.29h0a28.36,28.36,0,0,0-2.87,1,1.61,1.61,0,0,1-2-.22Z"/><path class="cls-84" d="M6.22,5.76A10.31,10.31,0,0,1,1.35,9.48l.06-1.27,4.8-3.28C6.21,5.21,6.21,5.49,6.22,5.76Z"/><path class="cls-84" d="M12.9,55.2c1.73.42,3.19-1,4.91-.73a27.16,27.16,0,0,1-5.39,2.28C12.89,56.33,12.85,55.76,12.9,55.2Z"/><path class="cls-3" d="M398.29,244.5c-2.49.85-4.33.89-6.9,1.67h-.89c-.5.48,4.23.46,4.23.46s2.34,1,3,2.76c-3.32,1.6-11.8.22-13.23-1.24-.8-.81,1.53-2.16,4.4-3.3-.71.28-7.84,8.44-10.23,9.09-2.75.74-.64-6.12,1.27-7.8,2-.7,3.93-3.38,8.2-4.74,4.76-1.51,10.75-4,13.8-4a3.07,3.07,0,0,1,3.27,3.19c-1.12,1.52-3.49.74-4.8,2.16.75-.38,1.47-1.08,2.35-.22C402.31,244.79,399.87,243.94,398.29,244.5Z"/><path class="cls-85" d="M436.2,239.55c-.86.8-2.25-.06-3.12,1.22,2.82,2.15,6,3.9,9.15,5.91-1.64.66-11.89-3.4-10.75-5.61.28-1.22-1.64-.32-2.28-1C431.53,239.94,433.83,239.29,436.2,239.55Z"/><path class="cls-86" d="M402.81,242.49l-2.62.34c1.28-2,3.28-1.91,5.07-2.28C406,242.84,404.21,241.58,402.81,242.49Z"/><path class="cls-87" d="M361.94,289.79l4.23-5.7c.42,1.34-.68,2.05-1.34,2.78C363.91,287.87,363.71,289.63,361.94,289.79Z"/><path class="cls-19" d="M216.84,567.71c-2.85-2-5.63-4-7.39-7,.26,0,.69-.21.75-.12,1.66,2.46,4.29,3.91,6.26,6.05A1.25,1.25,0,0,1,216.84,567.71Z"/><path class="cls-88" d="M269.26,160.76c-1.47-1,3.43-.87,2.07-2a3.43,3.43,0,0,1-1.18-4.35c.54-1.25.8-2.44-.12-3.6,1.69-.48,1.9.77,2,1.72.24,3,1.78,5.39,3.16,7.89.09.93-5.18-.26-4.62.45C270,161.32,269.68,160.72,269.26,160.76Z"/><path class="cls-89" d="M286.82,160.72l-5.15-.38c-.43,0-.85-.15-1-.58s.32-.7.66-.87c1.54-.74,3.06-1.51,4.64-2.14,1-.39,1.74.25,2.31.93s1.33,1.5,1,2.33C288.89,161.15,287.64,160.54,286.82,160.72Z"/><path class="cls-90" d="M272,164.45l-2.23-.48c1-.56,1-.56,4.18-.45A2.27,2.27,0,0,1,272,164.45Z"/><path class="cls-43" d="M91.92,83.32c-.19-2.09-7.83-3.57-8.45-3.95a32.25,32.25,0,0,0-5.94-3.1,90.38,90.38,0,0,1-15.35-6.9,76.68,76.68,0,0,0-12-5.75c-6.41-2.43-13.1-3.91-19.76-5.47A19.43,19.43,0,0,0,17.55,61c-2.22,1-2.93,2.95-3.07,5.12-.07,1.22-.74.67-1.27.68-.46.47-.87,1.37-.51,1.62,1.76,1.31.5,2.65.25,4a1.15,1.15,0,0,0,.34,1.29A9.66,9.66,0,0,1,19,68.52a31.75,31.75,0,0,1,5.46-1.64c-1.33-1.22,3.93.2,2.54.07l8.11,1.56a1.32,1.32,0,0,0-.59.37l6.21,2.53c.35.65,1.16.94,1.41,1.85a28.42,28.42,0,0,0-3-.7,40.24,40.24,0,0,0-10.52-3c-2-.27-4.27-1.35-6.33.14-1.6,1.16-1.48,2.64-.76,4.22,1-.14,2.84,2.71,5.65,3.87.57.24,1.18.39,1.75.62,3.59,1.49,6.93,1.5,10.4,3.24a.68.68,0,0,0,.32.4,8.13,8.13,0,0,1,3.2.91,6.85,6.85,0,0,1,2.23,3.52c.1.51.34,1.24,1.21,1,.58-1.09.48-2.34.88-3.46l0-.14a1.6,1.6,0,0,0,1.35-.35c2.38-1.62,4.78-1.22,7.25-.25a15.11,15.11,0,0,1,5.14,3.34c4.35,4.28,8.38,8.87,12.94,12.93a5.33,5.33,0,0,1,2,4.49s1.11,3.33,1.66,2.23a1.86,1.86,0,0,0,1.29,1.42,4.9,4.9,0,0,1,1.51-5.33,8.28,8.28,0,0,0,1.31-2.07,77.49,77.49,0,0,0,5-10h0c.43,0,.41-.38.48-.66-.15-1.07.48-2,.65-3C87.89,85.79,92,84.26,91.92,83.32ZM40.77,80.21l.07,0c-.08,0-.12,0-.11.13C40.79,80.64,40.5,80.29,40.77,80.21Zm1.64.38a10.36,10.36,0,0,0,4-.72,18.92,18.92,0,0,1,3.61-1,12.91,12.91,0,0,0-2.3.9c-1,.49-2.39.39-3,1.59a3.22,3.22,0,0,0-.5-.23A13,13,0,0,0,42.41,80.59Z"/><path class="cls-43" d="M52.84,78.8a25.46,25.46,0,0,0-8.21,2.81l-4.2-1.29c3.8.68,6.94-1.8,10.5-2.11C51.78,78.14,52.34,78.12,52.84,78.8Z"/><path class="cls-91" d="M14.92,61.49c.89.82,1.73-.32,2.61-.07-1.89,1.12-2.37,3-2.6,5-.07.62.31,1.58-.55,1.76s-.5-1.1-1.09-1.42c0-1.3,0-2.6,0-3.9C13.79,62.3,14.15,61.65,14.92,61.49Z"/><path class="cls-92" d="M150.18,310a53.61,53.61,0,0,0,4.13,20.5c.17.43.67,1-.09,1.35A33.85,33.85,0,0,1,148.41,313c-.12-4-1.71-7.82-2.56-11.74a70.37,70.37,0,0,1-2-15.66C146,293.74,148.74,301.71,150.18,310Z"/><path class="cls-93" d="M157.85,309.64c.9,2.54,2,5,2.13,7.85-.91-.08-1-.81-1.27-1.28-2.3-4.62-4.74-9.2-5.82-14.31-.13-.61-.67-1.26.12-1.81Z"/><path class="cls-6" d="M144.25,298.36v9h-.2v-9Z"/><path class="cls-77" d="M347.94,276.84c0,1.87.09,3.74,0,5.59-.19,3.44,1.14,6.37,2.88,9.18.23.37.92.63.47,1.17s-1.22.3-1.66-.1a13.7,13.7,0,0,1-4.08-5.75C344.29,283.15,345.79,280,347.94,276.84Z"/><path class="cls-30" d="M51.12,144.28c-.7,3.89-1.16,7.83-2.48,11.59-.27.46-.55.87-1.14.39-.17-1,.37-1.93.46-2.91a34.89,34.89,0,0,0,1.65-7.7C49.68,145.17,49.05,143,51.12,144.28Z"/><path class="cls-94" d="M52.06,130.52c.44,3.95,1,7.9-.44,11.78C52.25,138.39,51.89,134.45,52.06,130.52Z"/><path class="cls-95" d="M131.59,228.43c.53-.27,1.35-1.41,1.21.36-.06.74.51,1.2.62,1.86.06.39.3.83-.25,1s-.71-.22-.92-.6c-.45-.81.17-1.9-.66-2.61Z"/><path class="cls-67" d="M49.15,173.12c1.23.79.35,2.28,1.29,3.4A34.26,34.26,0,0,0,55,180.9c-2.52.09-3.73-1.94-5.36-3.29C48.85,176.18,48.34,174.72,49.15,173.12Z"/><path class="cls-67" d="M48.23,158.31c-.32,2.76-1.95,5.56.31,8.27a1.52,1.52,0,0,1-.17,1.72c-.25-.61,0-1.41-1.17-1.55-.9-.11-.89-1.36-1-2.21a16.74,16.74,0,0,1,.86-7C47.85,157.24,48,157.91,48.23,158.31Z"/><path class="cls-67" d="M48.29,169c-.79,1.2.69,2.16.37,3.31a2.93,2.93,0,0,1-1.84-2.88C46.87,168.26,47.5,168.16,48.29,169Z"/><path class="cls-96" d="M48.23,158.31c-.37-.27-.75-.53-1.13-.79.13-.42.26-.84.4-1.26l1.14-.39C48.51,156.68,48.37,157.49,48.23,158.31Z"/><path class="cls-97" d="M340.89,295.34c-.5.45.14,1.79-1.13,1.72-1.05-.06-1.5-.78-1.35-1.86s.76-1.34,1.72-1.27S341,294.64,340.89,295.34Z"/><path class="cls-98" d="M407.25,252.83c-4.21-2.16-15.09-9.07-4.64-9C398.4,246.1,404.65,249.76,407.25,252.83Z"/><path class="cls-99" d="M184.33,567.47a76.83,76.83,0,0,0-21-1.59h-5.29c3.05-1.62,6.21-1.72,9.38-1.87,1.64-.61,3.27-.92,4.87.2,3.5.53,7,1,10.51,1.62a5.8,5.8,0,0,1,2.83,1.36Z"/><path class="cls-10" d="M172.31,563.62l-4.87-.14c-1.17-.69-2.56,0-4.28-.8,5.21.24,9.9-.45,14.53.94Z"/><path class="cls-100" d="M400.32,251.93c.06-1.09-1.42-2.07-2.51-2.44h0c-3.33-3.63-9.14.48-12.37-1.26-.31-2.8,6.67-4.13,7-6.27-8.63-.3-12.24,11.53-15.28,10-2.79,2.8-1.21,6-1.81,9.29-8.71,9.2-.35,4.72,5.78,1.12,1.51,2,3.57-2.06,4.69,1.54a7.65,7.65,0,0,0,.58-.85s4.09-3.68,8.31-4.87c3.32-.93,5.43-1.25,4.52-4.87C399.73,252.85,400.29,252.38,400.32,251.93Z"/><path class="cls-84" d="M37,49.53c-1.27,0-2.26-.78-3.37-1.2a26.08,26.08,0,0,0-6-1.64c-1.6-1.16-3.6-.08-5.25-.93.2-1.15-1-.54-1.43-1.08a17,17,0,0,1,13.57,1.83c2,1.22,4.23,2.11,6.5,3.22C39.6,50.15,38.36,49,37,49.53Z"/><path class="cls-101" d="M54.45,63.18c-3.14-1.16-6.37-2.11-9.13-4.1.53-1.16-.58-1.43-1.13-1.88-1.73-1.46-3.91-2.14-5.85-3.29a9.8,9.8,0,0,1,8.71,3.46,20.5,20.5,0,0,0,6.37,5C53.79,62.54,54.41,62.54,54.45,63.18Z"/><path class="cls-82" d="M24.37,15.32c-1.27-.74-1.91-2.26-3.93-3.05,1.12,1.66,1.9,2.88,2.75,4,1.75,2.39,1.62,3.83-.94,5.1-1.55.77-1.45,1.7-1.1,2.94.4,1.41,1.07,2.83-.21,4.38A4.09,4.09,0,0,0,17.83,26c-1.81-.46-2.3-1.77-2.06-3.46a6.07,6.07,0,0,1,.38-1.37c2.85-7-.25-11.39-4.94-15.84h0c-1.21-2.6-1.86-2.65-5-.44A5.46,5.46,0,0,1,8.5,2.42,1.34,1.34,0,0,1,10,2.25,40.06,40.06,0,0,1,24.39,15.12C24.42,15.17,24.38,15.26,24.37,15.32Z"/><path class="cls-83" d="M11.21,5.37c-.32,3.47,1,6.7,1.5,10.06.25,1.67.67,3.33.94,5,.09.58.19,1.41-.58,1.56s-.94-.51-1.09-1.19C11,16.52,9,12.5,8.78,8a6.38,6.38,0,0,1,.49-3.17c.73-1.35,1.19.58,1.94.54Z"/><path class="cls-102" d="M82.65,78.37c-4.55-3.08-13.4-9.85-13.4-9.85s-3.59-2-5.06-2.73a61.37,61.37,0,0,0-6.79-3.54C46,55.82,43.72,51.56,29.67,49.09c-4.87-3-11-1-15.23,2.32,2.34,5.46,4.25-6.87,24.61,5.3,0,.66-.75,0-1.07.23h0c-4-1.44-8.56-4.37-12.87-3.73h0c-4.33.91-9,.84-12.69,3.54l0,1c3.21.85,6.27-1.61,9.45-2.08,6.25-.38-5.93,4.67-7,5.83.9,1.47,1.74-.15,2.61-.07,4.08-2.09,8.34-3.37,13-2.81C49.88,62.61,67.47,72.14,85,80.9l.31-.45C84.75,79.35,83.6,79,82.65,78.37ZM48,59.3a6.45,6.45,0,0,0,2.26,1.8,38.43,38.43,0,0,0-4.74-2C46.88,57,41.17,55,39.21,54.05,43,54.9,46,56.22,48,59.3Z"/><path class="cls-103" d="M274.59,153.44c2.84-2-.12-7.41-3.37-7.66s-8.48.16-9.49,5.24.3,15.66,3.19,15.7,2.88-4.62,2.88-4.62a12.14,12.14,0,0,1,5.25,1.56c3.06,2.16,6.83,1.7,5-1.07C275.92,159.42,273.89,153.94,274.59,153.44Z"/><path class="cls-84" d="M305.57,175.74a11,11,0,0,1,1.07,2.6,2.47,2.47,0,0,1-1.22,2.73c-.61.16-1.76.27-1.76-1.11,0-1.88,1.78-.84,2-2C305.93,176.05,305.57,175.74,305.57,175.74Z"/><path class="cls-102" d="M307,172.78c.73.06-.55.7-.55.7l-1.31-.95A16.4,16.4,0,0,0,307,172.78Z"/><path class="cls-104" d="M303.43,167.61s3.79,1.13,4.3,2.29c.41.94-2.32,1.59-3.52.75-.27-.19-2.63-2.24-2.63-2.24Z"/><path class="cls-105" d="M308.41,165.61a6.37,6.37,0,0,1,.12,1.41,9.61,9.61,0,0,1-.43,1.14l-5.28-.54Z"/><path class="cls-106" d="M303.51,170.61c-.39-.4-3.09-2.38-2.37-2.92,1.17-.88,2-.42,4.05-1.11s3.29-1.77,4-1.74a1.21,1.21,0,0,1-1.41,1.71,49,49,0,0,0-5.9,1.7c1.4,1.56,4.84,1.72,6.33,1.76.85,0-.08,1.68-.08,1.68S304.85,172,303.51,170.61Z"/><path class="cls-107" d="M310.6,143.14c-1.45-.24-3-1.38-4.23-1.15-2.63.5-4.89,4.2-7,4.17,1.11-1,2.62-3.38,4.3-4.28a15.53,15.53,0,0,1,2.72-1.6c1.85-.4,2.8,1,3.69,1.37a1.24,1.24,0,0,1,.62.49,2.13,2.13,0,0,1-.06.54C310.62,142.87,310.52,143.06,310.6,143.14Z"/><path class="cls-105" d="M308.63,144.74a5.84,5.84,0,0,1-.28,3.44c-.36.77-1.93.38-4.46.21-.84,0-2.54.38-1.7-.13C304.23,147,308.63,144.74,308.63,144.74Z"/><path class="cls-108" d="M308,148.37a1,1,0,0,1-1-1.13c.09-1,1.4-1.68,1.47-1.53C308.76,146.26,308.5,148.41,308,148.37Z"/><path class="cls-109" d="M308.47,147.12c-.05.57-.16.77-.46.75s-.57-.26-.52-.82.45-.85.75-.82S308.52,146.56,308.47,147.12Z"/><path class="cls-110" d="M302.85,148.1a2.42,2.42,0,0,1-2.1-.36,12,12,0,0,0,4.2-1.09,41.87,41.87,0,0,0,4-2.23l-.12,1.09a8.67,8.67,0,0,1-2.68,1.65A21.45,21.45,0,0,1,302.85,148.1Z"/><path class="cls-111" d="M301.39,148.68c.85-.43,3-.32,4.86-.15a6.4,6.4,0,0,0,2.55-.43c.26.58.77.85.47,1.72-.45-1.31-1.57-1-2.7-.75a8.74,8.74,0,0,1-2.65.08A14.24,14.24,0,0,1,301.39,148.68Z"/><path class="cls-112" d="M312.14,159.36s.32-1.19-.88-1.27a3,3,0,0,0-2.46,1.34C308.86,160.22,311.7,159.68,312.14,159.36Z"/><path class="cls-113" d="M307.15,155.63s-1.77.63-1.39,4.48c.08.79-1.32,4.39-2.27,6a2.57,2.57,0,0,1-2.7,1.28s2.82-2.38,3.41-4.26,1-4.24,1.11-4.76c.29-1-.41-2.88-1.28-4-1.82-2.27-4.8-3.64-4.16-4.05C301,149.65,306.92,155.25,307.15,155.63Z"/><path class="cls-114" d="M307.07,159.35c.52,0-.41,1.48-1,1.07s-.47-1.73-.38-2.24a5.29,5.29,0,0,1,1.2-2.37,4.4,4.4,0,0,1,.68-.42c.33-.15,1.22.22,1.22.22a1.42,1.42,0,0,0-1.24.08,3.11,3.11,0,0,0-1,1,4.31,4.31,0,0,0-.67,1.89C306,159.23,306.79,159.35,307.07,159.35Z"/><path class="cls-115" d="M300.9,124.16s6.72,6.23,6,11.29-10.42,8.77-14.7,11.49-8.28,7.72-3.95,10.74c8.1,5.65,1.82,13.35-7.32,15.59-3.25.8-5.54-7.77-8-4.47-2.79,3.75-14.54,19-17.78,19.95-.86.26-1-.26-.73-1.45.61-3.14,4.89-6.13,5.81-10.16,1.89-8.35.53-18.34.66-23.66.19-7.89,19.31-18.32,19.31-18.32l16-11.9Z"/><path class="cls-116" d="M303.65,155.19a6,6,0,0,0-4-3.4,7.76,7.76,0,0,1-3-4.3l4.14-5.29a2.86,2.86,0,0,0,.22-3c.24-.21.36-.32.31-.33a1,1,0,0,0-.43.06c-1-2.3-3.55-4.36-4.44-2.64-1.07,2.11-5.28,4.83-5.28,4.83-2.15,1.66-10.15-.08-10.89,2.56C279,148.1,286,156.92,286,156.91c.26.06,1,2,2.06,5.58.23.78-.15,5.32-3.22,6.13-2.26.6-9.36-2.16-12.92-3.41-1.26-.44-2.08-.69-2.07-.53s-5.56,25.67-4.68,26.18c.69.39,9.27-20.79,10.29-20.75s4.64,2.38,7,3.16,5.84.61,7.76.79c3.82.37,10.48-7.71,10.48-7.71a17.44,17.44,0,0,0,2.92-5.39C304.25,158.73,304.68,157.89,303.65,155.19Z"/><path class="cls-117" d="M290,126.81c1.42.65,2.82,1.33,4.25,2,.49.21.88.48.78,1s-.7.54-1.16.58a6.39,6.39,0,0,1-3.22-.35c-.8-.36-1.5-.7-2.17.11a1.59,1.59,0,0,0-.17,1.75,2,2,0,0,0,2.26,1c.6-.08,1.17-.35,1.78-.06.39.18,1.11-.12,1.07.62,0,.43-.5.58-.92.67-2.19.47-4.34,1.2-6.62,1.08,1.9-.78,1.94-2.41,1.86-4.09C287.67,129.23,287.91,127.53,290,126.81Z"/><path class="cls-102" d="M255.45,175.5s-1.86,19.09,1.69,22.2,6.41,12.09,6.41,12.09-1.57-.24-7.37-7.62c-6.42-8.15-3.64-28.23-3.64-28.23Z"/><path class="cls-118" d="M283,152.8c3.13,1.34,3.41,4.72,5.31,5.84,3.12,1.85,4.47-2,7.35-1.74s5,4.65,3,6.85c-3.84,4.29-9.45,7.14-15,4.18-1.92-1-6.17-6.29-6.35-10C277.12,153.41,282.59,152.61,283,152.8Z"/><path class="cls-119" d="M275.13,168.27c1.77,1,9.7,6.6,12.94,9.91,4,4.11,10.69,2.51,13.62,2.07,1.43-.22,1.55.34,4.54-.06-.94,1.72-3,1.88-5.13,1.61-1.4-.18-8.57,1.06-10.94-.12-3.41-1.71-12.44,4-14.64,8-1.78,3.24,1.61,28.95-3.69,25.21-2.3-1.63-22-13.58-16.28-26.58a26.46,26.46,0,0,1,11.24-12.27C272.62,171.76,273.48,169,275.13,168.27Z"/><path class="cls-120" d="M278.74,168.54c6.53,11.16,22.69,12.61,18.18,13.31-6.09.94-13.29-4.7-17.46-9.26-.62-.68-2-2.75-3.14-3-1.61-.34-3,1.31-4,1-.66-.2-.2-1.19-.2-1.4C272.16,169.24,277.41,166.27,278.74,168.54Z"/><polygon class="cls-121" points="270.07 206.22 275.34 189.48 273.53 214.52 267.37 214.28 270.07 206.22"/><path class="cls-8" d="M303.16,182c-1.6,0-16.69,2-25.2-6.21-1.47-1.43-3.11-2.22-4.37-1.82-2.1.67-5.88,11.73-6.18,12.67-.69,2.15-2.33,7.23-1.87,4.67.26-1.49,2.57-10.69,2.68-11.13,1.07-4.16,5.44-12.45,6.4-11.14,1.08,1.49,2.58,3.63,3.46,4.61,2.33,2.63,9.28,7.05,18.8,6.84,5.93-.14,7.95-.15,8.93,0S305,182.05,303.16,182Z"/><path class="cls-43" d="M255.65,180.2s6.94-7.17,9-14.19c.25-.85,1.41,1.92,3.51,1.46,3.26-.73,7.74-4.36,5.68-7-2.92-3.78.73-6.64.37-9.07-.85-5.56-8.31-3.26-8.83-2.66-3.22,3.75-9.54,28.15-10.3,27.71-1-.61.06,3.94.06,3.94Z"/><path class="cls-6" d="M308.76,126.68c-1.06-1.87-.93-3.86-.63-5.88a3.2,3.2,0,0,0-.52-2.17c-2-3-3.65-6.2-6.29-8.78a40.67,40.67,0,0,0-7.24-5.24,17.55,17.55,0,0,0-7.62-4.63,20.28,20.28,0,0,0-5,.16c-1,.19.16,0,0-.26-.34-.69-.83-.53-1.35-.43a11.91,11.91,0,0,1-5.63-.13c-4.08-1.38-7.75,0-11.39,1.7a10.36,10.36,0,0,1-2.32.84c-3.15.85-6,2.14-7.8,5.11a4.73,4.73,0,0,1-1.73,1.71c-3,1.6-5,4.13-6.92,6.79-1.13,1.49,0,2.78-1.5,4-2.75,1.68-3.22,4.23-2.68,7.15.06.22.61.54,1.15.86-.08,1.43-.07,3,0,4.77-1.19,3.31-2.7,7.79-1,11.05a9,9,0,0,0,1.45,2c0,1.75,0,3.55,0,5.37-.07,2.51,5,5.35,4.31,7.91-.6,2.34,3.84.45,2.51,2.93-5.47,10.2-10.74,27.36-1.65,26.47,3.06-.29,3.51-7.91,8.24-11.49s5.86-6.51,5.86-6.51,2.79-5.55,1.39-7.82c-.44-2.85,1.57-7.46,2.14-10.08.54-2.43,1.26-3.13,3.8-3.6a5.26,5.26,0,0,0,.89-.07c1.94-.66,3.14.57,4.38,1.69,1.62,1.23,1.1,5.33,2.61,6.7s4.3-1.06,5.86-2.53a9.54,9.54,0,0,0,1-1,4.26,4.26,0,0,0,.34-.49c.68-1.26,1.85-2.93.74-3.93-1.94-1.74-.92-2.72.27-4,1.52-1.79,4-1.92,5.73-3.41a9.85,9.85,0,0,1,1.18-1.15c2-1.28,4.49-1.94,5-4.77h0c1.71-1.33,2.28-3.34,2.73-5.24,1-4.48.93-4.5,5.49-3.6a1.43,1.43,0,0,0-.16-.24,3.68,3.68,0,0,1,.68.48C306.34,127.32,309.14,128.41,308.76,126.68Zm-17.34.54c.91,1.15,2.56,1.37,3.67,2.56a5.14,5.14,0,0,1-3.32-.28,4.38,4.38,0,0,0-2.23-.2A3.71,3.71,0,0,1,291.42,127.22Zm-2.21,5.56a5.05,5.05,0,0,0,1.88.64c.65.09,1.32-.23,2.15.22-1.73.46-3.39.73-5,1.1A3.29,3.29,0,0,0,289.21,132.78Z"/><path class="cls-6" d="M143.48,551.21a3.17,3.17,0,0,0,.28-2,2,2,0,0,1,1.07-2.4c1.13-.58,1.16-1.28.68-2a1.67,1.67,0,0,0,.63.1c.43-.07.9-.25.71-.74-.69-1.72.45-1.54,1.49-1.52l1.2,0a10.94,10.94,0,0,0,3.41-.47,12.59,12.59,0,0,0,1.78-.64c3.06-2.43,7-3.25,10.21-5.32,2-1.15,2.53-5.91,3.36-5.3.28-2-1.07-3.43-1.58-5.13-1.34-4.48-2.24-9.1-3.4-13.64-.58-2.24.34-4.62-.79-6.78h0l-.48-5.74a9.73,9.73,0,0,0,0-1.43,102.74,102.74,0,0,1-1.13-14.63c-.07-5.34-.77-10.61-1.06-15.91-.08-1.53.33-3.26-.62-4.73a11.57,11.57,0,0,0-.22-4.83c-.43-2.23-1.39-4.34-1.55-6.64,0-5.33,1.38-10.4,2.85-15.44a47,47,0,0,0,1.7-16.42c.6-4.36.22-8.76.45-13.13h0a36.92,36.92,0,0,1,.09-4.71,107.05,107.05,0,0,0,1.2-15.48c1.12-2.23.14-4.7.76-7h0A80.58,80.58,0,0,0,166,365.75c.31-4.64.14-9.32.09-14,0-2.11-.42-4.23-.35-6.34.06-1.65.32-3.84,1.75-4.47s2.77,1,3.88,2.1a9.45,9.45,0,0,1,1.42,1.48c1.81,2.9,4.46,5,6.95,7.23,2,1.82,4,3.74,6,5.6,1.18,1.1,2.36,1.27,3.26.63a1.07,1.07,0,0,0,.64-.57l.38-.44c0-2,1.17-3.29,2.5-4.49,3.5-3.17,7.4-5.86,10.78-9.17a17.16,17.16,0,0,0,1.48-1.35,99.67,99.67,0,0,1,8.51-7.39c3.25-2.71,6.25-5.69,9.24-8.67,1.65-1.51,3.78-2.19,5.66-3.3,4.3-2.56,8.41-5.43,12.65-8.09,2.72-1.7,5.7-3.12,7.93-5.46,5.9-6.19,13.45-10.33,19.71-16.06a46.38,46.38,0,0,0,5.87-5.34,4.55,4.55,0,0,1,2.67-1.73c2.83-.07,4.21,2.06,5.84,3.83,3,3.72,5.95,7.51,10.46,9.59a8.64,8.64,0,0,1,3.48,2.79c.25.44.6.81.33,1.48a2.65,2.65,0,0,0,2.46,3.37c2.05,0,3.84,1.37,5.94,1.31.39,0,.54.55.7.93a6.84,6.84,0,0,0,4.24,3.87c3.47,1.29,6.19,4.22,10.11,4.54.37,0,.68.43,1,.64a8.51,8.51,0,0,0,5.53,1.18,3.32,3.32,0,0,0,1.1-.58,4.48,4.48,0,0,1,2.22-1.74,7.29,7.29,0,0,0,4.59-3.13,2.13,2.13,0,0,1,1-.66,7.65,7.65,0,0,0,1.85-1.45c4-3.58,8.27-6.78,12.41-10.17a13.72,13.72,0,0,0,4-4.3c0-.95-.69-1.25-1.43-1.51a13.8,13.8,0,0,1-5.5-3.83c-2.67-3-3-6.58-3.15-10.34-.08-2.27,1.34-3.46,2.64-4.84a1.88,1.88,0,0,0,.47-1.45c-.38-1-1.15-.67-1.87-.52-1.46.3-2.39,1.47-3.58,2.21-2,1.37-4.13,2.56-6.26,3.73a23.4,23.4,0,0,1-3,1.34c-2.62,1.14-3.72.71-5-1.86a19.35,19.35,0,0,0-1.2-2.36c-1.63-2.35-2.51-5.16-4.51-7.27-2.47-.58-3.56-2.36-4-4.68a13,13,0,0,0-5.21-8.58,20.12,20.12,0,0,1-6.4-8.65,7.56,7.56,0,0,0-2.73-4.63,5.87,5.87,0,0,1-1.95-3.49,11.31,11.31,0,0,0-1.24-3.84,22.43,22.43,0,0,1-3.15-7.21,2.81,2.81,0,0,0-.27-.55c-2.43-3.79-6.21-6.56-8-10.86a28.1,28.1,0,0,0-4.21-7.25c-3.2-3.88-11.15-14.13-9.75-18.83a2.9,2.9,0,0,0,.2-.87L270,193.05c-.18.45,3.67.92,3.69,1.39.24,5.47-1,10.86-.88,16.32a7.84,7.84,0,0,1-.8,4c-.3.57-.56,1.38-1.5.79-.25-.19-.5-.38-.77-.55a2.51,2.51,0,0,1-1.58-2.61,15.85,15.85,0,0,0-2.7-7.66c-1.28-2.11-2.86-4-4.29-6-2.95-5.8-8.74-11.94-8.92-18.46,0-.85,2.13-9.81-.32-11.5-4.35-3-14.59,1.17-15.8,2a5.48,5.48,0,0,1-6.37-.13,23.38,23.38,0,0,1-3.43-3.53,31.66,31.66,0,0,0-4.43-4.23,30.09,30.09,0,0,0-6.34-4,21.88,21.88,0,0,1-6.14-5c-1.29-.18-2.12-1.23-3.23-1.74-.75.58-1.09-.16-1.55-.49a31.48,31.48,0,0,0-9.84-4.93c-3.44-1-7.07-1.75-10-4l-.83-.41a12.74,12.74,0,0,0-4-1.25c-3.16-.41-3.59-.89-3.77-4.25a2.55,2.55,0,0,0-.6-1.69c-2.75-2.92-1.87-4.06-6.45-2.5a3.84,3.84,0,0,1-1,.09h-.6c-2.81-1-4.36-3.2-5.22-6-.37-1.17-1.42-1.76-2.25-2.55-1.38-.78-2-2.55-3.61-3A6.94,6.94,0,0,0,152,119.3c-.84,0-1.34.26-.79,1s0,.83-.35,1c-.66.43-.71-.4-1.07-.61h0c0-1-.08-2-.11-3s0-1.76-1.25-1.84c-.4-.14-.65-.7-1.2-.46-.55-.72-1.12-.32-1.69,0-2.49-1.06-3.67-3.24-4.45-5.59-.36-1.06-.74-1.38-1.79-1.47-2-.16-4.29,0-6-.88-5.09-2.52-10.09-5.29-13.78-9.81A6.88,6.88,0,0,0,115.27,95a7.22,7.22,0,0,1-2.06-.87c-6-3.1-11.54-7-17.15-10.8l-1-.24-.33-.35c-1.55-1.81-3.37-1-5.15-.54-1.48.35-1.22,1.18-.65,2.14,0,.07-.1.24-.17.35-.91,1.4-1.15,3.09-1.93,4.54a5.76,5.76,0,0,1-.68,1,3.43,3.43,0,0,0-.53.86,54.72,54.72,0,0,1-6.69,12.36,3.8,3.8,0,0,0-.28,4.24c2.61,1,3.86,3.39,5.69,5.19,2,1.61,4,3.26,6.14,4.69q1.95,1.39,3.84,2.87l2,1.73c3.67,3.15,8,5.33,11.68,8.51,1.42,1,2.1,2.87,3.84,3.62a5.15,5.15,0,0,1,3.08,3.86,2.42,2.42,0,0,0,2.55,2.16c1,0,1.9.22,2.85.26,2.32.1,3,.58,3.67,2.77.23.71.3,1.48.59,2.17.9,2.16,1.83,4.45,4.37,5,1.76.41,2.72,1.21,2.87,3a5.74,5.74,0,0,0,2.27,1.48c2.18.62,4.35,1.22,6.65.74a4.61,4.61,0,0,0-1.59.73c-3.1,2.71-3.09,5.27,0,7.84a15.56,15.56,0,0,0,1.33,1,18.13,18.13,0,0,0,8.89,3.12c2.71,0,3.35,2.39,4.58,4.07.93,1.32,1.83,2.66,2.8,3.95A64.85,64.85,0,0,0,172.89,190c1.11.81,2.08,1.8,3.26,2.51.87,1.11,2,2,2.88,3.09s2.26,1.82,2,3.51c.29,2.18-.59,4-1.79,5.7a15,15,0,0,0-3.08,7.93,44.14,44.14,0,0,1-.6,6.7,5.79,5.79,0,0,1-1.4,2.91,45.26,45.26,0,0,0-3.93,4.68c-1.59,2.19-4.18,2.51-6.75,1.12a20.6,20.6,0,0,0-2.31-1.25,4.74,4.74,0,0,0-4.36,1.16c-.76.62-1.56,1.71-2.64,1.31-1.83-.68-3.78-.45-5.61-1-1.86-.9-3.72-1.83-5.87-.88-1.84.82-3.52.87-5-.79a2.17,2.17,0,0,0-2.83-.47c-1,.6-.93,1.63-.75,2.59.44,2.28.12,4.63.6,6.95-.63-.59-1-1.36-1.67-1.81a5.46,5.46,0,0,1-2.16-1.74c-1.24-1.51-2.51-3-4.58-3.45s-4.16.05-6.23-.29a3.4,3.4,0,0,1-3.62-1.33,12.18,12.18,0,0,0-2.55-2.06c-2.71-1.86-5.66-3.32-8.37-5.2-3-2.1-5.89-4.49-9-6.47-4.34-2.75-8.6-5.61-12.91-8.42-1.78-1-3.46-2.22-5.16-3.38-6.48-4.38-13.3-8.27-19.27-13.38-1.92-1.64-3.94-3.24-4.64-5.88a3,3,0,0,0-1.82-1.87,6,6,0,0,1-3-3.22c-1.41-3.08-3.35-6-2.88-9.65a5.78,5.78,0,0,0-.52-2.61,5.32,5.32,0,0,1-.19-2.44,76,76,0,0,1,2.31-10.2c1.07-3.9,1.34-7.95,2.32-11.87a20,20,0,0,0,.42-5.89,75.37,75.37,0,0,0-1.26-8.5c-1.54-9.32-2-18.78-3.41-28.12C45.7,92.94,45,87.86,43.28,83c-.84-1.18-2.11-1.34-3.41-1.44-6.14-.15-10.92-4-16.38-6-.37-.13-.58-.57-.86-.87-1.92-2.08-1.87-3.45.16-4.6,2.63-.94,5.22-.22,7.76.36,2.91.66,5.73,1.66,8.62,2.43.83-.25,1.7-.46,1.79-1.56-1.86-1.55-4.24-1.94-6.4-2.82-3.29-.85-6.5-2.06-10-2-.53.15-1.08.18-1.61.31-4.16,1.09-8.14,2.48-10.14,6.8a3.87,3.87,0,0,0-.41.93c-1-.51-.52-2-1.31-2.62-.09.24-.32.52-.26.72a102.76,102.76,0,0,1,2.41,12.78.84.84,0,0,0,.56-.28,2.89,2.89,0,0,1-.2,1.28c-.19,1.3-.53,2.58-.73,3.87-.15,7.07-2.36,13.86-2.91,20.87-.17,2.11-1.23,4.1-1.06,6.21a24.19,24.19,0,0,1-.56,7.76c-1.23,5-1.44,10-1.88,15.06-.73,5.14-1.22,10.32-2.28,15.41a142.83,142.83,0,0,0-3,21.1c0,.34,0,.69,0,1-.71,3-.1,5.79.84,8.6.13.62.34,1.22.47,1.84,1.31,4.44,3.84,8.23,6.34,12,4.42,7.3,10.26,13.57,14.86,20.73.45.7,1,1.38,2,1,1.25-1.08.75-2.19,0-3.29-1.91-2.94-4.17-5.62-6.2-8.48-1-1.46-2.3-2.77-.85-4.71.34-.45.16-1.21.16-1.82-.05-5.56-.63-11.1-.45-16.66a8.75,8.75,0,0,0-.31-2c-.9-4.71-4.3-7.51-7.77-10.26-2.31-1.83-4.17-1.3-5.15,1.55a14.12,14.12,0,0,0-.89,4.92c-.12-2.56.55-5.09.65-7.65a48.18,48.18,0,0,1,1-10,81.11,81.11,0,0,0,1.56-8,168.83,168.83,0,0,0,2.19-17.9c.21-4.11.77-8.17,1.22-12.24,1.45-12.85,4.25-25.48,5.92-37.54,0,1.41-.55,3.49-.76,5.62-.6,6.28-1.47,12.54-2,18.83a86.81,86.81,0,0,0,.08,10.7,1.37,1.37,0,0,0,.81,1.33c.68.28,1.18-.12,1.63-.58a3.34,3.34,0,0,0,.69-1c.79-1.87,2-2.69,4.07-1.83a3.8,3.8,0,0,0,1.22.18,7.39,7.39,0,0,1,6.24,4.1,21,21,0,0,1,2.84,10.84c0,8.78.39,17.57-1.06,26.32-.5,3-.65,5.82-3.68,7.48-.79.43-.69,1.22.1,1.62a4.88,4.88,0,0,1,3,3.87,2.41,2.41,0,0,0,1.15,1.41,3.09,3.09,0,0,1,1,1.48c.75,2,3.42,2.43,4,4.66,0,.19-.1,0,.16.09,4,1,7,3.43,9.78,6.21,2.52,2.48,6,3.75,8.4,6.27,5.33,5.55,11.32,10.41,16.38,16.24,9.22,10.65,20.87,18.15,32.94,25.06,1.85.77,3.72,1.59,5.75,1.28,7.55-1.17,13.37,1.63,18,7.5,1.13,1.44,2.15,3.09,3.77,4a3.76,3.76,0,0,1,2,2.89c.72,4.05,1.56,8.09,2,12.17.3,2.5,1.15,4.91,1.24,7.68-1.81-.82-2.86,0-3.79,1.28a5.21,5.21,0,0,1-3.31,2.26c-7.07,1.18-14,1.52-20.73-1.79A146.64,146.64,0,0,1,85.33,259.1c-5.17-4-10.3-8-16.11-11.06a62.88,62.88,0,0,1-15.93-12.26c-2.57-2.68-5.48-5-8.09-7.63-2-2-4.19-2-6.42-.18a9.79,9.79,0,0,0-1.65,1.22c-1.1,1.38-1.79.74-2.46-.38-.78-1.3-1.18-2.78-1.85-4.13-.24-.48-.46-1.11-1.17-.9s-.66.83-.67,1.37a10.73,10.73,0,0,0,.6,3,8.94,8.94,0,0,1,.69,2.78,3,3,0,0,0,1.28,2,45.17,45.17,0,0,1,6.77,7.12c.69.82,1.42,1.71,2.71,1.53.53-1.81-.8-3-1.41-4.4a18.85,18.85,0,0,1,2.63,5.27,6.58,6.58,0,0,0,1.7,2.54c2.62,2.41,5,5.06,7.51,7.57,5.33,5.3,10.92,10.4,15.46,16.46a69.45,69.45,0,0,0,6.73,7.81c2.08,2.75,4.75,4.95,7.08,7.47a65.13,65.13,0,0,0,7.66,6.71c3.86,2.82,6,6.47,5.63,11.4a19.91,19.91,0,0,0,.78,6.47c0,.24.09.47.13.71a5.16,5.16,0,0,0,.15,1.36c.3,1.4.55,2.81.77,4.23.46,3.27.8,6.57,1.12,9.86q.25,3.33.46,6.67c.21,3.1.61,6.2,1.08,9.28.51,3.38,1.2,6.73,1.82,10.09l-.07-.06c-1.17,1,.19,2.08,0,3.11,0,.56-.19,1.16.3,1.62a149.58,149.58,0,0,0,3.84,16.47h0a34.7,34.7,0,0,0,2,7.91h0a42.36,42.36,0,0,0,2.31,12.23,213.37,213.37,0,0,1,10.44,40.3c1.31,8.43.26,16.83-.46,25.23-.51,6-.59,12,.79,18,2.27,9.78,5.74,19.17,9,28.64,2.18,6.41,4.7,12.77,5.19,19.62a39.45,39.45,0,0,0,4.45,16.53c1.58,2.86,2.68,5.94,2.1,9.27m5-434.56h0ZM110.55,387.58h0a1.52,1.52,0,0,1,.24.4l0,.08Q110.7,387.82,110.55,387.58Zm52.34-44.31c-.92-.72-1.88-1.38-2.85-2a27.07,27.07,0,0,1-8.07-7.52,15.19,15.19,0,0,0-2.95-3.15,16.07,16.07,0,0,1-4.51-6.76,52.07,52.07,0,0,1-2.89-15.51c-.19-3-.8-6-.35-9,.62-4.07.14-8-.34-12.08-.53-4.46-1.23-8.93-.23-13.44a2.51,2.51,0,0,0-.68-2.47c-.75-.54-1.31-.69-1.55-.2-.17-1,.29-1.52,1.27-1.88.2-.38,0-.87.39-1.43a80.05,80.05,0,0,0,6.76,16.3c5.53,10.44,11.54,20.6,17.5,30.79,3.47,5.93,7.05,11.79,10.13,17.93,1.29,2.56.89,3.59-1.61,5-1.43.88-2.86.48-4.33.07-2.47-.69-3.35-.35-4.64,1.64-.16.62-.28,1.28.44,1.56.46.17.76-.1,1-.43a14.11,14.11,0,0,0-.52,2C164.46,344.41,164.41,344.47,162.89,343.27Zm22.37,12.24c.23.28.46.55.71.8A6.05,6.05,0,0,1,185.26,355.51Z"/><path class="cls-120" d="M274.58,178.34a15.38,15.38,0,0,0-5.77,10.87c-.76,7.47-.85,5.1-.85,5.1s2.8-11.47,5.35-13.42S274.58,178.34,274.58,178.34Z"/><path class="cls-122" d="M169,537.94s1,6.27,3.07,8,6.61,5.58,11.28,6.6,20.63,2.74,22.57,5.36,8.77,8.82,9.06,10.34,3.3,1.45,1.85-.51-7.47-7.51-8.86-10.4c-1.71-3.53-24.32-4.52-29.48-9.38s-10.41-15.12-10.41-15.12Z"/><path class="cls-123" d="M399.41,250.32c2,1.81,12.25,6.36,4.72,7.29a20,20,0,0,0-13.86,2.45c-2.66,1.68-9.74,2.91-9.12,2.57s8.92-4.29,9.61-4.57C394.63,256.46,399.14,255.3,399.41,250.32Z"/><path class="cls-5" d="M434,239.8s1.71-.14,12.45-2.13c5.45-1,13.43,1.24,13.21-6.81-1.68,1.62-.68,5.09-3.81,5.07-15.82,1.83-31.65,3.86-47.44,5.17l-1.27.72.38.46,4.75-.61Z"/></g></g></svg>